<svg width="37" height="37" viewBox="0 0 37 37" fill="none" xmlns="http://www.w3.org/2000/svg">
<circle cx="18.5" cy="18.5" r="18.5" fill="#EC9304"/>
<g clip-path="url(#clip0_277_7367)">
<path d="M18.9996 15.6714C17.1568 15.6714 15.6711 17.1714 15.6711 19C15.6711 20.8286 17.1711 22.3286 18.9996 22.3286C20.828 22.3286 22.328 20.8286 22.328 19C22.328 17.1714 20.828 15.6714 18.9996 15.6714ZM28.9991 19C28.9991 17.6143 28.9991 16.2571 28.9277 14.8714C28.8563 13.2714 28.4848 11.8429 27.3135 10.6857C26.1421 9.51429 24.7279 9.14286 23.1279 9.07143C21.7423 9 20.3852 9 18.9996 9C17.6139 9 16.2568 9 14.8712 9.07143C13.2712 9.14286 11.8427 9.51429 10.6856 10.6857C9.51426 11.8571 9.14285 13.2714 9.07143 14.8714C9 16.2571 9 17.6143 9 19C9 20.3857 9 21.7429 9.07143 23.1286C9.14285 24.7286 9.51426 26.1571 10.6856 27.3143C11.857 28.4857 13.2712 28.8571 14.8712 28.9286C16.2568 29 17.6139 29 18.9996 29C20.3852 29 21.7423 29 23.1279 28.9286C24.7279 28.8571 26.1564 28.4857 27.3135 27.3143C28.4848 26.1429 28.8563 24.7286 28.9277 23.1286C29.0134 21.7571 28.9991 20.3857 28.9991 19ZM18.9996 24.1286C16.1568 24.1286 13.8712 21.8429 13.8712 19C13.8712 16.1571 16.1568 13.8714 18.9996 13.8714C21.8423 13.8714 24.1279 16.1571 24.1279 19C24.1279 21.8429 21.8423 24.1286 18.9996 24.1286ZM24.3422 14.8571C23.6851 14.8571 23.1422 14.3286 23.1422 13.6571C23.1422 12.9857 23.6708 12.4571 24.3422 12.4571C25.0136 12.4571 25.5421 12.9857 25.5421 13.6571C25.5457 13.8136 25.5172 13.9692 25.4582 14.1142C25.3992 14.2592 25.3111 14.3905 25.1993 14.5C25.0898 14.6118 24.9584 14.7 24.8135 14.7589C24.6685 14.8179 24.5129 14.8465 24.3565 14.8429L24.3422 14.8571Z" fill="#FFEFC8"/>
</g>
<defs>
<clipPath id="clip0_277_7367">
<rect width="20" height="20" fill="white" transform="translate(9 9)"/>
</clipPath>
</defs>
</svg>
