<svg width="37" height="37" viewBox="0 0 37 37" fill="none" xmlns="http://www.w3.org/2000/svg">
<circle cx="18.5" cy="18.5" r="18.5" fill="#EC9304"/>
<g clip-path="url(#clip0_277_7368)">
<path d="M26.7778 9C27.3671 9 27.9324 9.23413 28.3491 9.65087C28.7659 10.0676 29 10.6329 29 11.2222V26.7778C29 27.3671 28.7659 27.9324 28.3491 28.3491C27.9324 28.7659 27.3671 29 26.7778 29H11.2222C10.6329 29 10.0676 28.7659 9.65087 28.3491C9.23413 27.9324 9 27.3671 9 26.7778V11.2222C9 10.6329 9.23413 10.0676 9.65087 9.65087C10.0676 9.23413 10.6329 9 11.2222 9H26.7778ZM26.2222 26.2222V20.3333C26.2222 19.3727 25.8406 18.4513 25.1613 17.772C24.482 17.0927 23.5607 16.7111 22.6 16.7111C21.6556 16.7111 20.5556 17.2889 20.0222 18.1556V16.9222H16.9222V26.2222H20.0222V20.7444C20.0222 19.8889 20.7111 19.1889 21.5667 19.1889C21.9792 19.1889 22.3749 19.3528 22.6666 19.6445C22.9583 19.9362 23.1222 20.3319 23.1222 20.7444V26.2222H26.2222ZM13.3111 15.1778C13.8062 15.1778 14.281 14.9811 14.631 14.631C14.9811 14.281 15.1778 13.8062 15.1778 13.3111C15.1778 12.2778 14.3444 11.4333 13.3111 11.4333C12.8131 11.4333 12.3355 11.6312 11.9833 11.9833C11.6312 12.3355 11.4333 12.8131 11.4333 13.3111C11.4333 14.3444 12.2778 15.1778 13.3111 15.1778ZM14.8556 26.2222V16.9222H11.7778V26.2222H14.8556Z" fill="#FFEFC8"/>
</g>
<defs>
<clipPath id="clip0_277_7368">
<rect x="9" y="9" width="20" height="20" rx="3" fill="white"/>
</clipPath>
</defs>
</svg>
