<svg width="37" height="37" viewBox="0 0 37 37" fill="none" xmlns="http://www.w3.org/2000/svg">
<circle cx="18.5" cy="18.5" r="18.5" fill="#EC9304"/>
<path d="M17.8739 19.9123C17.8739 19.4123 17.4505 19 16.9369 19C16.4234 19 16 19.4123 16 19.9123C16 20.1542 16.0987 20.3863 16.2744 20.5574C16.4501 20.7284 16.6884 20.8246 16.9369 20.8246C17.1854 20.8246 17.4237 20.7284 17.5995 20.5574C17.7752 20.3863 17.8739 20.1542 17.8739 19.9123ZM20.8829 21.9912C20.4775 22.386 19.6126 22.5263 19 22.5263C18.3874 22.5263 17.5225 22.386 17.1171 21.9912C17.0952 21.9684 17.0687 21.9502 17.0393 21.9377C17.0098 21.9253 16.978 21.9188 16.9459 21.9188C16.9138 21.9188 16.8821 21.9253 16.8526 21.9377C16.8232 21.9502 16.7967 21.9684 16.7748 21.9912C16.7513 22.0126 16.7326 22.0384 16.7198 22.067C16.707 22.0957 16.7004 22.1266 16.7004 22.1579C16.7004 22.1892 16.707 22.2201 16.7198 22.2487C16.7326 22.2774 16.7513 22.3032 16.7748 22.3246C17.4144 22.9474 18.6396 23 19 23C19.3604 23 20.5856 22.9474 21.2252 22.3246C21.2487 22.3032 21.2674 22.2774 21.2802 22.2487C21.293 22.2201 21.2996 22.1892 21.2996 22.1579C21.2996 22.1266 21.293 22.0957 21.2802 22.067C21.2674 22.0384 21.2487 22.0126 21.2252 21.9912C21.1351 21.9035 20.982 21.9035 20.8829 21.9912ZM21.0631 19C20.5495 19 20.1261 19.4123 20.1261 19.9123C20.1261 20.4123 20.5495 20.8246 21.0631 20.8246C21.5766 20.8246 22 20.4123 22 19.9123C22 19.4123 21.5856 19 21.0631 19Z" fill="#FFEFC8"/>
<path d="M19 9C13.48 9 9 13.48 9 19C9 24.52 13.48 29 19 29C24.52 29 29 24.52 29 19C29 13.48 24.52 9 19 9ZM24.8 20.33C24.82 20.47 24.83 20.62 24.83 20.77C24.83 23.01 22.22 24.83 19 24.83C15.78 24.83 13.17 23.01 13.17 20.77C13.17 20.62 13.18 20.47 13.2 20.33C12.69 20.1 12.34 19.59 12.34 19C12.3385 18.7132 12.4218 18.4324 12.5794 18.1929C12.737 17.9533 12.9619 17.7656 13.2258 17.6534C13.4897 17.5413 13.7808 17.5096 14.0627 17.5623C14.3446 17.6151 14.6045 17.75 14.81 17.95C15.82 17.22 17.22 16.76 18.77 16.71L19.51 13.22C19.52 13.15 19.56 13.09 19.62 13.06C19.68 13.02 19.75 13.01 19.82 13.02L22.24 13.54C22.3221 13.3736 22.4472 13.2321 22.6023 13.1304C22.7575 13.0286 22.9371 12.9702 23.1224 12.9612C23.3077 12.9522 23.4921 12.993 23.6564 13.0793C23.8207 13.1656 23.9589 13.2943 24.0566 13.452C24.1544 13.6097 24.2082 13.7907 24.2125 13.9762C24.2167 14.1617 24.1712 14.345 24.0808 14.507C23.9903 14.669 23.8582 14.8039 23.698 14.8976C23.5379 14.9913 23.3556 15.0405 23.17 15.04C22.61 15.04 22.16 14.6 22.13 14.05L19.96 13.59L19.3 16.71C20.83 16.76 22.2 17.23 23.2 17.95C23.3533 17.8036 23.5367 17.6925 23.7375 17.6244C23.9382 17.5563 24.1514 17.5329 24.3621 17.5558C24.5728 17.5787 24.776 17.6474 24.9574 17.757C25.1388 17.8667 25.2941 18.0146 25.4123 18.1905C25.5306 18.3664 25.609 18.5661 25.642 18.7754C25.6751 18.9848 25.662 19.1989 25.6037 19.4027C25.5454 19.6064 25.4432 19.795 25.3044 19.9552C25.1656 20.1154 24.9934 20.2433 24.8 20.33Z" fill="#FFEFC8"/>
</svg>
