<svg width="37" height="37" viewBox="0 0 37 37" fill="none" xmlns="http://www.w3.org/2000/svg">
<circle cx="18.5" cy="18.5" r="18.5" fill="#FFEFC8"/>
<g clip-path="url(#clip0_291_19423)">
<path d="M25.7778 9C26.3671 9 26.9324 9.23413 27.3491 9.65087C27.7659 10.0676 28 10.6329 28 11.2222V26.7778C28 27.3671 27.7659 27.9324 27.3491 28.3491C26.9324 28.7659 26.3671 29 25.7778 29H10.2222C9.63285 29 9.06762 28.7659 8.65087 28.3491C8.23413 27.9324 8 27.3671 8 26.7778V11.2222C8 10.6329 8.23413 10.0676 8.65087 9.65087C9.06762 9.23413 9.63285 9 10.2222 9H25.7778ZM25.2222 26.2222V20.3333C25.2222 19.3727 24.8406 18.4513 24.1613 17.772C23.482 17.0927 22.5607 16.7111 21.6 16.7111C20.6556 16.7111 19.5556 17.2889 19.0222 18.1556V16.9222H15.9222V26.2222H19.0222V20.7444C19.0222 19.8889 19.7111 19.1889 20.5667 19.1889C20.9792 19.1889 21.3749 19.3528 21.6666 19.6445C21.9583 19.9362 22.1222 20.3319 22.1222 20.7444V26.2222H25.2222ZM12.3111 15.1778C12.8062 15.1778 13.281 14.9811 13.631 14.631C13.9811 14.281 14.1778 13.8062 14.1778 13.3111C14.1778 12.2778 13.3444 11.4333 12.3111 11.4333C11.8131 11.4333 11.3355 11.6312 10.9833 11.9833C10.6312 12.3355 10.4333 12.8131 10.4333 13.3111C10.4333 14.3444 11.2778 15.1778 12.3111 15.1778ZM13.8556 26.2222V16.9222H10.7778V26.2222H13.8556Z" fill="#EC9304"/>
</g>
<defs>
<clipPath id="clip0_291_19423">
<rect x="8" y="9" width="20" height="20" rx="3" fill="white"/>
</clipPath>
</defs>
</svg>
