<svg width="37" height="37" viewBox="0 0 37 37" fill="none" xmlns="http://www.w3.org/2000/svg">
<rect width="37" height="37" rx="18.5" fill="#FFEFC8"/>
<path d="M17 24H13C11.6167 24 10.4377 23.5123 9.463 22.537C8.48833 21.5617 8.00067 20.3827 8 19C7.99933 17.6173 8.487 16.4383 9.463 15.463C10.439 14.4877 11.618 14 13 14H17V16H13C12.1667 16 11.4583 16.2917 10.875 16.875C10.2917 17.4583 10 18.1667 10 19C10 19.8333 10.2917 20.5417 10.875 21.125C11.4583 21.7083 12.1667 22 13 22H17V24ZM14 20V18H22V20H14ZM19 24V22H23C23.8333 22 24.5417 21.7083 25.125 21.125C25.7083 20.5417 26 19.8333 26 19C26 18.1667 25.7083 17.4583 25.125 16.875C24.5417 16.2917 23.8333 16 23 16H19V14H23C24.3833 14 25.5627 14.4877 26.538 15.463C27.5133 16.4383 28.0007 17.6173 28 19C27.9993 20.3827 27.5117 21.562 26.537 22.538C25.5623 23.514 24.3833 24.0013 23 24H19Z" fill="#EC9304"/>
</svg>
