<svg width="37" height="37" viewBox="0 0 37 37" fill="none" xmlns="http://www.w3.org/2000/svg">
<circle cx="18.5" cy="18.5" r="18.5" fill="#FFEFC8"/>
<path d="M16.6 22.4286L22.828 19L16.6 15.5714V22.4286ZM30.472 13.48C30.628 14.0171 30.736 14.7371 30.808 15.6514C30.892 16.5657 30.928 17.3543 30.928 18.04L31 19C31 21.5029 30.808 23.3429 30.472 24.52C30.172 25.5486 29.476 26.2114 28.396 26.4971C27.832 26.6457 26.8 26.7486 25.216 26.8171C23.656 26.8971 22.228 26.9314 20.908 26.9314L19 27C13.972 27 10.84 26.8171 9.604 26.4971C8.524 26.2114 7.828 25.5486 7.528 24.52C7.372 23.9829 7.264 23.2629 7.192 22.3486C7.108 21.4343 7.072 20.6457 7.072 19.96L7 19C7 16.4971 7.192 14.6571 7.528 13.48C7.828 12.4514 8.524 11.7886 9.604 11.5029C10.168 11.3543 11.2 11.2514 12.784 11.1829C14.344 11.1029 15.772 11.0686 17.092 11.0686L19 11C24.028 11 27.16 11.1829 28.396 11.5029C29.476 11.7886 30.172 12.4514 30.472 13.48Z" fill="#EC9304"/>
</svg>
