<svg width="54" height="54" viewBox="0 0 54 54" fill="none" xmlns="http://www.w3.org/2000/svg">
<circle cx="27" cy="27" r="26.5" fill="#FFA1CD" stroke="#F362A6"/>
<path d="M37.6742 31.6269L37.6707 31.624C37.0978 31.0944 36.3564 30.9698 35.8152 30.8787L35.7754 30.8717C35.2533 30.7858 35.1708 30.7275 34.9342 30.5158C34.7935 30.3906 34.6256 30.1898 34.6256 29.9423C34.6256 29.6948 34.7935 29.494 34.9336 29.3688L36.6807 27.8187C38.1761 26.4969 39 24.7229 39 22.8231C39 20.9233 38.1778 19.1492 36.6807 17.8269C34.61 16.0044 31.7766 15 28.6974 15C25.1382 15 21.5772 16.3483 18.9233 18.6987C16.3922 20.9354 15 23.9319 15 27.1356C15 30.3392 16.3939 33.3358 18.9233 35.5719C20.1781 36.6819 21.6632 37.5438 23.3381 38.1346C24.949 38.6996 26.6429 38.9921 28.3501 39H28.4545C31.9739 39 35.3254 37.8133 37.6505 35.7462C38.2102 35.2523 38.5246 34.5444 38.5356 33.7523C38.5477 32.9348 38.2257 32.1398 37.6742 31.6269ZM18.6925 24.2308C18.6925 23.8656 18.8008 23.5087 19.0036 23.2051C19.2065 22.9015 19.4948 22.6649 19.8322 22.5251C20.1696 22.3854 20.5408 22.3489 20.8989 22.4201C21.257 22.4913 21.586 22.6672 21.8442 22.9253C22.1024 23.1835 22.2783 23.5125 22.3495 23.8706C22.4207 24.2287 22.3842 24.5999 22.2444 24.9373C22.1047 25.2746 21.8681 25.5629 21.5644 25.7658C21.2608 25.9686 20.9039 26.0769 20.5387 26.0769C20.0491 26.0769 19.5795 25.8824 19.2332 25.5362C18.887 25.19 18.6925 24.7204 18.6925 24.2308ZM21.0003 32.0192C20.6351 32.0192 20.2782 31.911 19.9746 31.7081C19.671 31.5052 19.4343 31.2169 19.2946 30.8796C19.1548 30.5422 19.1183 30.171 19.1895 29.8129C19.2608 29.4548 19.4366 29.1258 19.6948 28.8676C19.953 28.6095 20.282 28.4336 20.6401 28.3624C20.9982 28.2912 21.3695 28.3277 21.7068 28.4675C22.0442 28.6072 22.3325 28.8438 22.5354 29.1474C22.7383 29.451 22.8465 29.8079 22.8465 30.1731C22.8465 30.6627 22.652 31.1323 22.3058 31.4785C21.9595 31.8247 21.4899 32.0192 21.0003 32.0192ZM23.3081 20.5385C23.3081 20.1733 23.4164 19.8164 23.6192 19.5128C23.8221 19.2092 24.1105 18.9726 24.4478 18.8328C24.7852 18.6931 25.1564 18.6565 25.5145 18.7278C25.8727 18.799 26.2016 18.9748 26.4598 19.233C26.718 19.4912 26.8939 19.8202 26.9651 20.1783C27.0363 20.5364 26.9998 20.9076 26.86 21.245C26.7203 21.5823 26.4837 21.8706 26.1801 22.0735C25.8764 22.2763 25.5195 22.3846 25.1543 22.3846C24.6647 22.3846 24.1951 22.1901 23.8488 21.8439C23.5026 21.4977 23.3081 21.0281 23.3081 20.5385ZM27.0006 36.1731C26.4528 36.1731 25.9174 36.0107 25.462 35.7064C25.0066 35.4021 24.6516 34.9696 24.442 34.4636C24.2324 33.9576 24.1776 33.4008 24.2844 32.8636C24.3913 32.3264 24.655 31.833 25.0423 31.4457C25.4296 31.0584 25.9231 30.7947 26.4603 30.6878C26.9975 30.581 27.5543 30.6358 28.0604 30.8454C28.5664 31.055 28.9989 31.4099 29.3032 31.8653C29.6075 32.3207 29.7699 32.8561 29.7699 33.4038C29.7699 34.1383 29.4782 34.8427 28.9588 35.362C28.4395 35.8813 27.7351 36.1731 27.0006 36.1731ZM31.1546 22.3846C30.7895 22.3846 30.4325 22.2763 30.1289 22.0735C29.8253 21.8706 29.5887 21.5823 29.4489 21.245C29.3092 20.9076 29.2726 20.5364 29.3439 20.1783C29.4151 19.8202 29.5909 19.4912 29.8491 19.233C30.1073 18.9748 30.4363 18.799 30.7944 18.7278C31.1526 18.6565 31.5238 18.6931 31.8611 18.8328C32.1985 18.9726 32.4868 19.2092 32.6897 19.5128C32.8926 19.8164 33.0009 20.1733 33.0009 20.5385C33.0009 21.0281 32.8064 21.4977 32.4601 21.8439C32.1139 22.1901 31.6443 22.3846 31.1546 22.3846Z" fill="#F362A6"/>
</svg>
