<svg width="134" height="134" viewBox="0 0 134 134" fill="none" xmlns="http://www.w3.org/2000/svg">
<g filter="url(#filter0_d_4001_54455)">
<path d="M65.8211 10.3263C81.3379 10.5551 82.8771 14.0807 87.4219 14.2055C93.9946 14.3927 104.041 1.75675 117.655 13.1759C131.071 24.4287 120.14 42.0878 120.14 42.0878C120.14 42.0878 127.607 55.3166 128.481 75.4717C129.115 90.0629 123.499 108.221 98.321 118.517C75.1395 128.002 40.5492 126.109 19.4061 109.875C3.01573 97.3012 4.17013 78.9557 4.61732 72.7053C5.79252 56.3046 12.9581 43.1278 12.9581 43.1278C12.9581 43.1278 2.36053 22.1719 15.2981 12.2399C29.5044 1.33035 39.6132 14.1743 45.458 13.7063C49.7116 13.3527 51.1052 10.1079 65.8211 10.3263Z" fill="#855B52"/>
<path d="M37.4186 21.6009C37.2211 20.4465 29.6915 12.9794 21.9019 20.5713C15.9011 26.4265 21.9019 36.6081 22.9315 35.7969C23.7219 35.1729 26.6339 31.4185 30.0347 28.1841C33.5187 24.8665 37.4914 22.0481 37.4186 21.6009ZM96.1993 21.6737C96.1473 22.3185 100.162 24.7417 103.812 28.1841C107.504 31.6681 110.832 36.1609 111.425 36.0881C112.6 35.9425 117.644 26.0625 111.061 20.4985C104.478 14.9346 96.3449 19.7705 96.1993 21.6737Z" fill="#B99277"/>
<path d="M67.0909 62.7949C82.3164 62.7949 91.4476 79.9757 90.9068 90.7084C90.418 100.474 84.854 108.576 66.1133 108.472C47.3725 108.378 42.6198 99.7772 42.2974 90.6044C42.0062 82.4093 47.8613 62.7949 67.0909 62.7949Z" fill="#F2A258"/>
<path d="M96.6366 62.0882C96.9798 66.4146 94.6606 70.3562 90.2199 70.0234C85.9351 69.6906 82.8047 66.217 82.8047 61.8698C82.8047 57.5226 85.1135 54.4442 88.5871 53.9658C92.8303 53.373 96.1478 55.9418 96.6366 62.0882Z" fill="#171716"/>
<path d="M77.5319 80.0684C77.1783 84.3948 74.3079 89.0228 65.9671 88.7316C58.9679 88.482 55.6711 83.8228 55.5671 79.486C55.4215 73.3604 58.6871 71.1037 66.6015 70.9893C75.6287 70.8749 78.0207 74.1196 77.5319 80.0684Z" fill="#2F3030"/>
<path d="M50.3052 63.7C49.858 68.0159 45.802 71.0423 42.006 70.1167C37.8357 69.0975 35.9637 64.7088 36.8373 60.4552C37.6173 56.6488 40.9557 53.6848 44.7412 54.1112C48.6932 54.548 50.8668 58.2608 50.3052 63.7Z" fill="#171716"/>
<path d="M66.5493 98.841C72.2589 98.841 75.3788 95.6898 76.2628 94.8162C77.1468 93.9426 78.3324 92.4451 80.1628 93.9426C81.7228 95.2114 80.1836 97.1874 79.4764 97.9466C78.2076 99.309 74.3804 103.469 66.0293 103.095C57.8341 102.731 54.6829 99.0178 53.7989 98.1442C52.9253 97.2706 51.4589 95.0242 53.1125 93.7554C55.0989 92.2371 55.7437 93.953 57.7925 95.6066C59.8413 97.2602 61.1309 98.841 66.5493 98.841Z" fill="#2F3030"/>
</g>
<defs>
<filter id="filter0_d_4001_54455" x="-4" y="0" width="141.119" height="141.119" filterUnits="userSpaceOnUse" color-interpolation-filters="sRGB">
<feFlood flood-opacity="0" result="BackgroundImageFix"/>
<feColorMatrix in="SourceAlpha" type="matrix" values="0 0 0 0 0 0 0 0 0 0 0 0 0 0 0 0 0 0 127 0" result="hardAlpha"/>
<feOffset dy="4"/>
<feGaussianBlur stdDeviation="2"/>
<feComposite in2="hardAlpha" operator="out"/>
<feColorMatrix type="matrix" values="0 0 0 0 0 0 0 0 0 0 0 0 0 0 0 0 0 0 0.25 0"/>
<feBlend mode="normal" in2="BackgroundImageFix" result="effect1_dropShadow_4001_54455"/>
<feBlend mode="normal" in="SourceGraphic" in2="effect1_dropShadow_4001_54455" result="shape"/>
</filter>
</defs>
</svg>
