<svg width="278" height="278" viewBox="0 0 278 278" fill="none" xmlns="http://www.w3.org/2000/svg">
<path fill-rule="evenodd" clip-rule="evenodd" d="M106.17 0.0851952C107.654 0.0244313 108.059 0.632475 107.386 1.90933C105.849 2.10658 105.443 1.49853 106.17 0.0851952Z" fill="#E6FF97"/>
<path fill-rule="evenodd" clip-rule="evenodd" d="M118.735 0.0842652C120.428 -0.187044 120.968 0.421 120.357 1.9084C119.833 2.10702 119.292 2.1746 118.735 2.11108C118.735 1.43546 118.735 0.759883 118.735 0.0842652Z" fill="#E6FF97"/>
<path fill-rule="evenodd" clip-rule="evenodd" d="M132.111 0.0862335C133.733 -0.184022 134.408 0.491596 134.138 2.11305C133.462 2.11305 132.787 2.11305 132.111 2.11305C132.111 1.43743 132.111 0.761851 132.111 0.0862335Z" fill="#E6FF97"/>
<path fill-rule="evenodd" clip-rule="evenodd" d="M145.488 0.0845028C146.962 -0.224951 147.57 0.315519 147.312 1.70595C145.453 2.48125 144.845 1.94078 145.488 0.0845028Z" fill="#E6FF97"/>
<path fill-rule="evenodd" clip-rule="evenodd" d="M158.458 0.0843338C159.84 0.0372307 160.381 0.712807 160.079 2.11115C158.281 2.34528 157.741 1.66967 158.458 0.0843338Z" fill="#E6FF97"/>
<path fill-rule="evenodd" clip-rule="evenodd" d="M171.835 0.0843338C173.217 0.0372307 173.758 0.712807 173.456 2.11115C171.658 2.34528 171.118 1.66967 171.835 0.0843338Z" fill="#E6FF97"/>
<path fill-rule="evenodd" clip-rule="evenodd" d="M131.707 12.2446C134.723 11.9419 135.533 13.0904 134.139 15.6902C131.278 15.8783 130.467 14.7299 131.707 12.2446Z" fill="#E6FF97"/>
<path fill-rule="evenodd" clip-rule="evenodd" d="M92.3884 12.2468C94.6283 12.1983 95.304 13.2117 94.4151 15.287C93.6284 15.5882 92.8854 15.5205 92.1858 15.0843C91.9604 14.1176 92.0277 13.1718 92.3884 12.2468Z" fill="#E6FF97"/>
<path fill-rule="evenodd" clip-rule="evenodd" d="M105.765 12.2473C108.401 12.1005 109.077 13.1139 107.792 15.2876C105.062 15.6224 104.387 14.609 105.765 12.2473Z" fill="#E6FF97"/>
<path fill-rule="evenodd" clip-rule="evenodd" d="M118.331 12.2452C121.591 12.0437 122.266 13.1922 120.357 15.6908C119.465 16.0252 118.722 15.8225 118.128 15.0828C117.843 14.0981 117.91 13.1522 118.331 12.2452Z" fill="#E6FF97"/>
<path fill-rule="evenodd" clip-rule="evenodd" d="M145.082 12.2451C148.007 11.916 148.818 12.9969 147.514 15.488C144.8 16.0288 143.989 14.9481 145.082 12.2451Z" fill="#E6FF97"/>
<path fill-rule="evenodd" clip-rule="evenodd" d="M158.052 12.2451C160.878 12.1557 161.554 13.3042 160.079 15.6907C157.423 15.6732 156.747 14.5244 158.052 12.2451Z" fill="#E6FF97"/>
<path fill-rule="evenodd" clip-rule="evenodd" d="M171.429 12.2473C174.065 12.1005 174.741 13.1139 173.456 15.2876C171.061 15.59 170.386 14.5766 171.429 12.2473Z" fill="#E6FF97"/>
<path fill-rule="evenodd" clip-rule="evenodd" d="M185.21 12.2461C187.107 12.3984 187.648 13.3442 186.831 15.0836C185.497 15.7634 184.686 15.3581 184.399 13.8675C184.502 13.2299 184.772 12.6895 185.21 12.2461Z" fill="#E6FF97"/>
<path fill-rule="evenodd" clip-rule="evenodd" d="M79.8234 12.651C81.7119 12.4542 82.2522 13.1974 81.4448 14.8805C79.5105 15.2088 78.9702 14.4659 79.8234 12.651Z" fill="#E6FF97"/>
<path fill-rule="evenodd" clip-rule="evenodd" d="M92.3889 24.8105C95.8193 25.1231 96.4945 26.6768 94.4156 29.4722C91.8502 29.743 90.8369 28.5942 91.3756 26.0266C91.7992 25.6728 92.1368 25.2674 92.3889 24.8105Z" fill="#E6FF97"/>
<path fill-rule="evenodd" clip-rule="evenodd" d="M105.359 24.8141C108.827 24.4307 109.908 25.8494 108.602 29.0704C106.156 30.387 104.805 29.7113 104.548 27.0436C104.506 26.1607 104.776 25.4173 105.359 24.8141Z" fill="#E6FF97"/>
<path fill-rule="evenodd" clip-rule="evenodd" d="M117.926 24.8113C121.645 24.2673 122.861 25.6861 121.574 29.0676C119.001 30.4017 117.515 29.6586 117.115 26.8381C117.089 26.0217 117.359 25.346 117.926 24.8113Z" fill="#E6FF97"/>
<path fill-rule="evenodd" clip-rule="evenodd" d="M131.301 24.8141C134.268 24.0768 135.686 25.1575 135.557 28.057C135.368 28.6371 135.03 29.1098 134.544 29.4758C132.055 30.3469 130.569 29.5362 130.085 27.0436C130.232 26.1551 130.637 25.4116 131.301 24.8141Z" fill="#E6FF97"/>
<path fill-rule="evenodd" clip-rule="evenodd" d="M144.677 24.8141C147.644 24.0768 149.062 25.1575 148.933 28.057C148.745 28.6371 148.407 29.1098 147.92 29.4758C143.84 30.0705 142.759 28.5167 144.677 24.8141Z" fill="#E6FF97"/>
<path fill-rule="evenodd" clip-rule="evenodd" d="M157.648 24.8099C161.607 24.6368 162.552 26.1906 160.485 29.4716C157.239 30.1424 156.091 28.8586 157.04 25.6206C157.33 25.4001 157.533 25.1297 157.648 24.8099Z" fill="#E6FF97"/>
<path fill-rule="evenodd" clip-rule="evenodd" d="M171.429 24.8115C174.68 24.7678 175.626 26.1865 174.267 29.0678C171.325 30.181 170.042 29.1676 170.416 26.0276C170.839 25.6737 171.177 25.2684 171.429 24.8115Z" fill="#E6FF97"/>
<path fill-rule="evenodd" clip-rule="evenodd" d="M184.399 25.2164C187.842 24.7993 188.788 26.0826 187.237 29.0673C184.563 29.7147 183.415 28.7013 183.791 26.0271C184.082 25.8066 184.285 25.5362 184.399 25.2164Z" fill="#E6FF97"/>
<path fill-rule="evenodd" clip-rule="evenodd" d="M79.8232 25.2168C82.7907 25.5488 83.331 26.8326 81.4446 29.0677C78.435 28.8586 77.8946 27.5752 79.8232 25.2168Z" fill="#E6FF97"/>
<path fill-rule="evenodd" clip-rule="evenodd" d="M197.37 25.6238C199.597 25.0879 200.61 25.8986 200.41 28.056C197.428 29.6884 196.415 28.8777 197.37 25.6238Z" fill="#E6FF97"/>
<path fill-rule="evenodd" clip-rule="evenodd" d="M66.0423 25.6204C68.6786 25.4736 69.3542 26.487 68.0689 28.6606C65.7537 28.8361 65.0784 27.8227 66.0423 25.6204Z" fill="#E6FF97"/>
<path fill-rule="evenodd" clip-rule="evenodd" d="M211.152 25.625C213.579 25.6915 214.119 26.7049 212.773 28.6652C212.12 28.9571 211.512 28.8898 210.949 28.4625C210.664 27.4779 210.732 26.5322 211.152 25.625Z" fill="#E6FF97"/>
<path fill-rule="evenodd" clip-rule="evenodd" d="M53.882 26.8408C55.3647 27.1675 55.3647 27.7079 53.882 28.4623C53.6116 28.3273 53.3416 28.1919 53.0713 28.0569C53.3522 27.6442 53.6221 27.2389 53.882 26.8408Z" fill="#E6FF97"/>
<path fill-rule="evenodd" clip-rule="evenodd" d="M105.36 36.9713C108.687 36.7167 110.106 38.2032 109.616 41.4303C107.521 43.697 105.63 43.5621 103.941 41.0249C103.671 40.2142 103.671 39.4034 103.941 38.5927C104.499 38.1043 104.971 37.5639 105.36 36.9713Z" fill="#E6FF97"/>
<path fill-rule="evenodd" clip-rule="evenodd" d="M79.4187 37.38C82.9884 37.3658 83.9341 38.9195 82.256 42.0416C79.0883 43.064 77.8046 41.9156 78.4053 38.5961C78.8289 38.2422 79.1666 37.8368 79.4187 37.38Z" fill="#E6FF97"/>
<path fill-rule="evenodd" clip-rule="evenodd" d="M91.5785 37.38C93.2895 37.0995 94.7754 37.5048 96.0372 38.5961C96.7259 40.95 95.8479 42.3011 93.4025 42.6497C91.48 42.6862 90.6017 41.7401 90.7679 39.8122C90.7123 38.8632 90.9827 38.0525 91.5785 37.38Z" fill="#E6FF97"/>
<path fill-rule="evenodd" clip-rule="evenodd" d="M117.925 37.3808C122.631 37.2782 123.847 39.2377 121.573 43.2585C118.67 44.4045 116.913 43.4584 116.304 40.421C116.477 39.1956 117.018 38.1822 117.925 37.3808Z" fill="#E6FF97"/>
<path fill-rule="evenodd" clip-rule="evenodd" d="M131.707 37.3759C135.236 37.1882 136.654 38.8097 135.963 42.2403C133.739 44.5022 131.712 44.3672 129.883 41.8349C129.231 39.783 129.839 38.2969 131.707 37.3759Z" fill="#E6FF97"/>
<path fill-rule="evenodd" clip-rule="evenodd" d="M144.677 37.3804C148.187 36.9049 149.741 38.3913 149.339 41.8394C147.761 44.1738 145.869 44.4442 143.664 42.6501C142.634 40.5981 142.972 38.8417 144.677 37.3804Z" fill="#E6FF97"/>
<path fill-rule="evenodd" clip-rule="evenodd" d="M157.648 37.3759C161.177 37.1882 162.596 38.8097 161.904 42.2403C159.832 44.4232 157.941 44.2882 156.229 41.8349C155.687 39.9946 156.16 38.5081 157.648 37.3759Z" fill="#E6FF97"/>
<path fill-rule="evenodd" clip-rule="evenodd" d="M171.024 37.7874C175.193 37.4246 176.409 39.1137 174.672 42.8544C171.211 44.2533 169.522 43.1049 169.605 39.4088C169.885 38.6589 170.358 38.1181 171.024 37.7874Z" fill="#E6FF97"/>
<path fill-rule="evenodd" clip-rule="evenodd" d="M66.0424 37.7843C69.3333 37.7717 70.1439 39.1905 68.4744 42.0406C65.635 42.5773 64.6217 41.4285 65.4344 38.595C65.725 38.3745 65.9277 38.1041 66.0424 37.7843Z" fill="#E6FF97"/>
<path fill-rule="evenodd" clip-rule="evenodd" d="M184.399 37.7803C187.325 37.4017 188.744 38.6178 188.655 41.4286C187.431 43.5231 185.809 43.9284 183.791 42.6447C182.843 40.8416 183.045 39.2202 184.399 37.7803Z" fill="#E6FF97"/>
<path fill-rule="evenodd" clip-rule="evenodd" d="M52.6658 38.1904C55.4975 38.1219 56.1731 39.2703 54.6925 41.636C53.8003 41.9704 53.0573 41.7677 52.4631 41.0279C52.2378 40.0611 52.305 39.1154 52.6658 38.1904Z" fill="#E6FF97"/>
<path fill-rule="evenodd" clip-rule="evenodd" d="M197.371 38.1869C200.407 37.7013 201.555 38.9174 200.816 41.8352C199.581 43.258 198.23 43.393 196.763 42.2406C195.843 40.699 196.045 39.3475 197.371 38.1869Z" fill="#E6FF97"/>
<path fill-rule="evenodd" clip-rule="evenodd" d="M40.1005 39C40.7762 39 41.4515 39 42.1272 39C42.1272 39.6757 42.1272 40.3511 42.1272 41.0268C40.133 41.4666 39.4573 40.7909 40.1005 39Z" fill="#E6FF97"/>
<path fill-rule="evenodd" clip-rule="evenodd" d="M210.746 38.5914C213.112 38.1933 214.261 39.139 214.192 41.4289C212.956 42.8517 211.605 42.9867 210.138 41.8343C209.777 40.619 209.98 39.5383 210.746 38.5914Z" fill="#E6FF97"/>
<path fill-rule="evenodd" clip-rule="evenodd" d="M223.717 38.9973C226.353 38.8506 227.029 39.864 225.744 42.0375C223.349 42.3399 222.674 41.3265 223.717 38.9973Z" fill="#E6FF97"/>
<path fill-rule="evenodd" clip-rule="evenodd" d="M237.499 39.4037C238.881 39.3566 239.422 40.032 239.12 41.4305C238.445 41.4305 237.769 41.4305 237.094 41.4305C237.039 40.7041 237.174 40.0287 237.499 39.4037Z" fill="#E6FF97"/>
<path fill-rule="evenodd" clip-rule="evenodd" d="M104.955 49.9463C110.076 49.7193 111.427 51.8134 109.008 56.2295C104.734 57.6332 102.91 56.0795 103.536 51.5678C104.094 51.0793 104.566 50.539 104.955 49.9463Z" fill="#E6FF97"/>
<path fill-rule="evenodd" clip-rule="evenodd" d="M118.331 49.5381C123.177 49.8486 124.393 52.0781 121.979 56.2266C119.454 57.9356 117.495 57.4629 116.101 54.8078C115.831 53.7267 115.831 52.646 116.101 51.5649C116.802 50.7939 117.545 50.1182 118.331 49.5381Z" fill="#E6FF97"/>
<path fill-rule="evenodd" clip-rule="evenodd" d="M131.707 49.5401C135.084 49.4728 136.773 51.0943 136.773 54.4044C134.492 58.0255 132.06 58.1609 129.477 54.8098C129.207 53.7287 129.207 52.648 129.477 51.5669C130.178 50.7959 130.921 50.1202 131.707 49.5401Z" fill="#E6FF97"/>
<path fill-rule="evenodd" clip-rule="evenodd" d="M145.082 49.5401C148.459 49.4728 150.148 51.0943 150.148 54.4044C147.847 57.9587 145.415 58.0936 142.852 54.8098C142.582 53.7287 142.582 52.648 142.852 51.5669C143.553 50.7959 144.296 50.1202 145.082 49.5401Z" fill="#E6FF97"/>
<path fill-rule="evenodd" clip-rule="evenodd" d="M157.242 49.9436C161.358 49.1312 163.182 50.7527 162.714 54.8079C161.378 56.7213 159.554 57.3293 157.242 56.6321C155.099 54.3847 155.099 52.1552 157.242 49.9436Z" fill="#E6FF97"/>
<path fill-rule="evenodd" clip-rule="evenodd" d="M171.024 49.9459C175.916 49.9061 177.132 52.0006 174.672 56.229C170.604 57.7013 168.78 56.2825 169.2 51.9727C169.615 51.0862 170.223 50.4104 171.024 49.9459Z" fill="#E6FF97"/>
<path fill-rule="evenodd" clip-rule="evenodd" d="M91.9834 49.9446C95.4239 49.587 96.9779 51.0735 96.6447 54.4036C94.4482 57.61 92.2866 57.61 90.1594 54.4036C89.6633 52.4278 90.2713 50.9414 91.9834 49.9446Z" fill="#E6FF97"/>
<path fill-rule="evenodd" clip-rule="evenodd" d="M184.4 49.9447C188.199 49.8868 189.618 51.6432 188.656 55.2145C186.563 57.4691 184.672 57.3341 182.981 54.8091C182.411 52.8403 182.884 51.2188 184.4 49.9447Z" fill="#E6FF97"/>
<path fill-rule="evenodd" clip-rule="evenodd" d="M79.013 50.3474C83.3703 50.0463 84.5863 51.8704 82.661 55.8198C78.7041 57.1344 77.1501 55.7157 77.9996 51.5635C78.4232 51.2096 78.7609 50.8043 79.013 50.3474Z" fill="#E6FF97"/>
<path fill-rule="evenodd" clip-rule="evenodd" d="M197.371 50.3506C200.769 50.0328 202.053 51.5192 201.221 54.8096C199.28 57.0601 197.524 56.9251 195.952 54.4042C195.448 52.6575 195.921 51.3064 197.371 50.3506Z" fill="#E6FF97"/>
<path fill-rule="evenodd" clip-rule="evenodd" d="M66.0425 50.756C69.001 50.2983 70.2843 51.5144 69.8932 54.4042C68.2577 56.3759 66.5013 56.5113 64.6238 54.8096C64.1196 53.0629 64.5926 51.7118 66.0425 50.756Z" fill="#E6FF97"/>
<path fill-rule="evenodd" clip-rule="evenodd" d="M210.746 50.7535C214.758 50.6246 215.704 52.1783 213.584 55.4152C211.136 56.6848 209.785 55.9413 209.53 53.1857C209.582 52.1905 209.987 51.3798 210.746 50.7535Z" fill="#E6FF97"/>
<path fill-rule="evenodd" clip-rule="evenodd" d="M52.666 51.1579C56.2224 51.1206 57.033 52.5394 55.098 55.4142C51.4143 55.5869 50.6036 54.1682 52.666 51.1579Z" fill="#E6FF97"/>
<path fill-rule="evenodd" clip-rule="evenodd" d="M223.717 51.1592C226.784 51.1782 227.595 52.5293 226.149 55.2128C223.593 55.9664 222.444 55.0207 222.704 52.3753C223.127 52.0214 223.465 51.616 223.717 51.1592Z" fill="#E6FF97"/>
<path fill-rule="evenodd" clip-rule="evenodd" d="M40.1007 51.5656C42.5274 51.3536 43.3381 52.367 42.5327 54.6058C40.7359 55.7125 39.6552 55.2394 39.29 53.187C39.3922 52.5494 39.6621 52.0091 40.1007 51.5656Z" fill="#E6FF97"/>
<path fill-rule="evenodd" clip-rule="evenodd" d="M26.7246 52.375C27.4003 52.375 28.0756 52.375 28.7513 52.375C29.0216 53.9964 28.3459 54.6722 26.7246 54.4018C26.7246 53.7261 26.7246 53.0507 26.7246 52.375Z" fill="#E6FF97"/>
<path fill-rule="evenodd" clip-rule="evenodd" d="M237.093 51.9714C239.368 51.3954 240.247 52.2061 239.728 54.4036C237.062 55.4527 236.184 54.642 237.093 51.9714Z" fill="#E6FF97"/>
<path fill-rule="evenodd" clip-rule="evenodd" d="M250.875 52.375C251.415 52.375 251.956 52.375 252.496 52.375C252.695 53.3673 252.357 54.0431 251.483 54.4018C250.424 53.9964 250.222 53.3207 250.875 52.375Z" fill="#E6FF97"/>
<path fill-rule="evenodd" clip-rule="evenodd" d="M130.896 62.5097C136.436 61.9928 138.26 64.2896 136.368 69.4008C134.665 71.109 132.706 71.4471 130.49 70.4142C127.701 67.6258 127.836 64.9909 130.896 62.5097Z" fill="#E6FF97"/>
<path fill-rule="evenodd" clip-rule="evenodd" d="M144.271 62.5104C146.951 61.8995 149.046 62.7102 150.554 64.9425C151.027 69.3338 149.067 71.2933 144.676 70.8203C141.079 68.2199 140.944 65.4496 144.271 62.5104Z" fill="#E6FF97"/>
<path fill-rule="evenodd" clip-rule="evenodd" d="M105.36 62.5091C109.161 62.3255 110.985 64.0823 110.832 67.7788C110.511 68.6248 110.038 69.3683 109.413 70.0083C105.715 71.7007 103.419 70.6196 102.522 66.7654C102.755 64.8485 103.701 63.4297 105.36 62.5091Z" fill="#E6FF97"/>
<path fill-rule="evenodd" clip-rule="evenodd" d="M117.925 62.5096C122.969 62.3511 124.658 64.6483 122.991 69.4008C120.023 71.8338 117.591 71.4284 115.695 68.1847C114.895 65.6216 115.638 63.7298 117.925 62.5096Z" fill="#E6FF97"/>
<path fill-rule="evenodd" clip-rule="evenodd" d="M157.243 62.5088C162.236 62.1132 164.06 64.275 162.715 68.9946C160.067 71.7847 157.635 71.6497 155.419 68.5892C154.912 67.5446 154.777 66.4639 155.013 65.3463C155.689 64.3345 156.432 63.3888 157.243 62.5088Z" fill="#E6FF97"/>
<path fill-rule="evenodd" clip-rule="evenodd" d="M171.023 62.5107C176.171 62.7098 177.657 65.0743 175.482 69.6046C170.713 71.7287 168.484 70.1745 168.794 64.9429C169.345 63.9202 170.088 63.1095 171.023 62.5107Z" fill="#E6FF97"/>
<path fill-rule="evenodd" clip-rule="evenodd" d="M78.2022 63.3204C83.3232 63.0934 84.6742 65.1875 82.2556 69.6035C77.9655 70.9898 76.1415 69.4361 76.7836 64.9418C77.3413 64.4533 77.8139 63.913 78.2022 63.3204Z" fill="#E6FF97"/>
<path fill-rule="evenodd" clip-rule="evenodd" d="M91.5781 62.919C95.6277 62.4427 97.4517 64.1995 97.0501 68.1887C95.939 70.1827 94.25 70.9257 91.9834 70.4182C89.7439 69.2349 89.0009 67.4108 89.754 64.9458C90.446 64.3227 91.054 63.647 91.5781 62.919Z" fill="#E6FF97"/>
<path fill-rule="evenodd" clip-rule="evenodd" d="M184.4 62.915C189.44 63.0111 190.792 65.2406 188.453 69.6035C184.128 71.3316 182.034 69.9128 182.17 65.3472C182.722 64.3245 183.465 63.5138 184.4 62.915Z" fill="#E6FF97"/>
<path fill-rule="evenodd" clip-rule="evenodd" d="M196.965 63.3217C200.515 62.8194 202.204 64.3059 202.031 67.7807C201.187 69.9713 199.634 70.7143 197.37 70.0102C195.483 68.8358 194.875 67.1471 195.546 64.9431C196.104 64.4547 196.577 63.9143 196.965 63.3217Z" fill="#E6FF97"/>
<path fill-rule="evenodd" clip-rule="evenodd" d="M66.0428 63.3222C69.1671 63.2796 70.5858 64.7661 70.2988 67.7812C69.2688 69.6333 67.7148 70.2413 65.6375 69.6053C63.3566 67.2842 63.4916 65.1901 66.0428 63.3222Z" fill="#E6FF97"/>
<path fill-rule="evenodd" clip-rule="evenodd" d="M52.666 63.7246C56.9836 64.0558 57.7943 65.8799 55.098 69.197C51.9445 69.8265 50.6608 68.5427 51.2473 65.3461C51.8051 64.8576 52.2777 64.3172 52.666 63.7246Z" fill="#E6FF97"/>
<path fill-rule="evenodd" clip-rule="evenodd" d="M210.341 63.7271C213.85 63.2516 215.404 64.738 215.002 68.186C213.11 70.3478 211.219 70.3478 209.328 68.186C208.846 66.4669 209.184 64.9804 210.341 63.7271Z" fill="#E6FF97"/>
<path fill-rule="evenodd" clip-rule="evenodd" d="M223.312 64.1339C226.54 63.6816 227.823 65.0326 227.163 68.1876C225.819 69.6489 224.332 69.7843 222.704 68.5929C221.8 66.9427 222.003 65.4562 223.312 64.1339Z" fill="#E6FF97"/>
<path fill-rule="evenodd" clip-rule="evenodd" d="M39.6951 64.5367C42.3959 64.0637 43.5446 65.1444 43.1405 67.7796C42.1373 69.0054 40.9213 69.2754 39.4925 68.5904C38.6299 67.1615 38.6976 65.8104 39.6951 64.5367Z" fill="#E6FF97"/>
<path fill-rule="evenodd" clip-rule="evenodd" d="M237.093 64.5371C240.402 64.7045 241.078 66.1233 239.12 68.7934C236.484 69.1226 235.606 67.9742 236.485 65.3478C236.776 65.1273 236.978 64.8569 237.093 64.5371Z" fill="#E6FF97"/>
<path fill-rule="evenodd" clip-rule="evenodd" d="M26.7248 64.942C28.1094 64.685 28.92 65.2257 29.1568 66.5634C28.6582 68.8331 27.6449 69.1034 26.1168 67.3742C25.8136 66.4256 26.0162 65.6149 26.7248 64.942Z" fill="#E6FF97"/>
<path fill-rule="evenodd" clip-rule="evenodd" d="M250.469 65.3498C252.762 65.017 253.438 65.8955 252.496 67.9847C250.373 68.2255 249.697 67.3471 250.469 65.3498Z" fill="#E6FF97"/>
<path fill-rule="evenodd" clip-rule="evenodd" d="M13.3489 65.7524C14.8234 65.4431 15.4314 65.9835 15.1729 67.3739C13.6856 67.9856 13.0776 67.4452 13.3489 65.7524Z" fill="#E6FF97"/>
<path fill-rule="evenodd" clip-rule="evenodd" d="M131.706 74.6729C137.066 74.8569 138.755 77.4245 136.773 82.3747C136.281 83.0026 135.673 83.4753 134.949 83.7935C129.701 84.6245 127.607 82.395 128.666 77.105C129.521 76.0422 130.535 75.2314 131.706 74.6729Z" fill="#E6FF97"/>
<path fill-rule="evenodd" clip-rule="evenodd" d="M145.083 74.669C147.571 74.596 149.53 75.5417 150.96 77.5065C151.404 82.7369 149.039 84.831 143.867 83.7896C140.374 80.1264 140.779 77.0861 145.083 74.669Z" fill="#E6FF97"/>
<path fill-rule="evenodd" clip-rule="evenodd" d="M104.549 75.0773C108.942 74.28 111.171 76.0364 111.237 80.347C110.152 83.3552 108.058 84.5036 104.954 83.7926C101.316 81.0876 101.181 78.1824 104.549 75.0773Z" fill="#E6FF97"/>
<path fill-rule="evenodd" clip-rule="evenodd" d="M117.925 74.6752C122.246 74.4705 124.34 76.4973 124.207 80.7557C122.934 83.7711 120.705 84.7845 117.519 83.7959C115.271 82.2831 114.528 80.1885 115.29 77.5128C115.977 76.3542 116.855 75.4085 117.925 74.6752Z" fill="#E6FF97"/>
<path fill-rule="evenodd" clip-rule="evenodd" d="M157.647 75.0763C162.872 74.6928 164.696 76.99 163.119 81.9675C160.668 84.4921 158.101 84.6274 155.418 82.3728C153.556 79.0821 154.299 76.6499 157.647 75.0763Z" fill="#E6FF97"/>
<path fill-rule="evenodd" clip-rule="evenodd" d="M170.618 75.0765C173.461 74.4385 175.555 75.3846 176.901 77.9141C177.238 82.1704 175.279 84.1295 171.023 83.7918C168.426 82.4448 167.548 80.3507 168.389 77.5087C168.94 76.486 169.683 75.6753 170.618 75.0765Z" fill="#E6FF97"/>
<path fill-rule="evenodd" clip-rule="evenodd" d="M91.9834 75.0781C97.1457 75.2974 98.6998 77.7296 96.6447 82.3746C91.6976 84.9025 89.2656 83.416 89.3487 77.9157C90.0354 76.7571 90.9137 75.8114 91.9834 75.0781Z" fill="#E6FF97"/>
<path fill-rule="evenodd" clip-rule="evenodd" d="M78.6071 75.4795C82.4736 75.2237 84.1626 76.9805 83.6738 80.7492C81.2207 84.5263 78.7887 84.5263 76.3778 80.7492C75.7986 78.3981 76.5416 76.6416 78.6071 75.4795Z" fill="#E6FF97"/>
<path fill-rule="evenodd" clip-rule="evenodd" d="M183.995 75.4857C188.825 74.9734 190.649 77.0002 189.467 81.5662C187.941 83.6607 185.982 84.1333 183.59 82.985C180.772 80.2569 180.907 77.7574 183.995 75.4857Z" fill="#E6FF97"/>
<path fill-rule="evenodd" clip-rule="evenodd" d="M197.371 75.4858C199.549 75.2576 201.238 76.0683 202.437 77.918C202.823 81.9911 200.999 83.6798 196.965 82.985C194.177 80.2894 194.312 77.7895 197.371 75.4858Z" fill="#E6FF97"/>
<path fill-rule="evenodd" clip-rule="evenodd" d="M65.6366 75.889C69.1026 75.5092 70.7916 76.9957 70.7032 80.348C69.5622 82.646 67.7382 83.389 65.2312 82.5775C62.9922 80.1976 63.1272 77.9681 65.6366 75.889Z" fill="#E6FF97"/>
<path fill-rule="evenodd" clip-rule="evenodd" d="M209.935 76.2928C213.846 75.416 215.67 76.9021 215.407 80.7518C213.64 83.0839 211.613 83.3543 209.327 81.5626C208.412 79.6594 208.615 77.9029 209.935 76.2928Z" fill="#E6FF97"/>
<path fill-rule="evenodd" clip-rule="evenodd" d="M52.6665 76.292C54.163 76.0775 55.4463 76.4829 56.5172 77.5081C57.4864 81.404 55.9327 82.9578 51.8559 82.1697C50.0327 79.8673 50.303 77.9082 52.6665 76.292Z" fill="#E6FF97"/>
<path fill-rule="evenodd" clip-rule="evenodd" d="M223.718 76.293C227.661 76.4109 228.742 78.2351 226.96 81.7654C223.499 83.1643 221.81 82.0159 221.894 78.3198C222.309 77.4333 222.917 76.7575 223.718 76.293Z" fill="#E6FF97"/>
<path fill-rule="evenodd" clip-rule="evenodd" d="M40.5064 76.6963C43.1804 76.7688 44.1937 78.1199 43.5464 80.7499C40.0691 83.0479 38.4477 82.1022 38.6824 77.9124C39.2535 77.3931 39.8615 76.9877 40.5064 76.6963Z" fill="#E6FF97"/>
<path fill-rule="evenodd" clip-rule="evenodd" d="M236.687 77.1021C240.23 76.7847 241.311 78.2035 239.93 81.3584C236.782 82.4022 235.498 81.2538 236.079 77.9128C236.37 77.6923 236.572 77.4219 236.687 77.1021Z" fill="#E6FF97"/>
<path fill-rule="evenodd" clip-rule="evenodd" d="M26.32 77.5091C29.1525 77.1637 30.0985 78.3121 29.1573 80.9547C26.6236 81.8838 25.4753 81.0054 25.712 78.3198C26.0026 78.0993 26.2053 77.8289 26.32 77.5091Z" fill="#E6FF97"/>
<path fill-rule="evenodd" clip-rule="evenodd" d="M250.875 77.5078C253.21 77.6225 253.886 78.7709 252.901 80.9534C250.472 81.6295 249.459 80.7515 249.861 78.3185C250.265 78.0891 250.602 77.8187 250.875 77.5078Z" fill="#E6FF97"/>
<path fill-rule="evenodd" clip-rule="evenodd" d="M13.3488 78.3176C15.663 77.9844 16.2036 78.7274 14.9702 80.5471C13.036 80.8754 12.4955 80.1324 13.3488 78.3176Z" fill="#E6FF97"/>
<path fill-rule="evenodd" clip-rule="evenodd" d="M263.439 78.3197C265.061 78.0493 265.736 78.725 265.466 80.3465C264.79 80.3465 264.115 80.3465 263.439 80.3465C263.439 79.6707 263.439 78.9954 263.439 78.3197Z" fill="#E6FF97"/>
<path fill-rule="evenodd" clip-rule="evenodd" d="M104.549 88.0446C107.797 87.3397 110.162 88.4208 111.642 91.2875C111.896 96.0339 109.666 98.128 104.954 97.5706C100.815 94.5251 100.68 91.3495 104.549 88.0446Z" fill="#E6FF97"/>
<path fill-rule="evenodd" clip-rule="evenodd" d="M117.52 87.6428C123.198 87.3044 125.427 89.8719 124.208 95.3447C121.077 99.1191 117.97 99.1191 114.885 95.3447C113.791 92.0759 114.668 89.5087 117.52 87.6428Z" fill="#E6FF97"/>
<path fill-rule="evenodd" clip-rule="evenodd" d="M130.896 87.6446C136.256 87.2615 138.621 89.6937 137.989 94.9411C135.543 98.5014 132.57 99.0421 129.072 96.5625C126.72 92.9264 127.328 89.9539 130.896 87.6446Z" fill="#E6FF97"/>
<path fill-rule="evenodd" clip-rule="evenodd" d="M144.272 87.642C150.809 87.4102 152.836 90.2477 150.352 96.1547C146.477 99.2849 143.437 98.6091 141.232 94.1278C140.828 91.2871 141.842 89.1249 144.272 87.642Z" fill="#E6FF97"/>
<path fill-rule="evenodd" clip-rule="evenodd" d="M157.242 87.6419C163.438 87.6098 165.397 90.4474 163.12 96.1545C161.289 97.6713 159.195 98.1444 156.837 97.5732C152.934 94.0316 153.069 90.721 157.242 87.6419Z" fill="#E6FF97"/>
<path fill-rule="evenodd" clip-rule="evenodd" d="M170.619 88.0484C176.521 87.7083 178.48 90.2755 176.496 95.7503C173.118 98.7909 170.28 98.3855 167.984 94.5342C167.199 91.6517 168.077 89.4899 170.619 88.0484Z" fill="#E6FF97"/>
<path fill-rule="evenodd" clip-rule="evenodd" d="M92.3894 88.0464C96.6097 88.0075 98.4337 90.0343 97.8614 94.1269C96.6718 96.915 94.5774 97.9284 91.5787 97.1671C88.3527 94.8667 87.9474 92.1641 90.3627 89.0599C91.0984 88.753 91.7737 88.4153 92.3894 88.0464Z" fill="#E6FF97"/>
<path fill-rule="evenodd" clip-rule="evenodd" d="M184.4 88.0479C189.773 88.2631 191.462 90.8303 189.466 95.7497C186.137 98.3226 183.435 97.7822 181.36 94.1283C181.095 92.8741 181.231 91.658 181.765 90.48C182.601 89.5744 183.479 88.7637 184.4 88.0479Z" fill="#E6FF97"/>
<path fill-rule="evenodd" clip-rule="evenodd" d="M78.6075 88.4541C83.7196 88.6325 85.2736 91.0646 83.2688 95.7506C78.064 98.2829 75.632 96.6615 75.9728 90.8863C76.809 89.9807 77.687 89.17 78.6075 88.4541Z" fill="#E6FF97"/>
<path fill-rule="evenodd" clip-rule="evenodd" d="M197.776 88.4544C201.33 88.428 203.019 90.1845 202.842 93.7241C201.179 97.1745 198.747 97.8503 195.546 95.7509C193.623 92.4184 194.366 89.9863 197.776 88.4544Z" fill="#E6FF97"/>
<path fill-rule="evenodd" clip-rule="evenodd" d="M65.6369 88.8597C69.2399 88.6165 71.0639 90.238 71.1089 93.7241C70.0024 96.3804 68.0434 97.2588 65.2316 96.3589C62.4396 93.6823 62.575 91.1825 65.6369 88.8597Z" fill="#E6FF97"/>
<path fill-rule="evenodd" clip-rule="evenodd" d="M210.746 88.8608C212.925 88.6326 214.614 89.4433 215.813 91.293C216.175 95.3353 214.351 97.0244 210.341 96.36C207.553 93.6644 207.688 91.1645 210.746 88.8608Z" fill="#E6FF97"/>
<path fill-rule="evenodd" clip-rule="evenodd" d="M51.8555 89.6675C53.0788 89.6006 54.2948 89.6683 55.5035 89.8702C58.0283 91.561 58.1633 93.4524 55.9088 95.5453C51.665 96.8335 49.9764 95.2798 50.8422 90.8836C51.2657 90.5297 51.6034 90.1244 51.8555 89.6675Z" fill="#E6FF97"/>
<path fill-rule="evenodd" clip-rule="evenodd" d="M222.906 89.6698C226.706 88.9487 228.395 90.4352 227.973 94.1288C226.112 96.6336 224.085 96.7685 221.893 94.5342C221.396 92.6849 221.734 91.0635 222.906 89.6698Z" fill="#E6FF97"/>
<path fill-rule="evenodd" clip-rule="evenodd" d="M26.7254 90.4805C29.917 90.5826 30.7277 92.0014 29.1574 94.7368C26.1174 95.4798 24.9691 94.3314 25.7121 91.2912C26.1154 91.0618 26.453 90.7914 26.7254 90.4805Z" fill="#E6FF97"/>
<path fill-rule="evenodd" clip-rule="evenodd" d="M39.29 90.0742C42.8428 89.2391 44.3968 90.5902 43.9514 94.1278C42.3159 96.0995 40.5595 96.2349 38.682 94.5332C37.8073 92.8959 38.01 91.4094 39.29 90.0742Z" fill="#E6FF97"/>
<path fill-rule="evenodd" clip-rule="evenodd" d="M236.688 90.0762C239.108 89.5254 240.594 90.4038 241.146 92.7111C240.662 95.2037 239.176 96.0144 236.688 95.1433C235.125 93.4853 235.125 91.7966 236.688 90.0762Z" fill="#E6FF97"/>
<path fill-rule="evenodd" clip-rule="evenodd" d="M250.469 90.4806C253.225 90.464 254.171 91.7478 253.306 94.3316C251.124 95.5318 249.773 94.9238 249.253 92.5074C249.493 91.7279 249.898 91.0526 250.469 90.4806Z" fill="#E6FF97"/>
<path fill-rule="evenodd" clip-rule="evenodd" d="M12.9432 91.2908C15.642 90.8222 16.4525 91.8356 15.3752 94.331C12.8452 94.7052 12.0345 93.6918 12.9432 91.2908Z" fill="#E6FF97"/>
<path fill-rule="evenodd" clip-rule="evenodd" d="M263.44 91.2903C265.733 90.9575 266.409 91.8359 265.467 93.9251C263.132 94.3868 262.457 93.5084 263.44 91.2903Z" fill="#E6FF97"/>
<path fill-rule="evenodd" clip-rule="evenodd" d="M0.78304 91.6992C1.32347 91.6992 1.86394 91.6992 2.40437 91.6992C2.40437 92.375 2.40437 93.0503 2.40437 93.726C0.60672 93.9603 0.0662887 93.2846 0.78304 91.6992Z" fill="#E6FF97"/>
<path fill-rule="evenodd" clip-rule="evenodd" d="M118.735 100.207C124.824 101.171 126.513 104.414 123.802 109.936C118.714 113.284 115.404 112 113.871 106.085C114.401 103.193 116.023 101.233 118.735 100.207Z" fill="#E6FF97"/>
<path fill-rule="evenodd" clip-rule="evenodd" d="M131.707 100.207C137.931 100.682 139.891 103.79 137.584 109.53C135.331 112.134 132.696 112.607 129.68 110.949C126.633 107.929 126.498 104.821 129.275 101.626C130.058 101.034 130.868 100.562 131.707 100.207Z" fill="#E6FF97"/>
<path fill-rule="evenodd" clip-rule="evenodd" d="M143.867 100.614C150.354 100.005 152.853 102.843 151.365 109.126C147.806 113.021 144.429 112.886 141.232 108.721C140.651 107.138 140.516 105.516 140.827 103.857C141.649 102.563 142.662 101.482 143.867 100.614Z" fill="#E6FF97"/>
<path fill-rule="evenodd" clip-rule="evenodd" d="M104.549 101.02C110.151 100.339 112.515 102.771 111.642 108.316C111.187 109.177 110.579 109.92 109.818 110.546C104.341 112.361 101.571 110.402 101.509 104.668C102.174 103.128 103.188 101.912 104.549 101.02Z" fill="#E6FF97"/>
<path fill-rule="evenodd" clip-rule="evenodd" d="M156.837 100.615C163.529 100.341 165.759 103.313 163.525 109.533C161.392 112.043 158.892 112.516 156.027 110.952C152.575 107.161 152.845 103.716 156.837 100.615Z" fill="#E6FF97"/>
<path fill-rule="evenodd" clip-rule="evenodd" d="M170.618 101.018C176.597 100.714 178.691 103.416 176.901 109.125C175.081 111.055 172.851 111.663 170.213 110.95C167.591 109.277 166.712 106.913 167.578 103.856C168.395 102.675 169.409 101.73 170.618 101.018Z" fill="#E6FF97"/>
<path fill-rule="evenodd" clip-rule="evenodd" d="M91.9838 101.021C97.6544 101.21 99.4784 103.912 97.4558 109.128C94.0031 112.142 91.0308 111.737 88.5384 107.912C87.9681 104.729 89.1164 102.432 91.9838 101.021Z" fill="#E6FF97"/>
<path fill-rule="evenodd" clip-rule="evenodd" d="M183.183 101.424C185.989 100.791 188.218 101.601 189.871 103.856C190.832 107.271 189.684 109.636 186.426 110.95C181.93 111.045 179.972 108.815 180.549 104.262C181.235 103.103 182.114 102.158 183.183 101.424Z" fill="#E6FF97"/>
<path fill-rule="evenodd" clip-rule="evenodd" d="M78.6071 101.424C82.9855 101.2 84.9449 103.227 84.4845 107.504C82.7849 110.838 80.2856 111.581 76.9858 109.734C74.4298 106.293 74.9701 103.524 78.6071 101.424Z" fill="#E6FF97"/>
<path fill-rule="evenodd" clip-rule="evenodd" d="M197.37 101.425C201.769 101.432 203.593 103.594 202.842 107.911C201.112 110.901 198.748 111.509 195.749 109.735C193.159 106.3 193.699 103.53 197.37 101.425Z" fill="#E6FF97"/>
<path fill-rule="evenodd" clip-rule="evenodd" d="M66.0422 101.832C71.0979 102.076 72.5166 104.508 70.2982 109.129C67.5444 111.052 65.2474 110.647 63.4075 107.912C62.5624 105.067 63.4404 103.04 66.0422 101.832Z" fill="#E6FF97"/>
<path fill-rule="evenodd" clip-rule="evenodd" d="M210.34 102.235C215.242 101.998 216.863 104.16 215.204 108.721C212.155 111.241 209.791 110.701 208.111 107.1C207.654 104.906 208.397 103.285 210.34 102.235Z" fill="#E6FF97"/>
<path fill-rule="evenodd" clip-rule="evenodd" d="M52.2614 102.641C57.3824 102.414 58.7334 104.508 56.3147 108.924C51.8524 110.542 49.893 108.988 50.4374 104.262C51.0037 103.626 51.6117 103.085 52.2614 102.641Z" fill="#E6FF97"/>
<path fill-rule="evenodd" clip-rule="evenodd" d="M39.2903 103.044C44.2836 102.703 45.4996 104.663 42.9383 108.921C38.9526 109.8 37.3986 108.246 38.277 104.26C38.7005 103.906 39.0382 103.5 39.2903 103.044Z" fill="#E6FF97"/>
<path fill-rule="evenodd" clip-rule="evenodd" d="M223.311 102.641C226.777 102.261 228.466 103.748 228.378 107.1C227.347 109.248 225.658 109.991 223.311 109.329C221.528 108.12 220.92 106.432 221.487 104.262C222.054 103.626 222.662 103.085 223.311 102.641Z" fill="#E6FF97"/>
<path fill-rule="evenodd" clip-rule="evenodd" d="M236.688 103.047C240.13 102.638 241.549 104.124 240.944 107.506C239.358 109.502 237.602 109.637 235.674 107.911C235.177 106.062 235.515 104.44 236.688 103.047Z" fill="#E6FF97"/>
<path fill-rule="evenodd" clip-rule="evenodd" d="M26.7244 103.452C29.2305 103.457 30.3789 104.673 30.1697 107.1C29.3376 108.638 28.0543 109.11 26.319 108.519C24.611 106.639 24.7459 104.95 26.7244 103.452Z" fill="#E6FF97"/>
<path fill-rule="evenodd" clip-rule="evenodd" d="M250.064 103.86C253.707 103.522 254.652 104.941 252.901 108.117C249.411 108.51 248.465 107.092 250.064 103.86Z" fill="#E6FF97"/>
<path fill-rule="evenodd" clip-rule="evenodd" d="M12.944 104.263C15.9829 103.981 16.7934 105.13 15.376 107.709C12.6526 108.003 11.842 106.855 12.944 104.263Z" fill="#E6FF97"/>
<path fill-rule="evenodd" clip-rule="evenodd" d="M263.44 104.263C266.272 104.194 266.947 105.343 265.467 107.708C262.595 107.901 261.919 106.752 263.44 104.263Z" fill="#E6FF97"/>
<path fill-rule="evenodd" clip-rule="evenodd" d="M0.378261 105.076C2.25192 104.633 2.99501 105.309 2.6076 107.103C0.712742 107.846 -0.030356 107.17 0.378261 105.076Z" fill="#E6FF97"/>
<path fill-rule="evenodd" clip-rule="evenodd" d="M277.221 105.073C278.26 105.68 278.26 106.356 277.221 107.1C276.748 106.424 276.748 105.749 277.221 105.073Z" fill="#F6C3BB"/>
<path fill-rule="evenodd" clip-rule="evenodd" d="M130.49 112.774C136.6 112.196 139.37 114.898 138.8 120.881C137.811 123.153 136.122 124.639 133.733 125.34C136.216 126.331 138.243 127.952 139.813 130.204C141.045 127.822 142.936 126.268 145.488 125.543C143.089 124.36 141.4 122.536 140.421 120.07C139.845 115.848 141.669 113.416 145.893 112.774C149.482 112.921 151.847 114.678 152.986 118.043C155.494 112.43 159.142 111.485 163.93 115.206C166.128 119.619 164.98 122.794 160.485 124.732C158.231 125.373 156.407 124.765 155.013 122.908C154.164 121.926 153.489 120.845 152.986 119.665C152.271 120.514 151.73 121.46 151.365 122.502C149.982 123.566 148.563 124.579 147.109 125.543C149.817 126.359 151.776 128.048 152.986 130.61C154.991 126.248 158.166 125.1 162.512 127.164C166.713 131.488 166.173 135.137 160.89 138.109C159.021 138.517 157.265 138.247 155.621 137.298C154.743 136.15 153.865 135.001 152.986 133.852C151.825 136.432 149.866 138.054 147.109 138.717C149.89 139.594 151.849 141.351 152.986 143.987C154.518 140.147 157.288 138.728 161.296 139.73C164.689 141.315 165.972 143.95 165.146 147.635C163.899 149.626 162.21 151.112 160.08 152.094C161.935 152.937 163.489 154.153 164.741 155.742C165.431 162.349 162.526 164.984 156.026 163.647C155.003 162.355 153.99 161.071 152.986 159.796C152.016 160.515 151.341 161.461 150.96 162.633C148.46 164.923 145.69 165.261 142.65 163.647C139.057 159.317 139.463 155.466 143.866 152.094C142.078 150.845 140.727 149.224 139.813 147.229C138.693 149.209 137.207 150.83 135.354 152.094C140.568 155.964 140.704 159.95 135.76 164.052C130.357 165.605 127.25 163.578 126.437 157.972C126.484 156.864 126.821 155.851 127.45 154.931C128.413 153.9 129.427 152.954 130.49 152.094C128.571 150.714 127.085 148.958 126.032 146.824C124.905 149.235 123.149 151.059 120.762 152.296C124.701 153.758 126.255 156.528 125.424 160.606C123.075 164.369 119.9 165.247 115.898 163.241C111.993 158.517 112.804 154.869 118.33 152.296C115.943 151.058 114.187 149.234 113.061 146.824C112.079 148.551 110.728 149.969 109.008 151.08C103.151 151.71 100.517 149.075 101.104 143.176C103.541 139.347 106.716 138.603 110.629 140.946C111.589 141.988 112.4 143.137 113.061 144.392C115.404 139.269 119.052 138.12 124.005 140.946C124.799 142.06 125.542 143.209 126.234 144.392C126.949 141.651 128.638 139.827 131.301 138.92C129.907 138.052 128.623 137.039 127.45 135.879C127.121 135.095 126.918 134.284 126.842 133.447C125.518 133.42 124.91 134.095 125.018 135.474C121.625 139.084 118.112 139.219 114.48 135.879C112.204 129.238 114.568 126.063 121.573 126.353C123.743 127.237 125.094 128.791 125.626 131.015C126.032 131.015 126.437 131.015 126.842 131.015C127.395 128.097 129.152 126.273 132.112 125.543C125.715 121.949 125.175 117.692 130.49 112.774Z" fill="#E6FF97"/>
<path fill-rule="evenodd" clip-rule="evenodd" d="M118.331 112.774C124.43 113.257 126.524 116.365 124.613 122.098C120.529 126.204 117.016 125.799 114.075 120.882C113.055 116.838 114.474 114.136 118.331 112.774Z" fill="#E6FF97"/>
<path fill-rule="evenodd" clip-rule="evenodd" d="M104.954 113.182C110.023 112.78 112.522 115.077 112.453 120.073C110.25 124.691 107.007 125.637 102.725 122.91C99.7877 118.809 100.531 115.566 104.954 113.182Z" fill="#E6FF97"/>
<path fill-rule="evenodd" clip-rule="evenodd" d="M171.023 113.18C173.825 112.993 176.054 114.074 177.711 116.423C178.74 120.86 177.052 123.562 172.645 124.53C168.234 123.817 166.41 121.25 167.173 116.828C168.148 115.244 169.431 114.028 171.023 113.18Z" fill="#E6FF97"/>
<path fill-rule="evenodd" clip-rule="evenodd" d="M91.9839 113.586C94.996 113.369 97.2253 114.585 98.6719 117.234C99.0886 119.849 98.2103 121.944 96.0373 123.518C93.1979 124.696 90.8332 124.088 88.9439 121.693C87.3206 117.904 88.3339 115.202 91.9839 113.586Z" fill="#E6FF97"/>
<path fill-rule="evenodd" clip-rule="evenodd" d="M184.4 113.586C190.184 114.424 191.738 117.397 189.061 122.504C184.416 125.419 181.376 124.203 179.941 118.856C180.442 116.198 181.928 114.442 184.4 113.586Z" fill="#E6FF97"/>
<path fill-rule="evenodd" clip-rule="evenodd" d="M78.2025 113.992C84.1317 113.91 85.9557 116.613 83.6745 122.099C80.7998 124.448 78.2329 124.178 75.9731 121.289C74.8447 118.226 75.5881 115.793 78.2025 113.992Z" fill="#E6FF97"/>
<path fill-rule="evenodd" clip-rule="evenodd" d="M66.0425 114.398C69.2357 114.163 71.127 115.582 71.7172 118.654C71.5482 121.459 70.0618 123.012 67.2585 123.316C63.8403 122.696 62.4217 120.669 63.0025 117.236C63.7086 115.92 64.7219 114.974 66.0425 114.398Z" fill="#E6FF97"/>
<path fill-rule="evenodd" clip-rule="evenodd" d="M196.559 114.394C201.152 113.657 203.381 115.549 203.247 120.07C202.257 122.56 200.433 123.708 197.775 123.515C194.529 122.417 193.381 120.188 194.33 116.827C194.881 115.804 195.624 114.993 196.559 114.394Z" fill="#E6FF97"/>
<path fill-rule="evenodd" clip-rule="evenodd" d="M51.8558 115.207C54.4491 114.621 56.4081 115.431 57.7331 117.639C57.7558 121.776 55.7968 123.33 51.8558 122.301C49.1757 119.937 49.1757 117.573 51.8558 115.207Z" fill="#E6FF97"/>
<path fill-rule="evenodd" clip-rule="evenodd" d="M209.936 114.801C212.166 114.452 214.125 114.993 215.813 116.422C216.795 121.251 214.836 123.345 209.936 122.705C207.275 120.028 207.275 117.393 209.936 114.801Z" fill="#E6FF97"/>
<path fill-rule="evenodd" clip-rule="evenodd" d="M39.2903 115.612C44.1531 115.285 45.5044 117.245 43.3436 121.49C40.1285 123.031 38.2368 122.085 37.6689 118.652C37.842 117.427 38.3827 116.414 39.2903 115.612Z" fill="#E6FF97"/>
<path fill-rule="evenodd" clip-rule="evenodd" d="M223.312 115.206C227.671 114.901 229.225 116.792 227.973 120.881C226.091 122.888 224.065 123.024 221.893 121.286C220.697 118.767 221.169 116.741 223.312 115.206Z" fill="#E6FF97"/>
<path fill-rule="evenodd" clip-rule="evenodd" d="M237.094 115.616C240.11 115.389 241.529 116.74 241.35 119.67C240.532 121.869 238.978 122.612 236.688 121.9C234.407 119.578 234.542 117.484 237.094 115.616Z" fill="#E6FF97"/>
<path fill-rule="evenodd" clip-rule="evenodd" d="M26.3195 116.016C30.1098 115.97 31.1908 117.659 29.5622 121.083C26.0321 122.285 24.6135 121.001 25.3062 117.232C25.7298 116.878 26.0674 116.472 26.3195 116.016Z" fill="#E6FF97"/>
<path fill-rule="evenodd" clip-rule="evenodd" d="M250.468 116.423C254.225 116.461 255.036 118.015 252.9 121.085C250.664 121.865 249.313 121.121 248.847 118.855C248.995 117.738 249.536 116.927 250.468 116.423Z" fill="#E6FF97"/>
<path fill-rule="evenodd" clip-rule="evenodd" d="M12.9437 116.829C15.3095 116.431 16.458 117.376 16.3891 119.666C15.386 120.892 14.17 121.162 12.7411 120.477C11.942 119.214 12.0096 117.998 12.9437 116.829Z" fill="#E6FF97"/>
<path fill-rule="evenodd" clip-rule="evenodd" d="M0.783949 117.639C2.6722 117.443 3.21267 118.186 2.40528 119.869C1.74293 120.069 1.06736 120.136 0.378615 120.071C0.307804 119.212 0.442901 118.401 0.783949 117.639Z" fill="#E6FF97"/>
<path fill-rule="evenodd" clip-rule="evenodd" d="M263.035 117.232C266.287 116.732 267.098 117.88 265.467 120.678C262.743 120.972 261.933 119.824 263.035 117.232Z" fill="#E6FF97"/>
<path fill-rule="evenodd" clip-rule="evenodd" d="M277.221 117.641C277.675 118.365 277.743 119.176 277.423 120.073C276.694 119.317 276.626 118.506 277.221 117.641Z" fill="#E6FF97"/>
<path fill-rule="evenodd" clip-rule="evenodd" d="M104.144 126.558C107.423 125.826 110.058 126.772 112.048 129.395C113.311 135.433 110.811 138.203 104.549 137.705C101.607 136.043 100.458 133.543 101.104 130.206C102.05 128.923 103.064 127.707 104.144 126.558Z" fill="#E6FF97"/>
<path fill-rule="evenodd" clip-rule="evenodd" d="M170.213 126.561C174.804 125.876 177.506 127.768 178.32 132.236C177.605 136.649 175.038 138.473 170.618 137.709C165.417 134.191 165.282 130.475 170.213 126.561Z" fill="#E6FF97"/>
<path fill-rule="evenodd" clip-rule="evenodd" d="M77.7972 127.368C82.5372 126.777 84.9015 128.803 84.8906 133.448C83.3329 136.76 80.8336 137.773 77.3919 136.488C74.056 133.292 74.191 130.252 77.7972 127.368Z" fill="#E6FF97"/>
<path fill-rule="evenodd" clip-rule="evenodd" d="M91.1727 126.962C97.0549 126.423 99.4192 128.99 98.266 134.664C96.6378 137.354 94.2735 138.232 91.1727 137.299C86.8656 133.84 86.8656 130.394 91.1727 126.962Z" fill="#E6FF97"/>
<path fill-rule="evenodd" clip-rule="evenodd" d="M183.589 126.963C189.693 127.044 191.652 129.881 189.466 135.476C185.492 138.679 182.384 138.003 180.143 133.449C179.7 130.415 180.849 128.253 183.589 126.963Z" fill="#E6FF97"/>
<path fill-rule="evenodd" clip-rule="evenodd" d="M196.965 127.37C202.315 127.138 204.274 129.571 202.843 134.666C200.235 137.689 197.534 137.824 194.736 135.071C193.06 131.79 193.803 129.223 196.965 127.37Z" fill="#E6FF97"/>
<path fill-rule="evenodd" clip-rule="evenodd" d="M65.2318 127.771C70.3726 127.436 72.332 129.734 71.1091 134.662C68.5555 137.329 65.9885 137.329 63.4078 134.662C62.3235 131.904 62.9315 129.607 65.2318 127.771Z" fill="#E6FF97"/>
<path fill-rule="evenodd" clip-rule="evenodd" d="M210.747 127.771C215.859 127.949 217.413 130.381 215.408 135.067C212.75 137.329 210.318 137.058 208.112 134.256C207.842 132.905 207.842 131.554 208.112 130.203C208.948 129.297 209.826 128.486 210.747 127.771Z" fill="#E6FF97"/>
<path fill-rule="evenodd" clip-rule="evenodd" d="M52.6666 128.179C56.7949 128.314 58.349 130.341 57.3279 134.259C54.5619 137.132 52.1299 136.861 50.0319 133.448C49.6379 130.993 50.5163 129.236 52.6666 128.179Z" fill="#E6FF97"/>
<path fill-rule="evenodd" clip-rule="evenodd" d="M224.123 128.179C228.368 128.574 229.651 130.736 227.974 134.665C225.947 136.826 223.92 136.826 221.894 134.665C220.222 131.66 220.965 129.498 224.123 128.179Z" fill="#E6FF97"/>
<path fill-rule="evenodd" clip-rule="evenodd" d="M39.2903 128.992C42.9812 128.295 44.6703 129.781 44.3569 133.451C43.2224 135.392 41.5334 136 39.2903 135.275C37.1363 133.133 37.1363 131.039 39.2903 128.992Z" fill="#E6FF97"/>
<path fill-rule="evenodd" clip-rule="evenodd" d="M236.687 128.989C240.218 128.535 241.772 130.021 241.349 133.448C240.319 135.3 238.765 135.908 236.687 135.272C234.538 133.148 234.538 131.054 236.687 128.989Z" fill="#E6FF97"/>
<path fill-rule="evenodd" clip-rule="evenodd" d="M26.3195 129.396C30.2962 129.25 31.3768 130.939 29.5621 134.463C25.9879 135.62 24.5692 134.336 25.3061 130.613C25.7297 130.259 26.0673 129.853 26.3195 129.396Z" fill="#E6FF97"/>
<path fill-rule="evenodd" clip-rule="evenodd" d="M250.064 129.803C254.091 129.304 255.172 130.858 253.306 134.464C249.019 134.985 247.938 133.431 250.064 129.803Z" fill="#E6FF97"/>
<path fill-rule="evenodd" clip-rule="evenodd" d="M12.943 130.206C16.3855 129.789 17.3315 131.072 15.7803 134.057C12.4116 134.546 11.4658 133.262 12.943 130.206Z" fill="#E6FF97"/>
<path fill-rule="evenodd" clip-rule="evenodd" d="M263.034 130.205C265.891 129.881 266.837 131.03 265.872 133.65C263.92 134.751 262.704 134.21 262.224 132.029C262.456 131.378 262.726 130.769 263.034 130.205Z" fill="#E6FF97"/>
<path fill-rule="evenodd" clip-rule="evenodd" d="M0.783048 130.612C3.21006 130.679 3.7505 131.692 2.40438 133.653C-0.0667742 133.712 -0.607205 132.699 0.783048 130.612Z" fill="#E6FF97"/>
<path fill-rule="evenodd" clip-rule="evenodd" d="M276.815 131.019C277.299 131.209 277.569 131.614 277.626 132.235C277.547 133.687 277.141 133.687 276.41 132.235C276.664 131.863 276.8 131.458 276.815 131.019Z" fill="#E6FF97"/>
<path fill-rule="evenodd" clip-rule="evenodd" d="M170.214 139.936C176.945 139.566 179.309 142.538 177.307 148.854C174.574 151.763 171.602 152.033 168.39 149.665C165.662 145.796 166.27 142.553 170.214 139.936Z" fill="#E6FF97"/>
<path fill-rule="evenodd" clip-rule="evenodd" d="M92.3887 139.935C98.1878 140.524 100.012 143.496 97.8607 148.853C95.4878 151.113 92.8532 151.451 89.9567 149.866C86.6864 145.516 87.4971 142.205 92.3887 139.935Z" fill="#E6FF97"/>
<path fill-rule="evenodd" clip-rule="evenodd" d="M65.6372 140.338C70.5823 140.213 72.4063 142.509 71.1092 147.229C67.7843 150.652 65.0819 150.247 63.0026 146.013C62.7322 145.067 62.7322 144.121 63.0026 143.175C63.6892 142.017 64.5676 141.071 65.6372 140.338Z" fill="#E6FF97"/>
<path fill-rule="evenodd" clip-rule="evenodd" d="M79.0132 140.338C84.3247 140.833 86.0133 143.535 84.0799 148.445C82.1939 150.491 79.9646 150.964 77.3919 149.864C73.7702 145.962 74.3106 142.787 79.0132 140.338Z" fill="#E6FF97"/>
<path fill-rule="evenodd" clip-rule="evenodd" d="M183.184 140.338C189.628 139.989 191.723 142.826 189.467 148.851C185.71 151.945 182.603 151.405 180.144 147.229C179.619 144.229 180.632 141.932 183.184 140.338Z" fill="#E6FF97"/>
<path fill-rule="evenodd" clip-rule="evenodd" d="M196.56 140.749C201.563 140.146 203.792 142.308 203.248 147.235C201.805 149.946 199.576 150.824 196.56 149.87C194.441 148.651 193.563 146.827 193.925 144.397C194.566 143.013 195.444 141.797 196.56 140.749Z" fill="#E6FF97"/>
<path fill-rule="evenodd" clip-rule="evenodd" d="M51.8557 141.149C57.0225 140.702 58.7115 142.864 56.9224 147.635C54.1989 149.541 51.9023 149.136 50.0317 146.419C49.4946 144.253 50.1026 142.497 51.8557 141.149Z" fill="#E6FF97"/>
<path fill-rule="evenodd" clip-rule="evenodd" d="M210.341 141.151C215.66 141.125 217.348 143.558 215.408 148.447C212.527 150.873 210.095 150.467 208.112 147.231C207.842 146.015 207.842 144.799 208.112 143.583C208.663 142.56 209.406 141.749 210.341 141.151Z" fill="#E6FF97"/>
<path fill-rule="evenodd" clip-rule="evenodd" d="M39.696 141.555C43.3716 141.19 44.9252 142.812 44.3574 146.419C42.1584 149.11 39.9968 149.11 37.872 146.419C37.1866 144.243 37.7946 142.622 39.696 141.555Z" fill="#E6FF97"/>
<path fill-rule="evenodd" clip-rule="evenodd" d="M223.717 141.554C228.725 141.948 229.941 144.313 227.365 148.648C223.17 150.258 221.076 148.839 221.082 144.391C221.632 143.1 222.51 142.154 223.717 141.554Z" fill="#E6FF97"/>
<path fill-rule="evenodd" clip-rule="evenodd" d="M25.9142 142.366C29.5582 141.484 30.9769 142.835 30.1702 146.419C27.3649 148.905 25.5409 148.296 24.6982 144.595C24.8454 143.707 25.2507 142.963 25.9142 142.366Z" fill="#E6FF97"/>
<path fill-rule="evenodd" clip-rule="evenodd" d="M236.688 142.366C240.474 141.962 241.96 143.583 241.146 147.231C239.005 149.473 237.045 149.338 235.269 146.825C234.727 144.985 235.2 143.498 236.688 142.366Z" fill="#E6FF97"/>
<path fill-rule="evenodd" clip-rule="evenodd" d="M13.3494 142.771C15.7708 142.588 16.7842 143.669 16.3894 146.014C15.0163 147.596 13.6652 147.596 12.3361 146.014C11.94 144.669 12.2778 143.588 13.3494 142.771Z" fill="#E6FF97"/>
<path fill-rule="evenodd" clip-rule="evenodd" d="M250.469 142.771C252.958 142.494 254.241 143.575 254.319 146.014C252.888 148.361 251.131 148.631 249.05 146.825C248.545 145.096 249.018 143.745 250.469 142.771Z" fill="#E6FF97"/>
<path fill-rule="evenodd" clip-rule="evenodd" d="M0.378123 143.585C1.22584 143.511 2.03651 143.647 2.81012 143.99C3.37078 145.796 2.69525 146.539 0.783457 146.22C-0.101711 145.45 -0.236808 144.572 0.378123 143.585Z" fill="#E6FF97"/>
<path fill-rule="evenodd" clip-rule="evenodd" d="M263.44 143.582C266.329 143.666 267.004 144.949 265.467 147.433C263.102 147.771 262.089 146.757 262.427 144.393C262.83 144.163 263.168 143.893 263.44 143.582Z" fill="#E6FF97"/>
<path fill-rule="evenodd" clip-rule="evenodd" d="M276.815 144.396C277.299 144.586 277.569 144.991 277.626 145.612C277.526 147.042 277.121 147.042 276.41 145.612C276.485 145.172 276.62 144.767 276.815 144.396Z" fill="#F3A99C"/>
<path fill-rule="evenodd" clip-rule="evenodd" d="M104.955 152.5C110.51 152.243 112.942 154.81 112.251 160.202C110.401 163.828 107.563 164.841 103.739 163.242C101.42 161.262 100.677 158.763 101.509 155.743C102.384 154.334 103.532 153.253 104.955 152.5Z" fill="#E6FF97"/>
<path fill-rule="evenodd" clip-rule="evenodd" d="M171.429 152.501C174.503 152.451 176.732 153.802 178.117 156.555C178.318 162.028 175.683 164.392 170.213 163.649C167.143 161.598 166.265 158.829 167.579 155.339C168.604 153.967 169.888 153.021 171.429 152.501Z" fill="#E6FF97"/>
<path fill-rule="evenodd" clip-rule="evenodd" d="M91.9837 152.905C97.3604 152.864 99.4548 155.431 98.2664 160.607C96.6381 163.297 94.2738 164.175 91.173 163.242C88.5039 161.43 87.6255 158.93 88.5383 155.742C89.5278 154.545 90.6765 153.599 91.9837 152.905Z" fill="#E6FF97"/>
<path fill-rule="evenodd" clip-rule="evenodd" d="M183.995 152.906C189.729 153.302 191.553 156.14 189.467 161.419C187.265 163.706 184.765 164.044 181.968 162.432C178.838 158.448 179.513 155.273 183.995 152.906Z" fill="#E6FF97"/>
<path fill-rule="evenodd" clip-rule="evenodd" d="M78.6082 153.311C83.4159 153.187 85.3748 155.484 84.4855 160.203C83.004 162.866 80.7747 163.744 77.7975 162.837C75.6022 161.116 74.8593 158.887 75.5682 156.149C76.2743 154.833 77.2876 153.887 78.6082 153.311Z" fill="#E6FF97"/>
<path fill-rule="evenodd" clip-rule="evenodd" d="M196.56 153.717C201.554 153.106 203.784 155.267 203.248 160.203C200.682 163.61 197.844 163.88 194.736 161.014C194.119 159.443 193.984 157.822 194.33 156.15C194.881 155.127 195.624 154.316 196.56 153.717Z" fill="#E6FF97"/>
<path fill-rule="evenodd" clip-rule="evenodd" d="M65.6367 153.716C66.7258 153.65 67.8068 153.717 68.8793 153.919C72.6267 156.743 72.6267 159.581 68.8793 162.431C64.5171 162.933 62.5578 160.974 63.002 156.554C63.6886 155.395 64.567 154.449 65.6367 153.716Z" fill="#E6FF97"/>
<path fill-rule="evenodd" clip-rule="evenodd" d="M51.8558 154.527C55.9075 153.79 57.8665 155.411 57.7332 159.392C55.6031 162.785 53.1711 163.056 50.4372 160.202C49.3963 157.936 49.8693 156.045 51.8558 154.527Z" fill="#E6FF97"/>
<path fill-rule="evenodd" clip-rule="evenodd" d="M210.341 154.121C215.597 153.897 217.286 156.194 215.407 161.013C212.667 163.401 210.235 163.13 208.111 160.202C207.336 157.555 208.079 155.528 210.341 154.121Z" fill="#E6FF97"/>
<path fill-rule="evenodd" clip-rule="evenodd" d="M223.311 154.527C227.177 154.272 228.866 156.028 228.378 159.797C227.145 162.176 225.321 162.784 222.906 161.621C220.154 159.062 220.289 156.697 223.311 154.527Z" fill="#E6FF97"/>
<path fill-rule="evenodd" clip-rule="evenodd" d="M39.2896 154.933C43.0016 154.258 44.6906 155.744 44.3562 159.391C42.6279 162.225 40.6012 162.495 38.2762 160.202C37.2459 158.15 37.5839 156.394 39.2896 154.933Z" fill="#E6FF97"/>
<path fill-rule="evenodd" clip-rule="evenodd" d="M237.093 154.932C240.065 154.729 241.483 156.08 241.349 158.986C240.532 161.184 238.978 161.928 236.688 161.215C234.403 158.913 234.539 156.819 237.093 154.932Z" fill="#E6FF97"/>
<path fill-rule="evenodd" clip-rule="evenodd" d="M27.1303 155.341C29.7313 155.522 30.7446 156.873 30.1703 159.394C29.3381 160.932 28.0549 161.404 26.3196 160.813C25.8466 160.611 25.509 160.273 25.3063 159.8C25.0359 158.719 25.0359 157.638 25.3063 156.557C25.8774 156.038 26.4854 155.632 27.1303 155.341Z" fill="#E6FF97"/>
<path fill-rule="evenodd" clip-rule="evenodd" d="M250.064 155.744C254.225 155.648 255.17 157.336 252.901 160.811C248.919 160.816 247.973 159.127 250.064 155.744Z" fill="#E6FF97"/>
<path fill-rule="evenodd" clip-rule="evenodd" d="M12.9438 156.151C16.105 155.987 17.0511 157.271 15.7812 160.002C14.4295 160.93 13.2811 160.728 12.3358 159.394C12.0446 158.215 12.2473 157.134 12.9438 156.151Z" fill="#E6FF97"/>
<path fill-rule="evenodd" clip-rule="evenodd" d="M263.845 156.151C265.982 156.461 266.658 157.609 265.872 159.597C263.272 160.648 262.259 159.77 262.832 156.962C263.235 156.733 263.573 156.462 263.845 156.151Z" fill="#E6FF97"/>
<path fill-rule="evenodd" clip-rule="evenodd" d="M276.816 157.364C277.281 157.482 277.552 157.82 277.626 158.378C277.559 158.715 277.491 159.053 277.424 159.391C276.909 158.822 276.707 158.146 276.816 157.364Z" fill="#E6FF97"/>
<path fill-rule="evenodd" clip-rule="evenodd" d="M0.783432 156.959C2.74022 156.912 3.28065 157.791 2.40477 159.594C0.406674 159.767 -0.133757 158.888 0.783432 156.959Z" fill="#E6FF97"/>
<path fill-rule="evenodd" clip-rule="evenodd" d="M117.519 165.879C120.854 165.361 123.354 166.577 125.018 169.527C125.697 175.446 123.062 177.946 117.114 177.026C112.663 173.117 112.798 169.402 117.519 165.879Z" fill="#E6FF97"/>
<path fill-rule="evenodd" clip-rule="evenodd" d="M130.49 165.879C134.316 165.189 137.086 166.54 138.8 169.933C138.845 175.827 135.94 178.192 130.085 177.026C127.396 175.034 126.517 172.399 127.45 169.122C128.272 167.828 129.286 166.747 130.49 165.879Z" fill="#E6FF97"/>
<path fill-rule="evenodd" clip-rule="evenodd" d="M144.272 165.875C150.855 165.626 153.219 168.599 151.365 174.793C149.385 177.111 146.886 177.854 143.866 177.022C140.889 175.184 139.876 172.549 140.826 169.118C141.667 167.668 142.815 166.587 144.272 165.875Z" fill="#E6FF97"/>
<path fill-rule="evenodd" clip-rule="evenodd" d="M157.242 165.875C160.847 165.548 163.347 167.035 164.741 170.334C164.743 175.598 162.109 177.827 156.837 177.023C152.383 173.132 152.518 169.416 157.242 165.875Z" fill="#E6FF97"/>
<path fill-rule="evenodd" clip-rule="evenodd" d="M91.1734 166.688C97.495 166.246 99.5889 168.948 97.456 174.796C94.0212 177.76 91.0489 177.355 88.5387 173.579C88.2683 172.228 88.2683 170.877 88.5387 169.526C89.2253 168.367 90.1037 167.422 91.1734 166.688Z" fill="#E6FF97"/>
<path fill-rule="evenodd" clip-rule="evenodd" d="M104.548 166.283C110.105 165.692 112.604 168.124 112.047 173.579C109.229 177.884 105.986 178.289 102.319 174.795C100.479 171.261 101.222 168.424 104.548 166.283Z" fill="#E6FF97"/>
<path fill-rule="evenodd" clip-rule="evenodd" d="M170.618 166.286C175.979 165.903 178.343 168.336 177.712 173.583C175.521 176.953 172.616 177.696 168.997 175.812C165.903 172 166.443 168.825 170.618 166.286Z" fill="#E6FF97"/>
<path fill-rule="evenodd" clip-rule="evenodd" d="M183.183 166.687C187.935 166.109 190.3 168.136 190.277 172.767C188.081 177.06 185.108 177.736 181.359 174.794C179.553 171.483 180.161 168.781 183.183 166.687Z" fill="#E6FF97"/>
<path fill-rule="evenodd" clip-rule="evenodd" d="M77.7969 167.097C82.6195 166.451 84.8489 168.478 84.4849 173.177C82.0038 177.141 79.1665 177.411 75.9729 173.988C74.778 171.196 75.386 168.899 77.7969 167.097Z" fill="#E6FF97"/>
<path fill-rule="evenodd" clip-rule="evenodd" d="M196.56 167.094C201.654 166.445 203.748 168.607 202.843 173.58C200.285 177.127 197.583 177.262 194.736 173.985C193.652 171.227 194.26 168.93 196.56 167.094Z" fill="#E6FF97"/>
<path fill-rule="evenodd" clip-rule="evenodd" d="M52.667 167.908C56.6672 167.787 58.2208 169.679 57.3283 173.583C55.8111 175.107 53.9871 175.58 51.8563 175.002C50.3553 173.625 49.8827 171.936 50.4376 169.935C50.8863 168.875 51.6293 168.2 52.667 167.908Z" fill="#E6FF97"/>
<path fill-rule="evenodd" clip-rule="evenodd" d="M65.2317 167.5C69.7074 166.91 71.6668 168.801 71.109 173.175C69.8043 175.45 67.8453 176.193 65.2317 175.404C63.2962 173.923 62.6882 171.964 63.4077 169.527C64.0996 168.904 64.7076 168.228 65.2317 167.5Z" fill="#E6FF97"/>
<path fill-rule="evenodd" clip-rule="evenodd" d="M210.341 167.497C214.786 167.146 216.61 169.172 215.813 173.577C213.745 175.913 211.448 176.184 208.922 174.388C207.243 171.609 207.716 169.312 210.341 167.497Z" fill="#E6FF97"/>
<path fill-rule="evenodd" clip-rule="evenodd" d="M222.501 168.311C223.859 168.244 225.21 168.312 226.554 168.514C229.087 170.344 229.222 172.37 226.96 174.594C223.709 176.01 221.817 174.996 221.285 171.554C221.377 170.331 221.782 169.25 222.501 168.311Z" fill="#E6FF97"/>
<path fill-rule="evenodd" clip-rule="evenodd" d="M39.2903 168.309C42.0304 167.852 43.7871 168.933 44.5597 171.552C43.8045 174.228 42.0478 175.242 39.2903 174.592C38.9527 174.254 38.6146 173.916 38.277 173.578C38.0066 172.227 38.0066 170.876 38.277 169.525C38.8513 169.29 39.189 168.885 39.2903 168.309Z" fill="#E6FF97"/>
<path fill-rule="evenodd" clip-rule="evenodd" d="M27.1307 168.716C29.6317 168.984 30.645 170.335 30.1707 172.769C29.2948 174.238 28.0111 174.712 26.3201 174.188C24.5099 172.014 24.7798 170.19 27.1307 168.716Z" fill="#E6FF97"/>
<path fill-rule="evenodd" clip-rule="evenodd" d="M236.688 168.717C240.267 168.175 241.685 169.661 240.944 173.176C238.885 175.4 236.993 175.265 235.27 172.771C234.765 171.042 235.238 169.691 236.688 168.717Z" fill="#E6FF97"/>
<path fill-rule="evenodd" clip-rule="evenodd" d="M250.469 169.118C254.246 169.181 255.057 170.735 252.901 173.78C249.996 174.388 248.848 173.239 249.456 170.334C249.739 169.851 250.076 169.446 250.469 169.118Z" fill="#E6FF97"/>
<path fill-rule="evenodd" clip-rule="evenodd" d="M13.3488 169.524C16.238 169.608 16.9133 170.892 15.3754 173.375C12.0954 173.412 11.4199 172.128 13.3488 169.524Z" fill="#E6FF97"/>
<path fill-rule="evenodd" clip-rule="evenodd" d="M263.439 169.931C265.866 169.719 266.677 170.732 265.871 172.971C262.657 173.748 261.846 172.734 263.439 169.931Z" fill="#E6FF97"/>
<path fill-rule="evenodd" clip-rule="evenodd" d="M0.783417 170.336C2.67166 170.139 3.21214 170.882 2.40475 172.565C0.47058 172.893 -0.0698913 172.15 0.783417 170.336Z" fill="#E6FF97"/>
<path fill-rule="evenodd" clip-rule="evenodd" d="M276.816 170.739C277.281 170.857 277.552 171.195 277.626 171.753C277.559 172.09 277.491 172.428 277.424 172.766C276.909 172.197 276.707 171.521 276.816 170.739Z" fill="#E6FF97"/>
<path fill-rule="evenodd" clip-rule="evenodd" d="M117.114 179.252C122.737 178.325 125.236 180.622 124.612 186.143C123.281 188.988 121.051 190.136 117.924 189.588C114.763 187.808 113.749 185.173 114.884 181.684C115.436 180.661 116.178 179.85 117.114 179.252Z" fill="#E6FF97"/>
<path fill-rule="evenodd" clip-rule="evenodd" d="M132.112 178.848C137.276 179.217 139.235 181.919 137.989 186.955C135.916 189.736 133.282 190.479 130.085 189.184C126.845 185.925 126.845 182.682 130.085 179.456C130.848 179.375 131.523 179.173 132.112 178.848Z" fill="#E6FF97"/>
<path fill-rule="evenodd" clip-rule="evenodd" d="M144.677 178.848C150.023 178.722 152.253 181.289 151.365 186.55C149.819 189.444 147.454 190.457 144.272 189.59C141.418 187.865 140.405 185.366 141.232 182.091C142.106 180.682 143.254 179.601 144.677 178.848Z" fill="#E6FF97"/>
<path fill-rule="evenodd" clip-rule="evenodd" d="M104.955 179.255C109.901 178.998 112.13 181.295 111.643 186.146C110.103 188.96 107.738 189.973 104.55 189.186C100.637 185.701 100.772 182.391 104.955 179.255Z" fill="#E6FF97"/>
<path fill-rule="evenodd" clip-rule="evenodd" d="M156.837 179.255C160.205 178.428 162.704 179.509 164.336 182.498C164.696 187.543 162.331 189.908 157.242 189.592C154.389 187.867 153.376 185.367 154.202 182.093C154.889 180.934 155.767 179.989 156.837 179.255Z" fill="#E6FF97"/>
<path fill-rule="evenodd" clip-rule="evenodd" d="M170.619 179.255C175.543 178.977 177.772 181.274 177.307 186.146C175.909 188.973 173.679 189.986 170.619 189.186C167.922 187.71 166.909 185.48 167.579 182.498C168.401 181.204 169.414 180.123 170.619 179.255Z" fill="#E6FF97"/>
<path fill-rule="evenodd" clip-rule="evenodd" d="M78.2021 180.067C83.5298 179.775 85.3538 182.072 83.6741 186.958C80.7776 189.845 78.2102 189.574 75.9728 186.147C75.1974 183.5 75.9403 181.473 78.2021 180.067Z" fill="#E6FF97"/>
<path fill-rule="evenodd" clip-rule="evenodd" d="M91.5781 179.659C96.3902 179.268 98.4842 181.431 97.8608 186.145C96.3793 188.808 94.1499 189.687 91.1728 188.78C88.9248 187.267 88.1818 185.172 88.9434 182.497C89.6301 181.338 90.5084 180.392 91.5781 179.659Z" fill="#E6FF97"/>
<path fill-rule="evenodd" clip-rule="evenodd" d="M183.59 179.659C188.402 179.269 190.496 181.43 189.872 186.145C188.391 188.808 186.161 189.686 183.184 188.78C179.818 185.512 179.953 182.472 183.59 179.659Z" fill="#E6FF97"/>
<path fill-rule="evenodd" clip-rule="evenodd" d="M196.965 180.068C201.151 179.728 203.11 181.62 202.843 185.743C201.512 188.332 199.417 189.21 196.56 188.378C194.674 186.843 194.066 184.883 194.736 182.5C195.287 181.478 196.03 180.667 196.965 180.068Z" fill="#E6FF97"/>
<path fill-rule="evenodd" clip-rule="evenodd" d="M65.2312 180.469C67.3653 180.092 69.1893 180.632 70.7032 182.09C71.8665 186.739 70.0425 188.698 65.2312 187.968C62.5479 185.469 62.5479 182.969 65.2312 180.469Z" fill="#E6FF97"/>
<path fill-rule="evenodd" clip-rule="evenodd" d="M210.341 180.474C214.614 180.084 216.438 181.976 215.813 186.149C213.331 188.827 210.899 188.827 208.517 186.149C207.96 185.259 207.825 184.313 208.112 183.311C208.787 182.299 209.53 181.354 210.341 180.474Z" fill="#E6FF97"/>
<path fill-rule="evenodd" clip-rule="evenodd" d="M52.2603 180.873C57.0972 180.894 58.4485 182.988 56.3136 187.156C52.1772 188.691 50.2182 187.273 50.4363 182.9C51.1282 182.277 51.7362 181.601 52.2603 180.873Z" fill="#E6FF97"/>
<path fill-rule="evenodd" clip-rule="evenodd" d="M223.312 180.877C227.258 180.565 228.811 182.322 227.973 186.147C226.776 187.678 225.222 188.151 223.312 187.566C221.46 186.536 220.852 184.981 221.488 182.904C222.18 182.281 222.788 181.605 223.312 180.877Z" fill="#E6FF97"/>
<path fill-rule="evenodd" clip-rule="evenodd" d="M40.1011 181.282C43.0219 181.161 44.3056 182.512 43.9518 185.335C42.2611 187.86 40.3698 187.995 38.2771 185.741C37.6257 183.689 38.2337 182.203 40.1011 181.282Z" fill="#E6FF97"/>
<path fill-rule="evenodd" clip-rule="evenodd" d="M236.688 181.688C241.103 181.424 242.184 183.113 239.93 186.755C236.379 187.934 234.96 186.651 235.674 182.904C236.098 182.55 236.436 182.145 236.688 181.688Z" fill="#E6FF97"/>
<path fill-rule="evenodd" clip-rule="evenodd" d="M26.319 182.094C29.359 181.553 30.5073 182.769 29.7643 185.742C28.614 187.175 27.3303 187.31 25.9137 186.147C25.2927 184.69 25.4281 183.339 26.319 182.094Z" fill="#E6FF97"/>
<path fill-rule="evenodd" clip-rule="evenodd" d="M250.469 182.091C253.759 182.043 254.57 183.462 252.901 186.347C249.193 186.565 248.382 185.146 250.469 182.091Z" fill="#E6FF97"/>
<path fill-rule="evenodd" clip-rule="evenodd" d="M13.7547 182.498C16.1198 182.836 16.6601 183.984 15.376 185.944C13.1467 186.417 12.2684 185.538 12.7413 183.309C13.1445 183.079 13.4823 182.809 13.7547 182.498Z" fill="#E6FF97"/>
<path fill-rule="evenodd" clip-rule="evenodd" d="M263.441 182.901C265.965 182.709 266.641 183.655 265.467 185.739C263.899 186.519 262.953 186.046 262.63 184.32C262.824 183.792 263.094 183.319 263.441 182.901Z" fill="#E6FF97"/>
<path fill-rule="evenodd" clip-rule="evenodd" d="M0.783575 183.309C2.09223 183.173 2.70023 183.713 2.60758 184.93C0.749324 185.705 0.141324 185.165 0.783575 183.309Z" fill="#E6FF97"/>
<path fill-rule="evenodd" clip-rule="evenodd" d="M117.924 192.627C122.663 192.568 124.757 194.865 124.207 199.518C121.099 203.842 117.992 203.842 114.884 199.518C114.614 198.302 114.614 197.086 114.884 195.87C115.706 194.576 116.72 193.495 117.924 192.627Z" fill="#E6FF97"/>
<path fill-rule="evenodd" clip-rule="evenodd" d="M130.895 192.635C134.179 192.148 136.543 193.364 137.989 196.283C138.326 200.81 136.232 202.904 131.706 202.566C128.734 201.494 127.585 199.4 128.261 196.283C128.902 194.898 129.78 193.682 130.895 192.635Z" fill="#E6FF97"/>
<path fill-rule="evenodd" clip-rule="evenodd" d="M144.677 192.635C147.803 192.213 150.032 193.429 151.365 196.284C151.606 200.995 149.376 203.09 144.677 202.567C141.947 201.138 140.934 198.908 141.637 195.878C142.459 194.584 143.472 193.503 144.677 192.635Z" fill="#E6FF97"/>
<path fill-rule="evenodd" clip-rule="evenodd" d="M92.3892 193.037C97.2415 193.481 98.7951 195.914 97.0505 200.334C92.8926 203.63 90.123 202.684 88.7412 197.496C89.2195 195.397 90.4355 193.911 92.3892 193.037Z" fill="#E6FF97"/>
<path fill-rule="evenodd" clip-rule="evenodd" d="M104.954 193.037C111.252 193.138 112.874 195.909 109.818 201.347C104.491 203.455 101.992 201.63 102.32 195.875C103.006 194.716 103.885 193.77 104.954 193.037Z" fill="#E6FF97"/>
<path fill-rule="evenodd" clip-rule="evenodd" d="M157.242 193.037C160.953 192.435 163.25 193.922 164.133 197.496C163.524 201.454 161.227 203.008 157.242 202.158C154.792 200.76 153.914 198.666 154.607 195.875C155.294 194.716 156.172 193.771 157.242 193.037Z" fill="#E6FF97"/>
<path fill-rule="evenodd" clip-rule="evenodd" d="M171.024 193.038C176.186 192.995 178.01 195.428 176.496 200.334C174.401 202.564 172.037 202.901 169.402 201.348C166.815 197.893 167.355 195.123 171.024 193.038Z" fill="#E6FF97"/>
<path fill-rule="evenodd" clip-rule="evenodd" d="M77.7964 193.849C82.8006 193.117 84.76 195.144 83.6737 199.929C81.0273 202.764 78.5953 202.628 76.3777 199.524C75.8135 197.332 76.2861 195.44 77.7964 193.849Z" fill="#E6FF97"/>
<path fill-rule="evenodd" clip-rule="evenodd" d="M183.589 193.445C187.794 193.125 189.753 195.017 189.466 199.12C188.135 201.709 186.041 202.587 183.183 201.755C179.826 198.751 179.961 195.982 183.589 193.445Z" fill="#E6FF97"/>
<path fill-rule="evenodd" clip-rule="evenodd" d="M196.56 193.846C200.813 193.17 202.772 194.927 202.437 199.115C201.109 201.389 199.15 202.132 196.56 201.345C193.872 198.815 193.872 196.315 196.56 193.846Z" fill="#E6FF97"/>
<path fill-rule="evenodd" clip-rule="evenodd" d="M65.2317 194.252C69.3682 193.461 71.1922 195.083 70.7037 199.116C68.8676 201.989 66.7059 202.26 64.2184 199.927C63.2217 197.78 63.5597 195.888 65.2317 194.252Z" fill="#E6FF97"/>
<path fill-rule="evenodd" clip-rule="evenodd" d="M51.8556 194.659C56.403 193.867 57.9567 195.623 56.5169 199.929C52.226 202.101 50.3348 200.75 50.8422 195.875C51.2658 195.522 51.6035 195.116 51.8556 194.659Z" fill="#E6FF97"/>
<path fill-rule="evenodd" clip-rule="evenodd" d="M210.341 194.25C213.472 193.405 215.229 194.554 215.61 197.696C215.513 200.022 214.297 201.17 211.962 201.141C210.979 201.18 210.101 200.91 209.328 200.33C208.251 197.973 208.589 195.946 210.341 194.25Z" fill="#E6FF97"/>
<path fill-rule="evenodd" clip-rule="evenodd" d="M39.6961 195.061C42.8691 194.653 44.1524 196.004 43.5468 199.115C41.8898 201.223 40.2685 201.223 38.6828 199.115C38.2219 197.508 38.56 196.157 39.6961 195.061Z" fill="#E6FF97"/>
<path fill-rule="evenodd" clip-rule="evenodd" d="M223.312 194.658C227.947 194.609 229.028 196.568 226.554 200.536C223.042 201.21 221.488 199.792 221.893 196.28C222.311 195.661 222.784 195.12 223.312 194.658Z" fill="#E6FF97"/>
<path fill-rule="evenodd" clip-rule="evenodd" d="M237.093 195.065C240.926 195.281 241.736 196.969 239.525 200.132C236.705 200.69 235.422 199.542 235.675 196.687C235.954 195.937 236.427 195.396 237.093 195.065Z" fill="#E6FF97"/>
<path fill-rule="evenodd" clip-rule="evenodd" d="M26.725 195.469C29.6851 195.51 30.4958 196.794 29.157 199.32C26.5008 200.429 25.3525 199.551 25.7116 196.685C25.9946 196.202 26.3322 195.797 26.725 195.469Z" fill="#E6FF97"/>
<path fill-rule="evenodd" clip-rule="evenodd" d="M13.3489 196.28C15.5846 196.269 16.125 197.148 14.9702 198.915C12.9721 199.088 12.4317 198.21 13.3489 196.28Z" fill="#E6FF97"/>
<path fill-rule="evenodd" clip-rule="evenodd" d="M250.469 195.873C253.508 195.591 254.318 196.739 252.901 199.318C249.744 199.747 248.933 198.598 250.469 195.873Z" fill="#E6FF97"/>
<path fill-rule="evenodd" clip-rule="evenodd" d="M263.845 196.28C265.455 196.513 265.86 197.392 265.061 198.915C262.986 198.844 262.581 197.966 263.845 196.28Z" fill="#E6FF97"/>
<path fill-rule="evenodd" clip-rule="evenodd" d="M118.33 206.414C122.24 206.607 124.064 208.634 123.802 212.494C122.527 215.181 120.433 216.06 117.519 215.129C114.087 211.878 114.357 208.973 118.33 206.414Z" fill="#E6FF97"/>
<path fill-rule="evenodd" clip-rule="evenodd" d="M131.301 206.414C136.838 206.476 138.527 209.043 136.368 214.116C133.175 216.519 130.608 215.979 128.667 212.494C128.396 211.413 128.396 210.333 128.667 209.252C129.353 208.093 130.232 207.147 131.301 206.414Z" fill="#E6FF97"/>
<path fill-rule="evenodd" clip-rule="evenodd" d="M144.677 206.414C150.478 206.592 152.099 209.227 149.541 214.319C146.589 216.4 144.09 215.927 142.043 212.9C141.772 211.684 141.772 210.468 142.043 209.252C142.729 208.093 143.608 207.147 144.677 206.414Z" fill="#E6FF97"/>
<path fill-rule="evenodd" clip-rule="evenodd" d="M91.5779 207.226C96.1103 206.556 97.9343 208.448 97.0499 212.901C94.5988 215.6 92.1668 215.6 89.7539 212.901C89.0684 210.514 89.6764 208.622 91.5779 207.226Z" fill="#E6FF97"/>
<path fill-rule="evenodd" clip-rule="evenodd" d="M105.36 206.819C109.559 206.76 111.383 208.787 110.832 212.899C108.391 215.964 105.824 216.099 103.13 213.304C101.924 210.451 102.667 208.29 105.36 206.819Z" fill="#E6FF97"/>
<path fill-rule="evenodd" clip-rule="evenodd" d="M157.242 206.818C161.433 206.22 163.528 207.976 163.525 212.088C162.376 214.993 160.282 216.006 157.242 215.128C154.006 212.308 154.006 209.538 157.242 206.818Z" fill="#E6FF97"/>
<path fill-rule="evenodd" clip-rule="evenodd" d="M171.024 206.82C175.448 206.558 177.272 208.585 176.496 212.901C174.94 215.35 172.845 215.958 170.213 214.725C167.324 211.734 167.594 209.099 171.024 206.82Z" fill="#E6FF97"/>
<path fill-rule="evenodd" clip-rule="evenodd" d="M183.589 207.225C187.639 206.75 189.463 208.506 189.061 212.495C187.878 214.735 186.054 215.478 183.589 214.725C180.351 212.153 180.351 209.654 183.589 207.225Z" fill="#E6FF97"/>
<path fill-rule="evenodd" clip-rule="evenodd" d="M78.6078 207.226C80.7861 206.998 82.4751 207.809 83.6745 209.658C83.8593 213.525 82.0353 215.079 78.2025 214.32C77.4895 213.911 77.0165 213.303 76.7838 212.496C76.5135 211.28 76.5135 210.064 76.7838 208.848C77.4595 208.348 78.0675 207.807 78.6078 207.226Z" fill="#E6FF97"/>
<path fill-rule="evenodd" clip-rule="evenodd" d="M65.6368 207.63C70.1397 207.466 71.4906 209.425 69.6902 213.507C65.3717 215.268 63.5477 213.849 64.2181 209.251C64.7759 208.763 65.2485 208.222 65.6368 207.63Z" fill="#E6FF97"/>
<path fill-rule="evenodd" clip-rule="evenodd" d="M196.56 207.629C200.901 206.904 202.725 208.66 202.032 212.898C199.827 214.994 197.664 214.994 195.546 212.898C195.037 210.919 195.374 209.162 196.56 207.629Z" fill="#E6FF97"/>
<path fill-rule="evenodd" clip-rule="evenodd" d="M210.341 208.034C214.811 207.589 216.162 209.413 214.394 213.507C210.532 215.045 208.708 213.761 208.922 209.656C209.48 209.167 209.952 208.627 210.341 208.034Z" fill="#E6FF97"/>
<path fill-rule="evenodd" clip-rule="evenodd" d="M52.6669 208.034C55.7884 207.978 57.0717 209.464 56.5176 212.493C54.7281 214.611 52.9714 214.611 51.2483 212.493C50.7063 210.617 51.1794 209.13 52.6669 208.034Z" fill="#E6FF97"/>
<path fill-rule="evenodd" clip-rule="evenodd" d="M223.312 208.44C227.284 208.011 228.5 209.565 226.96 213.101C224.27 214.478 222.649 213.735 222.096 210.872C222.148 209.877 222.553 209.066 223.312 208.44Z" fill="#E6FF97"/>
<path fill-rule="evenodd" clip-rule="evenodd" d="M39.6952 208.847C43.2545 208.479 44.2001 209.831 42.5326 212.901C38.8517 213.587 37.9061 212.235 39.6952 208.847Z" fill="#E6FF97"/>
<path fill-rule="evenodd" clip-rule="evenodd" d="M237.093 208.849C240.39 208.8 241.2 210.219 239.525 213.105C235.825 213.264 235.015 211.845 237.093 208.849Z" fill="#E6FF97"/>
<path fill-rule="evenodd" clip-rule="evenodd" d="M26.725 209.248C29.5567 209.18 30.2324 210.328 28.7517 212.694C25.8803 212.886 25.2046 211.738 26.725 209.248Z" fill="#E6FF97"/>
<path fill-rule="evenodd" clip-rule="evenodd" d="M250.468 209.657C253.18 209.183 253.856 210.061 252.495 212.292C250.161 212.753 249.485 211.875 250.468 209.657Z" fill="#E6FF97"/>
<path fill-rule="evenodd" clip-rule="evenodd" d="M13.3486 210.062C15.0413 209.791 15.5817 210.399 14.97 211.886C14.4458 212.085 13.9053 212.152 13.3486 212.089C13.3486 211.413 13.3486 210.737 13.3486 210.062Z" fill="#E6FF97"/>
<path fill-rule="evenodd" clip-rule="evenodd" d="M263.845 210.061C265.329 210 265.734 210.608 265.061 211.885C263.524 212.082 263.118 211.474 263.845 210.061Z" fill="#F2A99C"/>
<path fill-rule="evenodd" clip-rule="evenodd" d="M117.924 219.788C121.725 219.603 123.549 221.36 123.396 225.057C120.829 228.84 118.262 228.84 115.695 225.057C115.221 222.768 115.965 221.011 117.924 219.788Z" fill="#E6FF97"/>
<path fill-rule="evenodd" clip-rule="evenodd" d="M131.301 219.789C136.663 219.775 138.149 222.139 135.76 226.883C133.04 228.581 130.811 228.108 129.072 225.464C128.802 224.383 128.802 223.302 129.072 222.221C129.623 221.199 130.366 220.388 131.301 219.789Z" fill="#E6FF97"/>
<path fill-rule="evenodd" clip-rule="evenodd" d="M144.677 219.79C148.928 219.38 150.752 221.271 150.149 225.465C147.143 228.953 144.576 228.684 142.448 224.655C142.21 222.565 142.953 220.943 144.677 219.79Z" fill="#E6FF97"/>
<path fill-rule="evenodd" clip-rule="evenodd" d="M157.647 219.792C161.802 219.683 163.491 221.575 162.714 225.467C160.268 228.668 157.836 228.668 155.418 225.467C155.147 224.386 155.147 223.305 155.418 222.224C155.969 221.201 156.712 220.39 157.647 219.792Z" fill="#E6FF97"/>
<path fill-rule="evenodd" clip-rule="evenodd" d="M91.9833 220.195C95.69 219.84 97.2437 221.462 96.6446 225.06C94.669 228.13 92.507 228.265 90.1593 225.465C89.5022 223.204 90.1102 221.447 91.9833 220.195Z" fill="#E6FF97"/>
<path fill-rule="evenodd" clip-rule="evenodd" d="M104.955 220.198C108.784 219.638 110.608 221.259 110.427 225.062C109.244 227.302 107.42 228.045 104.955 227.291C102.265 224.896 102.265 222.532 104.955 220.198Z" fill="#E6FF97"/>
<path fill-rule="evenodd" clip-rule="evenodd" d="M171.024 220.194C174.669 219.854 176.358 221.475 176.091 225.058C174.363 227.756 172.201 228.162 169.605 226.274C168.409 223.756 168.881 221.729 171.024 220.194Z" fill="#E6FF97"/>
<path fill-rule="evenodd" clip-rule="evenodd" d="M183.995 220.197C188.019 220.228 189.438 222.119 188.251 225.872C186.013 228.111 183.986 227.976 182.171 225.467C181.514 223.206 182.122 221.449 183.995 220.197Z" fill="#E6FF97"/>
<path fill-rule="evenodd" clip-rule="evenodd" d="M78.6078 220.602C81.9254 220.073 83.479 221.425 83.2691 224.655C82.3672 226.715 80.8136 227.458 78.6078 226.885C75.9224 224.758 75.9224 222.664 78.6078 220.602Z" fill="#E6FF97"/>
<path fill-rule="evenodd" clip-rule="evenodd" d="M197.37 220.6C200.705 220.353 202.124 221.84 201.626 225.059C200.573 226.982 199.019 227.522 196.965 226.68C194.714 224.442 194.849 222.416 197.37 220.6Z" fill="#E6FF97"/>
<path fill-rule="evenodd" clip-rule="evenodd" d="M65.6367 221.01C69.8153 220.655 71.0313 222.344 69.2847 226.077C65.535 227.462 63.9809 226.178 64.6234 222.226C65.0469 221.872 65.3846 221.467 65.6367 221.01Z" fill="#E6FF97"/>
<path fill-rule="evenodd" clip-rule="evenodd" d="M210.746 221.01C214.979 221.093 215.925 222.917 213.583 226.482C210.494 227.041 209.075 225.757 209.327 222.631C209.885 222.143 210.358 221.602 210.746 221.01Z" fill="#E6FF97"/>
<path fill-rule="evenodd" clip-rule="evenodd" d="M52.6659 221.414C56.4428 221.477 57.2535 223.031 55.0979 226.076C51.989 226.613 50.8407 225.329 51.6526 222.225C52.0559 221.995 52.3935 221.725 52.6659 221.414Z" fill="#E6FF97"/>
<path fill-rule="evenodd" clip-rule="evenodd" d="M223.716 221.414C226.273 221.092 227.421 222.173 227.162 224.657C225.802 226.606 224.316 226.742 222.703 225.062C222.268 223.603 222.606 222.387 223.716 221.414Z" fill="#E6FF97"/>
<path fill-rule="evenodd" clip-rule="evenodd" d="M40.1011 221.819C42.9903 221.903 43.6656 223.187 42.1277 225.67C39.6949 226.073 38.817 225.059 39.4931 222.63C39.7837 222.41 39.9863 222.139 40.1011 221.819Z" fill="#E6FF97"/>
<path fill-rule="evenodd" clip-rule="evenodd" d="M237.093 222.221C239.792 221.752 240.602 222.765 239.525 225.261C236.588 225.777 235.777 224.764 237.093 222.221Z" fill="#E6FF97"/>
<path fill-rule="evenodd" clip-rule="evenodd" d="M26.7244 222.631C28.7048 222.187 29.3801 222.863 28.751 224.658C26.576 225.456 25.9003 224.78 26.7244 222.631Z" fill="#E6FF97"/>
<path fill-rule="evenodd" clip-rule="evenodd" d="M250.874 222.629C252.763 222.432 253.303 223.175 252.496 224.858C250.561 225.186 250.021 224.443 250.874 222.629Z" fill="#F3AEA2"/>
<path fill-rule="evenodd" clip-rule="evenodd" d="M118.33 233.575C122.805 233.748 124.021 235.842 121.978 239.858C117.91 241.331 116.086 239.912 116.506 235.602C116.99 234.792 117.598 234.117 118.33 233.575Z" fill="#E6FF97"/>
<path fill-rule="evenodd" clip-rule="evenodd" d="M131.706 233.575C136.248 233.813 137.464 235.907 135.354 239.858C131.547 241.315 129.588 240.031 129.477 236.007C130.028 234.985 130.771 234.174 131.706 233.575Z" fill="#E6FF97"/>
<path fill-rule="evenodd" clip-rule="evenodd" d="M144.677 233.573C148.125 233.174 149.813 234.66 149.744 238.032C149.174 239.82 147.958 240.63 146.096 240.464C145.142 240.544 144.332 240.273 143.664 239.654C142.605 237.344 142.942 235.317 144.677 233.573Z" fill="#E6FF97"/>
<path fill-rule="evenodd" clip-rule="evenodd" d="M157.647 233.575C162.272 233.794 163.488 235.888 161.295 239.858C157.433 241.396 155.609 240.112 155.823 236.007C156.363 235.132 156.971 234.321 157.647 233.575Z" fill="#E6FF97"/>
<path fill-rule="evenodd" clip-rule="evenodd" d="M91.9834 233.977C96.0838 233.949 97.2998 235.773 95.6314 239.449C91.7082 241.064 90.0192 239.78 90.5647 235.598C91.1225 235.11 91.5951 234.57 91.9834 233.977Z" fill="#E6FF97"/>
<path fill-rule="evenodd" clip-rule="evenodd" d="M104.954 233.98C106.713 233.715 108.267 234.12 109.615 235.196C110.582 238.826 109.163 240.515 105.359 240.263C102.842 238.293 102.707 236.199 104.954 233.98Z" fill="#E6FF97"/>
<path fill-rule="evenodd" clip-rule="evenodd" d="M171.024 233.978C174.333 233.441 175.887 234.792 175.685 238.031C173.994 240.918 171.967 241.188 169.605 238.842C169.035 236.838 169.507 235.217 171.024 233.978Z" fill="#E6FF97"/>
<path fill-rule="evenodd" clip-rule="evenodd" d="M183.589 234.383C186.696 233.785 188.25 235.001 188.25 238.032C187.63 239.424 186.549 240.099 185.007 240.058C183.152 239.943 182.274 238.93 182.373 237.018C182.329 235.919 182.734 235.041 183.589 234.383Z" fill="#E6FF97"/>
<path fill-rule="evenodd" clip-rule="evenodd" d="M78.6076 234.385C82.4947 234.211 83.5757 235.833 81.8502 239.249C78.2464 240.577 76.8277 239.361 77.5942 235.601C78.0178 235.247 78.3554 234.841 78.6076 234.385Z" fill="#E6FF97"/>
<path fill-rule="evenodd" clip-rule="evenodd" d="M197.37 234.382C201.554 234.347 202.5 236.036 200.207 239.449C196.821 240.322 195.537 239.038 196.357 235.598C196.78 235.245 197.118 234.839 197.37 234.382Z" fill="#E6FF97"/>
<path fill-rule="evenodd" clip-rule="evenodd" d="M66.042 234.79C69.3835 234.68 70.3296 236.099 68.8793 239.046C67.6921 239.361 66.5434 239.294 65.434 238.844C64.5135 237.302 64.7161 235.951 66.042 234.79Z" fill="#E6FF97"/>
<path fill-rule="evenodd" clip-rule="evenodd" d="M210.746 234.79C214.088 234.68 215.034 236.099 213.584 239.046C209.907 239.507 208.961 238.088 210.746 234.79Z" fill="#E6FF97"/>
<path fill-rule="evenodd" clip-rule="evenodd" d="M52.6661 235.192C55.5553 235.276 56.2306 236.56 54.6928 239.043C51.8449 238.946 51.1692 237.662 52.6661 235.192Z" fill="#E6FF97"/>
<path fill-rule="evenodd" clip-rule="evenodd" d="M223.718 235.195C226.348 235.055 227.158 236.204 226.15 238.64C223.031 239.104 222.221 237.955 223.718 235.195Z" fill="#E6FF97"/>
<path fill-rule="evenodd" clip-rule="evenodd" d="M40.1013 235.599C42.5284 235.665 43.0687 236.679 41.7226 238.639C39.7495 238.522 39.2091 237.508 40.1013 235.599Z" fill="#E6FF97"/>
<path fill-rule="evenodd" clip-rule="evenodd" d="M237.093 236.004C238.967 235.562 239.71 236.238 239.322 238.031C237.427 238.775 236.685 238.099 237.093 236.004Z" fill="#E6FF97"/>
<path fill-rule="evenodd" clip-rule="evenodd" d="M26.7245 236.409C27.4002 236.409 28.0755 236.409 28.7512 236.409C28.812 237.893 28.204 238.299 26.9272 237.625C26.7314 237.241 26.6641 236.836 26.7245 236.409Z" fill="#E6FF97"/>
<path fill-rule="evenodd" clip-rule="evenodd" d="M117.925 247.762C122.34 247.499 123.421 249.188 121.168 252.829C118.541 253.749 117.055 252.871 116.709 250.194C116.761 249.199 117.166 248.388 117.925 247.762Z" fill="#E6FF97"/>
<path fill-rule="evenodd" clip-rule="evenodd" d="M131.301 247.761C135.389 247.38 136.605 249.002 134.949 252.626C132.17 254.174 130.548 253.364 130.085 250.194C130.137 249.198 130.542 248.388 131.301 247.761Z" fill="#E6FF97"/>
<path fill-rule="evenodd" clip-rule="evenodd" d="M144.677 247.76C149.42 247.667 150.365 249.492 147.514 253.233C145.085 253.712 143.733 252.699 143.461 250.192C143.513 249.197 143.918 248.386 144.677 247.76Z" fill="#E6FF97"/>
<path fill-rule="evenodd" clip-rule="evenodd" d="M157.647 247.758C161.73 247.701 162.811 249.39 160.89 252.825C156.409 253.279 155.328 251.59 157.647 247.758Z" fill="#E6FF97"/>
<path fill-rule="evenodd" clip-rule="evenodd" d="M105.359 247.759C109.542 247.688 110.488 249.377 108.197 252.826C103.982 253.017 103.036 251.328 105.359 247.759Z" fill="#E6FF97"/>
<path fill-rule="evenodd" clip-rule="evenodd" d="M171.429 247.761C174.398 247.555 175.546 248.906 174.874 251.814C173.837 252.969 172.553 253.307 171.023 252.828C169.284 250.965 169.419 249.275 171.429 247.761Z" fill="#E6FF97"/>
<path fill-rule="evenodd" clip-rule="evenodd" d="M79.0131 248.166C82.3846 248.363 83.0603 249.782 81.0398 252.422C77.6301 252.346 76.9544 250.927 79.0131 248.166Z" fill="#E6FF97"/>
<path fill-rule="evenodd" clip-rule="evenodd" d="M91.9838 248.165C94.751 247.628 96.0347 248.708 95.8345 251.408C94.4746 253.358 92.9886 253.493 91.3758 251.813C90.998 250.466 91.2007 249.25 91.9838 248.165Z" fill="#E6FF97"/>
<path fill-rule="evenodd" clip-rule="evenodd" d="M183.994 248.169C187.414 248.001 188.359 249.42 186.831 252.425C182.947 252.81 182.001 251.391 183.994 248.169Z" fill="#E6FF97"/>
<path fill-rule="evenodd" clip-rule="evenodd" d="M197.776 248.166C201.151 248.397 201.827 249.815 199.802 252.422C196.393 252.346 195.717 250.927 197.776 248.166Z" fill="#E6FF97"/>
<path fill-rule="evenodd" clip-rule="evenodd" d="M66.4481 248.571C68.784 248.686 69.4597 249.834 68.4748 252.017C65.5308 252.35 64.8555 251.201 66.4481 248.571Z" fill="#E6FF97"/>
<path fill-rule="evenodd" clip-rule="evenodd" d="M210.747 248.976C213.599 248.613 214.275 249.626 212.774 252.017C210.457 252.179 209.782 251.166 210.747 248.976Z" fill="#E6FF97"/>
<path fill-rule="evenodd" clip-rule="evenodd" d="M53.0716 248.978C55.0285 248.932 55.5689 249.81 54.6929 251.613C52.6946 251.786 52.1543 250.908 53.0716 248.978Z" fill="#E6FF97"/>
<path fill-rule="evenodd" clip-rule="evenodd" d="M223.717 249.382C225.591 248.94 226.334 249.615 225.946 251.409C224.052 252.153 223.309 251.477 223.717 249.382Z" fill="#E6FF97"/>
<path fill-rule="evenodd" clip-rule="evenodd" d="M105.765 261.139C107.927 260.938 108.941 261.884 108.805 263.976C107.708 265.386 106.492 265.521 105.157 264.382C104.796 263.166 104.998 262.086 105.765 261.139Z" fill="#E6FF97"/>
<path fill-rule="evenodd" clip-rule="evenodd" d="M118.33 261.138C120.965 260.732 121.978 261.813 121.37 264.381C120.135 265.995 118.919 265.995 117.722 264.381C117.361 263.165 117.564 262.085 118.33 261.138Z" fill="#E6FF97"/>
<path fill-rule="evenodd" clip-rule="evenodd" d="M131.706 261.138C134.285 260.812 135.433 261.893 135.152 264.38C133.916 265.803 132.565 265.938 131.098 264.786C130.721 263.439 130.923 262.223 131.706 261.138Z" fill="#E6FF97"/>
<path fill-rule="evenodd" clip-rule="evenodd" d="M145.082 261.139C148.638 261.102 149.449 262.521 147.514 265.396C145.385 266.148 144.304 265.405 144.271 263.166C144.246 262.35 144.516 261.674 145.082 261.139Z" fill="#E6FF97"/>
<path fill-rule="evenodd" clip-rule="evenodd" d="M158.053 261.138C160.688 260.732 161.701 261.813 161.093 264.381C158.423 266.411 157.072 265.735 157.04 262.354C157.323 261.871 157.661 261.466 158.053 261.138Z" fill="#E6FF97"/>
<path fill-rule="evenodd" clip-rule="evenodd" d="M171.835 261.139C173.79 261.134 174.668 262.08 174.469 263.976C173.391 265.381 172.175 265.516 170.821 264.382C170.35 262.975 170.687 261.893 171.835 261.139Z" fill="#E6FF97"/>
<path fill-rule="evenodd" clip-rule="evenodd" d="M79.4179 261.542C81.3465 261.754 81.8872 262.767 81.0393 264.582C78.4865 264.783 77.9457 263.769 79.4179 261.542Z" fill="#E6FF97"/>
<path fill-rule="evenodd" clip-rule="evenodd" d="M91.9832 261.541C94.4136 261.068 95.427 262.014 95.0233 264.379C92.0647 265.679 91.0514 264.733 91.9832 261.541Z" fill="#E6FF97"/>
<path fill-rule="evenodd" clip-rule="evenodd" d="M183.995 261.544C186.693 261.075 187.504 262.089 186.427 264.584C183.691 265.179 182.88 264.166 183.995 261.544Z" fill="#E6FF97"/>
<path fill-rule="evenodd" clip-rule="evenodd" d="M197.371 261.949C200.082 261.475 200.758 262.353 199.397 264.584C198.857 264.854 198.316 264.854 197.776 264.584C197.402 263.756 197.267 262.878 197.371 261.949Z" fill="#E6FF97"/>
<path fill-rule="evenodd" clip-rule="evenodd" d="M131.706 275.325C134.418 274.851 135.094 275.729 133.733 277.96C131.617 278.207 130.941 277.328 131.706 275.325Z" fill="#E6FF97"/>
<path fill-rule="evenodd" clip-rule="evenodd" d="M145.082 275.325C147.794 274.851 148.47 275.729 147.109 277.96C144.986 278.2 144.31 277.322 145.082 275.325Z" fill="#E6FF97"/>
<path fill-rule="evenodd" clip-rule="evenodd" d="M105.765 275.328C106.44 275.328 107.116 275.328 107.791 275.328C107.791 276.139 107.791 276.95 107.791 277.76C107.116 277.76 106.44 277.76 105.765 277.76C105.765 276.95 105.765 276.139 105.765 275.328Z" fill="#E6FF97"/>
<path fill-rule="evenodd" clip-rule="evenodd" d="M118.736 275.326C120.624 275.129 121.164 275.872 120.357 277.555C118.423 277.884 117.882 277.141 118.736 275.326Z" fill="#E6FF97"/>
<path fill-rule="evenodd" clip-rule="evenodd" d="M158.053 275.33C159.927 274.887 160.67 275.563 160.282 277.356C158.02 278.269 157.277 277.594 158.053 275.33Z" fill="#E6FF97"/>
<path fill-rule="evenodd" clip-rule="evenodd" d="M171.834 275.326C173.723 275.129 174.263 275.872 173.456 277.555C171.521 277.884 170.981 277.141 171.834 275.326Z" fill="#E6FF97"/>
<path fill-rule="evenodd" clip-rule="evenodd" d="M92.7941 275.328C93.3345 275.328 93.8752 275.328 94.4155 275.328C94.4155 276.004 94.4155 276.679 94.4155 277.355C92.8935 277.329 92.3531 276.654 92.7941 275.328Z" fill="#E6FF97"/>
<ellipse cx="136.211" cy="142.37" rx="96.4576" ry="90.9819" fill="white"/>
<g filter="url(#filter0_ii_277_7398)">
<circle cx="87.0006" cy="110.859" r="21.1216" transform="rotate(6.03276 87.0006 110.859)" fill="url(#paint0_linear_277_7398)"/>
<circle cx="182.776" cy="114.272" r="21.1216" transform="rotate(6.03276 182.776 114.272)" fill="url(#paint1_linear_277_7398)"/>
<circle cx="182.776" cy="114.272" r="21.1216" transform="rotate(6.03276 182.776 114.272)" fill="url(#paint2_linear_277_7398)"/>
<ellipse cx="136.124" cy="148.468" rx="60.5855" ry="53.3597" transform="rotate(6.03276 136.124 148.468)" fill="url(#paint3_linear_277_7398)"/>
<ellipse cx="136.124" cy="148.468" rx="60.5855" ry="53.3597" transform="rotate(6.03276 136.124 148.468)" fill="url(#paint4_linear_277_7398)"/>
</g>
<g filter="url(#filter1_g_277_7398)">
<ellipse cx="137.081" cy="155.276" rx="16.6749" ry="14.4516" transform="rotate(6.03276 137.081 155.276)" fill="url(#paint5_linear_277_7398)"/>
</g>
<circle cx="113.084" cy="144.355" r="5.00248" transform="rotate(6.03276 113.084 144.355)" fill="#343434"/>
<ellipse cx="137.841" cy="148.092" rx="7.78163" ry="5.00248" transform="rotate(6.03276 137.841 148.092)" fill="#343434"/>
<circle cx="159.982" cy="144.841" r="5.00248" transform="rotate(6.03276 159.982 144.841)" fill="#343434"/>
<path d="M97.5924 105.828C91.0744 108.27 83.9325 118.731 81.1762 123.656C77.1916 120.813 68.723 113.508 76.0355 103.55C83.3479 93.5911 94.2294 100.629 97.5924 105.828Z" fill="url(#paint6_linear_277_7398)"/>
<path d="M173.563 107.322C180.069 109.795 187.159 120.291 189.891 125.23C193.89 122.407 202.394 115.144 195.131 105.15C187.868 95.1551 176.952 102.139 173.563 107.322Z" fill="url(#paint7_linear_277_7398)"/>
<path d="M126.282 112.395C126.273 112.402 126.065 113.085 125.722 114.518C125.356 116.049 125.568 117.373 125.839 118.194C126.046 118.82 126.705 119.444 127.666 120.189C128.673 120.97 130.096 121.134 131.51 121.244C133.031 121.362 134.318 120.791 135.256 120.26C136.202 119.726 136.828 118.903 137.284 118.106C137.769 117.259 137.856 116.201 137.935 115.17C138.088 113.162 137.373 111.974 136.819 111.225C136.61 110.943 136.224 110.942 135.903 110.923C135.226 110.884 134.565 111.848 134.221 112.564C133.987 113.052 134.07 113.814 134.23 114.645C134.414 115.601 135.636 116.536 137.083 117.553C137.795 118.054 138.561 118.379 139.343 118.661C140.125 118.944 140.925 119.137 141.747 119.278C143.383 119.559 144.981 119.291 146.387 118.596C147.733 117.93 148.392 116.798 148.766 115.94C149.05 115.054 149.236 113.931 149.294 112.844C149.288 112.42 149.21 112.253 148.95 111.921" stroke="#946345" stroke-width="2" stroke-linecap="round"/>
<defs>
<filter id="filter0_ii_277_7398" x="63.877" y="85.7363" width="142.022" height="120.182" filterUnits="userSpaceOnUse" color-interpolation-filters="sRGB">
<feFlood flood-opacity="0" result="BackgroundImageFix"/>
<feBlend mode="normal" in="SourceGraphic" in2="BackgroundImageFix" result="shape"/>
<feColorMatrix in="SourceAlpha" type="matrix" values="0 0 0 0 0 0 0 0 0 0 0 0 0 0 0 0 0 0 127 0" result="hardAlpha"/>
<feOffset dx="-2" dy="-4"/>
<feGaussianBlur stdDeviation="6.2"/>
<feComposite in2="hardAlpha" operator="arithmetic" k2="-1" k3="1"/>
<feColorMatrix type="matrix" values="0 0 0 0 0.296725 0 0 0 0 0.181987 0 0 0 0 0.100032 0 0 0 0.25 0"/>
<feBlend mode="multiply" in2="shape" result="effect1_innerShadow_277_7398"/>
<feColorMatrix in="SourceAlpha" type="matrix" values="0 0 0 0 0 0 0 0 0 0 0 0 0 0 0 0 0 0 127 0" result="hardAlpha"/>
<feOffset dx="2" dy="4"/>
<feGaussianBlur stdDeviation="7.35"/>
<feComposite in2="hardAlpha" operator="arithmetic" k2="-1" k3="1"/>
<feColorMatrix type="matrix" values="0 0 0 0 1 0 0 0 0 0.985571 0 0 0 0 0.950402 0 0 0 0.47 0"/>
<feBlend mode="plus-lighter" in2="effect1_innerShadow_277_7398" result="effect2_innerShadow_277_7398"/>
</filter>
<filter id="filter1_g_277_7398" x="116.429" y="136.797" width="41.3057" height="36.959" filterUnits="userSpaceOnUse" color-interpolation-filters="sRGB">
<feFlood flood-opacity="0" result="BackgroundImageFix"/>
<feBlend mode="normal" in="SourceGraphic" in2="BackgroundImageFix" result="shape"/>
<feTurbulence type="fractalNoise" baseFrequency="0.99900001287460327 0.99900001287460327" numOctaves="3" seed="3106" />
<feDisplacementMap in="shape" scale="8" xChannelSelector="R" yChannelSelector="G" result="displacedImage" width="100%" height="100%" />
<feMerge result="effect1_texture_277_7398">
<feMergeNode in="displacedImage"/>
</feMerge>
</filter>
<linearGradient id="paint0_linear_277_7398" x1="87.0006" y1="89.7376" x2="94.2264" y2="118.641" gradientUnits="userSpaceOnUse">
<stop stop-color="#AC8270"/>
<stop offset="1" stop-color="#815027"/>
</linearGradient>
<linearGradient id="paint1_linear_277_7398" x1="182.776" y1="93.1507" x2="182.776" y2="135.394" gradientUnits="userSpaceOnUse">
<stop stop-color="#7B5B4D"/>
<stop offset="1" stop-color="#815027"/>
</linearGradient>
<linearGradient id="paint2_linear_277_7398" x1="182.776" y1="93.1507" x2="182.776" y2="135.394" gradientUnits="userSpaceOnUse">
<stop stop-color="#AC8270"/>
<stop offset="0.722281" stop-color="#815027"/>
</linearGradient>
<linearGradient id="paint3_linear_277_7398" x1="136.124" y1="95.108" x2="136.124" y2="201.827" gradientUnits="userSpaceOnUse">
<stop stop-color="#7B5B4D"/>
<stop offset="1" stop-color="#815027"/>
</linearGradient>
<linearGradient id="paint4_linear_277_7398" x1="134.236" y1="55.2694" x2="135.691" y2="201.827" gradientUnits="userSpaceOnUse">
<stop stop-color="#CC9467"/>
<stop offset="1" stop-color="#6F4C3D"/>
</linearGradient>
<linearGradient id="paint5_linear_277_7398" x1="135.414" y1="143.048" x2="134.138" y2="165.576" gradientUnits="userSpaceOnUse">
<stop stop-color="#E2B691"/>
<stop offset="1" stop-color="#B58160"/>
</linearGradient>
<linearGradient id="paint6_linear_277_7398" x1="81.5319" y1="94.9833" x2="92.2736" y2="112.896" gradientUnits="userSpaceOnUse">
<stop stop-color="#D0A98A"/>
<stop offset="1" stop-color="#8F5B3B"/>
</linearGradient>
<linearGradient id="paint7_linear_277_7398" x1="189.677" y1="96.5564" x2="178.847" y2="114.415" gradientUnits="userSpaceOnUse">
<stop stop-color="#D0A98A"/>
<stop offset="1" stop-color="#8F5B3B"/>
</linearGradient>
</defs>
</svg>
