<svg width="328" height="330" viewBox="0 0 328 330" fill="none" xmlns="http://www.w3.org/2000/svg">
<path fill-rule="evenodd" clip-rule="evenodd" d="M125.201 0.100618C126.951 0.0284884 127.429 0.750266 126.635 2.26595C124.822 2.5001 124.344 1.77832 125.201 0.100618Z" fill="#E6FF97"/>
<path fill-rule="evenodd" clip-rule="evenodd" d="M140.019 0.0999145C142.015 -0.222143 142.652 0.499635 141.931 2.26525C141.313 2.50103 140.675 2.58124 140.019 2.50584C140.019 1.70385 140.019 0.901906 140.019 0.0999145Z" fill="#E6FF97"/>
<path fill-rule="evenodd" clip-rule="evenodd" d="M155.793 0.101949C157.705 -0.218857 158.502 0.583134 158.183 2.50787C157.386 2.50787 156.59 2.50787 155.793 2.50787C155.793 1.70588 155.793 0.90394 155.793 0.101949Z" fill="#E6FF97"/>
<path fill-rule="evenodd" clip-rule="evenodd" d="M171.567 0.100309C173.306 -0.267028 174.023 0.374537 173.718 2.02505C171.526 2.94536 170.809 2.3038 171.567 0.100309Z" fill="#E6FF97"/>
<path fill-rule="evenodd" clip-rule="evenodd" d="M186.862 0.10039C188.492 0.0444758 189.129 0.846419 188.774 2.50631C186.654 2.78425 186.017 1.98226 186.862 0.10039Z" fill="#E6FF97"/>
<path fill-rule="evenodd" clip-rule="evenodd" d="M202.636 0.10039C204.266 0.0444758 204.903 0.846419 204.548 2.50631C202.428 2.78425 201.791 1.98226 202.636 0.10039Z" fill="#E6FF97"/>
<path fill-rule="evenodd" clip-rule="evenodd" d="M155.315 14.5347C158.871 14.1754 159.827 15.5388 158.183 18.6248C154.809 18.8481 153.853 17.4849 155.315 14.5347Z" fill="#E6FF97"/>
<path fill-rule="evenodd" clip-rule="evenodd" d="M108.95 14.5371C111.591 14.4796 112.388 15.6826 111.34 18.146C110.412 18.5035 109.536 18.4232 108.711 17.9054C108.445 16.7579 108.524 15.6351 108.95 14.5371Z" fill="#E6FF97"/>
<path fill-rule="evenodd" clip-rule="evenodd" d="M124.724 14.538C127.833 14.3637 128.629 15.5667 127.114 18.1469C123.895 18.5444 123.098 17.3414 124.724 14.538Z" fill="#E6FF97"/>
<path fill-rule="evenodd" clip-rule="evenodd" d="M139.541 14.5366C143.385 14.2973 144.182 15.6606 141.931 18.6266C140.879 19.0236 140.003 18.783 139.302 17.9048C138.966 16.736 139.045 15.6132 139.541 14.5366Z" fill="#E6FF97"/>
<path fill-rule="evenodd" clip-rule="evenodd" d="M171.089 14.5352C174.538 14.1445 175.494 15.4276 173.957 18.3847C170.756 19.0266 169.8 17.7437 171.089 14.5352Z" fill="#E6FF97"/>
<path fill-rule="evenodd" clip-rule="evenodd" d="M186.384 14.535C189.717 14.4289 190.513 15.7923 188.774 18.6251C185.641 18.6044 184.844 17.2408 186.384 14.535Z" fill="#E6FF97"/>
<path fill-rule="evenodd" clip-rule="evenodd" d="M202.158 14.538C205.267 14.3637 206.064 15.5667 204.548 18.1469C201.724 18.5059 200.928 17.3029 202.158 14.538Z" fill="#E6FF97"/>
<path fill-rule="evenodd" clip-rule="evenodd" d="M218.409 14.5371C220.647 14.7179 221.284 15.8406 220.321 17.9054C218.748 18.7124 217.792 18.2312 217.453 16.4618C217.574 15.705 217.892 15.0634 218.409 14.5371Z" fill="#E6FF97"/>
<path fill-rule="evenodd" clip-rule="evenodd" d="M94.1319 15.0171C96.3589 14.7836 96.9961 15.6658 96.0439 17.6637C93.7629 18.0534 93.1258 17.1715 94.1319 15.0171Z" fill="#E6FF97"/>
<path fill-rule="evenodd" clip-rule="evenodd" d="M108.95 29.4512C112.995 29.8222 113.791 31.6665 111.34 34.9848C108.314 35.3062 107.119 33.9426 107.755 30.8947C108.254 30.4747 108.652 29.9935 108.95 29.4512Z" fill="#E6FF97"/>
<path fill-rule="evenodd" clip-rule="evenodd" d="M124.245 29.4555C128.335 29.0003 129.61 30.6844 128.069 34.5079C125.185 36.0708 123.592 35.2687 123.289 32.102C123.239 31.054 123.557 30.1715 124.245 29.4555Z" fill="#E6FF97"/>
<path fill-rule="evenodd" clip-rule="evenodd" d="M139.063 29.4526C143.449 28.8068 144.883 30.491 143.365 34.505C140.331 36.0886 138.579 35.2066 138.107 31.8585C138.077 30.8894 138.396 30.0873 139.063 29.4526Z" fill="#E6FF97"/>
<path fill-rule="evenodd" clip-rule="evenodd" d="M154.837 29.4557C158.336 28.5804 160.009 29.8633 159.856 33.3052C159.634 33.9937 159.235 34.5548 158.661 34.9893C155.727 36.0234 153.974 35.061 153.403 32.1022C153.577 31.0474 154.055 30.165 154.837 29.4557Z" fill="#E6FF97"/>
<path fill-rule="evenodd" clip-rule="evenodd" d="M170.611 29.4557C174.109 28.5804 175.782 29.8633 175.63 33.3052C175.407 33.9937 175.009 34.5548 174.435 34.9893C169.623 35.6952 168.348 33.8508 170.611 29.4557Z" fill="#E6FF97"/>
<path fill-rule="evenodd" clip-rule="evenodd" d="M185.906 29.451C190.575 29.2455 191.69 31.0899 189.252 34.9846C185.424 35.781 184.07 34.2571 185.189 30.4134C185.532 30.1516 185.771 29.8306 185.906 29.451Z" fill="#E6FF97"/>
<path fill-rule="evenodd" clip-rule="evenodd" d="M202.158 29.4523C205.991 29.4004 207.107 31.0845 205.504 34.5048C202.035 35.8261 200.522 34.6232 200.963 30.8959C201.462 30.4758 201.861 29.9946 202.158 29.4523Z" fill="#E6FF97"/>
<path fill-rule="evenodd" clip-rule="evenodd" d="M217.453 29.9329C221.513 29.4377 222.628 30.9612 220.799 34.5041C217.646 35.2726 216.292 34.0696 216.736 30.8953C217.079 30.6335 217.318 30.3125 217.453 29.9329Z" fill="#E6FF97"/>
<path fill-rule="evenodd" clip-rule="evenodd" d="M94.1322 29.9336C97.6316 30.3277 98.2687 31.8516 96.0442 34.5049C92.4951 34.2566 91.8579 32.7331 94.1322 29.9336Z" fill="#E6FF97"/>
<path fill-rule="evenodd" clip-rule="evenodd" d="M232.749 30.4164C235.374 29.7803 236.569 30.7427 236.334 33.3035C232.817 35.2413 231.622 34.2789 232.749 30.4164Z" fill="#E6FF97"/>
<path fill-rule="evenodd" clip-rule="evenodd" d="M77.8807 30.413C80.9895 30.2388 81.7863 31.4418 80.2706 34.0219C77.5403 34.2303 76.744 33.0273 77.8807 30.413Z" fill="#E6FF97"/>
<path fill-rule="evenodd" clip-rule="evenodd" d="M249.001 30.418C251.863 30.4969 252.5 31.6998 250.913 34.0269C250.142 34.3733 249.425 34.2934 248.762 33.7863C248.426 32.6175 248.505 31.4949 249.001 30.418Z" fill="#E6FF97"/>
<path fill-rule="evenodd" clip-rule="evenodd" d="M63.5409 31.8613C65.2894 32.2492 65.2894 32.8906 63.5409 33.7861C63.2221 33.6258 62.9038 33.4651 62.585 33.3049C62.9162 32.815 63.2345 32.3339 63.5409 31.8613Z" fill="#E6FF97"/>
<path fill-rule="evenodd" clip-rule="evenodd" d="M124.245 43.8867C128.169 43.5845 129.842 45.349 129.264 49.1797C126.794 51.8705 124.564 51.7102 122.572 48.6985C122.253 47.7361 122.253 46.7738 122.572 45.8114C123.23 45.2316 123.787 44.5901 124.245 43.8867Z" fill="#E6FF97"/>
<path fill-rule="evenodd" clip-rule="evenodd" d="M93.6539 44.3712C97.8635 44.3544 98.9787 46.1987 96.9998 49.9048C93.2643 51.1184 91.7505 49.7552 92.4589 45.8148C92.9584 45.3947 93.3566 44.9135 93.6539 44.3712Z" fill="#E6FF97"/>
<path fill-rule="evenodd" clip-rule="evenodd" d="M107.994 44.3717C110.011 44.0387 111.763 44.5199 113.251 45.8152C114.064 48.6095 113.028 50.2133 110.144 50.6271C107.877 50.6704 106.842 49.5473 107.038 47.2588C106.972 46.1323 107.291 45.17 107.994 44.3717Z" fill="#E6FF97"/>
<path fill-rule="evenodd" clip-rule="evenodd" d="M139.063 44.3737C144.612 44.2519 146.046 46.578 143.365 51.3509C139.941 52.7112 137.87 51.5881 137.151 47.9826C137.355 46.5279 137.993 45.325 139.063 44.3737Z" fill="#E6FF97"/>
<path fill-rule="evenodd" clip-rule="evenodd" d="M155.315 44.3669C159.477 44.1442 161.149 46.0689 160.334 50.1412C157.711 52.8262 155.321 52.6659 153.164 49.66C152.396 47.2242 153.113 45.4602 155.315 44.3669Z" fill="#E6FF97"/>
<path fill-rule="evenodd" clip-rule="evenodd" d="M170.611 44.3721C174.749 43.8077 176.582 45.5722 176.108 49.6652C174.247 52.4363 172.016 52.7573 169.416 50.6275C168.201 48.1918 168.599 46.1068 170.611 44.3721Z" fill="#E6FF97"/>
<path fill-rule="evenodd" clip-rule="evenodd" d="M185.907 44.3669C190.069 44.1442 191.742 46.0689 190.926 50.1412C188.483 52.7323 186.252 52.5721 184.234 49.66C183.594 47.4754 184.152 45.7109 185.907 44.3669Z" fill="#E6FF97"/>
<path fill-rule="evenodd" clip-rule="evenodd" d="M201.68 44.8559C206.596 44.4253 208.03 46.4304 205.982 50.8708C201.9 52.5313 199.908 51.1681 200.007 46.7807C200.337 45.8905 200.894 45.2486 201.68 44.8559Z" fill="#E6FF97"/>
<path fill-rule="evenodd" clip-rule="evenodd" d="M77.8806 44.8517C81.7614 44.8367 82.7174 46.5209 80.7486 49.9041C77.4003 50.5412 76.2053 49.1775 77.1636 45.814C77.5064 45.5523 77.7454 45.2313 77.8806 44.8517Z" fill="#E6FF97"/>
<path fill-rule="evenodd" clip-rule="evenodd" d="M217.453 44.8476C220.903 44.3982 222.576 45.8417 222.472 49.1783C221.028 51.6646 219.116 52.1457 216.736 50.6218C215.618 48.4815 215.857 46.5568 217.453 44.8476Z" fill="#E6FF97"/>
<path fill-rule="evenodd" clip-rule="evenodd" d="M62.1068 45.3335C65.446 45.2522 66.2428 46.6154 64.4967 49.4236C63.4447 49.8206 62.5685 49.58 61.8678 48.7018C61.602 47.5542 61.6814 46.4316 62.1068 45.3335Z" fill="#E6FF97"/>
<path fill-rule="evenodd" clip-rule="evenodd" d="M232.749 45.3304C236.33 44.754 237.684 46.1975 236.812 49.6611C235.355 51.35 233.762 51.5103 232.032 50.1423C230.947 48.3123 231.186 46.708 232.749 45.3304Z" fill="#E6FF97"/>
<path fill-rule="evenodd" clip-rule="evenodd" d="M47.2892 46.2949C48.086 46.2949 48.8823 46.2949 49.6791 46.2949C49.6791 47.0971 49.6791 47.8987 49.6791 48.7008C47.3274 49.2229 46.5306 48.4208 47.2892 46.2949Z" fill="#E6FF97"/>
<path fill-rule="evenodd" clip-rule="evenodd" d="M248.523 45.8101C251.313 45.3375 252.667 46.4601 252.586 49.1784C251.129 50.8673 249.536 51.0275 247.806 49.6595C247.38 48.2169 247.619 46.9341 248.523 45.8101Z" fill="#E6FF97"/>
<path fill-rule="evenodd" clip-rule="evenodd" d="M263.818 46.2919C266.927 46.1177 267.724 47.3207 266.208 49.9008C263.385 50.2598 262.588 49.0568 263.818 46.2919Z" fill="#E6FF97"/>
<path fill-rule="evenodd" clip-rule="evenodd" d="M280.07 46.7742C281.7 46.7184 282.338 47.52 281.982 49.1801C281.186 49.1801 280.389 49.1801 279.592 49.1801C279.528 48.3179 279.688 47.5162 280.07 46.7742Z" fill="#E6FF97"/>
<path fill-rule="evenodd" clip-rule="evenodd" d="M123.767 59.2893C129.806 59.0198 131.4 61.5056 128.547 66.7477C123.507 68.414 121.357 66.5696 122.095 61.214C122.752 60.6342 123.31 59.9928 123.767 59.2893Z" fill="#E6FF97"/>
<path fill-rule="evenodd" clip-rule="evenodd" d="M139.541 58.8047C145.256 59.1733 146.69 61.8198 143.843 66.7442C140.865 68.7729 138.555 68.2119 136.912 65.0601C136.593 63.7768 136.593 62.4939 136.912 61.2106C137.739 60.2954 138.615 59.4933 139.541 58.8047Z" fill="#E6FF97"/>
<path fill-rule="evenodd" clip-rule="evenodd" d="M155.315 58.8071C159.297 58.7272 161.289 60.6519 161.29 64.5813C158.599 68.8797 155.731 69.0404 152.686 65.0625C152.367 63.7792 152.367 62.4963 152.686 61.213C153.513 60.2978 154.389 59.4957 155.315 58.8071Z" fill="#E6FF97"/>
<path fill-rule="evenodd" clip-rule="evenodd" d="M171.088 58.8071C175.07 58.7272 177.062 60.6519 177.063 64.5813C174.349 68.8003 171.481 68.9606 168.459 65.0625C168.14 63.7792 168.14 62.4963 168.459 61.213C169.286 60.2978 170.162 59.4957 171.088 58.8071Z" fill="#E6FF97"/>
<path fill-rule="evenodd" clip-rule="evenodd" d="M185.429 59.2863C190.282 58.322 192.433 60.2468 191.882 65.0605C190.305 67.3317 188.154 68.0535 185.429 67.2259C182.901 64.5582 182.901 61.9117 185.429 59.2863Z" fill="#E6FF97"/>
<path fill-rule="evenodd" clip-rule="evenodd" d="M201.68 59.2878C207.449 59.2406 208.883 61.7269 205.982 66.7461C201.185 68.4938 199.034 66.8097 199.529 61.6937C200.019 60.6413 200.736 59.8392 201.68 59.2878Z" fill="#E6FF97"/>
<path fill-rule="evenodd" clip-rule="evenodd" d="M108.472 59.2863C112.529 58.8619 114.362 60.6264 113.969 64.5794C111.379 68.3855 108.83 68.3855 106.321 64.5794C105.736 62.2341 106.453 60.4696 108.472 59.2863Z" fill="#E6FF97"/>
<path fill-rule="evenodd" clip-rule="evenodd" d="M217.454 59.2868C221.934 59.218 223.607 61.303 222.472 65.5422C220.005 68.2186 217.774 68.0583 215.781 65.061C215.108 62.7239 215.666 60.7992 217.454 59.2868Z" fill="#E6FF97"/>
<path fill-rule="evenodd" clip-rule="evenodd" d="M93.1759 59.7646C98.3143 59.407 99.7483 61.5724 97.4778 66.2606C92.8117 67.821 90.9791 66.1369 91.9809 61.2081C92.4804 60.788 92.8786 60.3069 93.1759 59.7646Z" fill="#E6FF97"/>
<path fill-rule="evenodd" clip-rule="evenodd" d="M232.749 59.7686C236.757 59.3913 238.271 61.1558 237.29 65.0616C235.001 67.7332 232.93 67.5729 231.076 64.5804C230.482 62.507 231.039 60.9032 232.749 59.7686Z" fill="#E6FF97"/>
<path fill-rule="evenodd" clip-rule="evenodd" d="M77.8801 60.2501C81.369 59.7068 82.8823 61.1504 82.421 64.5807C80.4923 66.9212 78.4212 67.082 76.2072 65.0619C75.6125 62.9885 76.1704 61.3847 77.8801 60.2501Z" fill="#E6FF97"/>
<path fill-rule="evenodd" clip-rule="evenodd" d="M248.523 60.2471C253.254 60.0941 254.369 61.9384 251.869 65.7807C248.982 67.2878 247.389 66.4053 247.089 63.1342C247.15 61.9529 247.628 60.9905 248.523 60.2471Z" fill="#E6FF97"/>
<path fill-rule="evenodd" clip-rule="evenodd" d="M62.1062 60.7274C66.3001 60.6831 67.2561 62.3673 64.9742 65.7799C60.6302 65.9848 59.6742 64.3007 62.1062 60.7274Z" fill="#E6FF97"/>
<path fill-rule="evenodd" clip-rule="evenodd" d="M263.818 60.7285C267.435 60.7511 268.391 62.3549 266.686 65.5404C263.672 66.4349 262.317 65.3123 262.623 62.1721C263.123 61.752 263.521 61.2708 263.818 60.7285Z" fill="#E6FF97"/>
<path fill-rule="evenodd" clip-rule="evenodd" d="M47.289 61.2104C50.1507 60.9587 51.1067 62.1617 50.1569 64.8193C48.038 66.1329 46.7637 65.5714 46.333 63.1351C46.4535 62.3782 46.7718 61.7368 47.289 61.2104Z" fill="#E6FF97"/>
<path fill-rule="evenodd" clip-rule="evenodd" d="M31.5156 62.1719C32.3124 62.1719 33.1088 62.1719 33.9056 62.1719C34.2244 64.0966 33.4276 64.8988 31.5156 64.5778C31.5156 63.7757 31.5156 62.974 31.5156 62.1719Z" fill="#E6FF97"/>
<path fill-rule="evenodd" clip-rule="evenodd" d="M279.592 61.6935C282.275 61.0097 283.311 61.9721 282.699 64.5806C279.555 65.8259 278.519 64.8635 279.592 61.6935Z" fill="#E6FF97"/>
<path fill-rule="evenodd" clip-rule="evenodd" d="M295.844 62.1719C296.481 62.1719 297.119 62.1719 297.756 62.1719C297.99 63.3498 297.592 64.152 296.561 64.5778C295.313 64.0966 295.074 63.2945 295.844 62.1719Z" fill="#E6FF97"/>
<path fill-rule="evenodd" clip-rule="evenodd" d="M154.359 74.2017C160.893 73.5882 163.044 76.3146 160.812 82.3819C158.804 84.4096 156.494 84.8109 153.881 83.5848C150.592 80.2747 150.752 77.147 154.359 74.2017Z" fill="#E6FF97"/>
<path fill-rule="evenodd" clip-rule="evenodd" d="M170.132 74.2025C173.293 73.4773 175.763 74.4397 177.541 77.0896C178.099 82.3022 175.788 84.6283 170.61 84.0667C166.368 80.9799 166.209 77.6915 170.132 74.2025Z" fill="#E6FF97"/>
<path fill-rule="evenodd" clip-rule="evenodd" d="M124.245 74.201C128.728 73.983 130.879 76.0685 130.698 80.4564C130.32 81.4607 129.762 82.3432 129.025 83.1029C124.665 85.1119 121.956 83.8286 120.899 79.2535C121.174 76.9779 122.289 75.2938 124.245 74.201Z" fill="#E6FF97"/>
<path fill-rule="evenodd" clip-rule="evenodd" d="M139.063 74.2025C145.012 74.0143 147.003 76.7412 145.038 82.3826C141.538 85.2707 138.67 84.7895 136.434 80.9391C135.49 77.8965 136.366 75.6508 139.063 74.2025Z" fill="#E6FF97"/>
<path fill-rule="evenodd" clip-rule="evenodd" d="M185.428 74.201C191.316 73.7313 193.467 76.2975 191.881 81.8999C188.759 85.2119 185.891 85.0517 183.277 81.4188C182.68 80.1787 182.52 78.8959 182.799 77.5693C183.596 76.3682 184.472 75.2456 185.428 74.201Z" fill="#E6FF97"/>
<path fill-rule="evenodd" clip-rule="evenodd" d="M201.68 74.2031C207.75 74.4394 209.503 77.2461 206.937 82.6239C201.314 85.1453 198.685 83.3004 199.051 77.0902C199.701 75.8762 200.577 74.9138 201.68 74.2031Z" fill="#E6FF97"/>
<path fill-rule="evenodd" clip-rule="evenodd" d="M92.2202 75.1643C98.2591 74.8948 99.8523 77.3806 97.0001 82.6227C91.9411 84.2683 89.7901 82.4239 90.5473 77.089C91.205 76.5092 91.7623 75.8678 92.2202 75.1643Z" fill="#E6FF97"/>
<path fill-rule="evenodd" clip-rule="evenodd" d="M107.994 74.6881C112.77 74.1227 114.921 76.2082 114.447 80.9435C113.137 83.3105 111.145 84.1925 108.472 83.59C105.831 82.1854 104.955 80.0201 105.843 77.094C106.659 76.3544 107.376 75.5523 107.994 74.6881Z" fill="#E6FF97"/>
<path fill-rule="evenodd" clip-rule="evenodd" d="M217.454 74.6836C223.398 74.7976 224.992 77.4442 222.234 82.6231C217.133 84.6744 214.664 82.9903 214.825 77.5707C215.475 76.3567 216.351 75.3943 217.454 74.6836Z" fill="#E6FF97"/>
<path fill-rule="evenodd" clip-rule="evenodd" d="M232.271 75.1657C236.458 74.5695 238.45 76.334 238.246 80.4587C237.251 83.059 235.418 83.941 232.749 83.1052C230.524 81.7112 229.807 79.7066 230.598 77.0904C231.256 76.5106 231.813 75.8692 232.271 75.1657Z" fill="#E6FF97"/>
<path fill-rule="evenodd" clip-rule="evenodd" d="M77.8805 75.1671C81.5649 75.1165 83.2378 76.8811 82.8994 80.4601C81.6848 82.6586 79.8522 83.3804 77.4025 82.6254C74.7129 79.8702 74.872 77.3844 77.8805 75.1671Z" fill="#E6FF97"/>
<path fill-rule="evenodd" clip-rule="evenodd" d="M62.1066 75.6445C67.1982 76.0377 68.1542 78.203 64.9746 82.1405C61.2558 82.8878 59.742 81.3639 60.4337 77.5693C61.0914 76.9894 61.6487 76.348 62.1066 75.6445Z" fill="#E6FF97"/>
<path fill-rule="evenodd" clip-rule="evenodd" d="M248.044 75.6475C252.183 75.0831 254.015 76.8476 253.541 80.9406C251.311 83.5067 249.08 83.5067 246.849 80.9406C246.282 78.8998 246.68 77.1353 248.044 75.6475Z" fill="#E6FF97"/>
<path fill-rule="evenodd" clip-rule="evenodd" d="M263.34 76.1303C267.147 75.5933 268.66 77.1971 267.881 80.9422C266.297 82.6768 264.544 82.8376 262.623 81.4234C261.558 79.4645 261.797 77.6999 263.34 76.1303Z" fill="#E6FF97"/>
<path fill-rule="evenodd" clip-rule="evenodd" d="M46.8111 76.6087C49.996 76.0471 51.3506 77.33 50.8741 80.4582C49.691 81.9133 48.2571 82.2337 46.5722 81.4205C45.555 79.7244 45.6348 78.1206 46.8111 76.6087Z" fill="#E6FF97"/>
<path fill-rule="evenodd" clip-rule="evenodd" d="M279.592 76.6094C283.495 76.8081 284.292 78.4923 281.982 81.6618C278.875 82.0525 277.839 80.6893 278.875 77.5717C279.218 77.31 279.457 76.989 279.592 76.6094Z" fill="#E6FF97"/>
<path fill-rule="evenodd" clip-rule="evenodd" d="M31.5154 77.0893C33.1482 76.7843 34.1042 77.4262 34.3833 79.0141C33.7954 81.7082 32.6004 82.0292 30.7984 79.9765C30.4409 78.8505 30.6799 77.8881 31.5154 77.0893Z" fill="#E6FF97"/>
<path fill-rule="evenodd" clip-rule="evenodd" d="M295.366 77.5736C298.071 77.1785 298.867 78.2213 297.756 80.7013C295.252 80.9871 294.456 79.9444 295.366 77.5736Z" fill="#E6FF97"/>
<path fill-rule="evenodd" clip-rule="evenodd" d="M15.7415 78.0514C17.4803 77.6843 18.1973 78.3257 17.8925 79.9761C16.1386 80.7023 15.4216 80.0608 15.7415 78.0514Z" fill="#E6FF97"/>
<path fill-rule="evenodd" clip-rule="evenodd" d="M155.315 88.6406C161.636 88.8591 163.628 91.9069 161.29 97.7831C160.71 98.5285 159.993 99.0896 159.139 99.4673C152.951 100.454 150.481 97.8072 151.73 91.5277C152.738 90.2661 153.933 89.3037 155.315 88.6406Z" fill="#E6FF97"/>
<path fill-rule="evenodd" clip-rule="evenodd" d="M171.089 88.6355C174.022 88.5489 176.333 89.6715 178.02 92.0038C178.543 98.2125 175.755 100.698 169.655 99.4622C165.536 95.1137 166.014 91.5048 171.089 88.6355Z" fill="#E6FF97"/>
<path fill-rule="evenodd" clip-rule="evenodd" d="M123.289 89.1201C128.47 88.1736 131.099 90.2586 131.176 95.3755C129.897 98.9464 127.428 100.31 123.767 99.4656C119.477 96.2546 119.318 92.806 123.289 89.1201Z" fill="#E6FF97"/>
<path fill-rule="evenodd" clip-rule="evenodd" d="M139.063 88.6437C144.159 88.4007 146.628 90.8066 146.472 95.8614C144.97 99.441 142.341 100.644 138.585 99.4703C135.934 97.6746 135.058 95.1883 135.956 92.012C136.766 90.6367 137.802 89.5141 139.063 88.6437Z" fill="#E6FF97"/>
<path fill-rule="evenodd" clip-rule="evenodd" d="M185.906 89.1192C192.067 88.6639 194.218 91.3908 192.359 97.2993C189.468 100.296 186.441 100.457 183.277 97.7805C181.082 93.8742 181.958 90.9871 185.906 89.1192Z" fill="#E6FF97"/>
<path fill-rule="evenodd" clip-rule="evenodd" d="M201.202 89.1194C204.555 88.362 207.024 89.4851 208.611 92.4877C209.009 97.5402 206.699 99.8657 201.68 99.4649C198.617 97.8659 197.581 95.3801 198.573 92.0065C199.223 90.7925 200.099 89.8301 201.202 89.1194Z" fill="#E6FF97"/>
<path fill-rule="evenodd" clip-rule="evenodd" d="M108.472 89.1211C114.559 89.3814 116.392 92.2685 113.969 97.7824C108.135 100.783 105.267 99.0186 105.365 92.4894C106.174 91.1142 107.21 89.9916 108.472 89.1211Z" fill="#E6FF97"/>
<path fill-rule="evenodd" clip-rule="evenodd" d="M92.6981 89.5973C97.2576 89.2937 99.2494 91.3791 98.673 95.8527C95.7802 100.336 92.9122 100.336 90.0691 95.8527C89.3861 93.0618 90.2622 90.9769 92.6981 89.5973Z" fill="#E6FF97"/>
<path fill-rule="evenodd" clip-rule="evenodd" d="M216.976 89.6057C222.671 88.9975 224.822 91.4034 223.429 96.8235C221.629 99.3098 219.319 99.8708 216.498 98.5076C213.176 95.2693 213.335 92.3023 216.976 89.6057Z" fill="#E6FF97"/>
<path fill-rule="evenodd" clip-rule="evenodd" d="M232.749 89.6052C235.318 89.3343 237.31 90.2966 238.724 92.4923C239.179 97.3272 237.028 99.3319 232.271 98.5071C228.983 95.3072 229.143 92.3398 232.749 89.6052Z" fill="#E6FF97"/>
<path fill-rule="evenodd" clip-rule="evenodd" d="M77.4023 90.0844C81.4896 89.6336 83.4814 91.3981 83.3772 95.3775C82.0316 98.1053 79.8807 98.9873 76.9243 98.024C74.2839 95.199 74.4431 92.5524 77.4023 90.0844Z" fill="#E6FF97"/>
<path fill-rule="evenodd" clip-rule="evenodd" d="M247.566 90.5631C252.179 89.5223 254.329 91.2863 254.019 95.8561C251.935 98.6244 249.545 98.9453 246.849 96.8185C245.771 94.5593 246.01 92.4744 247.566 90.5631Z" fill="#E6FF97"/>
<path fill-rule="evenodd" clip-rule="evenodd" d="M62.1069 90.5621C63.8716 90.3076 65.3849 90.7888 66.6478 92.0057C67.7906 96.6304 65.9585 98.4747 61.1509 97.5393C59.0009 94.8062 59.3197 92.4806 62.1069 90.5621Z" fill="#E6FF97"/>
<path fill-rule="evenodd" clip-rule="evenodd" d="M263.818 90.5645C268.469 90.7045 269.744 92.8698 267.642 97.0605C263.561 98.721 261.569 97.3578 261.668 92.9704C262.157 91.918 262.874 91.1159 263.818 90.5645Z" fill="#E6FF97"/>
<path fill-rule="evenodd" clip-rule="evenodd" d="M47.767 91.043C50.9203 91.1291 52.1153 92.7329 51.352 95.8548C47.2513 98.5827 45.3393 97.46 45.6161 92.4865C46.2896 91.8701 47.0066 91.3889 47.767 91.043Z" fill="#E6FF97"/>
<path fill-rule="evenodd" clip-rule="evenodd" d="M279.114 91.5243C283.291 91.1475 284.566 92.8317 282.938 96.5768C279.226 97.8158 277.712 96.4526 278.397 92.4867C278.739 92.2249 278.978 91.904 279.114 91.5243Z" fill="#E6FF97"/>
<path fill-rule="evenodd" clip-rule="evenodd" d="M31.0374 92.0066C34.3776 91.5967 35.4933 92.9599 34.3834 96.0967C31.3954 97.1996 30.0413 96.1569 30.3204 92.969C30.6632 92.7072 30.9022 92.3863 31.0374 92.0066Z" fill="#E6FF97"/>
<path fill-rule="evenodd" clip-rule="evenodd" d="M295.844 92.0059C298.599 92.142 299.395 93.5052 298.234 96.0959C295.369 96.8985 294.174 95.8563 294.649 92.9682C295.125 92.6959 295.523 92.3749 295.844 92.0059Z" fill="#E6FF97"/>
<path fill-rule="evenodd" clip-rule="evenodd" d="M15.7418 92.9668C18.4708 92.5713 19.1083 93.4533 17.6538 95.6134C15.3729 96.0031 14.7356 95.1211 15.7418 92.9668Z" fill="#E6FF97"/>
<path fill-rule="evenodd" clip-rule="evenodd" d="M310.662 92.9692C312.574 92.6482 313.37 93.4504 313.052 95.3751C312.255 95.3751 311.458 95.3751 310.662 95.3751C310.662 94.573 310.662 93.7713 310.662 92.9692Z" fill="#E6FF97"/>
<path fill-rule="evenodd" clip-rule="evenodd" d="M123.29 104.513C127.12 103.677 129.909 104.96 131.655 108.363C131.953 113.997 129.324 116.483 123.768 115.821C118.887 112.206 118.727 108.436 123.29 104.513Z" fill="#E6FF97"/>
<path fill-rule="evenodd" clip-rule="evenodd" d="M138.585 104.037C145.281 103.635 147.91 106.683 146.472 113.18C142.78 117.66 139.116 117.66 135.478 113.18C134.187 109.299 135.223 106.252 138.585 104.037Z" fill="#E6FF97"/>
<path fill-rule="evenodd" clip-rule="evenodd" d="M154.359 104.039C160.68 103.584 163.468 106.471 162.724 112.7C159.839 116.926 156.333 117.568 152.208 114.625C149.434 110.308 150.151 106.78 154.359 104.039Z" fill="#E6FF97"/>
<path fill-rule="evenodd" clip-rule="evenodd" d="M170.132 104.035C177.841 103.76 180.231 107.128 177.302 114.14C172.733 117.856 169.149 117.054 166.547 111.734C166.072 108.362 167.267 105.795 170.132 104.035Z" fill="#E6FF97"/>
<path fill-rule="evenodd" clip-rule="evenodd" d="M185.428 104.035C192.734 103.997 195.045 107.366 192.359 114.14C190.2 115.941 187.73 116.502 184.95 115.825C180.348 111.62 180.507 107.691 185.428 104.035Z" fill="#E6FF97"/>
<path fill-rule="evenodd" clip-rule="evenodd" d="M201.202 104.518C208.162 104.114 210.473 107.161 208.133 113.66C204.149 117.27 200.803 116.789 198.095 112.217C197.169 108.795 198.205 106.229 201.202 104.518Z" fill="#E6FF97"/>
<path fill-rule="evenodd" clip-rule="evenodd" d="M108.95 104.516C113.927 104.47 116.078 106.876 115.403 111.734C114 115.044 111.53 116.247 107.994 115.343C104.19 112.612 103.712 109.404 106.56 105.719C107.428 105.355 108.224 104.954 108.95 104.516Z" fill="#E6FF97"/>
<path fill-rule="evenodd" clip-rule="evenodd" d="M217.453 104.518C223.79 104.773 225.781 107.82 223.428 113.66C219.502 116.714 216.315 116.073 213.868 111.735C213.557 110.247 213.716 108.803 214.346 107.405C215.333 106.33 216.368 105.367 217.453 104.518Z" fill="#E6FF97"/>
<path fill-rule="evenodd" clip-rule="evenodd" d="M92.6977 105C98.7261 105.212 100.559 108.099 98.1946 113.661C92.0567 116.667 89.1888 114.743 89.5908 107.887C90.5769 106.812 91.6122 105.85 92.6977 105Z" fill="#E6FF97"/>
<path fill-rule="evenodd" clip-rule="evenodd" d="M233.227 105C237.418 104.969 239.41 107.054 239.202 111.256C237.241 115.352 234.373 116.154 230.598 113.662C228.33 109.706 229.207 106.819 233.227 105Z" fill="#E6FF97"/>
<path fill-rule="evenodd" clip-rule="evenodd" d="M77.4025 105.481C81.6514 105.193 83.8023 107.117 83.8554 111.256C82.5505 114.409 80.2404 115.452 76.9245 114.383C73.6321 111.206 73.7918 108.239 77.4025 105.481Z" fill="#E6FF97"/>
<path fill-rule="evenodd" clip-rule="evenodd" d="M248.523 105.482C251.092 105.211 253.083 106.174 254.498 108.369C254.925 113.168 252.774 115.173 248.045 114.384C244.757 111.184 244.916 108.217 248.523 105.482Z" fill="#E6FF97"/>
<path fill-rule="evenodd" clip-rule="evenodd" d="M61.1503 106.44C62.5929 106.36 64.0269 106.441 65.4522 106.68C68.4296 108.687 68.5888 110.933 65.9302 113.417C60.9257 114.946 58.9343 113.102 59.9553 107.883C60.4548 107.463 60.853 106.982 61.1503 106.44Z" fill="#E6FF97"/>
<path fill-rule="evenodd" clip-rule="evenodd" d="M262.862 106.442C267.343 105.586 269.335 107.351 268.837 111.735C266.642 114.708 264.252 114.869 261.667 112.216C261.081 110.021 261.479 108.096 262.862 106.442Z" fill="#E6FF97"/>
<path fill-rule="evenodd" clip-rule="evenodd" d="M31.5156 107.404C35.2793 107.526 36.2353 109.21 34.3836 112.457C30.7986 113.339 29.4445 111.976 30.3206 108.367C30.7962 108.094 31.1944 107.773 31.5156 107.404Z" fill="#E6FF97"/>
<path fill-rule="evenodd" clip-rule="evenodd" d="M46.3334 106.923C50.5229 105.931 52.3556 107.535 51.8302 111.734C49.9016 114.075 47.8304 114.236 45.6164 112.216C44.5849 110.272 44.8239 108.508 46.3334 106.923Z" fill="#E6FF97"/>
<path fill-rule="evenodd" clip-rule="evenodd" d="M279.114 106.925C281.968 106.271 283.721 107.314 284.372 110.053C283.802 113.012 282.049 113.974 279.114 112.94C277.272 110.972 277.272 108.968 279.114 106.925Z" fill="#E6FF97"/>
<path fill-rule="evenodd" clip-rule="evenodd" d="M295.366 107.404C298.616 107.385 299.732 108.909 298.712 111.976C296.139 113.401 294.546 112.679 293.932 109.81C294.215 108.885 294.693 108.083 295.366 107.404Z" fill="#E6FF97"/>
<path fill-rule="evenodd" clip-rule="evenodd" d="M15.2636 108.366C18.4462 107.81 19.402 109.013 18.1315 111.975C15.148 112.419 14.1921 111.216 15.2636 108.366Z" fill="#E6FF97"/>
<path fill-rule="evenodd" clip-rule="evenodd" d="M310.661 108.367C313.366 107.972 314.163 109.014 313.051 111.494C310.299 112.042 309.502 111 310.661 108.367Z" fill="#E6FF97"/>
<path fill-rule="evenodd" clip-rule="evenodd" d="M0.923914 108.852C1.56122 108.852 2.19857 108.852 2.83587 108.852C2.83587 109.654 2.83587 110.455 2.83587 111.257C0.715988 111.536 0.0786842 110.733 0.923914 108.852Z" fill="#E6FF97"/>
<path fill-rule="evenodd" clip-rule="evenodd" d="M140.019 118.951C147.199 120.095 149.191 123.945 145.994 130.5C139.995 134.474 136.091 132.95 134.283 125.928C134.908 122.495 136.82 120.17 140.019 118.951Z" fill="#E6FF97"/>
<path fill-rule="evenodd" clip-rule="evenodd" d="M155.315 118.951C162.655 119.515 164.966 123.204 162.246 130.018C159.589 133.11 156.482 133.671 152.925 131.703C149.332 128.118 149.173 124.429 152.447 120.635C153.37 119.933 154.326 119.372 155.315 118.951Z" fill="#E6FF97"/>
<path fill-rule="evenodd" clip-rule="evenodd" d="M169.655 119.434C177.304 118.711 180.252 122.08 178.497 129.538C174.301 134.162 170.318 134.001 166.548 129.057C165.862 127.178 165.703 125.253 166.07 123.283C167.039 121.747 168.234 120.464 169.655 119.434Z" fill="#E6FF97"/>
<path fill-rule="evenodd" clip-rule="evenodd" d="M123.289 119.916C129.895 119.107 132.683 121.995 131.654 128.577C131.118 129.599 130.401 130.481 129.503 131.224C123.044 133.378 119.778 131.053 119.704 124.246C120.489 122.418 121.684 120.974 123.289 119.916Z" fill="#E6FF97"/>
<path fill-rule="evenodd" clip-rule="evenodd" d="M184.95 119.435C192.842 119.109 195.47 122.638 192.837 130.021C190.321 133.001 187.373 133.562 183.994 131.705C179.924 127.205 180.243 123.115 184.95 119.435Z" fill="#E6FF97"/>
<path fill-rule="evenodd" clip-rule="evenodd" d="M201.202 119.914C208.252 119.553 210.722 122.761 208.611 129.538C206.464 131.828 203.835 132.55 200.724 131.703C197.632 129.718 196.596 126.911 197.617 123.282C198.58 121.881 199.775 120.759 201.202 119.914Z" fill="#E6FF97"/>
<path fill-rule="evenodd" clip-rule="evenodd" d="M108.472 119.916C115.159 120.141 117.31 123.349 114.925 129.54C110.853 133.118 107.348 132.637 104.409 128.096C103.737 124.318 105.091 121.591 108.472 119.916Z" fill="#E6FF97"/>
<path fill-rule="evenodd" clip-rule="evenodd" d="M216.019 120.396C219.327 119.644 221.956 120.606 223.906 123.283C225.039 127.336 223.685 130.143 219.843 131.704C214.542 131.816 212.231 129.169 212.912 123.764C213.722 122.389 214.758 121.266 216.019 120.396Z" fill="#E6FF97"/>
<path fill-rule="evenodd" clip-rule="evenodd" d="M92.698 120.395C97.8613 120.13 100.172 122.536 99.6289 127.613C97.6247 131.57 94.6774 132.452 90.7861 130.259C87.7719 126.175 88.409 122.887 92.698 120.395Z" fill="#E6FF97"/>
<path fill-rule="evenodd" clip-rule="evenodd" d="M232.749 120.396C237.937 120.405 240.088 122.971 239.202 128.095C237.162 131.645 234.374 132.366 230.837 130.261C227.783 126.183 228.42 122.895 232.749 120.396Z" fill="#E6FF97"/>
<path fill-rule="evenodd" clip-rule="evenodd" d="M77.8808 120.879C83.8427 121.169 85.5157 124.056 82.8997 129.54C79.6522 131.824 76.9434 131.343 74.7738 128.097C73.7772 124.719 74.8125 122.313 77.8808 120.879Z" fill="#E6FF97"/>
<path fill-rule="evenodd" clip-rule="evenodd" d="M248.044 121.359C253.824 121.077 255.736 123.643 253.78 129.058C250.184 132.049 247.396 131.408 245.415 127.133C244.876 124.529 245.753 122.605 248.044 121.359Z" fill="#E6FF97"/>
<path fill-rule="evenodd" clip-rule="evenodd" d="M61.6287 121.84C67.6676 121.571 69.2608 124.056 66.4086 129.298C61.1464 131.219 58.8358 129.375 59.4777 123.765C60.1455 123.009 60.8625 122.367 61.6287 121.84Z" fill="#E6FF97"/>
<path fill-rule="evenodd" clip-rule="evenodd" d="M46.3334 122.318C52.2218 121.915 53.6557 124.241 50.6353 129.295C45.9353 130.338 44.1026 128.493 45.1384 123.762C45.6379 123.342 46.0361 122.861 46.3334 122.318Z" fill="#E6FF97"/>
<path fill-rule="evenodd" clip-rule="evenodd" d="M263.34 121.84C267.428 121.389 269.419 123.154 269.315 127.133C268.099 129.683 266.108 130.565 263.34 129.78C261.238 128.344 260.521 126.34 261.189 123.765C261.857 123.01 262.574 122.368 263.34 121.84Z" fill="#E6FF97"/>
<path fill-rule="evenodd" clip-rule="evenodd" d="M279.114 122.321C283.174 121.836 284.847 123.6 284.133 127.614C282.263 129.984 280.192 130.144 277.919 128.095C277.333 125.9 277.731 123.975 279.114 122.321Z" fill="#E6FF97"/>
<path fill-rule="evenodd" clip-rule="evenodd" d="M31.5152 122.803C34.4706 122.809 35.8248 124.252 35.5781 127.133C34.5968 128.958 33.0835 129.519 31.0372 128.818C29.023 126.585 29.1821 124.581 31.5152 122.803Z" fill="#E6FF97"/>
<path fill-rule="evenodd" clip-rule="evenodd" d="M294.888 123.287C299.184 122.885 300.299 124.569 298.234 128.339C294.118 128.806 293.003 127.122 294.888 123.287Z" fill="#E6FF97"/>
<path fill-rule="evenodd" clip-rule="evenodd" d="M15.2637 123.766C18.8474 123.431 19.8032 124.795 18.1316 127.856C14.9202 128.206 13.9642 126.843 15.2637 123.766Z" fill="#E6FF97"/>
<path fill-rule="evenodd" clip-rule="evenodd" d="M310.661 123.765C314.001 123.684 314.798 125.047 313.051 127.855C309.665 128.084 308.869 126.721 310.661 123.765Z" fill="#E6FF97"/>
<path fill-rule="evenodd" clip-rule="evenodd" d="M0.446091 124.73C2.6556 124.205 3.5319 125.007 3.07504 127.136C0.840528 128.019 -0.0357712 127.216 0.446091 124.73Z" fill="#E6FF97"/>
<path fill-rule="evenodd" clip-rule="evenodd" d="M326.913 124.727C328.138 125.447 328.138 126.25 326.913 127.132C326.356 126.33 326.356 125.528 326.913 124.727Z" fill="#F6C3BB"/>
<path fill-rule="evenodd" clip-rule="evenodd" d="M153.881 133.868C161.085 133.182 164.352 136.39 163.679 143.492C162.514 146.189 160.522 147.953 157.705 148.785C160.633 149.961 163.023 151.886 164.874 154.559C166.327 151.731 168.558 149.886 171.566 149.025C168.738 147.622 166.746 145.456 165.591 142.529C164.912 137.518 167.063 134.631 172.044 133.868C176.277 134.043 179.065 136.129 180.409 140.123C183.366 133.46 187.668 132.338 193.315 136.755C195.907 141.994 194.552 145.763 189.252 148.063C186.593 148.824 184.442 148.102 182.799 145.898C181.798 144.733 181.002 143.449 180.409 142.048C179.565 143.057 178.928 144.179 178.497 145.416C176.866 146.679 175.193 147.882 173.478 149.025C176.672 149.994 178.982 151.999 180.409 155.04C182.773 149.863 186.517 148.499 191.642 150.95C196.596 156.083 195.959 160.414 189.73 163.942C187.526 164.427 185.454 164.106 183.516 162.98C182.48 161.617 181.445 160.253 180.409 158.89C179.04 161.952 176.729 163.877 173.478 164.664C176.758 165.705 179.068 167.791 180.409 170.919C182.215 166.361 185.482 164.677 190.208 165.867C194.209 167.748 195.722 170.875 194.749 175.25C193.278 177.613 191.286 179.378 188.774 180.543C190.962 181.544 192.794 182.987 194.271 184.874C195.084 192.716 191.659 195.844 183.994 194.257C182.787 192.724 181.592 191.2 180.409 189.685C179.265 190.539 178.469 191.662 178.019 193.054C175.071 195.772 171.805 196.173 168.22 194.257C163.983 189.118 164.461 184.546 169.654 180.543C167.545 179.061 165.952 177.136 164.874 174.769C163.554 177.118 161.801 179.043 159.617 180.543C165.765 185.137 165.925 189.869 160.095 194.738C153.724 196.581 150.06 194.175 149.101 187.52C149.156 186.206 149.554 185.003 150.296 183.911C151.431 182.687 152.626 181.564 153.881 180.543C151.618 178.906 149.865 176.821 148.623 174.288C147.294 177.149 145.223 179.315 142.409 180.784C147.054 182.518 148.886 185.806 147.906 190.648C145.136 195.114 141.392 196.156 136.673 193.776C132.068 188.168 133.024 183.837 139.541 180.784C136.726 179.314 134.654 177.148 133.327 174.288C132.169 176.337 130.576 178.021 128.547 179.34C121.641 180.087 118.534 176.959 119.226 169.957C122.101 165.412 125.845 164.529 130.459 167.31C131.592 168.547 132.548 169.911 133.327 171.4C136.09 165.319 140.392 163.956 146.233 167.31C147.169 168.633 148.045 169.996 148.862 171.4C149.704 168.147 151.696 165.981 154.837 164.904C153.193 163.875 151.679 162.672 150.296 161.296C149.907 160.364 149.668 159.402 149.579 158.408C148.018 158.376 147.301 159.178 147.428 160.814C143.426 165.099 139.284 165.26 135 161.296C132.316 153.412 135.104 149.643 143.365 149.988C145.924 151.037 147.517 152.881 148.145 155.521C148.623 155.521 149.101 155.521 149.579 155.521C150.23 152.057 152.302 149.892 155.793 149.025C148.25 144.759 147.613 139.707 153.881 133.868Z" fill="#E6FF97"/>
<path fill-rule="evenodd" clip-rule="evenodd" d="M139.541 133.869C146.733 134.442 149.203 138.131 146.95 144.936C142.134 149.811 137.991 149.33 134.522 143.493C133.32 138.693 134.993 135.485 139.541 133.869Z" fill="#E6FF97"/>
<path fill-rule="evenodd" clip-rule="evenodd" d="M123.767 134.352C129.744 133.875 132.691 136.602 132.61 142.532C130.012 148.015 126.188 149.137 121.138 145.9C117.674 141.032 118.551 137.182 123.767 134.352Z" fill="#E6FF97"/>
<path fill-rule="evenodd" clip-rule="evenodd" d="M201.68 134.351C204.984 134.128 207.613 135.412 209.567 138.2C210.78 143.467 208.789 146.675 203.592 147.824C198.39 146.978 196.239 143.93 197.139 138.681C198.289 136.801 199.802 135.357 201.68 134.351Z" fill="#E6FF97"/>
<path fill-rule="evenodd" clip-rule="evenodd" d="M108.472 134.832C112.024 134.575 114.653 136.018 116.359 139.163C116.85 142.267 115.814 144.753 113.252 146.621C109.903 148.02 107.115 147.298 104.887 144.456C102.973 139.957 104.168 136.749 108.472 134.832Z" fill="#E6FF97"/>
<path fill-rule="evenodd" clip-rule="evenodd" d="M217.454 134.832C224.275 135.827 226.107 139.356 222.951 145.418C217.473 148.879 213.888 147.435 212.196 141.087C212.786 137.933 214.538 135.848 217.454 134.832Z" fill="#E6FF97"/>
<path fill-rule="evenodd" clip-rule="evenodd" d="M92.2204 135.315C99.2124 135.217 101.363 138.426 98.6733 144.938C95.2834 147.727 92.2562 147.406 89.5915 143.976C88.2607 140.34 89.1374 137.453 92.2204 135.315Z" fill="#E6FF97"/>
<path fill-rule="evenodd" clip-rule="evenodd" d="M77.8806 135.795C81.6462 135.517 83.8765 137.201 84.5725 140.848C84.3732 144.177 82.6204 146.021 79.3146 146.381C75.2837 145.646 73.6108 143.24 74.2957 139.164C75.1284 137.602 76.3233 136.479 77.8806 135.795Z" fill="#E6FF97"/>
<path fill-rule="evenodd" clip-rule="evenodd" d="M231.793 135.792C237.209 134.916 239.838 137.162 239.68 142.528C238.513 145.484 236.362 146.847 233.227 146.618C229.4 145.315 228.045 142.669 229.164 138.679C229.814 137.465 230.691 136.502 231.793 135.792Z" fill="#E6FF97"/>
<path fill-rule="evenodd" clip-rule="evenodd" d="M61.1506 136.756C64.2088 136.06 66.5189 137.022 68.0815 139.643C68.1083 144.554 65.7981 146.399 61.1506 145.177C57.9902 142.371 57.9902 139.565 61.1506 136.756Z" fill="#E6FF97"/>
<path fill-rule="evenodd" clip-rule="evenodd" d="M247.567 136.274C250.196 135.86 252.507 136.502 254.498 138.199C255.655 143.931 253.345 146.417 247.567 145.657C244.429 142.479 244.429 139.351 247.567 136.274Z" fill="#E6FF97"/>
<path fill-rule="evenodd" clip-rule="evenodd" d="M46.3329 137.237C52.0673 136.849 53.6609 139.175 51.1128 144.214C47.3213 146.044 45.0906 144.921 44.4209 140.846C44.625 139.391 45.2626 138.188 46.3329 137.237Z" fill="#E6FF97"/>
<path fill-rule="evenodd" clip-rule="evenodd" d="M263.341 136.754C268.481 136.393 270.314 138.638 268.838 143.491C266.618 145.874 264.228 146.035 261.668 143.972C260.257 140.983 260.814 138.577 263.341 136.754Z" fill="#E6FF97"/>
<path fill-rule="evenodd" clip-rule="evenodd" d="M279.592 137.242C283.15 136.972 284.823 138.576 284.611 142.054C283.647 144.664 281.815 145.546 279.114 144.701C276.425 141.945 276.584 139.459 279.592 137.242Z" fill="#E6FF97"/>
<path fill-rule="evenodd" clip-rule="evenodd" d="M31.0376 137.716C35.5073 137.662 36.7821 139.667 34.8615 143.731C30.6987 145.158 29.0257 143.634 29.8426 139.159C30.3421 138.739 30.7403 138.258 31.0376 137.716Z" fill="#E6FF97"/>
<path fill-rule="evenodd" clip-rule="evenodd" d="M295.365 138.199C299.796 138.245 300.752 140.089 298.233 143.733C295.596 144.659 294.003 143.777 293.453 141.086C293.628 139.76 294.266 138.798 295.365 138.199Z" fill="#E6FF97"/>
<path fill-rule="evenodd" clip-rule="evenodd" d="M15.2637 138.681C18.0535 138.209 19.4079 139.331 19.3266 142.049C18.1438 143.505 16.7098 143.825 15.0247 143.012C14.0824 141.512 14.1621 140.069 15.2637 138.681Z" fill="#E6FF97"/>
<path fill-rule="evenodd" clip-rule="evenodd" d="M0.924332 139.644C3.15105 139.411 3.7884 140.293 2.83629 142.291C2.05521 142.528 1.25854 142.608 0.446342 142.531C0.362837 141.511 0.522152 140.548 0.924332 139.644Z" fill="#E6FF97"/>
<path fill-rule="evenodd" clip-rule="evenodd" d="M310.184 139.161C314.019 138.566 314.975 139.93 313.052 143.251C309.84 143.6 308.884 142.237 310.184 139.161Z" fill="#E6FF97"/>
<path fill-rule="evenodd" clip-rule="evenodd" d="M326.912 139.645C327.449 140.505 327.529 141.467 327.151 142.532C326.291 141.634 326.212 140.672 326.912 139.645Z" fill="#E6FF97"/>
<path fill-rule="evenodd" clip-rule="evenodd" d="M122.812 150.229C126.679 149.361 129.786 150.484 132.132 153.598C133.622 160.765 130.674 164.052 123.29 163.462C119.82 161.489 118.466 158.522 119.227 154.56C120.343 153.037 121.538 151.594 122.812 150.229Z" fill="#E6FF97"/>
<path fill-rule="evenodd" clip-rule="evenodd" d="M200.724 150.234C206.138 149.421 209.324 151.667 210.283 156.971C209.44 162.209 206.413 164.374 201.202 163.467C195.068 159.291 194.908 154.88 200.724 150.234Z" fill="#E6FF97"/>
<path fill-rule="evenodd" clip-rule="evenodd" d="M91.7418 151.191C97.3314 150.489 100.12 152.895 100.107 158.409C98.2697 162.34 95.3224 163.543 91.2638 162.018C87.33 158.224 87.4891 154.615 91.7418 151.191Z" fill="#E6FF97"/>
<path fill-rule="evenodd" clip-rule="evenodd" d="M107.516 150.71C114.452 150.07 117.241 153.118 115.881 159.853C113.961 163.047 111.173 164.089 107.516 162.98C102.437 158.875 102.437 154.784 107.516 150.71Z" fill="#E6FF97"/>
<path fill-rule="evenodd" clip-rule="evenodd" d="M216.498 150.711C223.696 150.807 226.006 154.175 223.429 160.816C218.742 164.618 215.078 163.817 212.435 158.41C211.912 154.809 213.267 152.243 216.498 150.711Z" fill="#E6FF97"/>
<path fill-rule="evenodd" clip-rule="evenodd" d="M232.271 151.194C238.58 150.919 240.891 153.806 239.202 159.855C236.128 163.443 232.942 163.603 229.642 160.336C227.666 156.441 228.543 153.394 232.271 151.194Z" fill="#E6FF97"/>
<path fill-rule="evenodd" clip-rule="evenodd" d="M76.9246 151.671C82.9869 151.273 85.2975 154 83.8554 159.851C80.8441 163.017 77.817 163.017 74.7736 159.851C73.495 156.577 74.212 153.85 76.9246 151.671Z" fill="#E6FF97"/>
<path fill-rule="evenodd" clip-rule="evenodd" d="M248.523 151.67C254.552 151.882 256.384 154.769 254.02 160.331C250.886 163.016 248.018 162.695 245.416 159.369C245.097 157.765 245.097 156.161 245.416 154.557C246.402 153.482 247.437 152.52 248.523 151.67Z" fill="#E6FF97"/>
<path fill-rule="evenodd" clip-rule="evenodd" d="M62.1069 152.154C66.9753 152.315 68.8079 154.721 67.6038 159.372C64.342 162.782 61.4741 162.461 59 158.41C58.5354 155.495 59.5712 153.41 62.1069 152.154Z" fill="#E6FF97"/>
<path fill-rule="evenodd" clip-rule="evenodd" d="M264.297 152.154C269.302 152.623 270.816 155.19 268.838 159.853C266.448 162.419 264.058 162.419 261.668 159.853C259.696 156.287 260.572 153.721 264.297 152.154Z" fill="#E6FF97"/>
<path fill-rule="evenodd" clip-rule="evenodd" d="M46.3333 153.12C50.6858 152.292 52.6776 154.057 52.3081 158.413C50.9702 160.717 48.9784 161.439 46.3333 160.579C43.7932 158.035 43.7932 155.549 46.3333 153.12Z" fill="#E6FF97"/>
<path fill-rule="evenodd" clip-rule="evenodd" d="M279.114 153.116C283.278 152.577 285.11 154.342 284.611 158.409C283.397 160.608 281.564 161.329 279.114 160.574C276.58 158.053 276.58 155.567 279.114 153.116Z" fill="#E6FF97"/>
<path fill-rule="evenodd" clip-rule="evenodd" d="M31.0374 153.6C35.727 153.427 37.0013 155.432 34.8613 159.615C30.6464 160.987 28.9734 159.463 29.8424 155.044C30.3419 154.624 30.7401 154.143 31.0374 153.6Z" fill="#E6FF97"/>
<path fill-rule="evenodd" clip-rule="evenodd" d="M294.888 154.082C299.638 153.491 300.912 155.335 298.712 159.616C293.656 160.234 292.382 158.389 294.888 154.082Z" fill="#E6FF97"/>
<path fill-rule="evenodd" clip-rule="evenodd" d="M15.2638 154.56C19.3233 154.065 20.439 155.588 18.6097 159.131C14.6371 159.712 13.5218 158.188 15.2638 154.56Z" fill="#E6FF97"/>
<path fill-rule="evenodd" clip-rule="evenodd" d="M310.184 154.56C313.552 154.175 314.668 155.539 313.529 158.65C311.228 159.956 309.794 159.314 309.228 156.725C309.502 155.952 309.82 155.23 310.184 154.56Z" fill="#E6FF97"/>
<path fill-rule="evenodd" clip-rule="evenodd" d="M0.923981 155.043C3.78604 155.122 4.42335 156.325 2.83594 158.652C-0.0781725 158.723 -0.715476 157.52 0.923981 155.043Z" fill="#E6FF97"/>
<path fill-rule="evenodd" clip-rule="evenodd" d="M326.435 155.525C327.005 155.752 327.324 156.233 327.391 156.969C327.297 158.693 326.819 158.693 325.957 156.969C326.257 156.528 326.416 156.047 326.435 155.525Z" fill="#E6FF97"/>
<path fill-rule="evenodd" clip-rule="evenodd" d="M200.724 166.111C208.662 165.671 211.45 169.2 209.089 176.697C205.866 180.15 202.361 180.471 198.573 177.659C195.357 173.067 196.074 169.218 200.724 166.111Z" fill="#E6FF97"/>
<path fill-rule="evenodd" clip-rule="evenodd" d="M108.95 166.109C115.788 166.809 117.939 170.337 115.403 176.695C112.605 179.379 109.498 179.78 106.082 177.898C102.225 172.735 103.181 168.805 108.95 166.109Z" fill="#E6FF97"/>
<path fill-rule="evenodd" clip-rule="evenodd" d="M77.4027 166.588C83.2342 166.439 85.3851 169.166 83.8555 174.768C79.9346 178.831 76.7478 178.35 74.2958 173.324C73.9769 172.202 73.9769 171.079 74.2958 169.956C75.1055 168.581 76.1413 167.458 77.4027 166.588Z" fill="#E6FF97"/>
<path fill-rule="evenodd" clip-rule="evenodd" d="M93.1763 166.588C99.4399 167.175 101.431 170.383 99.1511 176.212C96.9271 178.64 94.2981 179.202 91.2643 177.896C86.9935 173.264 87.6306 169.495 93.1763 166.588Z" fill="#E6FF97"/>
<path fill-rule="evenodd" clip-rule="evenodd" d="M216.02 166.589C223.619 166.174 226.089 169.542 223.429 176.694C218.999 180.367 215.335 179.726 212.435 174.769C211.815 171.208 213.01 168.481 216.02 166.589Z" fill="#E6FF97"/>
<path fill-rule="evenodd" clip-rule="evenodd" d="M231.793 167.076C237.693 166.36 240.322 168.927 239.68 174.775C237.979 177.993 235.35 179.036 231.793 177.903C229.295 176.456 228.259 174.291 228.686 171.407C229.442 169.763 230.478 168.319 231.793 167.076Z" fill="#E6FF97"/>
<path fill-rule="evenodd" clip-rule="evenodd" d="M61.1506 167.551C67.2435 167.02 69.2353 169.586 67.1255 175.25C63.9139 177.513 61.2056 177.031 58.9996 173.806C58.3663 171.235 59.0833 169.15 61.1506 167.551Z" fill="#E6FF97"/>
<path fill-rule="evenodd" clip-rule="evenodd" d="M248.045 167.553C254.317 167.523 256.308 170.41 254.02 176.214C250.622 179.094 247.754 178.613 245.416 174.771C245.097 173.327 245.097 171.884 245.416 170.44C246.066 169.226 246.942 168.264 248.045 167.553Z" fill="#E6FF97"/>
<path fill-rule="evenodd" clip-rule="evenodd" d="M46.8111 168.032C51.1455 167.599 52.9776 169.524 52.308 173.807C49.7149 177.001 47.1657 177.001 44.6601 173.807C43.8518 171.223 44.5688 169.298 46.8111 168.032Z" fill="#E6FF97"/>
<path fill-rule="evenodd" clip-rule="evenodd" d="M263.818 168.031C269.724 168.499 271.158 171.306 268.12 176.452C263.174 178.364 260.705 176.68 260.711 171.4C261.36 169.866 262.395 168.744 263.818 168.031Z" fill="#E6FF97"/>
<path fill-rule="evenodd" clip-rule="evenodd" d="M30.5595 168.995C34.8566 167.949 36.5296 169.553 35.5784 173.807C32.2702 176.757 30.1192 176.036 29.1255 171.642C29.299 170.587 29.777 169.705 30.5595 168.995Z" fill="#E6FF97"/>
<path fill-rule="evenodd" clip-rule="evenodd" d="M279.114 168.996C283.578 168.516 285.331 170.44 284.372 174.77C281.846 177.432 279.535 177.272 277.441 174.289C276.801 172.104 277.359 170.34 279.114 168.996Z" fill="#E6FF97"/>
<path fill-rule="evenodd" clip-rule="evenodd" d="M15.742 169.477C18.5974 169.259 19.7924 170.543 19.3269 173.326C17.7076 175.204 16.1144 175.204 14.547 173.326C14.0799 171.73 14.4782 170.447 15.742 169.477Z" fill="#E6FF97"/>
<path fill-rule="evenodd" clip-rule="evenodd" d="M295.366 169.476C298.301 169.147 299.815 170.43 299.907 173.326C298.218 176.112 296.147 176.433 293.693 174.288C293.098 172.236 293.656 170.632 295.366 169.476Z" fill="#E6FF97"/>
<path fill-rule="evenodd" clip-rule="evenodd" d="M0.445902 170.443C1.44557 170.356 2.40155 170.516 3.31384 170.924C3.975 173.067 3.17838 173.949 0.923892 173.571C-0.119942 172.658 -0.279256 171.615 0.445902 170.443Z" fill="#E6FF97"/>
<path fill-rule="evenodd" clip-rule="evenodd" d="M310.661 170.439C314.068 170.539 314.865 172.062 313.051 175.011C310.263 175.412 309.068 174.209 309.466 171.402C309.942 171.129 310.34 170.809 310.661 170.439Z" fill="#E6FF97"/>
<path fill-rule="evenodd" clip-rule="evenodd" d="M326.435 171.404C327.005 171.63 327.324 172.112 327.391 172.848C327.273 174.545 326.795 174.545 325.957 172.848C326.045 172.326 326.205 171.845 326.435 171.404Z" fill="#F3A99C"/>
<path fill-rule="evenodd" clip-rule="evenodd" d="M123.768 181.025C130.318 180.719 133.186 183.767 132.371 190.167C130.19 194.472 126.844 195.674 122.334 193.776C119.6 191.426 118.723 188.459 119.705 184.874C120.736 183.202 122.09 181.918 123.768 181.025Z" fill="#E6FF97"/>
<path fill-rule="evenodd" clip-rule="evenodd" d="M202.158 181.027C205.782 180.967 208.411 182.571 210.044 185.839C210.281 192.335 207.174 195.142 200.724 194.26C197.103 191.826 196.068 188.538 197.617 184.395C198.826 182.766 200.339 181.644 202.158 181.027Z" fill="#E6FF97"/>
<path fill-rule="evenodd" clip-rule="evenodd" d="M108.471 181.506C114.812 181.458 117.282 184.506 115.88 190.649C113.96 193.843 111.172 194.885 107.515 193.777C104.368 191.627 103.332 188.659 104.409 184.875C105.575 183.453 106.93 182.331 108.471 181.506Z" fill="#E6FF97"/>
<path fill-rule="evenodd" clip-rule="evenodd" d="M216.976 181.508C223.737 181.978 225.888 185.346 223.429 191.613C220.832 194.328 217.884 194.729 214.586 192.816C210.894 188.087 211.691 184.317 216.976 181.508Z" fill="#E6FF97"/>
<path fill-rule="evenodd" clip-rule="evenodd" d="M92.6982 181.988C98.3676 181.84 100.678 184.567 99.6291 190.168C97.882 193.33 95.2531 194.372 91.7422 193.296C89.1534 191.253 88.2773 188.606 89.1133 185.356C89.9459 183.794 91.1409 182.672 92.6982 181.988Z" fill="#E6FF97"/>
<path fill-rule="evenodd" clip-rule="evenodd" d="M231.793 182.47C237.683 181.744 240.312 184.31 239.68 190.169C236.654 194.213 233.308 194.533 229.642 191.131C228.915 189.266 228.756 187.342 229.164 185.357C229.814 184.143 230.69 183.18 231.793 182.47Z" fill="#E6FF97"/>
<path fill-rule="evenodd" clip-rule="evenodd" d="M77.4017 182.469C78.6861 182.39 79.9609 182.47 81.2256 182.709C85.6447 186.062 85.6447 189.431 81.2256 192.814C76.0815 193.41 73.7709 191.084 74.2948 185.837C75.1045 184.462 76.1403 183.339 77.4017 182.469Z" fill="#E6FF97"/>
<path fill-rule="evenodd" clip-rule="evenodd" d="M61.1507 183.432C65.9287 182.556 68.2388 184.481 68.0815 189.206C65.5697 193.234 62.7018 193.555 59.4777 190.168C58.2502 187.478 58.808 185.233 61.1507 183.432Z" fill="#E6FF97"/>
<path fill-rule="evenodd" clip-rule="evenodd" d="M248.045 182.949C254.244 182.683 256.235 185.41 254.02 191.13C250.788 193.964 247.92 193.643 245.416 190.167C244.502 187.025 245.378 184.619 248.045 182.949Z" fill="#E6FF97"/>
<path fill-rule="evenodd" clip-rule="evenodd" d="M263.34 183.431C267.9 183.128 269.892 185.213 269.315 189.687C267.862 192.51 265.711 193.232 262.862 191.852C259.617 188.814 259.777 186.007 263.34 183.431Z" fill="#E6FF97"/>
<path fill-rule="evenodd" clip-rule="evenodd" d="M46.3329 183.912C50.7103 183.111 52.7021 184.875 52.3077 189.205C50.2696 192.569 47.8796 192.89 45.1379 190.168C43.9228 187.732 44.3215 185.647 46.3329 183.912Z" fill="#E6FF97"/>
<path fill-rule="evenodd" clip-rule="evenodd" d="M279.592 183.912C283.096 183.672 284.769 185.275 284.611 188.724C283.647 191.334 281.815 192.217 279.114 191.371C276.42 188.638 276.58 186.152 279.592 183.912Z" fill="#E6FF97"/>
<path fill-rule="evenodd" clip-rule="evenodd" d="M31.9936 184.396C35.0608 184.611 36.2558 186.215 35.5785 189.208C34.5972 191.033 33.0839 191.594 31.0376 190.892C30.4798 190.652 30.0816 190.251 29.8426 189.69C29.5238 188.406 29.5238 187.123 29.8426 185.84C30.5161 185.224 31.2331 184.742 31.9936 184.396Z" fill="#E6FF97"/>
<path fill-rule="evenodd" clip-rule="evenodd" d="M294.888 184.876C299.795 184.761 300.91 186.766 298.234 190.891C293.539 190.896 292.423 188.891 294.888 184.876Z" fill="#E6FF97"/>
<path fill-rule="evenodd" clip-rule="evenodd" d="M15.2639 185.358C18.9917 185.164 20.1074 186.688 18.6098 189.93C17.0159 191.032 15.6616 190.791 14.5469 189.208C14.2035 187.809 14.4425 186.526 15.2639 185.358Z" fill="#E6FF97"/>
<path fill-rule="evenodd" clip-rule="evenodd" d="M311.139 185.359C313.659 185.727 314.456 187.09 313.529 189.449C310.463 190.697 309.268 189.654 309.944 186.322C310.42 186.049 310.818 185.728 311.139 185.359Z" fill="#E6FF97"/>
<path fill-rule="evenodd" clip-rule="evenodd" d="M326.435 186.799C326.984 186.939 327.303 187.34 327.391 188.002C327.311 188.403 327.232 188.804 327.152 189.205C326.546 188.529 326.307 187.727 326.435 186.799Z" fill="#E6FF97"/>
<path fill-rule="evenodd" clip-rule="evenodd" d="M0.92352 186.318C3.23106 186.263 3.86837 187.306 2.83548 189.446C0.479228 189.652 -0.158076 188.609 0.92352 186.318Z" fill="#E6FF97"/>
<path fill-rule="evenodd" clip-rule="evenodd" d="M138.585 196.905C142.518 196.29 145.466 197.734 147.428 201.236C148.229 208.262 145.122 211.229 138.107 210.138C132.859 205.498 133.018 201.087 138.585 196.905Z" fill="#E6FF97"/>
<path fill-rule="evenodd" clip-rule="evenodd" d="M153.881 196.907C158.393 196.088 161.659 197.692 163.68 201.719C163.734 208.716 160.308 211.523 153.403 210.139C150.232 207.774 149.196 204.646 150.296 200.756C151.266 199.22 152.461 197.937 153.881 196.907Z" fill="#E6FF97"/>
<path fill-rule="evenodd" clip-rule="evenodd" d="M170.133 196.902C177.896 196.606 180.684 200.135 178.497 207.488C176.163 210.24 173.216 211.122 169.655 210.134C166.144 207.952 164.949 204.824 166.07 200.751C167.061 199.03 168.415 197.747 170.133 196.902Z" fill="#E6FF97"/>
<path fill-rule="evenodd" clip-rule="evenodd" d="M185.428 196.902C189.679 196.514 192.627 198.278 194.271 202.195C194.274 208.443 191.167 211.09 184.95 210.135C179.698 205.516 179.857 201.105 185.428 196.902Z" fill="#E6FF97"/>
<path fill-rule="evenodd" clip-rule="evenodd" d="M107.516 197.868C114.971 197.343 117.44 200.55 114.925 207.492C110.874 211.011 107.369 210.529 104.409 206.048C104.09 204.444 104.09 202.84 104.409 201.236C105.219 199.861 106.255 198.738 107.516 197.868Z" fill="#E6FF97"/>
<path fill-rule="evenodd" clip-rule="evenodd" d="M123.289 197.386C129.842 196.685 132.789 199.572 132.132 206.047C128.809 211.157 124.985 211.638 120.66 207.491C118.49 203.296 119.367 199.928 123.289 197.386Z" fill="#E6FF97"/>
<path fill-rule="evenodd" clip-rule="evenodd" d="M201.202 197.39C207.523 196.936 210.311 199.823 209.566 206.051C206.983 210.052 203.557 210.934 199.29 208.698C195.641 204.173 196.278 200.404 201.202 197.39Z" fill="#E6FF97"/>
<path fill-rule="evenodd" clip-rule="evenodd" d="M216.019 197.866C221.623 197.18 224.411 199.586 224.384 205.084C221.795 210.18 218.289 210.982 213.868 207.49C211.738 203.56 212.455 200.351 216.019 197.866Z" fill="#E6FF97"/>
<path fill-rule="evenodd" clip-rule="evenodd" d="M91.7415 198.352C97.4287 197.585 100.058 199.991 99.6284 205.57C96.7026 210.275 93.3567 210.596 89.5906 206.532C88.1815 203.218 88.8984 200.491 91.7415 198.352Z" fill="#E6FF97"/>
<path fill-rule="evenodd" clip-rule="evenodd" d="M231.793 198.348C237.8 197.578 240.27 200.144 239.202 206.047C236.186 210.258 233 210.418 229.642 206.529C228.364 203.255 229.081 200.528 231.793 198.348Z" fill="#E6FF97"/>
<path fill-rule="evenodd" clip-rule="evenodd" d="M62.1069 199.315C66.8241 199.172 68.6563 201.417 67.6037 206.052C65.8146 207.86 63.6637 208.422 61.1509 207.736C59.3809 206.102 58.8235 204.097 59.4779 201.721C60.007 200.464 60.8832 199.662 62.1069 199.315Z" fill="#E6FF97"/>
<path fill-rule="evenodd" clip-rule="evenodd" d="M76.9245 198.83C82.2025 198.129 84.5131 200.375 83.8554 205.567C82.3167 208.268 80.0066 209.15 76.9245 208.213C74.6421 206.454 73.9252 204.129 74.7736 201.236C75.5895 200.496 76.3065 199.694 76.9245 198.83Z" fill="#E6FF97"/>
<path fill-rule="evenodd" clip-rule="evenodd" d="M248.045 198.827C253.286 198.41 255.437 200.816 254.498 206.045C252.059 208.818 249.35 209.139 246.372 207.008C244.391 203.708 244.949 200.982 248.045 198.827Z" fill="#E6FF97"/>
<path fill-rule="evenodd" clip-rule="evenodd" d="M262.385 199.793C263.986 199.714 265.579 199.794 267.165 200.034C270.151 202.206 270.31 204.612 267.643 207.252C263.809 208.932 261.578 207.729 260.951 203.643C261.059 202.191 261.537 200.908 262.385 199.793Z" fill="#E6FF97"/>
<path fill-rule="evenodd" clip-rule="evenodd" d="M46.333 199.791C49.5642 199.249 51.6358 200.532 52.5469 203.64C51.6564 206.817 49.5848 208.02 46.333 207.249C45.9348 206.848 45.5362 206.447 45.138 206.046C44.8192 204.442 44.8192 202.838 45.138 201.234C45.8154 200.956 46.2135 200.475 46.333 199.791Z" fill="#E6FF97"/>
<path fill-rule="evenodd" clip-rule="evenodd" d="M31.9937 200.273C34.9429 200.592 36.1379 202.196 35.5786 205.085C34.5457 206.829 33.0319 207.391 31.0377 206.769C28.903 204.188 29.2213 202.023 31.9937 200.273Z" fill="#E6FF97"/>
<path fill-rule="evenodd" clip-rule="evenodd" d="M279.114 200.276C283.334 199.631 285.007 201.395 284.133 205.569C281.705 208.209 279.474 208.048 277.441 205.088C276.846 203.035 277.404 201.432 279.114 200.276Z" fill="#E6FF97"/>
<path fill-rule="evenodd" clip-rule="evenodd" d="M295.366 200.752C299.82 200.827 300.776 202.671 298.234 206.286C294.808 207.007 293.454 205.644 294.171 202.196C294.505 201.622 294.903 201.141 295.366 200.752Z" fill="#E6FF97"/>
<path fill-rule="evenodd" clip-rule="evenodd" d="M15.7415 201.234C19.1486 201.333 19.945 202.857 18.1315 205.806C14.2635 205.849 13.4668 204.325 15.7415 201.234Z" fill="#E6FF97"/>
<path fill-rule="evenodd" clip-rule="evenodd" d="M310.661 201.716C313.523 201.465 314.479 202.668 313.529 205.325C309.739 206.247 308.783 205.044 310.661 201.716Z" fill="#E6FF97"/>
<path fill-rule="evenodd" clip-rule="evenodd" d="M0.923963 202.197C3.15068 201.963 3.78803 202.845 2.83592 204.843C0.55505 205.233 -0.0823019 204.351 0.923963 202.197Z" fill="#E6FF97"/>
<path fill-rule="evenodd" clip-rule="evenodd" d="M326.435 202.676C326.984 202.816 327.303 203.217 327.391 203.879C327.311 204.28 327.232 204.681 327.152 205.082C326.546 204.406 326.307 203.604 326.435 202.676Z" fill="#E6FF97"/>
<path fill-rule="evenodd" clip-rule="evenodd" d="M138.107 212.78C144.738 211.68 147.685 214.407 146.95 220.96C145.38 224.337 142.751 225.701 139.063 225.05C135.335 222.936 134.14 219.809 135.478 215.667C136.128 214.453 137.004 213.491 138.107 212.78Z" fill="#E6FF97"/>
<path fill-rule="evenodd" clip-rule="evenodd" d="M155.793 212.301C161.883 212.739 164.193 215.947 162.724 221.924C160.28 225.226 157.173 226.108 153.403 224.571C149.583 220.702 149.583 216.852 153.403 213.023C154.303 212.927 155.099 212.687 155.793 212.301Z" fill="#E6FF97"/>
<path fill-rule="evenodd" clip-rule="evenodd" d="M170.61 212.302C176.915 212.152 179.544 215.2 178.497 221.445C176.674 224.879 173.885 226.082 170.132 225.054C166.767 223.006 165.572 220.039 166.547 216.152C167.578 214.479 168.933 213.196 170.61 212.302Z" fill="#E6FF97"/>
<path fill-rule="evenodd" clip-rule="evenodd" d="M123.767 212.785C129.6 212.48 132.229 215.207 131.654 220.965C129.838 224.305 127.05 225.508 123.289 224.574C118.675 220.437 118.835 216.507 123.767 212.785Z" fill="#E6FF97"/>
<path fill-rule="evenodd" clip-rule="evenodd" d="M184.95 212.784C188.921 211.802 191.868 213.085 193.793 216.634C194.217 222.622 191.428 225.429 185.428 225.054C182.063 223.007 180.868 220.039 181.843 216.152C182.652 214.777 183.688 213.655 184.95 212.784Z" fill="#E6FF97"/>
<path fill-rule="evenodd" clip-rule="evenodd" d="M201.202 212.784C207.009 212.455 209.638 215.182 209.089 220.965C207.44 224.32 204.811 225.523 201.202 224.573C198.022 222.821 196.827 220.175 197.617 216.634C198.586 215.098 199.781 213.815 201.202 212.784Z" fill="#E6FF97"/>
<path fill-rule="evenodd" clip-rule="evenodd" d="M92.2199 213.748C98.5026 213.402 100.654 216.128 98.6727 221.928C95.257 225.355 92.2294 225.034 89.5909 220.966C88.6765 217.824 89.5527 215.418 92.2199 213.748Z" fill="#E6FF97"/>
<path fill-rule="evenodd" clip-rule="evenodd" d="M107.994 213.264C113.668 212.8 116.138 215.367 115.403 220.963C113.656 224.125 111.027 225.167 107.516 224.091C104.865 222.295 103.989 219.809 104.887 216.632C105.697 215.257 106.732 214.135 107.994 213.264Z" fill="#E6FF97"/>
<path fill-rule="evenodd" clip-rule="evenodd" d="M216.498 213.264C222.172 212.801 224.642 215.367 223.907 220.963C222.159 224.124 219.531 225.167 216.02 224.091C212.05 220.212 212.209 216.604 216.498 213.264Z" fill="#E6FF97"/>
<path fill-rule="evenodd" clip-rule="evenodd" d="M232.271 213.749C237.207 213.346 239.517 215.591 239.202 220.486C237.632 223.559 235.163 224.601 231.793 223.614C229.569 221.791 228.852 219.465 229.642 216.636C230.292 215.422 231.168 214.46 232.271 213.749Z" fill="#E6FF97"/>
<path fill-rule="evenodd" clip-rule="evenodd" d="M76.9245 214.226C79.4411 213.779 81.5921 214.42 83.3774 216.15C84.7492 221.669 82.5982 223.994 76.9245 223.128C73.7602 220.161 73.7602 217.194 76.9245 214.226Z" fill="#E6FF97"/>
<path fill-rule="evenodd" clip-rule="evenodd" d="M248.045 214.231C253.084 213.769 255.235 216.014 254.498 220.968C251.571 224.147 248.703 224.147 245.894 220.968C245.238 219.911 245.079 218.788 245.416 217.599C246.212 216.398 247.089 215.276 248.045 214.231Z" fill="#E6FF97"/>
<path fill-rule="evenodd" clip-rule="evenodd" d="M61.6288 214.705C67.3326 214.73 68.9262 217.216 66.4087 222.163C61.5308 223.986 59.2207 222.302 59.4778 217.111C60.2937 216.371 61.0107 215.569 61.6288 214.705Z" fill="#E6FF97"/>
<path fill-rule="evenodd" clip-rule="evenodd" d="M263.34 214.71C267.993 214.339 269.825 216.424 268.837 220.965C267.425 222.783 265.593 223.344 263.34 222.65C261.156 221.427 260.439 219.582 261.189 217.116C262.005 216.376 262.722 215.574 263.34 214.71Z" fill="#E6FF97"/>
<path fill-rule="evenodd" clip-rule="evenodd" d="M47.2893 215.19C50.7337 215.047 52.2474 216.651 51.8302 220.002C49.8365 223 47.6062 223.16 45.1383 220.483C44.3702 218.048 45.0872 216.284 47.2893 215.19Z" fill="#E6FF97"/>
<path fill-rule="evenodd" clip-rule="evenodd" d="M279.114 215.672C284.321 215.36 285.595 217.365 282.938 221.687C278.75 223.087 277.077 221.564 277.919 217.116C278.419 216.696 278.817 216.215 279.114 215.672Z" fill="#E6FF97"/>
<path fill-rule="evenodd" clip-rule="evenodd" d="M31.0374 216.154C34.6223 215.512 35.9764 216.956 35.1003 220.485C33.7437 222.186 32.2299 222.346 30.5594 220.966C29.8271 219.236 29.9867 217.632 31.0374 216.154Z" fill="#E6FF97"/>
<path fill-rule="evenodd" clip-rule="evenodd" d="M295.366 216.152C299.246 216.095 300.202 217.779 298.234 221.204C293.861 221.462 292.905 219.778 295.366 216.152Z" fill="#E6FF97"/>
<path fill-rule="evenodd" clip-rule="evenodd" d="M16.2198 216.635C19.0089 217.036 19.646 218.399 18.1317 220.725C15.5028 221.286 14.4671 220.244 15.0248 217.597C15.5003 217.325 15.8986 217.004 16.2198 216.635Z" fill="#E6FF97"/>
<path fill-rule="evenodd" clip-rule="evenodd" d="M310.662 217.113C313.639 216.885 314.436 218.008 313.052 220.481C311.203 221.407 310.087 220.846 309.706 218.797C309.935 218.17 310.253 217.609 310.662 217.113Z" fill="#E6FF97"/>
<path fill-rule="evenodd" clip-rule="evenodd" d="M0.92412 217.597C2.46736 217.435 3.18434 218.077 3.07507 219.521C0.88373 220.442 0.166746 219.8 0.92412 217.597Z" fill="#E6FF97"/>
<path fill-rule="evenodd" clip-rule="evenodd" d="M139.063 228.658C144.651 228.587 147.12 231.314 146.472 236.838C142.807 241.971 139.143 241.971 135.478 236.838C135.159 235.394 135.159 233.951 135.478 232.507C136.447 230.971 137.642 229.688 139.063 228.658Z" fill="#E6FF97"/>
<path fill-rule="evenodd" clip-rule="evenodd" d="M154.359 228.667C158.231 228.089 161.019 229.533 162.724 232.998C163.122 238.371 160.653 240.857 155.315 240.456C151.81 239.184 150.456 236.697 151.252 232.998C152.008 231.354 153.043 229.91 154.359 228.667Z" fill="#E6FF97"/>
<path fill-rule="evenodd" clip-rule="evenodd" d="M170.611 228.667C174.297 228.166 176.926 229.61 178.498 232.998C178.781 238.591 176.153 241.077 170.611 240.456C167.391 238.76 166.196 236.113 167.026 232.517C167.995 230.981 169.19 229.697 170.611 228.667Z" fill="#E6FF97"/>
<path fill-rule="evenodd" clip-rule="evenodd" d="M108.95 229.145C114.672 229.672 116.504 232.559 114.447 237.806C109.544 241.718 106.277 240.596 104.648 234.438C105.212 231.946 106.646 230.182 108.95 229.145Z" fill="#E6FF97"/>
<path fill-rule="evenodd" clip-rule="evenodd" d="M123.768 229.145C131.195 229.265 133.106 232.553 129.503 239.009C123.222 241.511 120.274 239.345 120.661 232.513C121.47 231.138 122.506 230.015 123.768 229.145Z" fill="#E6FF97"/>
<path fill-rule="evenodd" clip-rule="evenodd" d="M185.428 229.145C189.804 228.43 192.513 230.195 193.554 234.438C192.836 239.136 190.127 240.98 185.428 239.971C182.539 238.312 181.504 235.826 182.321 232.513C183.131 231.138 184.167 230.015 185.428 229.145Z" fill="#E6FF97"/>
<path fill-rule="evenodd" clip-rule="evenodd" d="M201.68 229.145C207.767 229.095 209.918 231.982 208.133 237.807C205.663 240.453 202.875 240.854 199.768 239.009C196.716 234.909 197.353 231.621 201.68 229.145Z" fill="#E6FF97"/>
<path fill-rule="evenodd" clip-rule="evenodd" d="M91.7419 230.108C97.6431 229.24 99.9537 231.646 98.6727 237.326C95.5519 240.691 92.684 240.53 90.0689 236.845C89.4035 234.243 89.9609 231.997 91.7419 230.108Z" fill="#E6FF97"/>
<path fill-rule="evenodd" clip-rule="evenodd" d="M216.498 229.629C221.457 229.249 223.767 231.495 223.428 236.366C221.859 239.439 219.389 240.481 216.02 239.493C212.06 235.928 212.22 232.64 216.498 229.629Z" fill="#E6FF97"/>
<path fill-rule="evenodd" clip-rule="evenodd" d="M231.793 230.104C236.808 229.303 239.119 231.388 238.724 236.36C237.158 239.059 234.848 239.941 231.793 239.006C228.624 236.003 228.624 233.036 231.793 230.104Z" fill="#E6FF97"/>
<path fill-rule="evenodd" clip-rule="evenodd" d="M76.9246 230.586C81.8025 229.648 83.9534 231.573 83.3774 236.36C81.2122 239.771 78.663 240.092 75.7296 237.323C74.5542 234.774 74.9529 232.528 76.9246 230.586Z" fill="#E6FF97"/>
<path fill-rule="evenodd" clip-rule="evenodd" d="M61.1508 231.071C66.5133 230.13 68.3455 232.215 66.6477 237.326C61.5876 239.905 59.3573 238.301 59.9558 232.514C60.4553 232.094 60.8535 231.613 61.1508 231.071Z" fill="#E6FF97"/>
<path fill-rule="evenodd" clip-rule="evenodd" d="M248.045 230.584C251.737 229.582 253.809 230.945 254.259 234.674C254.145 237.436 252.711 238.799 249.957 238.764C248.797 238.811 247.762 238.49 246.85 237.802C245.58 235.004 245.979 232.598 248.045 230.584Z" fill="#E6FF97"/>
<path fill-rule="evenodd" clip-rule="evenodd" d="M46.811 231.547C50.5527 231.063 52.066 232.666 51.3519 236.359C49.3979 238.862 47.4859 238.862 45.616 236.359C45.0725 234.452 45.4712 232.848 46.811 231.547Z" fill="#E6FF97"/>
<path fill-rule="evenodd" clip-rule="evenodd" d="M263.34 231.069C268.807 231.011 270.081 233.337 267.164 238.047C263.022 238.847 261.189 237.163 261.667 232.994C262.161 232.259 262.719 231.618 263.34 231.069Z" fill="#E6FF97"/>
<path fill-rule="evenodd" clip-rule="evenodd" d="M279.592 231.553C284.111 231.808 285.067 233.813 282.46 237.568C279.135 238.23 277.621 236.866 277.919 233.477C278.249 232.587 278.806 231.945 279.592 231.553Z" fill="#E6FF97"/>
<path fill-rule="evenodd" clip-rule="evenodd" d="M31.5153 232.031C35.006 232.08 35.962 233.604 34.3832 236.603C31.2509 237.919 29.8968 236.877 30.3203 233.475C30.6539 232.902 31.0521 232.421 31.5153 232.031Z" fill="#E6FF97"/>
<path fill-rule="evenodd" clip-rule="evenodd" d="M15.7419 232.994C18.3784 232.981 19.0156 234.024 17.6538 236.122C15.2976 236.327 14.6603 235.285 15.7419 232.994Z" fill="#E6FF97"/>
<path fill-rule="evenodd" clip-rule="evenodd" d="M295.366 232.51C298.949 232.176 299.905 233.539 298.234 236.601C294.51 237.109 293.555 235.746 295.366 232.51Z" fill="#E6FF97"/>
<path fill-rule="evenodd" clip-rule="evenodd" d="M311.14 232.994C313.039 233.271 313.517 234.314 312.574 236.122C310.127 236.037 309.649 234.995 311.14 232.994Z" fill="#E6FF97"/>
<path fill-rule="evenodd" clip-rule="evenodd" d="M139.541 245.023C144.152 245.253 146.303 247.659 145.994 252.241C144.491 255.431 142.021 256.473 138.585 255.369C134.537 251.509 134.856 248.061 139.541 245.023Z" fill="#E6FF97"/>
<path fill-rule="evenodd" clip-rule="evenodd" d="M154.837 245.023C161.366 245.097 163.358 248.144 160.812 254.166C157.046 257.018 154.019 256.377 151.73 252.241C151.411 250.958 151.411 249.675 151.73 248.392C152.54 247.017 153.575 245.894 154.837 245.023Z" fill="#E6FF97"/>
<path fill-rule="evenodd" clip-rule="evenodd" d="M170.61 245.023C177.45 245.235 179.362 248.363 176.346 254.407C172.864 256.877 169.917 256.316 167.503 252.722C167.184 251.279 167.184 249.835 167.503 248.392C168.313 247.017 169.349 245.894 170.61 245.023Z" fill="#E6FF97"/>
<path fill-rule="evenodd" clip-rule="evenodd" d="M107.994 245.988C113.339 245.193 115.49 247.438 114.447 252.725C111.556 255.928 108.688 255.928 105.843 252.725C105.034 249.89 105.751 247.645 107.994 245.988Z" fill="#E6FF97"/>
<path fill-rule="evenodd" clip-rule="evenodd" d="M124.246 245.503C129.198 245.434 131.349 247.84 130.699 252.721C127.82 256.359 124.793 256.52 121.617 253.202C120.194 249.816 121.07 247.25 124.246 245.503Z" fill="#E6FF97"/>
<path fill-rule="evenodd" clip-rule="evenodd" d="M185.428 245.503C190.371 244.792 192.84 246.877 192.837 251.758C191.482 255.206 189.013 256.409 185.428 255.367C181.612 252.02 181.612 248.731 185.428 245.503Z" fill="#E6FF97"/>
<path fill-rule="evenodd" clip-rule="evenodd" d="M201.68 245.505C206.897 245.194 209.048 247.6 208.133 252.723C206.298 255.631 203.828 256.353 200.724 254.888C197.317 251.338 197.635 248.21 201.68 245.505Z" fill="#E6FF97"/>
<path fill-rule="evenodd" clip-rule="evenodd" d="M216.498 245.987C221.274 245.422 223.425 247.507 222.951 252.242C221.555 254.901 219.404 255.783 216.498 254.889C212.679 251.836 212.679 248.869 216.498 245.987Z" fill="#E6FF97"/>
<path fill-rule="evenodd" clip-rule="evenodd" d="M92.6977 245.988C95.2664 245.717 97.2582 246.679 98.6726 248.875C98.8905 253.466 96.7396 255.31 92.2197 254.409C91.3789 253.924 90.8211 253.202 90.5467 252.243C90.2279 250.8 90.2279 249.356 90.5467 247.913C91.3435 247.319 92.0605 246.678 92.6977 245.988Z" fill="#E6FF97"/>
<path fill-rule="evenodd" clip-rule="evenodd" d="M77.4022 246.466C82.7121 246.272 84.3053 248.598 82.1821 253.443C77.0895 255.533 74.9386 253.849 75.7292 248.391C76.3869 247.811 76.9442 247.17 77.4022 246.466Z" fill="#E6FF97"/>
<path fill-rule="evenodd" clip-rule="evenodd" d="M231.793 246.466C236.912 245.605 239.063 247.69 238.246 252.721C235.646 255.208 233.096 255.208 230.598 252.721C229.997 250.372 230.395 248.287 231.793 246.466Z" fill="#E6FF97"/>
<path fill-rule="evenodd" clip-rule="evenodd" d="M248.045 246.947C253.316 246.418 254.909 248.584 252.825 253.443C248.271 255.269 246.12 253.745 246.372 248.872C247.03 248.292 247.587 247.65 248.045 246.947Z" fill="#E6FF97"/>
<path fill-rule="evenodd" clip-rule="evenodd" d="M62.1071 246.947C65.7881 246.881 67.3014 248.645 66.648 252.24C64.5377 254.755 62.4661 254.755 60.4342 252.24C59.7951 250.013 60.3529 248.249 62.1071 246.947Z" fill="#E6FF97"/>
<path fill-rule="evenodd" clip-rule="evenodd" d="M263.341 247.428C268.025 246.919 269.459 248.764 267.643 252.962C264.471 254.596 262.559 253.714 261.907 250.315C261.968 249.134 262.446 248.172 263.341 247.428Z" fill="#E6FF97"/>
<path fill-rule="evenodd" clip-rule="evenodd" d="M46.8111 247.912C51.0083 247.475 52.1235 249.08 50.157 252.724C45.8164 253.538 44.7012 251.934 46.8111 247.912Z" fill="#E6FF97"/>
<path fill-rule="evenodd" clip-rule="evenodd" d="M279.593 247.914C283.48 247.856 284.436 249.54 282.461 252.966C278.097 253.155 277.141 251.47 279.593 247.914Z" fill="#E6FF97"/>
<path fill-rule="evenodd" clip-rule="evenodd" d="M31.5155 248.388C34.8547 248.307 35.6515 249.67 33.9054 252.478C30.5193 252.707 29.7225 251.344 31.5155 248.388Z" fill="#E6FF97"/>
<path fill-rule="evenodd" clip-rule="evenodd" d="M295.366 248.872C298.563 248.31 299.36 249.352 297.756 252C295.003 252.548 294.206 251.506 295.366 248.872Z" fill="#E6FF97"/>
<path fill-rule="evenodd" clip-rule="evenodd" d="M15.7417 249.354C17.7377 249.032 18.3751 249.754 17.6537 251.519C17.0355 251.755 16.3982 251.835 15.7417 251.76C15.7417 250.958 15.7417 250.156 15.7417 249.354Z" fill="#E6FF97"/>
<path fill-rule="evenodd" clip-rule="evenodd" d="M311.139 249.353C312.889 249.28 313.367 250.002 312.573 251.518C310.76 251.752 310.282 251.03 311.139 249.353Z" fill="#F2A99C"/>
<path fill-rule="evenodd" clip-rule="evenodd" d="M139.063 260.898C143.545 260.68 145.696 262.765 145.516 267.154C142.489 271.645 139.461 271.645 136.434 267.154C135.875 264.437 136.752 262.351 139.063 260.898Z" fill="#E6FF97"/>
<path fill-rule="evenodd" clip-rule="evenodd" d="M154.837 260.9C161.159 260.884 162.912 263.69 160.095 269.321C156.887 271.336 154.258 270.775 152.208 267.637C151.889 266.354 151.889 265.071 152.208 263.788C152.858 262.574 153.734 261.611 154.837 260.9Z" fill="#E6FF97"/>
<path fill-rule="evenodd" clip-rule="evenodd" d="M170.61 260.901C175.623 260.414 177.774 262.659 177.063 267.638C173.518 271.778 170.491 271.458 167.981 266.675C167.701 264.194 168.577 262.27 170.61 260.901Z" fill="#E6FF97"/>
<path fill-rule="evenodd" clip-rule="evenodd" d="M185.906 260.904C190.806 260.775 192.798 263.02 191.881 267.64C188.997 271.44 186.129 271.44 183.277 267.64C182.958 266.357 182.958 265.074 183.277 263.791C183.927 262.577 184.803 261.614 185.906 260.904Z" fill="#E6FF97"/>
<path fill-rule="evenodd" clip-rule="evenodd" d="M108.471 261.383C112.843 260.961 114.675 262.886 113.968 267.157C111.638 270.802 109.089 270.962 106.32 267.638C105.546 264.955 106.263 262.869 108.471 261.383Z" fill="#E6FF97"/>
<path fill-rule="evenodd" clip-rule="evenodd" d="M123.768 261.386C128.283 260.721 130.434 262.646 130.22 267.16C128.825 269.818 126.674 270.7 123.768 269.806C120.596 266.963 120.596 264.156 123.768 261.386Z" fill="#E6FF97"/>
<path fill-rule="evenodd" clip-rule="evenodd" d="M201.68 261.381C205.978 260.977 207.97 262.902 207.655 267.155C205.617 270.358 203.068 270.839 200.007 268.598C198.596 265.609 199.153 263.203 201.68 261.381Z" fill="#E6FF97"/>
<path fill-rule="evenodd" clip-rule="evenodd" d="M216.976 261.385C221.721 261.421 223.394 263.667 221.995 268.121C219.355 270.778 216.965 270.618 214.825 267.64C214.05 264.957 214.767 262.871 216.976 261.385Z" fill="#E6FF97"/>
<path fill-rule="evenodd" clip-rule="evenodd" d="M92.6983 261.865C96.6106 261.237 98.4427 262.842 98.1951 266.677C97.1316 269.121 95.2995 270.003 92.6983 269.323C89.5316 266.799 89.5316 264.313 92.6983 261.865Z" fill="#E6FF97"/>
<path fill-rule="evenodd" clip-rule="evenodd" d="M232.749 261.863C236.682 261.571 238.355 263.335 237.768 267.156C236.526 269.439 234.694 270.081 232.271 269.081C229.617 266.425 229.776 264.019 232.749 261.863Z" fill="#E6FF97"/>
<path fill-rule="evenodd" clip-rule="evenodd" d="M77.4027 262.35C82.3303 261.929 83.7642 263.934 81.7046 268.365C77.2827 270.008 75.4501 268.485 76.2077 263.793C76.7072 263.373 77.1054 262.892 77.4027 262.35Z" fill="#E6FF97"/>
<path fill-rule="evenodd" clip-rule="evenodd" d="M248.523 262.35C253.515 262.449 254.631 264.614 251.869 268.846C248.226 269.509 246.553 267.985 246.85 264.274C247.508 263.695 248.065 263.053 248.523 262.35Z" fill="#E6FF97"/>
<path fill-rule="evenodd" clip-rule="evenodd" d="M62.1061 262.83C66.5601 262.905 67.516 264.749 64.9741 268.364C61.3079 269.002 59.9538 267.478 60.9112 263.792C61.3868 263.52 61.7849 263.199 62.1061 262.83Z" fill="#E6FF97"/>
<path fill-rule="evenodd" clip-rule="evenodd" d="M263.818 262.829C266.832 262.448 268.187 263.731 267.881 266.679C266.278 268.993 264.525 269.154 262.623 267.16C262.11 265.428 262.509 263.984 263.818 262.829Z" fill="#E6FF97"/>
<path fill-rule="evenodd" clip-rule="evenodd" d="M47.2891 263.311C50.6962 263.41 51.4926 264.934 49.6791 267.882C46.8102 268.36 45.7749 267.157 46.5721 264.273C46.9149 264.011 47.1539 263.69 47.2891 263.311Z" fill="#E6FF97"/>
<path fill-rule="evenodd" clip-rule="evenodd" d="M279.592 263.786C282.775 263.23 283.731 264.433 282.46 267.395C278.997 268.008 278.041 266.805 279.592 263.786Z" fill="#E6FF97"/>
<path fill-rule="evenodd" clip-rule="evenodd" d="M31.5152 264.274C33.8507 263.747 34.647 264.549 33.9052 266.68C31.3403 267.627 30.5435 266.825 31.5152 264.274Z" fill="#E6FF97"/>
<path fill-rule="evenodd" clip-rule="evenodd" d="M295.844 264.271C298.071 264.038 298.708 264.92 297.756 266.918C295.475 267.307 294.838 266.425 295.844 264.271Z" fill="#F3AEA2"/>
<path fill-rule="evenodd" clip-rule="evenodd" d="M139.541 277.266C144.818 277.471 146.252 279.957 143.843 284.724C139.046 286.472 136.895 284.787 137.39 279.672C137.96 278.711 138.677 277.908 139.541 277.266Z" fill="#E6FF97"/>
<path fill-rule="evenodd" clip-rule="evenodd" d="M155.314 277.266C160.67 277.548 162.104 280.033 159.616 284.724C155.128 286.453 152.817 284.929 152.686 280.153C153.336 278.939 154.212 277.976 155.314 277.266Z" fill="#E6FF97"/>
<path fill-rule="evenodd" clip-rule="evenodd" d="M170.61 277.263C174.676 276.788 176.667 278.552 176.585 282.556C175.913 284.677 174.479 285.64 172.283 285.443C171.159 285.537 170.203 285.216 169.415 284.481C168.166 281.738 168.565 279.332 170.61 277.263Z" fill="#E6FF97"/>
<path fill-rule="evenodd" clip-rule="evenodd" d="M185.906 277.266C191.359 277.525 192.793 280.011 190.208 284.724C185.654 286.55 183.503 285.026 183.755 280.153C184.392 279.113 185.109 278.151 185.906 277.266Z" fill="#E6FF97"/>
<path fill-rule="evenodd" clip-rule="evenodd" d="M108.472 277.743C113.307 277.709 114.741 279.875 112.774 284.239C108.147 286.155 106.156 284.631 106.799 279.667C107.457 279.087 108.014 278.446 108.472 277.743Z" fill="#E6FF97"/>
<path fill-rule="evenodd" clip-rule="evenodd" d="M123.767 277.746C125.841 277.431 127.674 277.912 129.264 279.189C130.404 283.499 128.731 285.503 124.245 285.204C121.277 282.866 121.117 280.38 123.767 277.746Z" fill="#E6FF97"/>
<path fill-rule="evenodd" clip-rule="evenodd" d="M201.68 277.743C205.583 277.106 207.415 278.71 207.177 282.555C205.182 285.981 202.792 286.302 200.007 283.518C199.334 281.139 199.892 279.214 201.68 277.743Z" fill="#E6FF97"/>
<path fill-rule="evenodd" clip-rule="evenodd" d="M216.497 278.224C220.162 277.514 221.994 278.958 221.994 282.555C221.263 284.208 219.989 285.009 218.17 284.961C215.983 284.824 214.947 283.621 215.063 281.352C215.011 280.047 215.489 279.005 216.497 278.224Z" fill="#E6FF97"/>
<path fill-rule="evenodd" clip-rule="evenodd" d="M92.6984 278.226C97.2823 278.02 98.5571 279.945 96.5223 284C92.2725 285.576 90.5995 284.133 91.5034 279.669C92.0029 279.249 92.4011 278.768 92.6984 278.226Z" fill="#E6FF97"/>
<path fill-rule="evenodd" clip-rule="evenodd" d="M232.749 278.223C237.684 278.181 238.799 280.186 236.095 284.238C232.102 285.274 230.588 283.75 231.554 279.667C232.054 279.247 232.452 278.766 232.749 278.223Z" fill="#E6FF97"/>
<path fill-rule="evenodd" clip-rule="evenodd" d="M77.8803 278.708C81.8209 278.577 82.9365 280.262 81.2262 283.761C79.8262 284.135 78.4716 284.054 77.1633 283.52C76.0778 281.69 76.3168 280.086 77.8803 278.708Z" fill="#E6FF97"/>
<path fill-rule="evenodd" clip-rule="evenodd" d="M248.523 278.708C252.463 278.577 253.579 280.262 251.869 283.761C247.533 284.307 246.418 282.623 248.523 278.708Z" fill="#E6FF97"/>
<path fill-rule="evenodd" clip-rule="evenodd" d="M62.1065 279.186C65.5136 279.285 66.31 280.809 64.4965 283.757C61.1381 283.641 60.3413 282.117 62.1065 279.186Z" fill="#E6FF97"/>
<path fill-rule="evenodd" clip-rule="evenodd" d="M263.819 279.187C266.92 279.022 267.876 280.385 266.687 283.277C263.01 283.827 262.054 282.464 263.819 279.187Z" fill="#E6FF97"/>
<path fill-rule="evenodd" clip-rule="evenodd" d="M47.2893 279.668C50.1515 279.747 50.7886 280.95 49.2012 283.277C46.8744 283.138 46.2372 281.935 47.2893 279.668Z" fill="#E6FF97"/>
<path fill-rule="evenodd" clip-rule="evenodd" d="M279.593 280.148C281.802 279.623 282.678 280.425 282.222 282.554C279.987 283.437 279.111 282.634 279.593 280.148Z" fill="#E6FF97"/>
<path fill-rule="evenodd" clip-rule="evenodd" d="M31.5155 280.629C32.3123 280.629 33.1086 280.629 33.9054 280.629C33.9771 282.391 33.2602 282.872 31.7545 282.072C31.5236 281.616 31.4443 281.135 31.5155 280.629Z" fill="#E6FF97"/>
<path fill-rule="evenodd" clip-rule="evenodd" d="M139.063 294.106C144.27 293.793 145.544 295.798 142.887 300.121C139.789 301.213 138.037 300.17 137.629 296.993C137.69 295.812 138.168 294.849 139.063 294.106Z" fill="#E6FF97"/>
<path fill-rule="evenodd" clip-rule="evenodd" d="M154.837 294.106C159.658 293.653 161.092 295.578 159.139 299.88C155.862 301.718 153.95 300.756 153.403 296.993C153.465 295.811 153.942 294.849 154.837 294.106Z" fill="#E6FF97"/>
<path fill-rule="evenodd" clip-rule="evenodd" d="M170.611 294.104C176.204 293.993 177.319 296.159 173.957 300.6C171.092 301.169 169.498 299.966 169.177 296.991C169.238 295.809 169.716 294.847 170.611 294.104Z" fill="#E6FF97"/>
<path fill-rule="evenodd" clip-rule="evenodd" d="M185.906 294.101C190.721 294.033 191.995 296.039 189.73 300.116C184.446 300.655 183.171 298.649 185.906 294.101Z" fill="#E6FF97"/>
<path fill-rule="evenodd" clip-rule="evenodd" d="M124.245 294.102C129.177 294.018 130.293 296.023 127.591 300.117C122.621 300.344 121.506 298.339 124.245 294.102Z" fill="#E6FF97"/>
<path fill-rule="evenodd" clip-rule="evenodd" d="M202.158 294.104C205.659 293.86 207.013 295.464 206.221 298.916C204.998 300.287 203.484 300.688 201.68 300.119C199.628 297.908 199.787 295.903 202.158 294.104Z" fill="#E6FF97"/>
<path fill-rule="evenodd" clip-rule="evenodd" d="M93.1761 294.586C97.152 294.82 97.9488 296.504 95.566 299.638C91.5452 299.548 90.7483 297.864 93.1761 294.586Z" fill="#E6FF97"/>
<path fill-rule="evenodd" clip-rule="evenodd" d="M108.472 294.585C111.735 293.947 113.249 295.23 113.012 298.434C111.409 300.749 109.656 300.909 107.755 298.915C107.309 297.316 107.548 295.873 108.472 294.585Z" fill="#E6FF97"/>
<path fill-rule="evenodd" clip-rule="evenodd" d="M216.975 294.588C221.008 294.389 222.123 296.073 220.321 299.64C215.741 300.097 214.626 298.413 216.975 294.588Z" fill="#E6FF97"/>
<path fill-rule="evenodd" clip-rule="evenodd" d="M233.227 294.586C237.208 294.86 238.005 296.544 235.617 299.638C231.596 299.548 230.8 297.864 233.227 294.586Z" fill="#E6FF97"/>
<path fill-rule="evenodd" clip-rule="evenodd" d="M78.3587 295.066C81.1134 295.203 81.9102 296.566 80.7486 299.156C77.277 299.552 76.4807 298.188 78.3587 295.066Z" fill="#E6FF97"/>
<path fill-rule="evenodd" clip-rule="evenodd" d="M248.524 295.546C251.887 295.115 252.684 296.318 250.914 299.155C248.182 299.348 247.386 298.145 248.524 295.546Z" fill="#E6FF97"/>
<path fill-rule="evenodd" clip-rule="evenodd" d="M62.5847 295.549C64.8925 295.494 65.5296 296.536 64.4967 298.677C62.1402 298.882 61.5031 297.839 62.5847 295.549Z" fill="#E6FF97"/>
<path fill-rule="evenodd" clip-rule="evenodd" d="M263.818 296.029C266.028 295.504 266.904 296.306 266.447 298.435C264.212 299.317 263.336 298.515 263.818 296.029Z" fill="#E6FF97"/>
<path fill-rule="evenodd" clip-rule="evenodd" d="M124.723 309.984C127.273 309.746 128.468 310.869 128.308 313.353C127.015 315.026 125.581 315.186 124.006 313.834C123.58 312.391 123.819 311.108 124.723 309.984Z" fill="#E6FF97"/>
<path fill-rule="evenodd" clip-rule="evenodd" d="M139.541 309.983C142.648 309.502 143.843 310.785 143.126 313.833C141.669 315.749 140.235 315.749 138.824 313.833C138.398 312.39 138.637 311.107 139.541 309.983Z" fill="#E6FF97"/>
<path fill-rule="evenodd" clip-rule="evenodd" d="M155.315 309.983C158.355 309.597 159.709 310.88 159.378 313.833C157.921 315.522 156.328 315.682 154.598 314.314C154.152 312.715 154.391 311.271 155.315 309.983Z" fill="#E6FF97"/>
<path fill-rule="evenodd" clip-rule="evenodd" d="M171.088 309.985C175.282 309.941 176.238 311.625 173.956 315.038C171.446 315.931 170.171 315.048 170.132 312.391C170.102 311.422 170.421 310.62 171.088 309.985Z" fill="#E6FF97"/>
<path fill-rule="evenodd" clip-rule="evenodd" d="M186.384 309.983C189.491 309.502 190.686 310.785 189.969 313.833C186.82 316.243 185.227 315.441 185.189 311.427C185.523 310.854 185.921 310.373 186.384 309.983Z" fill="#E6FF97"/>
<path fill-rule="evenodd" clip-rule="evenodd" d="M202.636 309.984C204.942 309.979 205.977 311.101 205.743 313.353C204.471 315.02 203.037 315.181 201.441 313.834C200.885 312.164 201.283 310.88 202.636 309.984Z" fill="#E6FF97"/>
<path fill-rule="evenodd" clip-rule="evenodd" d="M93.654 310.463C95.9283 310.714 96.5659 311.917 95.5659 314.072C92.5556 314.31 91.9179 313.107 93.654 310.463Z" fill="#E6FF97"/>
<path fill-rule="evenodd" clip-rule="evenodd" d="M108.471 310.463C111.338 309.901 112.532 311.024 112.056 313.831C108.568 315.374 107.373 314.251 108.471 310.463Z" fill="#E6FF97"/>
<path fill-rule="evenodd" clip-rule="evenodd" d="M216.976 310.466C220.158 309.91 221.114 311.113 219.843 314.075C216.617 314.782 215.661 313.579 216.976 310.466Z" fill="#E6FF97"/>
<path fill-rule="evenodd" clip-rule="evenodd" d="M232.749 310.947C235.947 310.384 236.743 311.426 235.139 314.074C234.502 314.395 233.864 314.395 233.227 314.074C232.786 313.092 232.627 312.05 232.749 310.947Z" fill="#E6FF97"/>
<path fill-rule="evenodd" clip-rule="evenodd" d="M155.315 326.824C158.512 326.261 159.309 327.303 157.704 329.951C155.209 330.245 154.412 329.202 155.315 326.824Z" fill="#E6FF97"/>
<path fill-rule="evenodd" clip-rule="evenodd" d="M171.088 326.824C174.286 326.261 175.083 327.303 173.478 329.951C170.975 330.237 170.178 329.194 171.088 326.824Z" fill="#E6FF97"/>
<path fill-rule="evenodd" clip-rule="evenodd" d="M124.723 326.828C125.52 326.828 126.316 326.828 127.113 326.828C127.113 327.79 127.113 328.753 127.113 329.715C126.316 329.715 125.52 329.715 124.723 329.715C124.723 328.753 124.723 327.79 124.723 326.828Z" fill="#E6FF97"/>
<path fill-rule="evenodd" clip-rule="evenodd" d="M140.019 326.826C142.246 326.592 142.883 327.474 141.931 329.472C139.65 329.862 139.013 328.98 140.019 326.826Z" fill="#E6FF97"/>
<path fill-rule="evenodd" clip-rule="evenodd" d="M186.384 326.83C188.594 326.304 189.47 327.106 189.013 329.236C186.346 330.319 185.47 329.517 186.384 326.83Z" fill="#E6FF97"/>
<path fill-rule="evenodd" clip-rule="evenodd" d="M202.636 326.826C204.863 326.592 205.5 327.474 204.548 329.472C202.267 329.862 201.63 328.98 202.636 326.826Z" fill="#E6FF97"/>
<path fill-rule="evenodd" clip-rule="evenodd" d="M109.428 326.828C110.065 326.828 110.703 326.828 111.34 326.828C111.34 327.63 111.34 328.432 111.34 329.234C109.545 329.204 108.908 328.402 109.428 326.828Z" fill="#E6FF97"/>
<ellipse cx="160.627" cy="169" rx="113.748" ry="108" fill="white"/>
<g filter="url(#filter0_d_277_11883)">
<path d="M161.341 119.327C176.858 119.556 178.397 123.082 182.942 123.206C189.515 123.394 199.561 110.758 213.175 122.177C226.591 133.43 215.66 151.089 215.66 151.089C215.66 151.089 223.127 164.318 224.001 184.473C224.635 199.064 219.019 217.222 193.841 227.518C170.66 237.003 136.069 235.11 114.926 218.876C98.5357 206.302 99.6901 187.957 100.137 181.706C101.313 165.306 108.478 152.129 108.478 152.129C108.478 152.129 97.8806 131.173 110.818 121.241C125.024 110.331 135.133 123.175 140.978 122.707C145.232 122.354 146.625 119.109 161.341 119.327Z" fill="#855B52"/>
<path d="M132.939 130.601C132.741 129.447 125.211 121.979 117.422 129.571C111.421 135.427 117.422 145.608 118.452 144.797C119.242 144.173 122.154 140.419 125.555 137.184C129.039 133.867 133.011 131.048 132.939 130.601ZM191.719 130.674C191.667 131.319 195.682 133.742 199.332 137.184C203.024 140.668 206.352 145.161 206.945 145.088C208.12 144.942 213.164 135.063 206.581 129.499C199.998 123.935 191.865 128.771 191.719 130.674Z" fill="#B99277"/>
<path d="M162.61 171.795C177.835 171.795 186.967 188.976 186.426 199.708C185.937 209.474 180.373 217.576 161.632 217.472C142.892 217.378 138.139 208.777 137.816 199.604C137.525 191.409 143.38 171.795 162.61 171.795Z" fill="#F2A258"/>
<path d="M192.156 171.088C192.499 175.415 190.18 179.356 185.739 179.023C181.455 178.691 178.324 175.217 178.324 170.87C178.324 166.523 180.633 163.444 184.107 162.966C188.35 162.373 191.667 164.942 192.156 171.088Z" fill="#171716"/>
<path d="M173.051 189.069C172.698 193.396 169.827 198.024 161.487 197.733C154.487 197.483 151.191 192.824 151.087 188.487C150.941 182.361 154.207 180.105 162.121 179.99C171.148 179.876 173.54 183.121 173.051 189.069Z" fill="#2F3030"/>
<path d="M145.824 172.7C145.377 177.016 141.321 180.042 137.525 179.117C133.355 178.098 131.483 173.709 132.356 169.455C133.136 165.649 136.475 162.685 140.26 163.111C144.212 163.548 146.386 167.261 145.824 172.7Z" fill="#171716"/>
<path d="M162.069 207.841C167.778 207.841 170.898 204.69 171.782 203.816C172.666 202.943 173.852 201.445 175.682 202.943C177.242 204.211 175.703 206.187 174.996 206.947C173.727 208.309 169.9 212.469 161.549 212.095C153.354 211.731 150.202 208.018 149.318 207.144C148.445 206.271 146.978 204.024 148.632 202.755C150.618 201.237 151.263 202.953 153.312 204.607C155.361 206.26 156.65 207.841 162.069 207.841Z" fill="#2F3030"/>
</g>
<defs>
<filter id="filter0_d_277_11883" x="91.5195" y="109" width="141.12" height="141.119" filterUnits="userSpaceOnUse" color-interpolation-filters="sRGB">
<feFlood flood-opacity="0" result="BackgroundImageFix"/>
<feColorMatrix in="SourceAlpha" type="matrix" values="0 0 0 0 0 0 0 0 0 0 0 0 0 0 0 0 0 0 127 0" result="hardAlpha"/>
<feOffset dy="4"/>
<feGaussianBlur stdDeviation="2"/>
<feComposite in2="hardAlpha" operator="out"/>
<feColorMatrix type="matrix" values="0 0 0 0 0 0 0 0 0 0 0 0 0 0 0 0 0 0 0.25 0"/>
<feBlend mode="normal" in2="BackgroundImageFix" result="effect1_dropShadow_277_11883"/>
<feBlend mode="normal" in="SourceGraphic" in2="effect1_dropShadow_277_11883" result="shape"/>
</filter>
</defs>
</svg>
