<svg width="62" height="62" viewBox="0 0 62 62" fill="none" xmlns="http://www.w3.org/2000/svg">
<circle cx="31" cy="31" r="30.5" fill="#8ABEEF" stroke="#528EC5"/>
<path opacity="0.2" d="M41.0467 28.1601C41.0467 30.5141 40.3487 32.8153 39.0408 34.7726C37.733 36.7299 35.8741 38.2555 33.6992 39.1563C31.5244 40.0572 29.1312 40.2929 26.8224 39.8336C24.5136 39.3744 22.3928 38.2408 20.7283 36.5762C19.0637 34.9117 17.9301 32.7909 17.4709 30.4821C17.0116 28.1733 17.2473 25.7801 18.1482 23.6053C19.0491 21.4304 20.5746 19.5715 22.5319 18.2637C24.4892 16.9559 26.7904 16.2578 29.1445 16.2578C30.7075 16.2578 32.2552 16.5657 33.6992 17.1638C35.1433 17.762 36.4554 18.6387 37.5606 19.7439C38.6658 20.8491 39.5426 22.1612 40.1407 23.6053C40.7389 25.0493 41.0467 26.597 41.0467 28.1601Z" fill="#528EC5"/>
<path d="M46.6512 43.9759L39.2034 36.5281C41.3663 33.934 42.4458 30.606 42.2174 27.2362C41.989 23.8665 40.4702 20.7145 37.977 18.436C35.4838 16.1576 32.2082 14.9281 28.8316 15.0033C25.4549 15.0784 22.2373 16.4526 19.848 18.8398C17.4587 21.2269 16.0817 24.4434 16.0035 27.82C15.9253 31.1965 17.152 34.4733 19.4282 36.9685C21.7045 39.4637 24.8551 40.9852 28.2246 41.2166C31.5942 41.448 34.9232 40.3714 37.5192 38.2108L44.967 45.6601C45.0776 45.7707 45.2089 45.8584 45.3534 45.9183C45.4979 45.9781 45.6527 46.0089 45.8091 46.0089C45.9655 46.0089 46.1204 45.9781 46.2648 45.9183C46.4093 45.8584 46.5406 45.7707 46.6512 45.6601C46.7618 45.5495 46.8495 45.4182 46.9093 45.2738C46.9692 45.1293 47 44.9744 47 44.818C47 44.6616 46.9692 44.5068 46.9093 44.3623C46.8495 44.2178 46.7618 44.0865 46.6512 43.9759ZM18.4339 28.1549C18.4339 26.0362 19.0622 23.9652 20.2392 22.2036C21.4163 20.442 23.0893 19.069 25.0466 18.2582C27.004 17.4475 29.1578 17.2353 31.2358 17.6487C33.3137 18.062 35.2224 19.0822 36.7205 20.5803C38.2186 22.0784 39.2388 23.9871 39.6522 26.065C40.0655 28.143 39.8533 30.2968 39.0426 32.2542C38.2318 34.2115 36.8588 35.8845 35.0972 37.0616C33.3356 38.2386 31.2646 38.8669 29.1459 38.8669C26.3059 38.8637 23.5831 37.7341 21.5749 35.7259C19.5667 33.7177 18.4371 30.9949 18.4339 28.1549Z" fill="#528EC5"/>
</svg>
