<svg width="26" height="26" viewBox="0 0 26 26" fill="none" xmlns="http://www.w3.org/2000/svg">
<path d="M12.5439 0C19.472 0 25.0879 5.61592 25.0879 12.5439C25.0879 19.472 19.472 25.0879 12.5439 25.0879C5.61592 25.0879 0 19.472 0 12.5439C0 5.61592 5.61592 0 12.5439 0ZM12.5439 2.50879C9.88245 2.50879 7.32997 3.56606 5.44801 5.44801C3.56606 7.32997 2.50879 9.88245 2.50879 12.5439C2.50879 15.2054 3.56606 17.7579 5.44801 19.6399C7.32997 21.5218 9.88245 22.5791 12.5439 22.5791C15.2054 22.5791 17.7579 21.5218 19.6399 19.6399C21.5218 17.7579 22.5791 15.2054 22.5791 12.5439C22.5791 9.88245 21.5218 7.32997 19.6399 5.44801C17.7579 3.56606 15.2054 2.50879 12.5439 2.50879ZM12.5439 5.01757C12.8512 5.01761 13.1477 5.13041 13.3773 5.33458C13.6069 5.53874 13.7536 5.82007 13.7895 6.1252L13.7983 6.27197V12.0246L17.194 15.4203C17.4189 15.646 17.5496 15.9489 17.5593 16.2675C17.569 16.586 17.4571 16.8963 17.2463 17.1354C17.0356 17.3744 16.7417 17.5243 16.4244 17.5545C16.1072 17.5847 15.7903 17.493 15.5382 17.2981L15.4203 17.194L11.6571 13.4308C11.4621 13.2357 11.3369 12.9817 11.3008 12.7083L11.2895 12.5439V6.27197C11.2895 5.93928 11.4217 5.62022 11.6569 5.38498C11.8922 5.14973 12.2112 5.01757 12.5439 5.01757Z" fill="black"/>
</svg>
