<svg width="17" height="16" viewBox="0 0 17 16" fill="none" xmlns="http://www.w3.org/2000/svg">
<path d="M8.5 3.5C8.5 3.5 8.5 3.5 7.86667 2.66667C7.13333 1.7 6.05 1 4.75 1C2.675 1 1 2.675 1 4.75C1 5.525 1.23333 6.24167 1.63333 6.83333C2.30833 7.84167 8.5 14.3333 8.5 14.3333M8.5 3.5C8.5 3.5 8.5 3.5 9.13333 2.66667C9.86667 1.7 10.95 1 12.25 1C14.325 1 16 2.675 16 4.75C16 5.525 15.7667 6.24167 15.3667 6.83333C14.6917 7.84167 8.5 14.3333 8.5 14.3333" stroke="#9E9E9E" stroke-width="2" stroke-linecap="round" stroke-linejoin="round"/>
</svg>
