<svg width="33" height="33" viewBox="0 0 33 33" fill="none" xmlns="http://www.w3.org/2000/svg">
<path d="M15.4185 4.9199C16.0167 4.52343 16.718 4.3084 17.4369 4.30098C18.1559 4.29356 18.8615 4.49406 19.4679 4.87809L24.6042 8.12917H26.7186C27.0465 8.12917 27.361 8.25871 27.5929 8.48931C27.8248 8.71991 27.9551 9.03266 27.9551 9.35877V20.4252C27.9551 20.7513 27.8248 21.0641 27.5929 21.2947C27.361 21.5253 27.0465 21.6548 26.7186 21.6548H24.8391C24.8788 22.2536 24.7514 22.8516 24.4711 23.3829C24.1907 23.9143 23.7683 24.3583 23.2503 24.6661L16.9529 28.4238C16.566 28.6545 16.1229 28.7755 15.6718 28.7738C15.2206 28.772 14.7786 28.6476 14.3934 28.4139C13.9596 28.7951 13.4051 29.0129 12.8265 29.0293C12.2478 29.0457 11.6817 28.8597 11.2268 28.5037L4.87133 23.5373C4.42707 23.1907 4.1155 22.7033 3.98841 22.1561C3.86131 21.609 3.92636 21.035 4.17273 20.5297C3.87746 20.2995 3.63875 20.0055 3.47465 19.67C3.31056 19.3345 3.22538 18.9662 3.22559 18.5931V9.35877C3.22559 9.03266 3.35586 8.71991 3.58774 8.48931C3.81962 8.25871 4.13413 8.12917 4.46206 8.12917H10.5789L15.4185 4.9199ZM5.91244 18.7603L6.76808 18.0164C7.49931 17.3803 8.45229 17.0549 9.42222 17.1101C10.3921 17.1653 11.3016 17.5967 11.9551 18.3115L15.296 21.9659C15.82 22.539 16.1492 23.2615 16.2371 24.0311C16.325 24.8007 16.167 25.5782 15.7857 26.2535L21.9792 22.5586C22.1406 22.4612 22.2631 22.3112 22.3258 22.134C22.3885 21.9569 22.3875 21.7636 22.3229 21.5872L16.8491 13.9661C16.6991 13.7572 16.4873 13.6002 16.2432 13.5171C15.999 13.434 15.7349 13.4289 15.4877 13.5025L12.4138 14.4186C11.7723 14.6099 11.0908 14.625 10.4414 14.4622C9.79198 14.2994 9.19902 13.9648 8.72542 13.4939L8.36313 13.1349C8.03454 12.8082 7.80517 12.396 7.70129 11.9456C7.59741 11.4952 7.62324 11.0248 7.77581 10.5884H5.69853V18.5931L5.91244 18.7603ZM18.1412 6.95367C17.9388 6.82543 17.7032 6.75855 17.4632 6.76117C17.2233 6.76379 16.9892 6.8358 16.7897 6.96842L10.1127 11.395L10.4738 11.7553C10.6318 11.9122 10.8297 12.0237 11.0463 12.0778C11.2629 12.1319 11.4902 12.1267 11.7041 12.0627L14.7767 11.1466C15.5181 10.9255 16.3105 10.9406 17.0429 11.1898C17.7753 11.4389 18.4109 11.9097 18.8608 12.5361L23.6459 19.1956H25.4821V10.5884H24.6055C24.135 10.5883 23.6743 10.4548 23.2775 10.2035L18.1412 6.95367ZM8.39528 19.8657L6.39714 21.6044L12.7526 26.5708L13.6243 25.0559C13.7539 24.8303 13.8082 24.5696 13.7795 24.3114C13.7509 24.0532 13.6407 23.8106 13.4648 23.6185L10.1251 19.9641C9.90729 19.7259 9.60422 19.5822 9.28102 19.5638C8.95781 19.5454 8.639 19.6538 8.39528 19.8657Z" fill="black"/>
</svg>
