<svg width="25" height="25" viewBox="0 0 25 25" fill="none" xmlns="http://www.w3.org/2000/svg">
<path d="M10.7519 21.5039V17.3375C9.65435 17.0911 8.67458 16.6265 7.81263 15.9438C6.95068 15.261 6.31766 14.404 5.91357 13.3727C4.23358 13.1711 2.82821 12.4378 1.69746 11.1726C0.566717 9.90747 0.000895995 8.42325 0 6.71997V5.37597C0 4.63678 0.263423 4.0042 0.790268 3.47825C1.31711 2.9523 1.94969 2.68888 2.68799 2.68799H5.37597C5.37597 1.94879 5.63939 1.31622 6.16624 0.790268C6.69309 0.264319 7.32566 0.000895995 8.06396 0H16.1279C16.8671 0 17.5001 0.263423 18.027 0.790268C18.5538 1.31711 18.8168 1.94969 18.8159 2.68799H21.5039C22.2431 2.68799 22.8761 2.95141 23.403 3.47825C23.9298 4.0051 24.1928 4.63767 24.1919 5.37597V6.71997C24.1919 8.42236 23.6261 9.90657 22.4944 11.1726C21.3628 12.4387 19.9574 13.172 18.2783 13.3727C17.8751 14.4031 17.2425 15.2601 16.3806 15.9438C15.5186 16.6274 14.5384 17.092 13.4399 17.3375V21.5039H17.4719C17.8527 21.5039 18.1721 21.6329 18.4302 21.891C18.6882 22.149 18.8168 22.468 18.8159 22.8479C18.815 23.2278 18.686 23.5472 18.4288 23.8061C18.1717 24.0651 17.8527 24.1937 17.4719 24.1919H6.71997C6.33917 24.1919 6.02019 24.0629 5.76304 23.8048C5.50589 23.5468 5.37687 23.2278 5.37597 22.8479C5.37508 22.468 5.5041 22.149 5.76304 21.891C6.02199 21.6329 6.34096 21.5039 6.71997 21.5039H10.7519ZM5.37597 10.4831V5.37597H2.68799V6.71997C2.68799 7.57116 2.93439 8.33858 3.42718 9.02223C3.91998 9.70587 4.56958 10.1928 5.37597 10.4831ZM12.0959 14.7839C13.2159 14.7839 14.1679 14.3919 14.9519 13.6079C15.7359 12.8239 16.1279 11.8719 16.1279 10.7519V2.68799H8.06396V10.7519C8.06396 11.8719 8.45596 12.8239 9.23995 13.6079C10.0239 14.3919 10.9759 14.7839 12.0959 14.7839ZM18.8159 10.4831C19.6223 10.1919 20.2719 9.70453 20.7647 9.02088C21.2575 8.33724 21.5039 7.57026 21.5039 6.71997V5.37597H18.8159V10.4831Z" fill="black"/>
</svg>
