<svg width="26" height="26" viewBox="0 0 26 26" fill="none" xmlns="http://www.w3.org/2000/svg">
<g clip-path="url(#clip0_1329_28873)">
<path fill-rule="evenodd" clip-rule="evenodd" d="M5.29337 9.71292C6.09566 9.71292 6.86508 9.39421 7.43238 8.82691C7.99968 8.25961 8.31838 7.49019 8.31838 6.68791C8.31838 5.88562 7.99968 5.1162 7.43238 4.5489C6.86508 3.9816 6.09566 3.6629 5.29337 3.6629C4.49109 3.6629 3.72167 3.9816 3.15437 4.5489C2.58707 5.1162 2.26836 5.88562 2.26836 6.68791C2.26836 7.49019 2.58707 8.25961 3.15437 8.82691C3.72167 9.39421 4.49109 9.71292 5.29337 9.71292ZM5.29337 11.2254C5.88925 11.2254 6.47929 11.1081 7.02981 10.88C7.58032 10.652 8.08053 10.3178 8.50188 9.89641C8.92323 9.47507 9.25746 8.97485 9.48549 8.42434C9.71352 7.87382 9.83089 7.28378 9.83089 6.68791C9.83089 6.09203 9.71352 5.50199 9.48549 4.95147C9.25746 4.40096 8.92323 3.90075 8.50188 3.4794C8.08053 3.05805 7.58032 2.72382 7.02981 2.49579C6.47929 2.26776 5.88925 2.15039 5.29337 2.15039C4.08995 2.15039 2.93582 2.62845 2.08487 3.4794C1.23392 4.33035 0.755859 5.48448 0.755859 6.68791C0.755859 7.89133 1.23392 9.04546 2.08487 9.89641C2.93582 10.7474 4.08995 11.2254 5.29337 11.2254Z" fill="black"/>
<path fill-rule="evenodd" clip-rule="evenodd" d="M3.56044 9.55587C3.63086 9.62612 3.68674 9.70958 3.72486 9.80145C3.76299 9.89333 3.78261 9.99183 3.78261 10.0913C3.78261 10.1908 3.76299 10.2893 3.72486 10.3811C3.68674 10.473 3.63086 10.5565 3.56044 10.6267L3.04921 11.1364C2.06538 12.1205 1.51263 13.4551 1.5125 14.8466V17.6538C1.5125 17.8544 1.43283 18.0468 1.291 18.1886C1.14918 18.3304 0.956823 18.4101 0.756252 18.4101C0.555682 18.4101 0.363326 18.3304 0.221501 18.1886C0.0796763 18.0468 0 17.8544 0 17.6538V14.8466C0.000214411 13.054 0.712368 11.3348 1.97987 10.0671L2.48958 9.55587C2.55983 9.48545 2.64329 9.42957 2.73516 9.39145C2.82704 9.35332 2.92554 9.3337 3.02501 9.3337C3.12448 9.3337 3.22298 9.35332 3.31486 9.39145C3.40673 9.42957 3.49019 9.48545 3.56044 9.55587ZM21.3959 9.10212C21.3255 9.17237 21.2696 9.25582 21.2315 9.3477C21.1933 9.43958 21.1737 9.53807 21.1737 9.63755C21.1737 9.73702 21.1933 9.83552 21.2315 9.9274C21.2696 10.0193 21.3255 10.1027 21.3959 10.173L21.9071 10.6827C22.8909 11.6668 23.4437 13.0013 23.4438 14.3929V17.6538C23.4438 17.8544 23.5235 18.0468 23.6653 18.1886C23.8071 18.3304 23.9995 18.4101 24.2001 18.4101C24.4006 18.4101 24.593 18.3304 24.7348 18.1886C24.8767 18.0468 24.9563 17.8544 24.9563 17.6538V14.3929C24.9561 12.6002 24.244 10.881 22.9765 9.61335L22.4667 9.10212C22.3965 9.03169 22.313 8.97582 22.2212 8.93769C22.1293 8.89957 22.0308 8.87994 21.9313 8.87994C21.8318 8.87994 21.7333 8.89957 21.6415 8.93769C21.5496 8.97582 21.4661 9.03169 21.3959 9.10212Z" fill="black"/>
<path fill-rule="evenodd" clip-rule="evenodd" d="M18.9067 9.71292C18.1044 9.71292 17.335 9.39421 16.7677 8.82691C16.2004 8.25961 15.8817 7.49019 15.8817 6.68791C15.8817 5.88562 16.2004 5.1162 16.7677 4.5489C17.335 3.9816 18.1044 3.6629 18.9067 3.6629C19.709 3.6629 20.4784 3.9816 21.0457 4.5489C21.613 5.1162 21.9317 5.88562 21.9317 6.68791C21.9317 7.49019 21.613 8.25961 21.0457 8.82691C20.4784 9.39421 19.709 9.71292 18.9067 9.71292ZM18.9067 11.2254C18.3108 11.2254 17.7208 11.1081 17.1702 10.88C16.6197 10.652 16.1195 10.3178 15.6982 9.89641C15.2768 9.47507 14.9426 8.97485 14.7146 8.42434C14.4865 7.87382 14.3692 7.28378 14.3692 6.68791C14.3692 6.09203 14.4865 5.50199 14.7146 4.95147C14.9426 4.40096 15.2768 3.90075 15.6982 3.4794C16.1195 3.05805 16.6197 2.72382 17.1702 2.49579C17.7208 2.26776 18.3108 2.15039 18.9067 2.15039C20.1101 2.15039 21.2642 2.62845 22.1152 3.4794C22.9661 4.33035 23.4442 5.48448 23.4442 6.68791C23.4442 7.89133 22.9661 9.04546 22.1152 9.89641C21.2642 10.7474 20.1101 11.2254 18.9067 11.2254ZM12.1004 16.1411C11.0976 16.1411 10.1358 16.5394 9.42665 17.2486C8.71753 17.9577 8.31915 18.9195 8.31915 19.9223V21.8886C8.31915 22.0891 8.23947 22.2815 8.09764 22.4233C7.95582 22.5652 7.76346 22.6448 7.56289 22.6448C7.36232 22.6448 7.16997 22.5652 7.02814 22.4233C6.88632 22.2815 6.80664 22.0891 6.80664 21.8886V19.9223C6.80664 18.5183 7.36438 17.1718 8.35715 16.1791C9.34992 15.1863 10.6964 14.6286 12.1004 14.6286C13.5044 14.6286 14.8509 15.1863 15.8437 16.1791C16.8364 17.1718 17.3942 18.5183 17.3942 19.9223V21.8886C17.3942 22.0891 17.3145 22.2815 17.1727 22.4233C17.0308 22.5652 16.8385 22.6448 16.6379 22.6448C16.4374 22.6448 16.245 22.5652 16.1032 22.4233C15.9613 22.2815 15.8817 22.0891 15.8817 21.8886V19.9223C15.8817 19.4258 15.7839 18.9341 15.5938 18.4753C15.4038 18.0165 15.1253 17.5997 14.7742 17.2486C14.423 16.8974 14.0062 16.6189 13.5474 16.4289C13.0887 16.2389 12.597 16.1411 12.1004 16.1411Z" fill="black"/>
<path fill-rule="evenodd" clip-rule="evenodd" d="M12.1 13.8736C12.9023 13.8736 13.6717 13.5549 14.239 12.9876C14.8063 12.4203 15.125 11.6508 15.125 10.8486C15.125 10.0463 14.8063 9.27685 14.239 8.70955C13.6717 8.14225 12.9023 7.82354 12.1 7.82354C11.2977 7.82354 10.5283 8.14225 9.96101 8.70955C9.39371 9.27685 9.075 10.0463 9.075 10.8486C9.075 11.6508 9.39371 12.4203 9.96101 12.9876C10.5283 13.5549 11.2977 13.8736 12.1 13.8736ZM12.1 15.3861C13.3034 15.3861 14.4576 14.908 15.3085 14.0571C16.1595 13.2061 16.6375 12.052 16.6375 10.8486C16.6375 9.64513 16.1595 8.49099 15.3085 7.64004C14.4576 6.78909 13.3034 6.31104 12.1 6.31104C10.8966 6.31104 9.74246 6.78909 8.89151 7.64004C8.04056 8.49099 7.5625 9.64513 7.5625 10.8486C7.5625 12.052 8.04056 13.2061 8.89151 14.0571C9.74246 14.908 10.8966 15.3861 12.1 15.3861Z" fill="black"/>
</g>
<defs>
<clipPath id="clip0_1329_28873">
<rect width="25.8047" height="25.8047" fill="white"/>
</clipPath>
</defs>
</svg>
