<svg width="123" height="123" viewBox="0 0 123 123" fill="none" xmlns="http://www.w3.org/2000/svg">
<path d="M123 61.5C123 95.4655 95.4655 123 61.5 123C27.5345 123 0 95.4655 0 61.5C0 27.5345 27.5345 0 61.5 0C95.4655 0 123 27.5345 123 61.5Z" fill="#E5EBF1"/>
<path fill-rule="evenodd" clip-rule="evenodd" d="M48 46.375C48 42.5294 49.5277 38.8412 52.247 36.122C54.9662 33.4027 58.6544 31.875 62.5 31.875C66.3456 31.875 70.0338 33.4027 72.753 36.122C75.4723 38.8412 77 42.5294 77 46.375C77 50.2206 75.4723 53.9088 72.753 56.628C70.0338 59.3473 66.3456 60.875 62.5 60.875C58.6544 60.875 54.9662 59.3473 52.247 56.628C49.5277 53.9088 48 50.2206 48 46.375ZM48 68.125C43.193 68.125 38.5828 70.0346 35.1837 73.4337C31.7846 76.8328 29.875 81.443 29.875 86.25C29.875 89.1342 31.0208 91.9003 33.0602 93.9398C35.0997 95.9792 37.8658 97.125 40.75 97.125H84.25C87.1342 97.125 89.9003 95.9792 91.9398 93.9398C93.9792 91.9003 95.125 89.1342 95.125 86.25C95.125 81.443 93.2154 76.8328 89.8163 73.4337C86.4172 70.0346 81.807 68.125 77 68.125H48Z" fill="#565656"/>
</svg>
