<svg width="54" height="54" viewBox="0 0 54 54" fill="none" xmlns="http://www.w3.org/2000/svg">
<circle cx="27" cy="27" r="26.5" fill="#8ABEEF" stroke="#528EC5"/>
<path d="M27.002 17.0312C27.299 17.0313 27.5894 17.1271 27.8398 17.3066L27.9443 17.3887C29.087 18.3923 30.012 19.6807 30.6475 21.1553L30.6631 21.1924L30.6953 21.168C31.5619 20.5175 32.5257 20.0523 33.5391 19.7959C33.9228 19.7019 34.3237 19.7741 34.6641 19.998C34.962 20.1941 35.195 20.4947 35.3291 20.8535L35.3809 21.0107C35.6858 22.065 35.985 23.8446 35.5859 26.0947L35.5791 26.1338L35.6191 26.1309C36.3614 26.0867 37.1053 26.1713 37.8252 26.3818C38.0201 26.4405 38.203 26.5434 38.3633 26.6836C38.5236 26.8238 38.6585 26.9989 38.7588 27.1992C38.863 27.4049 38.9298 27.6324 38.9561 27.8682C38.9757 28.0449 38.972 28.2236 38.9453 28.3984L38.9111 28.5723C38.5734 29.9953 37.5357 32.7045 34.3906 34.8398C31.2653 36.9684 28.4974 36.9687 27.0068 36.9688C25.5163 36.9688 22.7538 36.9752 19.6084 34.8398C16.6595 32.8378 15.563 30.3315 15.1592 28.8535L15.0869 28.5723C15.0316 28.343 15.0179 28.103 15.0449 27.8672C15.072 27.6316 15.1401 27.4043 15.2451 27.1992C15.3454 26.999 15.4795 26.8238 15.6396 26.6836C15.7999 26.5434 15.9828 26.4405 16.1777 26.3818C16.8978 26.1712 17.6423 26.0867 18.3848 26.1309L18.4238 26.1338L18.417 26.0947C18.073 24.1247 18.2594 22.5169 18.5117 21.4395L18.6221 21.0107C18.7422 20.5828 18.9984 20.2221 19.3389 19.998C19.6792 19.7742 20.0803 19.7021 20.4639 19.7959C21.4775 20.0523 22.4418 20.5173 23.3086 21.168L23.3398 21.1924L23.3555 21.1553C23.9906 19.6803 24.9165 18.3921 26.0596 17.3887L26.0586 17.3877C26.3311 17.1556 26.6626 17.0312 27.002 17.0312ZM26.9814 18.7939C26.014 19.6212 23.7697 22.0683 23.7695 26.9053C23.7695 31.8024 26.0428 34.23 26.9814 35.0234L27.002 35.041L27.0215 35.0234C27.96 34.2303 30.2333 31.8033 30.2334 26.9082C30.2334 22.0717 27.9901 19.6248 27.0225 18.7949L27.002 18.7773L26.9814 18.7939ZM18.5713 27.9014C17.9083 27.8334 17.2394 27.8911 16.5918 28.0723L16.5625 28.0801L16.5693 28.1094C16.8498 29.2789 17.7045 31.4704 20.3154 33.2744H20.3096L20.3926 33.3311C21.2569 33.9226 22.1863 34.3832 23.1562 34.7002L23.1875 34.6475C21.8228 33.4025 20.6714 31.8817 19.793 30.1611C19.4353 29.4576 19.13 28.7212 18.8799 27.96L18.874 27.9414L18.8555 27.9385L18.5713 27.9014ZM33.8594 21.5146L33.8584 21.5156C32.9232 21.7552 32.0406 22.2081 31.2646 22.8467L31.249 22.8594L31.2539 22.8789C31.6051 24.1847 31.7801 25.5438 31.7715 26.9092C31.7715 29.0349 31.395 30.7677 30.8623 32.1572L30.915 32.1885C31.6763 31.3224 32.3344 30.3469 32.873 29.2871C34.6795 25.713 34.3048 22.9064 33.9189 21.5537H33.917C33.914 21.5423 33.9086 21.5309 33.8984 21.5234C33.8874 21.5154 33.8733 21.5118 33.8594 21.5146ZM20.1045 21.5225C20.0942 21.5301 20.0879 21.5411 20.085 21.5527C19.6992 22.9066 19.3234 25.713 21.1299 29.2871C21.6691 30.3457 22.3279 31.3201 23.0889 32.1855L23.1416 32.1533C22.6089 30.7615 22.2324 29.031 22.2324 26.9053C22.2242 25.5411 22.3982 24.1835 22.749 22.8789L22.7549 22.8594L22.7393 22.8467C21.9634 22.2077 21.0808 21.7536 20.1455 21.5137H20.123C20.1164 21.5152 20.11 21.5183 20.1045 21.5225ZM37.4346 28.0801L37.4121 28.0732C36.6725 27.8653 35.9043 27.8194 35.1494 27.9375L35.1299 27.9404L35.124 27.958C34.874 28.7192 34.5685 29.4557 34.2109 30.1592C33.3325 31.8797 32.1821 33.4015 30.8174 34.6465L30.8477 34.6992C31.6963 34.4222 32.514 34.0352 33.2842 33.5469L33.6113 33.3311C36.2885 31.5121 37.1542 29.2817 37.4326 28.1113L37.4346 28.1123V28.0801Z" fill="#528EC5" stroke="#528EC5" stroke-width="0.0625"/>
</svg>
