<svg width="20" height="17" viewBox="0 0 20 17" fill="none" xmlns="http://www.w3.org/2000/svg">
<path d="M9.99273 3.80083C9.99273 3.80083 9.99273 3.80083 9.23335 2.86722C8.35406 1.78423 7.05511 1 5.49637 1C3.00838 1 1 2.87656 1 5.20125C1 6.06951 1.27977 6.87241 1.75939 7.53528C2.56873 8.66494 9.99273 15.9378 9.99273 15.9378M9.99273 3.80083C9.99273 3.80083 9.99274 3.80083 10.7521 2.86722C11.6314 1.78423 12.9304 1 14.4891 1C16.9771 1 18.9855 2.87656 18.9855 5.20125C18.9855 6.06951 18.7057 6.87241 18.2261 7.53528C17.4167 8.66494 9.99273 15.9378 9.99273 15.9378" fill="#FFA1CD" stroke="#FFA1CD" stroke-width="2" stroke-linecap="round" stroke-linejoin="round"/>
</svg>
