<svg width="37" height="37" viewBox="0 0 37 37" fill="none" xmlns="http://www.w3.org/2000/svg">
<rect width="37" height="37" rx="18.5" fill="#E6F4FF"/>
<path d="M18.5757 14.894C18.5757 14.894 18.5757 14.894 17.8063 13.945C16.9155 12.8441 15.5995 12.0469 14.0202 12.0469C11.4996 12.0469 9.46484 13.9545 9.46484 16.3176C9.46484 17.2002 9.74829 18.0164 10.2342 18.6902C11.0542 19.8385 18.5757 27.2316 18.5757 27.2316M18.5757 14.894C18.5757 14.894 18.5757 14.894 19.345 13.945C20.2358 12.8441 21.5518 12.0469 23.1311 12.0469C25.6517 12.0469 27.6865 13.9545 27.6865 16.3176C27.6865 17.2002 27.403 18.0164 26.9171 18.6902C26.0971 19.8385 18.5757 27.2316 18.5757 27.2316" fill="#FFA1CD"/>
<path d="M18.5757 14.894C18.5757 14.894 18.5756 14.894 17.8063 13.945C16.9155 12.8441 15.5995 12.0469 14.0202 12.0469C11.4996 12.0469 9.46484 13.9545 9.46484 16.3176C9.46484 17.2002 9.74829 18.0164 10.2342 18.6902C11.0542 19.8385 18.5757 27.2316 18.5757 27.2316C18.5757 27.2316 26.0971 19.8385 26.9171 18.6902C27.403 18.0164 27.6865 17.2002 27.6865 16.3176C27.6865 13.9545 25.6517 12.0469 23.1311 12.0469C21.5518 12.0469 20.2358 12.8441 19.345 13.945C18.5757 14.894 18.5757 14.894 18.5757 14.894Z" stroke="#FFA1CD" stroke-width="2" stroke-linecap="round" stroke-linejoin="round"/>
</svg>
