<svg width="25" height="21" viewBox="0 0 25 21" fill="none" xmlns="http://www.w3.org/2000/svg">
<path fill-rule="evenodd" clip-rule="evenodd" d="M5.2924 7.56253C6.09468 7.56253 6.8641 7.24382 7.4314 6.67652C7.9987 6.10922 8.31741 5.3398 8.31741 4.53752C8.31741 3.73523 7.9987 2.96581 7.4314 2.39851C6.8641 1.83121 6.09468 1.51251 5.2924 1.51251C4.49012 1.51251 3.72069 1.83121 3.15339 2.39851C2.58609 2.96581 2.26739 3.73523 2.26739 4.53752C2.26739 5.3398 2.58609 6.10922 3.15339 6.67652C3.72069 7.24382 4.49012 7.56253 5.2924 7.56253ZM5.2924 9.07503C5.88827 9.07503 6.47831 8.95766 7.02883 8.72963C7.57935 8.5016 8.07956 8.16737 8.5009 7.74602C8.92225 7.32468 9.25648 6.82446 9.48452 6.27395C9.71255 5.72343 9.82991 5.13339 9.82991 4.53752C9.82991 3.94164 9.71255 3.3516 9.48452 2.80108C9.25648 2.25057 8.92225 1.75035 8.5009 1.32901C8.07956 0.90766 7.57935 0.57343 7.02883 0.345398C6.47831 0.117367 5.88827 -8.87923e-09 5.2924 0C4.08897 1.79324e-08 2.93484 0.478058 2.08389 1.32901C1.23294 2.17996 0.754883 3.33409 0.754883 4.53752C0.754883 5.74094 1.23294 6.89507 2.08389 7.74602C2.93484 8.59697 4.08897 9.07503 5.2924 9.07503Z" fill="black"/>
<path fill-rule="evenodd" clip-rule="evenodd" d="M3.56044 7.4064C3.63086 7.47665 3.68674 7.5601 3.72486 7.65198C3.76299 7.74386 3.78261 7.84235 3.78261 7.94182C3.78261 8.0413 3.76299 8.13979 3.72486 8.23167C3.68674 8.32355 3.63086 8.407 3.56044 8.47725L3.04921 8.98697C2.06538 9.97107 1.51263 11.3056 1.5125 12.6971V15.5043C1.5125 15.7049 1.43283 15.8973 1.291 16.0391C1.14918 16.1809 0.956823 16.2606 0.756252 16.2606C0.555682 16.2606 0.363326 16.1809 0.221501 16.0391C0.0796763 15.8973 0 15.7049 0 15.5043V12.6971C0.000214411 10.9045 0.712368 9.18531 1.97987 7.91762L2.48958 7.4064C2.55983 7.33597 2.64329 7.28009 2.73516 7.24197C2.82704 7.20385 2.92554 7.18422 3.02501 7.18422C3.12448 7.18422 3.22298 7.20385 3.31486 7.24197C3.40673 7.28009 3.49019 7.33597 3.56044 7.4064ZM21.3959 6.95265C21.3255 7.0229 21.2696 7.10635 21.2315 7.19823C21.1933 7.2901 21.1737 7.3886 21.1737 7.48807C21.1737 7.58755 21.1933 7.68604 21.2315 7.77792C21.2696 7.8698 21.3255 7.95325 21.3959 8.0235L21.9071 8.53321C22.8909 9.51732 23.4437 10.8518 23.4438 12.2434V15.5043C23.4438 15.7049 23.5235 15.8973 23.6653 16.0391C23.8071 16.1809 23.9995 16.2606 24.2001 16.2606C24.4006 16.2606 24.593 16.1809 24.7348 16.0391C24.8767 15.8973 24.9563 15.7049 24.9563 15.5043V12.2434C24.9561 10.4507 24.244 8.73156 22.9765 7.46387L22.4667 6.95265C22.3965 6.88222 22.313 6.82634 22.2212 6.78822C22.1293 6.75009 22.0308 6.73047 21.9313 6.73047C21.8318 6.73047 21.7333 6.75009 21.6415 6.78822C21.5496 6.82634 21.4661 6.88222 21.3959 6.95265Z" fill="black"/>
<path fill-rule="evenodd" clip-rule="evenodd" d="M18.9067 7.56252C18.1044 7.56252 17.335 7.24382 16.7677 6.67652C16.2004 6.10922 15.8817 5.3398 15.8817 4.53751C15.8817 3.73523 16.2004 2.96581 16.7677 2.39851C17.335 1.83121 18.1044 1.5125 18.9067 1.5125C19.709 1.5125 20.4784 1.83121 21.0457 2.39851C21.613 2.96581 21.9317 3.73523 21.9317 4.53751C21.9317 5.3398 21.613 6.10922 21.0457 6.67652C20.4784 7.24382 19.709 7.56252 18.9067 7.56252ZM18.9067 9.07503C18.3108 9.07503 17.7208 8.95766 17.1702 8.72963C16.6197 8.5016 16.1195 8.16737 15.6982 7.74602C15.2768 7.32468 14.9426 6.82446 14.7146 6.27395C14.4865 5.72343 14.3692 5.13339 14.3692 4.53751C14.3692 3.94164 14.4865 3.3516 14.7146 2.80108C14.9426 2.25057 15.2768 1.75035 15.6982 1.32901C16.1195 0.90766 16.6197 0.57343 17.1702 0.345398C17.7208 0.117367 18.3108 -8.87923e-09 18.9067 0C20.1101 1.79324e-08 21.2642 0.478058 22.1152 1.32901C22.9661 2.17996 23.4442 3.33409 23.4442 4.53751C23.4442 5.74094 22.9661 6.89507 22.1152 7.74602C21.2642 8.59697 20.1101 9.07503 18.9067 9.07503ZM12.1004 13.9907C11.0976 13.9907 10.1358 14.3891 9.42665 15.0982C8.71753 15.8073 8.31915 16.7691 8.31915 17.7719V19.7382C8.31915 19.9388 8.23947 20.1311 8.09764 20.2729C7.95582 20.4148 7.76346 20.4944 7.56289 20.4944C7.36232 20.4944 7.16997 20.4148 7.02814 20.2729C6.88632 20.1311 6.80664 19.9388 6.80664 19.7382V17.7719C6.80664 16.3679 7.36438 15.0214 8.35715 14.0287C9.34992 13.0359 10.6964 12.4782 12.1004 12.4782C13.5044 12.4782 14.8509 13.0359 15.8437 14.0287C16.8364 15.0214 17.3942 16.3679 17.3942 17.7719V19.7382C17.3942 19.9388 17.3145 20.1311 17.1727 20.2729C17.0308 20.4148 16.8385 20.4944 16.6379 20.4944C16.4374 20.4944 16.245 20.4148 16.1032 20.2729C15.9613 20.1311 15.8817 19.9388 15.8817 19.7382V17.7719C15.8817 17.2754 15.7839 16.7837 15.5938 16.3249C15.4038 15.8661 15.1253 15.4493 14.7742 15.0982C14.423 14.7471 14.0062 14.4685 13.5474 14.2785C13.0887 14.0885 12.597 13.9907 12.1004 13.9907Z" fill="black"/>
<path fill-rule="evenodd" clip-rule="evenodd" d="M12.1 11.7227C12.9023 11.7227 13.6717 11.404 14.239 10.8367C14.8063 10.2694 15.125 9.49995 15.125 8.69767C15.125 7.89539 14.8063 7.12597 14.239 6.55867C13.6717 5.99137 12.9023 5.67266 12.1 5.67266C11.2977 5.67266 10.5283 5.99137 9.96101 6.55867C9.39371 7.12597 9.075 7.89539 9.075 8.69767C9.075 9.49995 9.39371 10.2694 9.96101 10.8367C10.5283 11.404 11.2977 11.7227 12.1 11.7227ZM12.1 13.2352C13.3034 13.2352 14.4576 12.7571 15.3085 11.9062C16.1595 11.0552 16.6375 9.9011 16.6375 8.69767C16.6375 7.49425 16.1595 6.34011 15.3085 5.48916C14.4576 4.63821 13.3034 4.16016 12.1 4.16016C10.8966 4.16016 9.74246 4.63821 8.89151 5.48916C8.04056 6.34011 7.5625 7.49425 7.5625 8.69767C7.5625 9.9011 8.04056 11.0552 8.89151 11.9062C9.74246 12.7571 10.8966 13.2352 12.1 13.2352Z" fill="black"/>
</svg>
