<svg width="26" height="22" viewBox="0 0 26 22" fill="none" xmlns="http://www.w3.org/2000/svg">
<path d="M5.59229 0.150391C6.2078 0.150391 6.81757 0.272291 7.38623 0.507812C7.95495 0.743382 8.47244 1.08816 8.90771 1.52344C9.34295 1.9587 9.68779 2.47624 9.92334 3.04492C10.1588 3.61341 10.2797 4.22259 10.2798 4.83789C10.2798 5.45338 10.1588 6.06319 9.92334 6.63184C9.68777 7.20055 9.34299 7.71804 8.90771 8.15332C8.47244 8.5886 7.95495 8.93338 7.38623 9.16895C6.81758 9.40445 6.20777 9.52539 5.59229 9.52539C4.34926 9.52528 3.15681 9.03225 2.27783 8.15332C1.39875 7.27424 0.904785 6.0811 0.904785 4.83789C0.904893 3.59483 1.39885 2.40242 2.27783 1.52344C3.15682 0.644453 4.34923 0.150498 5.59229 0.150391ZM5.59229 1.96289C4.82993 1.963 4.09913 2.26659 3.56006 2.80566C3.02099 3.34474 2.71739 4.07554 2.71729 4.83789C2.71729 5.60039 3.02089 6.33192 3.56006 6.87109C4.09912 7.41012 4.82997 7.71278 5.59229 7.71289C6.35479 7.71289 7.08632 7.41026 7.62549 6.87109C8.16466 6.33192 8.46729 5.60039 8.46729 4.83789C8.46718 4.07558 8.16451 3.34473 7.62549 2.80566C7.08632 2.2665 6.35479 1.96289 5.59229 1.96289Z" fill="black" stroke="black" stroke-width="0.3"/>
<path d="M3.3252 7.33496C3.4442 7.33501 3.56195 7.35871 3.67188 7.4043C3.7817 7.44987 3.88177 7.51649 3.96582 7.60059C4.05022 7.68477 4.1174 7.78541 4.16309 7.89551C4.20868 8.00544 4.23237 8.12318 4.23242 8.24219C4.23242 8.36138 4.20876 8.47975 4.16309 8.58984C4.11741 8.69992 4.0502 8.79962 3.96582 8.88379L3.45508 9.39355C2.49936 10.3495 1.96204 11.6463 1.96191 12.998V15.8047C1.96191 16.045 1.86721 16.2763 1.69727 16.4463C1.52731 16.6162 1.29602 16.7109 1.05566 16.7109C0.815486 16.7108 0.584895 16.6161 0.415039 16.4463C0.245084 16.2763 0.149414 16.045 0.149414 15.8047V12.998C0.149633 11.1656 0.878206 9.40812 2.17383 8.1123L2.68359 7.60156C2.76777 7.51719 2.86746 7.44998 2.97754 7.4043C3.08763 7.35862 3.206 7.33496 3.3252 7.33496ZM22.2314 6.88086C22.3504 6.8809 22.4682 6.90465 22.5781 6.9502C22.6882 6.99588 22.7889 7.06306 22.873 7.14746L23.3818 7.6582C24.6774 8.95397 25.406 10.7116 25.4062 12.5439V15.8047C25.4062 16.045 25.3106 16.2763 25.1406 16.4463C24.9707 16.6161 24.7402 16.7109 24.5 16.7109C24.2598 16.7109 24.0293 16.616 23.8594 16.4463C23.6894 16.2763 23.5938 16.045 23.5938 15.8047V12.5439C23.5936 11.1923 23.0562 9.89635 22.1006 8.94043L21.5898 8.43066C21.5054 8.34648 21.4383 8.24584 21.3926 8.13574C21.347 8.02583 21.3233 7.90804 21.3232 7.78906C21.3232 7.66986 21.3469 7.55151 21.3926 7.44141C21.4383 7.33136 21.5055 7.23162 21.5898 7.14746L21.6553 7.08789C21.7242 7.03119 21.8011 6.98451 21.8838 6.9502C21.9939 6.90453 22.1123 6.88086 22.2314 6.88086Z" fill="black" stroke="black" stroke-width="0.3"/>
<path d="M12.3999 12.6289C13.8436 12.629 15.2286 13.2028 16.2495 14.2236C17.2701 15.2444 17.8431 16.6288 17.8433 18.0723V20.0391C17.8432 20.2794 17.7476 20.5098 17.5776 20.6797C17.4077 20.8495 17.1773 20.9453 16.937 20.9453C16.6967 20.9453 16.4663 20.8496 16.2964 20.6797C16.1265 20.5098 16.0308 20.2793 16.0308 20.0391V18.0723C16.0307 17.5956 15.9368 17.123 15.7544 16.6826C15.5719 16.2422 15.3044 15.842 14.9673 15.5049C14.6302 15.1678 14.23 14.9002 13.7896 14.7178C13.349 14.5353 12.8767 14.4414 12.3999 14.4414C11.437 14.4414 10.5135 14.8241 9.83252 15.5049C9.15163 16.1858 8.76819 17.1094 8.76807 18.0723V20.0391C8.76804 20.2793 8.6732 20.5098 8.50342 20.6797C8.33346 20.8496 8.10217 20.9453 7.86182 20.9453C7.62161 20.9452 7.39105 20.8496 7.22119 20.6797C7.05135 20.5098 6.95559 20.2793 6.95557 20.0391V18.0723C6.95569 16.6287 7.5296 15.2444 8.55029 14.2236C9.5712 13.2027 10.9561 12.6289 12.3999 12.6289ZM19.2056 0.150391C20.4488 0.150391 21.6419 0.644358 22.521 1.52344C23.3999 2.40241 23.893 3.59486 23.8931 4.83789C23.8931 6.0811 23.4001 7.27424 22.521 8.15332C21.6419 9.03239 20.4488 9.52539 19.2056 9.52539C18.5903 9.52533 17.9811 9.40436 17.4126 9.16895C16.8439 8.93339 16.3264 8.58856 15.8911 8.15332C15.4558 7.71804 15.1111 7.20055 14.8755 6.63184C14.64 6.06317 14.5181 5.4534 14.5181 4.83789C14.5181 4.22257 14.6401 3.61342 14.8755 3.04492C15.1111 2.47621 15.4558 1.95871 15.8911 1.52344C16.3264 1.08816 16.8439 0.743382 17.4126 0.507812C17.9811 0.272378 18.5902 0.150447 19.2056 0.150391ZM19.2056 1.96289C18.4432 1.963 17.7124 2.2666 17.1733 2.80566C16.6343 3.34474 16.3307 4.07554 16.3306 4.83789C16.3306 5.60039 16.6342 6.33192 17.1733 6.87109C17.7124 7.41012 18.4433 7.71278 19.2056 7.71289C19.9681 7.71289 20.6996 7.41026 21.2388 6.87109C21.7779 6.33192 22.0806 5.60039 22.0806 4.83789C22.0805 4.07557 21.7778 3.34473 21.2388 2.80566C20.6996 2.2665 19.9681 1.96289 19.2056 1.96289Z" fill="black" stroke="black" stroke-width="0.3"/>
<path d="M12.3999 4.31055C13.6431 4.31055 14.8363 4.80451 15.7153 5.68359C16.5943 6.56257 17.0873 7.75503 17.0874 8.99805C17.0874 10.2413 16.5944 11.4344 15.7153 12.3135C14.8363 13.1926 13.6431 13.6855 12.3999 13.6855C11.1569 13.6854 9.96443 13.1924 9.08545 12.3135C8.20637 11.4344 7.7124 10.2413 7.7124 8.99805C7.71251 7.75499 8.20647 6.56258 9.08545 5.68359C9.96443 4.80461 11.1568 4.31065 12.3999 4.31055ZM12.3999 6.12305C11.6375 6.12315 10.9067 6.42675 10.3677 6.96582C9.8286 7.50489 9.52501 8.23569 9.5249 8.99805C9.5249 9.76055 9.82851 10.4921 10.3677 11.0312C10.9067 11.5703 11.6376 11.8729 12.3999 11.873C13.1624 11.873 13.8939 11.5704 14.4331 11.0312C14.9723 10.4921 15.2749 9.76055 15.2749 8.99805C15.2748 8.23573 14.9721 7.50489 14.4331 6.96582C13.8939 6.42665 13.1624 6.12305 12.3999 6.12305Z" fill="black" stroke="black" stroke-width="0.3"/>
</svg>
