<svg width="37" height="37" viewBox="0 0 37 37" fill="none" xmlns="http://www.w3.org/2000/svg">
<path d="M18.1108 14.8471C18.1108 14.8471 18.1108 14.8471 17.3414 13.8981C16.4506 12.7972 15.1346 12 13.5554 12C11.0347 12 9 13.9076 9 16.2707C9 17.1533 9.28345 17.9695 9.76936 18.6433C10.5893 19.7916 18.1108 27.1847 18.1108 27.1847M18.1108 14.8471C18.1108 14.8471 18.1108 14.8471 18.8802 13.8981C19.771 12.7972 21.087 12 22.6662 12C25.1869 12 27.2216 13.9076 27.2216 16.2707C27.2216 17.1533 26.9382 17.9695 26.4523 18.6433C25.6323 19.7916 18.1108 27.1847 18.1108 27.1847" stroke="#6E808D" stroke-width="2" stroke-linecap="round" stroke-linejoin="round"/>
</svg>
