<svg width="153" height="155" viewBox="0 0 153 155" fill="none" xmlns="http://www.w3.org/2000/svg">
<g filter="url(#filter0_g_3463_171262)">
<path d="M95.2879 30.2114C91.1566 -13.3103 51.9095 6.37809 51.9095 25.0303C12.2492 15.9115 15.4165 46.1003 20.9249 62.3346C-12.1253 76.8418 9.56388 115.182 32.2859 108.965C24.8496 136.321 48.4667 136.943 61.2048 133.835C68.0348 160.471 98.3863 153.217 98.3863 131.762C133.089 135.907 136.201 104.514 126.272 95.4939C169.651 82.0229 140.732 51.9722 123.174 55.081C140.732 28.1389 107.682 10.523 95.2879 30.2114Z" fill="url(#paint0_radial_3463_171262)"/>
</g>
<defs>
<filter id="filter0_g_3463_171262" x="0" y="0" width="153" height="155" filterUnits="userSpaceOnUse" color-interpolation-filters="sRGB">
<feFlood flood-opacity="0" result="BackgroundImageFix"/>
<feBlend mode="normal" in="SourceGraphic" in2="BackgroundImageFix" result="shape"/>
<feTurbulence type="fractalNoise" baseFrequency="0.99900001287460327 0.99900001287460327" numOctaves="3" seed="3617" />
<feDisplacementMap in="shape" scale="8" xChannelSelector="R" yChannelSelector="G" result="displacedImage" width="100%" height="100%" />
<feMerge result="effect1_texture_3463_171262">
<feMergeNode in="displacedImage"/>
</feMerge>
</filter>
<radialGradient id="paint0_radial_3463_171262" cx="0" cy="0" r="1" gradientUnits="userSpaceOnUse" gradientTransform="translate(76.5 77.5) rotate(90) scale(73.5 72.5)">
<stop stop-color="#FFA1CD"/>
<stop offset="1" stop-color="#FFD3A4"/>
</radialGradient>
</defs>
</svg>
