<svg width="62" height="62" viewBox="0 0 62 62" fill="none" xmlns="http://www.w3.org/2000/svg">
<circle cx="31" cy="31" r="30.5" fill="#FFA1CD" stroke="#F362A6"/>
<path fill-rule="evenodd" clip-rule="evenodd" d="M24.6111 22.8889C24.6111 21.0618 25.3369 19.3096 26.6288 18.0177C27.9207 16.7258 29.673 16 31.5 16C33.327 16 35.0793 16.7258 36.3712 18.0177C37.6631 19.3096 38.3889 21.0618 38.3889 22.8889C38.3889 24.7159 37.6631 26.4682 36.3712 27.7601C35.0793 29.052 33.327 29.7778 31.5 29.7778C29.673 29.7778 27.9207 29.052 26.6288 27.7601C25.3369 26.4682 24.6111 24.7159 24.6111 22.8889ZM24.6111 33.2222C22.3273 33.2222 20.137 34.1295 18.5221 35.7444C16.9072 37.3593 16 39.5495 16 41.8333C16 43.2036 16.5443 44.5178 17.5133 45.4867C18.4822 46.4557 19.7964 47 21.1667 47H41.8333C43.2036 47 44.5178 46.4557 45.4867 45.4867C46.4557 44.5178 47 43.2036 47 41.8333C47 39.5495 46.0928 37.3593 44.4779 35.7444C42.863 34.1295 40.6727 33.2222 38.3889 33.2222H24.6111Z" fill="#F362A6"/>
</svg>
