<svg width="30" height="25" viewBox="0 0 30 25" fill="none" xmlns="http://www.w3.org/2000/svg">
<path d="M1.55295 12.7208L15.0036 2.00374L28.4542 12.7208C28.6427 12.8678 28.8866 12.9405 29.133 12.9231C29.3793 12.9058 29.6084 12.7998 29.7703 12.6283C29.9323 12.4567 30.0141 12.2333 29.998 12.0066C29.982 11.78 29.8693 11.5682 29.6845 11.4174L15.6187 0.210662C15.4482 0.0747947 15.2302 0 15.0045 0C14.7789 0 14.5608 0.0747947 14.3903 0.210662L9.37728 4.20371V2.58649C9.37728 2.12923 9.17969 1.69069 8.82798 1.36736C8.47626 1.04403 7.99924 0.862378 7.50184 0.862378C7.00444 0.862378 6.52742 1.04403 6.17571 1.36736C5.82399 1.69069 5.6264 2.12923 5.6264 2.58649V7.19161L0.322662 11.4174C0.1351 11.5677 0.0199264 11.7801 0.00235177 12.0082C-0.0152228 12.2364 0.0662335 12.4616 0.22889 12.6346C0.57022 12.9933 1.16098 13.0329 1.55295 12.7208ZM11.2527 16.3794H18.7545V25H24.3808C24.8782 25 25.3552 24.8184 25.7069 24.495C26.0586 24.1717 26.2562 23.7331 26.2562 23.2759V14.826C26.2562 14.3088 26.0049 13.8208 25.5698 13.4933L16.1926 6.4261C15.8576 6.17278 15.4374 6.03429 15.0036 6.03429C14.5698 6.03429 14.1496 6.17278 13.8146 6.4261L4.43738 13.4933C4.22253 13.6546 4.04946 13.858 3.93073 14.0885C3.812 14.319 3.7506 14.5709 3.75096 14.826V23.2759C3.75096 23.7331 3.94855 24.1717 4.30027 24.495C4.65198 24.8184 5.12901 25 5.6264 25H11.2527V16.3794Z" fill="black"/>
</svg>
