<svg width="56" height="50" viewBox="0 0 56 50" fill="none" xmlns="http://www.w3.org/2000/svg">
<g clip-path="url(#clip0_291_27621)">
<circle cx="25" cy="25" r="25" fill="#E7E8E9"/>
<path fill-rule="evenodd" clip-rule="evenodd" d="M18.3333 18.1667C18.3333 16.3986 19.0357 14.7029 20.286 13.4526C21.5362 12.2024 23.2319 11.5 25 11.5C26.7681 11.5 28.4638 12.2024 29.714 13.4526C30.9643 14.7029 31.6667 16.3986 31.6667 18.1667C31.6667 19.9348 30.9643 21.6305 29.714 22.8807C28.4638 24.131 26.7681 24.8333 25 24.8333C23.2319 24.8333 21.5362 24.131 20.286 22.8807C19.0357 21.6305 18.3333 19.9348 18.3333 18.1667ZM18.3333 28.1667C16.1232 28.1667 14.0036 29.0446 12.4408 30.6074C10.878 32.1702 10 34.2899 10 36.5C10 37.8261 10.5268 39.0979 11.4645 40.0355C12.4021 40.9732 13.6739 41.5 15 41.5H35C36.3261 41.5 37.5979 40.9732 38.5355 40.0355C39.4732 39.0979 40 37.8261 40 36.5C40 34.2899 39.122 32.1702 37.5592 30.6074C35.9964 29.0446 33.8768 28.1667 31.6667 28.1667H18.3333Z" fill="#8A9196"/>
</g>
<defs>
<clipPath id="clip0_291_27621">
<rect width="56" height="50" fill="white"/>
</clipPath>
</defs>
</svg>
