<svg width="73" height="73" viewBox="0 0 73 73" fill="none" xmlns="http://www.w3.org/2000/svg">
<g clip-path="url(#clip0_583_166253)">
<g clip-path="url(#clip1_583_166253)">
<path fill-rule="evenodd" clip-rule="evenodd" d="M22 17.375C22 13.5294 23.5277 9.84123 26.247 7.12195C28.9662 4.40267 32.6544 2.875 36.5 2.875C40.3456 2.875 44.0338 4.40267 46.753 7.12195C49.4723 9.84123 51 13.5294 51 17.375C51 21.2206 49.4723 24.9088 46.753 27.628C44.0338 30.3473 40.3456 31.875 36.5 31.875C32.6544 31.875 28.9662 30.3473 26.247 27.628C23.5277 24.9088 22 21.2206 22 17.375ZM22 39.125C17.193 39.125 12.5828 41.0346 9.18369 44.4337C5.78459 47.8328 3.875 52.443 3.875 57.25C3.875 60.1342 5.02076 62.9003 7.06021 64.9398C9.09967 66.9792 11.8658 68.125 14.75 68.125H58.25C61.1342 68.125 63.9003 66.9792 65.9398 64.9398C67.9792 62.9003 69.125 60.1342 69.125 57.25C69.125 52.443 67.2154 47.8328 63.8163 44.4337C60.4172 41.0346 55.807 39.125 51 39.125H22Z" fill="#565656"/>
</g>
</g>
<defs>
<clipPath id="clip0_583_166253">
<rect width="73" height="73" fill="white"/>
</clipPath>
<clipPath id="clip1_583_166253">
<rect width="73" height="73" fill="white" transform="translate(0 2)"/>
</clipPath>
</defs>
</svg>
