<svg width="30" height="30" viewBox="0 0 30 30" fill="none" xmlns="http://www.w3.org/2000/svg">
<path d="M26.875 5.625H3.125C2.79361 5.62543 2.47592 5.75726 2.24159 5.99159C2.00726 6.22592 1.87543 6.54361 1.875 6.875V20.625C1.87543 20.9564 2.00726 21.2741 2.24159 21.5084C2.47592 21.7427 2.79361 21.8746 3.125 21.875H12.4335L14.079 23.6706C14.1962 23.7982 14.3386 23.9001 14.4972 23.9697C14.6558 24.0394 14.8272 24.0753 15.0004 24.0753C15.1737 24.0752 15.345 24.0392 15.5036 23.9694C15.6622 23.8996 15.8045 23.7977 15.9216 23.67L17.5665 21.875H26.875C27.2064 21.8746 27.5241 21.7427 27.7584 21.5084C27.9927 21.2741 28.1246 20.9564 28.125 20.625V6.875C28.1246 6.54361 27.9927 6.22592 27.7584 5.99159C27.5241 5.75726 27.2064 5.62543 26.875 5.625Z" fill="black"/>
<path d="M8.8071 9.4653L7.80897 11.7943C7.78755 11.8443 7.75194 11.8869 7.70654 11.9168C7.66114 11.9468 7.60796 11.9627 7.55358 11.9627H5.31424C5.25929 11.9627 5.20556 11.979 5.15987 12.0096C5.11417 12.0401 5.07856 12.0835 5.05753 12.1343C5.0365 12.185 5.03099 12.2409 5.04172 12.2948C5.05244 12.3487 5.07891 12.3982 5.11777 12.4371L6.74172 14.061C6.77564 14.095 6.80021 14.1371 6.81302 14.1833C6.82582 14.2296 6.82644 14.2783 6.8148 14.3249L6.12707 17.0758C6.11386 17.1286 6.11647 17.1842 6.13456 17.2355C6.15266 17.2869 6.18544 17.3318 6.22885 17.3647C6.27225 17.3976 6.32436 17.417 6.3787 17.4205C6.43304 17.424 6.48721 17.4115 6.53449 17.3845L8.92464 16.0187C8.96662 15.9947 9.01414 15.9821 9.06249 15.9821C9.11085 15.9821 9.15836 15.9947 9.20035 16.0187L11.5905 17.3845C11.6378 17.4115 11.6919 17.424 11.7463 17.4205C11.8006 17.417 11.8527 17.3976 11.8961 17.3647C11.9395 17.3318 11.9723 17.2869 11.9904 17.2355C12.0085 17.1842 12.0111 17.1286 11.9979 17.0758L11.3102 14.3249C11.2985 14.2784 11.2992 14.2296 11.312 14.1834C11.3248 14.1371 11.3493 14.095 11.3833 14.061L13.0072 12.4371C13.0461 12.3982 13.0725 12.3487 13.0833 12.2948C13.094 12.2409 13.0885 12.1851 13.0675 12.1343C13.0464 12.0835 13.0108 12.0401 12.9651 12.0096C12.9194 11.979 12.8657 11.9628 12.8107 11.9628H10.5714C10.5171 11.9628 10.4639 11.9468 10.4185 11.9169C10.3731 11.8869 10.3375 11.8443 10.316 11.7943L9.31791 9.46533C9.2965 9.41534 9.26088 9.37273 9.21548 9.34278C9.17009 9.31284 9.1169 9.29688 9.06251 9.29688C9.00813 9.29687 8.95494 9.31283 8.90954 9.34277C8.86413 9.37271 8.82852 9.41531 8.8071 9.4653Z" fill="#F9F6F6"/>
<path d="M11.8359 17.7337C11.6829 17.7339 11.5325 17.6941 11.3995 17.6184L9.37499 16.4618L7.35168 17.6178C7.20167 17.7035 7.02978 17.7432 6.85737 17.732C6.68496 17.7208 6.51965 17.6592 6.38197 17.5549C6.2443 17.4505 6.14034 17.3079 6.08301 17.1449C6.02569 16.982 6.01754 16.8057 6.05956 16.6381L6.64367 14.3017L5.29174 12.9498C5.16843 12.8266 5.08445 12.6695 5.05041 12.4985C5.01637 12.3276 5.03381 12.1503 5.10052 11.9893C5.16723 11.8282 5.28022 11.6906 5.42518 11.5937C5.57015 11.4969 5.74058 11.4452 5.91491 11.4453H7.73925L8.56445 9.51965C8.63225 9.36083 8.74522 9.22543 8.88932 9.13027C9.03343 9.03511 9.20231 8.98438 9.375 8.98438C9.54768 8.98438 9.71657 9.03511 9.86067 9.13027C10.0048 9.22543 10.1177 9.36083 10.1855 9.51965L11.0107 11.4453H12.8351C13.0095 11.4452 13.18 11.4969 13.325 11.5938C13.47 11.6908 13.583 11.8285 13.6496 11.9897C13.7163 12.1508 13.7336 12.3282 13.6994 12.4992C13.6653 12.6702 13.5811 12.8272 13.4576 12.9504L12.1063 14.3017L12.6904 16.6388C12.723 16.7687 12.7255 16.9043 12.6977 17.0353C12.67 17.1663 12.6128 17.2892 12.5304 17.3948C12.448 17.5004 12.3427 17.5858 12.2223 17.6445C12.102 17.7032 11.9698 17.7337 11.8359 17.7337ZM6.80481 12.6953L7.67456 13.565C7.78134 13.6726 7.85883 13.8056 7.89964 13.9516C7.94044 14.0975 7.94321 14.2515 7.90768 14.3988L7.48105 16.1041L8.93792 15.2716C9.07134 15.1958 9.22218 15.156 9.37563 15.1561C9.52908 15.1562 9.67986 15.1962 9.81317 15.2722L11.2689 16.1041L10.8435 14.4018C10.8073 14.2542 10.8095 14.0997 10.8502 13.9531C10.8908 13.8066 10.9683 13.673 11.0754 13.565L11.9452 12.6953H10.7678C10.595 12.6955 10.426 12.6447 10.2818 12.5494C10.1377 12.4541 10.0248 12.3185 9.95727 12.1594L9.37499 10.8014L8.79211 12.1606C8.72449 12.3194 8.61164 12.4548 8.46761 12.5498C8.32358 12.6449 8.15475 12.6955 7.98217 12.6953H6.80481Z" fill="#F9F6F6"/>
<path d="M15 24.0753C14.8269 24.0751 14.6557 24.039 14.4972 23.9693C14.3386 23.8997 14.1963 23.798 14.079 23.6707L12.4335 21.875H3.125C2.79361 21.8746 2.47592 21.7427 2.24159 21.5084C2.00726 21.2741 1.87543 20.9564 1.875 20.625V6.875C1.87543 6.54361 2.00726 6.22592 2.24159 5.99159C2.47592 5.75726 2.79361 5.62543 3.125 5.625H26.875C27.2064 5.62543 27.5241 5.75726 27.7584 5.99159C27.9927 6.22592 28.1246 6.54361 28.125 6.875V20.625C28.1246 20.9564 27.9927 21.2741 27.7584 21.5084C27.5241 21.7427 27.2064 21.8746 26.875 21.875H17.5665L15.9216 23.67C15.8043 23.7976 15.6618 23.8994 15.5032 23.9691C15.3446 24.0389 15.1733 24.075 15 24.0753ZM3.125 6.875V20.625H12.4335C12.6068 20.6251 12.7783 20.6612 12.9369 20.7311C13.0956 20.8009 13.238 20.903 13.3551 21.0309L15 22.8253L16.6449 21.0303C16.7621 20.9026 16.9045 20.8007 17.0632 20.7309C17.2218 20.6612 17.3932 20.6251 17.5665 20.625H26.875V6.875H3.125Z" fill="black"/>
<path d="M21.25 17.5H15.625C15.4592 17.5 15.3003 17.4342 15.1831 17.3169C15.0658 17.1997 15 17.0408 15 16.875C15 16.7092 15.0658 16.5503 15.1831 16.4331C15.3003 16.3158 15.4592 16.25 15.625 16.25H21.25C21.4158 16.25 21.5747 16.3158 21.6919 16.4331C21.8092 16.5503 21.875 16.7092 21.875 16.875C21.875 17.0408 21.8092 17.1997 21.6919 17.3169C21.5747 17.4342 21.4158 17.5 21.25 17.5ZM24.375 14.375H15.625C15.4592 14.375 15.3003 14.3092 15.1831 14.1919C15.0658 14.0747 15 13.9158 15 13.75C15 13.5842 15.0658 13.4253 15.1831 13.3081C15.3003 13.1908 15.4592 13.125 15.625 13.125H24.375C24.5408 13.125 24.6997 13.1908 24.8169 13.3081C24.9342 13.4253 25 13.5842 25 13.75C25 13.9158 24.9342 14.0747 24.8169 14.1919C24.6997 14.3092 24.5408 14.375 24.375 14.375ZM24.375 11.25H15.625C15.4592 11.25 15.3003 11.1842 15.1831 11.0669C15.0658 10.9497 15 10.7908 15 10.625C15 10.4592 15.0658 10.3003 15.1831 10.1831C15.3003 10.0658 15.4592 10 15.625 10H24.375C24.5408 10 24.6997 10.0658 24.8169 10.1831C24.9342 10.3003 25 10.4592 25 10.625C25 10.7908 24.9342 10.9497 24.8169 11.0669C24.6997 11.1842 24.5408 11.25 24.375 11.25Z" fill="#F9F6F6"/>
</svg>
