<svg width="18" height="17" viewBox="0 0 18 17" fill="none" xmlns="http://www.w3.org/2000/svg">
<path d="M8.61006 13.7787L4.43622 16.2931C4.25183 16.4104 4.05906 16.4607 3.85791 16.4439C3.65676 16.4272 3.48076 16.3601 3.3299 16.2428C3.17904 16.1254 3.0617 15.9789 2.97789 15.8033C2.89407 15.6276 2.87731 15.4305 2.9276 15.2119L4.03392 10.4598L0.337806 7.26651C0.170181 7.11565 0.0655838 6.94367 0.024013 6.75056C-0.0175578 6.55746 -0.0051537 6.36905 0.0612255 6.18533C0.127605 6.00162 0.228179 5.85076 0.362949 5.73275C0.497719 5.61474 0.682105 5.53931 0.916109 5.50646L5.79397 5.07901L7.67975 0.603447C7.76356 0.402298 7.89363 0.251436 8.06998 0.150862C8.24632 0.0502871 8.42634 0 8.61006 0C8.79378 0 8.9738 0.0502871 9.15015 0.150862C9.32649 0.251436 9.45656 0.402298 9.54037 0.603447L11.4261 5.07901L16.304 5.50646C16.5387 5.53998 16.7231 5.61541 16.8572 5.73275C16.9913 5.85008 17.0918 6.00095 17.1589 6.18533C17.2259 6.36972 17.2387 6.55847 17.1971 6.75157C17.1555 6.94467 17.0506 7.11632 16.8823 7.26651L13.1862 10.4598L14.2925 15.2119C14.3428 15.4298 14.326 15.6269 14.2422 15.8033C14.1584 15.9796 14.0411 16.1261 13.8902 16.2428C13.7394 16.3595 13.5634 16.4265 13.3622 16.4439C13.1611 16.4614 12.9683 16.4111 12.7839 16.2931L8.61006 13.7787Z" fill="#C4E1FC"/>
<path d="M8.07056 0.150862C8.2469 0.0502871 8.42693 0 8.61064 0C8.62783 0 8.64499 0.000440159 8.66211 0.00132048L9 13.5L4.4368 16.2931C4.25241 16.4111 4.05964 16.4614 3.8585 16.4439C3.65735 16.4265 3.48134 16.3595 3.33048 16.2428C3.17962 16.1261 3.06228 15.9796 2.97847 15.8033C2.89466 15.6269 2.87789 15.4298 2.92818 15.2119L4.0345 10.4598L0.338388 7.26651C0.170094 7.11632 0.0651608 6.94467 0.0235901 6.75157C-0.0179806 6.55847 -0.00524235 6.36972 0.0618076 6.18533C0.128858 6.00095 0.229432 5.85008 0.363531 5.73275C0.49763 5.61541 0.682019 5.53998 0.916693 5.50646L5.79456 5.07901L7.68033 0.603447C7.76414 0.402298 7.89422 0.251436 8.07056 0.150862Z" fill="#FFB700"/>
</svg>
