<svg width="18" height="17" viewBox="0 0 18 17" fill="none" xmlns="http://www.w3.org/2000/svg">
<path d="M8.56554 13.9361L4.41328 16.4792C4.22985 16.5979 4.03807 16.6487 3.83797 16.6318C3.63786 16.6148 3.46276 16.547 3.31268 16.4283C3.1626 16.3097 3.04587 16.1615 2.96249 15.9838C2.87911 15.8061 2.86243 15.6068 2.91246 15.3857L4.01306 10.5792L0.336059 7.34952C0.169301 7.19694 0.0652447 7.02299 0.0238888 6.82768C-0.017467 6.63237 -0.00512706 6.44181 0.0609089 6.25599C0.126945 6.07018 0.226999 5.91759 0.361072 5.79824C0.495145 5.67888 0.678578 5.60259 0.911372 5.56936L5.76401 5.13704L7.64004 0.610341C7.72342 0.406894 7.85282 0.254309 8.02825 0.152585C8.20368 0.0508616 8.38277 0 8.56554 0C8.74831 0 8.9274 0.0508616 9.10283 0.152585C9.27826 0.254309 9.40767 0.406894 9.49104 0.610341L11.3671 5.13704L16.2197 5.56936C16.4532 5.60327 16.6366 5.67956 16.77 5.79824C16.9034 5.91692 17.0035 6.0695 17.0702 6.25599C17.1369 6.44249 17.1495 6.63339 17.1082 6.8287C17.0668 7.02401 16.9624 7.19761 16.795 7.34952L13.118 10.5792L14.2186 15.3857C14.2686 15.6061 14.252 15.8055 14.1686 15.9838C14.0852 16.1622 13.9685 16.3103 13.8184 16.4283C13.6683 16.5463 13.4932 16.6142 13.2931 16.6318C13.093 16.6494 12.9012 16.5986 12.7178 16.4792L8.56554 13.9361Z" fill="#FFB700"/>
</svg>
