<svg
  width="281"
  height="222"
  viewBox="0 0 281 222"
  fill="none"
  xmlns="http://www.w3.org/2000/svg"
>
  <path
    d="M88.5343 157.418C93.0201 140.902 133.732 141.36 153.527 143.654C137.64 143.384 104.133 145.233 97.2001 154.787C90.2675 164.34 107.735 171.451 117.335 173.812C92.6633 169.926 87.8547 161.263 88.5343 157.418Z"
    fill="url(#paint0_linear_583_65414)"
  />
  <path
    d="M221.742 140.376C217.921 156.045 183.24 155.61 166.377 153.434C179.911 153.69 208.454 151.936 214.36 142.873C220.265 133.809 205.386 127.063 197.208 124.822C218.225 128.509 222.321 136.728 221.742 140.376Z"
    fill="url(#paint1_linear_583_65414)"
  />
  <path
    d="M153.126 92.9844C153.761 92.9844 154.776 93.2514 156.689 95.7295C158.609 98.2151 160.773 102.046 163.908 107.622V107.623L165.502 110.455C167.098 113.296 168.346 115.659 170.429 117.23C172.533 118.818 175.135 119.325 178.232 120.019V120.02L181.322 120.713C187.417 122.082 191.581 123.027 194.438 124.144C197.058 125.168 197.773 126.033 198.048 126.761L198.098 126.905C198.343 127.69 198.333 128.867 196.669 131.489C194.981 134.149 192.135 137.465 187.986 142.276L185.878 144.72L185.876 144.722C183.758 147.18 181.98 149.137 181.193 151.645V151.647C180.412 154.146 180.733 156.781 181.055 160.068V160.07L181.375 163.328V163.329C182.001 169.748 182.425 174.177 182.281 177.369C182.138 180.55 181.461 181.468 180.879 181.906C180.341 182.311 179.388 182.696 176.486 181.871C173.542 181.035 169.636 179.262 163.934 176.657L163.93 176.656L161.028 175.335H161.027C158.137 174.011 155.75 172.843 153.126 172.843C150.828 172.843 148.711 173.739 146.279 174.851L145.222 175.336L142.326 176.656L142.324 176.657C136.619 179.262 132.711 181.035 129.767 181.872C127.043 182.646 126.038 182.356 125.482 181.985L125.377 181.911C124.791 181.469 124.115 180.547 123.972 177.369C123.828 174.177 124.251 169.75 124.877 163.333L125.197 160.075V160.072C125.517 156.793 125.84 154.156 125.057 151.661H125.058C124.276 149.139 122.492 147.177 120.374 144.724L118.269 142.278L118.267 142.276L115.396 138.937C112.767 135.851 110.849 133.488 109.583 131.493C107.918 128.869 107.909 127.69 108.155 126.901C108.391 126.147 109.017 125.235 111.815 124.142C114.673 123.025 118.84 122.08 124.934 120.714L124.935 120.713L128.024 120.02L128.023 120.019C131.121 119.324 133.712 118.817 135.818 117.233C137.911 115.66 139.157 113.289 140.75 110.454L142.344 107.623V107.622C145.479 102.046 147.643 98.2151 149.562 95.7295C151.476 93.2516 152.491 92.9844 153.126 92.9844Z"
    fill="url(#paint2_linear_583_65414)"
    stroke="url(#paint3_linear_583_65414)"
    stroke-width="7"
  />
  <path
    d="M172.161 128.795C172.59 129.26 172.82 129.88 172.801 130.518C172.782 131.157 172.516 131.762 172.06 132.199L147.122 156.207C146.613 156.696 145.938 156.962 145.24 156.949C144.541 156.936 143.876 156.644 143.386 156.136L134.958 147.399C134.734 147.175 134.557 146.908 134.436 146.614C134.315 146.319 134.252 146.003 134.252 145.683C134.252 145.363 134.314 145.047 134.434 144.752C134.555 144.457 134.732 144.19 134.955 143.965C135.177 143.741 135.442 143.564 135.732 143.445C136.022 143.326 136.333 143.267 136.646 143.272C136.959 143.277 137.268 143.345 137.554 143.473C137.841 143.601 138.1 143.786 138.316 144.017L145.342 151.299L168.827 128.692C169.283 128.254 169.89 128.019 170.515 128.038C171.14 128.057 171.732 128.33 172.161 128.795Z"
    fill="url(#paint4_linear_583_65414)"
  />
  <defs>
    <linearGradient
      id="paint0_linear_583_65414"
      x1="121.001"
      y1="173.812"
      x2="121.001"
      y2="142.491"
      gradientUnits="userSpaceOnUse"
    >
      <stop stop-color="#E6FF97" />
      <stop offset="1" stop-color="#53955F" />
    </linearGradient>
    <linearGradient
      id="paint1_linear_583_65414"
      x1="194.085"
      y1="124.822"
      x2="194.085"
      y2="154.538"
      gradientUnits="userSpaceOnUse"
    >
      <stop stop-color="#E6FF97" />
      <stop offset="1" stop-color="#53955F" />
    </linearGradient>
    <linearGradient
      id="paint2_linear_583_65414"
      x1="153.126"
      y1="89.4844"
      x2="153.126"
      y2="185.859"
      gradientUnits="userSpaceOnUse"
    >
      <stop offset="0.41843" stop-color="#F0FFDF" />
      <stop offset="1" stop-color="#50B15F" />
    </linearGradient>
    <linearGradient
      id="paint3_linear_583_65414"
      x1="153.126"
      y1="89.4844"
      x2="153.126"
      y2="185.859"
      gradientUnits="userSpaceOnUse"
    >
      <stop stop-color="#B2DC63" />
      <stop offset="1" stop-color="#4BAF5E" />
    </linearGradient>
    <linearGradient
      id="paint4_linear_583_65414"
      x1="153.684"
      y1="160.445"
      x2="157.386"
      y2="131.227"
      gradientUnits="userSpaceOnUse"
    >
      <stop stop-color="#169036" />
      <stop offset="1" stop-color="#B8DF64" />
    </linearGradient>
  </defs>
</svg>
