<svg width="37" height="37" viewBox="0 0 37 37" fill="none" xmlns="http://www.w3.org/2000/svg">
<circle cx="18.5" cy="18.5" r="18.5" fill="#EC9304"/>
<g clip-path="url(#clip0_277_7365)">
<path d="M23.8673 12.1333C22.9956 11.2661 22.5152 10.1527 22.5153 9H18.574V22.7778C18.5442 23.5235 18.1831 24.2301 17.5667 24.7483C16.9504 25.2666 16.127 25.556 15.2704 25.5556C13.4592 25.5556 11.9541 24.2667 11.9541 22.6667C11.9541 20.7556 14.0714 19.3222 16.2526 19.9111V16.4C11.852 15.8889 8 18.8667 8 22.6667C8 26.3667 11.5204 29 15.2577 29C19.2628 29 22.5153 26.1667 22.5153 22.6667V15.6778C24.1135 16.6776 26.0324 17.2141 28 17.2111V13.7778C28 13.7778 25.602 13.8778 23.8673 12.1333Z" fill="#FFEFC8"/>
</g>
<defs>
<clipPath id="clip0_277_7365">
<rect width="20" height="20" fill="white" transform="translate(8 9)"/>
</clipPath>
</defs>
</svg>
