<svg width="31" height="31" viewBox="0 0 31 31" fill="none" xmlns="http://www.w3.org/2000/svg">
<g clip-path="url(#clip0_2111_59881)">
<path d="M15.0527 2.50781C21.9807 2.50781 27.5967 8.12373 27.5967 15.0517C27.5967 21.9798 21.9807 27.5957 15.0527 27.5957C8.12471 27.5957 2.50879 21.9798 2.50879 15.0517C2.50879 8.12373 8.12471 2.50781 15.0527 2.50781ZM15.0527 5.0166C12.3912 5.0166 9.83876 6.07387 7.9568 7.95583C6.07485 9.83778 5.01758 12.3903 5.01758 15.0517C5.01758 17.7132 6.07485 20.2657 7.9568 22.1477C9.83876 24.0296 12.3912 25.0869 15.0527 25.0869C17.7142 25.0869 20.2667 24.0296 22.1486 22.1477C24.0306 20.2657 25.0879 17.7132 25.0879 15.0517C25.0879 12.3903 24.0306 9.83778 22.1486 7.95583C20.2667 6.07387 17.7142 5.0166 15.0527 5.0166ZM15.0527 7.52539C15.36 7.52543 15.6565 7.63823 15.8861 7.84239C16.1157 8.04656 16.2624 8.32788 16.2983 8.63302L16.3071 8.77978V14.5324L19.7028 17.9281C19.9277 18.1538 20.0583 18.4567 20.0681 18.7753C20.0778 19.0938 19.9659 19.4041 19.7551 19.6432C19.5444 19.8822 19.2505 20.0321 18.9332 20.0623C18.616 20.0925 18.2991 20.0008 18.047 19.8059L17.929 19.7018L14.1659 15.9386C13.9709 15.7435 13.8457 15.4895 13.8096 15.2161L13.7983 15.0517V8.77978C13.7983 8.44709 13.9305 8.12803 14.1657 7.89279C14.401 7.65755 14.72 7.52539 15.0527 7.52539Z" fill="black"/>
</g>
<defs>
<clipPath id="clip0_2111_59881">
<rect width="30.1054" height="30.1054" fill="white"/>
</clipPath>
</defs>
</svg>
