<svg width="200" height="200" viewBox="0 0 200 200" fill="none" xmlns="http://www.w3.org/2000/svg">
<g filter="url(#filter0_n_77_162069)">
<path d="M40.6519 80.4262C47.2719 91.8923 59.9447 91.8429 72.6494 84.5079C85.3541 77.1728 91.9266 66.1109 85.3066 54.6448C78.6866 43.1786 61.936 36.6114 49.2313 43.9465C36.5265 51.2816 34.0319 68.96 40.6519 80.4262Z" fill="#A16F64"/>
</g>
<g opacity="0.75" filter="url(#filter1_n_77_162069)">
<path d="M75.0794 62.1976C78.4944 68.1126 75.2036 73.7615 68.6496 77.5455C62.0956 81.3295 55.4583 81.4125 52.0433 75.4975C48.6282 69.5824 50.0149 60.405 56.5689 56.6211C63.1229 52.8371 71.6643 56.2825 75.0794 62.1976Z" fill="url(#paint0_linear_77_162069)"/>
</g>
<g filter="url(#filter2_n_77_162069)">
<path d="M159.963 81.1723C153.343 92.6384 140.671 92.589 127.966 85.254C115.261 77.9189 108.689 66.857 115.309 55.3909C121.929 43.9247 138.679 37.3575 151.384 44.6926C164.089 52.0277 166.583 69.7061 159.963 81.1723Z" fill="#A16F64"/>
</g>
<g opacity="0.75" filter="url(#filter3_n_77_162069)">
<path d="M127.04 62.1976C123.625 68.1126 126.916 73.7615 133.47 77.5455C140.024 81.3295 146.661 81.4125 150.076 75.4975C153.491 69.5824 152.104 60.405 145.55 56.6211C138.996 52.8371 130.455 56.2825 127.04 62.1976Z" fill="url(#paint1_linear_77_162069)"/>
</g>
<g filter="url(#filter4_n_77_162069)">
<path d="M164.001 118.787C164.001 152.144 136.482 168 99.7802 168C63.0784 168 35.001 152.144 35.001 118.787C35.001 85.4298 63.0784 50 99.7802 50C136.482 50 164.001 85.4298 164.001 118.787Z" fill="#A16F64"/>
</g>
<g filter="url(#filter5_n_77_162069)">
<path d="M82.501 118.5C83.5158 118.5 84.5041 119.14 85.2627 120.32C86.0179 121.495 86.501 123.148 86.501 125C86.501 126.852 86.0179 128.505 85.2627 129.68C84.5041 130.86 83.5158 131.5 82.501 131.5C81.4862 131.5 80.4979 130.86 79.7393 129.68C78.9841 128.505 78.501 126.852 78.501 125C78.501 123.148 78.9841 121.495 79.7393 120.32C80.4979 119.14 81.4862 118.5 82.501 118.5Z" fill="black" stroke="black"/>
<path d="M117.501 118.5C118.516 118.5 119.504 119.14 120.263 120.32C121.018 121.495 121.501 123.148 121.501 125C121.501 126.852 121.018 128.505 120.263 129.68C119.504 130.86 118.516 131.5 117.501 131.5C116.486 131.5 115.498 130.86 114.739 129.68C113.984 128.505 113.501 126.852 113.501 125C113.501 123.148 113.984 121.495 114.739 120.32C115.498 119.14 116.486 118.5 117.501 118.5Z" fill="black" stroke="black"/>
<g filter="url(#filter6_n_77_162069)">
<ellipse cx="100.501" cy="142" rx="24.5" ry="15" fill="#E8A96F"/>
</g>
<path d="M111.208 141.192C111.697 140.202 112.896 139.795 113.886 140.284C114.877 140.773 115.283 141.972 114.794 142.963L113.001 142.077L111.208 141.192ZM101.001 136L103 135.932C103.06 137.715 103.406 139.836 104.123 141.609C104.857 143.423 105.83 144.527 106.929 144.922L106.251 146.804L105.573 148.686C102.922 147.731 101.336 145.384 100.415 143.109C99.4785 140.794 99.0741 138.187 99.0021 136.068L101.001 136ZM106.251 146.804L106.929 144.922C107.542 145.143 108.399 144.88 109.547 143.607C110.051 143.049 110.473 142.438 110.773 141.953C110.922 141.714 111.035 141.513 111.11 141.377C111.147 141.309 111.174 141.257 111.191 141.225C111.199 141.209 111.204 141.198 111.207 141.193C111.209 141.19 111.209 141.188 111.21 141.188C111.21 141.188 111.209 141.188 111.209 141.189C111.209 141.189 111.209 141.19 111.208 141.19C111.208 141.191 111.208 141.191 111.208 141.191C111.208 141.192 111.208 141.192 113.001 142.077C114.794 142.963 114.794 142.963 114.794 142.964C114.794 142.964 114.793 142.965 114.793 142.965C114.793 142.966 114.792 142.967 114.792 142.968C114.791 142.97 114.789 142.972 114.788 142.975C114.785 142.981 114.782 142.988 114.777 142.997C114.769 143.014 114.757 143.037 114.742 143.065C114.713 143.122 114.672 143.199 114.62 143.295C114.516 143.485 114.366 143.749 114.174 144.059C113.795 144.671 113.232 145.495 112.517 146.287C111.228 147.715 108.71 149.815 105.573 148.686L106.251 146.804Z" fill="black"/>
<path d="M89.7944 141.192C89.3054 140.202 88.1062 139.795 87.1157 140.284C86.1252 140.773 85.7187 141.972 86.2076 142.963L88.001 142.077L89.7944 141.192ZM100.001 136L98.0021 135.932C97.9416 137.715 97.596 139.836 96.8785 141.609C96.1447 143.423 95.172 144.527 94.0733 144.922L94.751 146.804L95.4286 148.686C98.0799 147.731 99.666 145.384 100.587 143.109C101.523 140.794 101.928 138.187 102 136.068L100.001 136ZM94.751 146.804L94.0733 144.922C93.4597 145.143 92.6033 144.88 91.4545 143.607C90.951 143.049 90.5292 142.438 90.2286 141.953C90.0804 141.714 89.9668 141.513 89.8923 141.377C89.8552 141.309 89.828 141.257 89.8114 141.225C89.8032 141.209 89.7976 141.198 89.7947 141.193C89.7932 141.19 89.7925 141.188 89.7924 141.188C89.7924 141.188 89.7926 141.188 89.7929 141.189C89.793 141.189 89.7932 141.19 89.7935 141.19C89.7936 141.191 89.7938 141.191 89.7939 141.191C89.7941 141.192 89.7944 141.192 88.001 142.077C86.2076 142.963 86.2078 142.963 86.2081 142.964C86.2082 142.964 86.2085 142.965 86.2087 142.965C86.2092 142.966 86.2096 142.967 86.2102 142.968C86.2112 142.97 86.2125 142.972 86.2139 142.975C86.2167 142.981 86.2204 142.988 86.2247 142.997C86.2334 143.014 86.2451 143.037 86.2597 143.065C86.2889 143.122 86.3299 143.199 86.3821 143.295C86.4863 143.485 86.6364 143.749 86.8281 144.059C87.2071 144.671 87.7697 145.495 88.4849 146.287C89.7736 147.715 92.2923 149.815 95.4286 148.686L94.751 146.804Z" fill="black"/>
<path d="M100.487 138.5C101.07 138.5 101.813 138.238 102.577 137.773C103.332 137.315 104.057 136.689 104.6 136.036C105.153 135.369 105.464 134.737 105.498 134.263C105.514 134.04 105.468 133.869 105.374 133.733C105.279 133.595 105.102 133.447 104.774 133.331C101.679 132.232 99.2262 132.216 96.2061 133.329C95.8888 133.446 95.7169 133.594 95.624 133.732C95.5325 133.869 95.4878 134.043 95.5049 134.269C95.5411 134.746 95.8518 135.38 96.4014 136.045C96.9397 136.697 97.6588 137.319 98.4082 137.776C99.1669 138.239 99.9048 138.5 100.487 138.5Z" fill="black" stroke="black"/>
</g>
<circle cx="64.8324" cy="141.5" r="1.83333" fill="#552E28" fill-opacity="0.64"/>
<circle cx="72.1654" cy="137.833" r="1.83333" fill="#552E28" fill-opacity="0.64"/>
<circle cx="72.1654" cy="145.166" r="1.83333" fill="#552E28" fill-opacity="0.64"/>
<circle cx="1.83333" cy="1.83333" r="1.83333" transform="matrix(-1 0 0 1 139.999 137.667)" fill="#552E28" fill-opacity="0.64"/>
<circle cx="1.83333" cy="1.83333" r="1.83333" transform="matrix(-1 0 0 1 132.666 134)" fill="#552E28" fill-opacity="0.64"/>
<circle cx="1.83333" cy="1.83333" r="1.83333" transform="matrix(-1 0 0 1 132.666 141.333)" fill="#552E28" fill-opacity="0.64"/>
<defs>
<filter id="filter0_n_77_162069" x="37.0967" y="40.8525" width="50.8262" height="48.7471" filterUnits="userSpaceOnUse" color-interpolation-filters="sRGB">
<feFlood flood-opacity="0" result="BackgroundImageFix"/>
<feBlend mode="normal" in="SourceGraphic" in2="BackgroundImageFix" result="shape"/>
<feTurbulence type="fractalNoise" baseFrequency="2 2" stitchTiles="stitch" numOctaves="3" result="noise" seed="7989" />
<feColorMatrix in="noise" type="luminanceToAlpha" result="alphaNoise" />
<feComponentTransfer in="alphaNoise" result="coloredNoise1">
<feFuncA type="discrete" tableValues="1 1 1 1 1 1 1 1 1 1 1 1 1 1 1 1 1 1 1 1 1 1 1 1 1 1 1 1 1 1 1 1 1 1 1 1 1 1 1 1 1 1 1 1 1 1 1 1 1 1 1 0 0 0 0 0 0 0 0 0 0 0 0 0 0 0 0 0 0 0 0 0 0 0 0 0 0 0 0 0 0 0 0 0 0 0 0 0 0 0 0 0 0 0 0 0 0 0 0 0 "/>
</feComponentTransfer>
<feComposite operator="in" in2="shape" in="coloredNoise1" result="noise1Clipped" />
<feFlood flood-color="rgba(102, 62, 55, 0.5)" result="color1Flood" />
<feComposite operator="in" in2="noise1Clipped" in="color1Flood" result="color1" />
<feMerge result="effect1_noise_77_162069">
<feMergeNode in="shape" />
<feMergeNode in="color1" />
</feMerge>
</filter>
<filter id="filter1_n_77_162069" x="50.2373" y="55.0371" width="26.21" height="25.1592" filterUnits="userSpaceOnUse" color-interpolation-filters="sRGB">
<feFlood flood-opacity="0" result="BackgroundImageFix"/>
<feBlend mode="normal" in="SourceGraphic" in2="BackgroundImageFix" result="shape"/>
<feTurbulence type="fractalNoise" baseFrequency="2 2" stitchTiles="stitch" numOctaves="3" result="noise" seed="9811" />
<feColorMatrix in="noise" type="luminanceToAlpha" result="alphaNoise" />
<feComponentTransfer in="alphaNoise" result="coloredNoise1">
<feFuncA type="discrete" tableValues="1 1 1 1 1 1 1 1 1 1 1 1 1 1 1 1 1 1 1 1 1 1 1 1 1 1 1 1 1 1 1 1 1 1 1 1 1 1 1 1 1 1 1 1 1 1 1 1 1 1 1 0 0 0 0 0 0 0 0 0 0 0 0 0 0 0 0 0 0 0 0 0 0 0 0 0 0 0 0 0 0 0 0 0 0 0 0 0 0 0 0 0 0 0 0 0 0 0 0 0 "/>
</feComponentTransfer>
<feComposite operator="in" in2="shape" in="coloredNoise1" result="noise1Clipped" />
<feFlood flood-color="rgba(252, 236, 201, 0.25)" result="color1Flood" />
<feComposite operator="in" in2="noise1Clipped" in="color1Flood" result="color1" />
<feMerge result="effect1_noise_77_162069">
<feMergeNode in="shape" />
<feMergeNode in="color1" />
</feMerge>
</filter>
<filter id="filter2_n_77_162069" x="112.692" y="41.5986" width="50.8262" height="48.7471" filterUnits="userSpaceOnUse" color-interpolation-filters="sRGB">
<feFlood flood-opacity="0" result="BackgroundImageFix"/>
<feBlend mode="normal" in="SourceGraphic" in2="BackgroundImageFix" result="shape"/>
<feTurbulence type="fractalNoise" baseFrequency="2 2" stitchTiles="stitch" numOctaves="3" result="noise" seed="7989" />
<feColorMatrix in="noise" type="luminanceToAlpha" result="alphaNoise" />
<feComponentTransfer in="alphaNoise" result="coloredNoise1">
<feFuncA type="discrete" tableValues="1 1 1 1 1 1 1 1 1 1 1 1 1 1 1 1 1 1 1 1 1 1 1 1 1 1 1 1 1 1 1 1 1 1 1 1 1 1 1 1 1 1 1 1 1 1 1 1 1 1 1 0 0 0 0 0 0 0 0 0 0 0 0 0 0 0 0 0 0 0 0 0 0 0 0 0 0 0 0 0 0 0 0 0 0 0 0 0 0 0 0 0 0 0 0 0 0 0 0 0 "/>
</feComponentTransfer>
<feComposite operator="in" in2="shape" in="coloredNoise1" result="noise1Clipped" />
<feFlood flood-color="rgba(102, 62, 55, 0.5)" result="color1Flood" />
<feComposite operator="in" in2="noise1Clipped" in="color1Flood" result="color1" />
<feMerge result="effect1_noise_77_162069">
<feMergeNode in="shape" />
<feMergeNode in="color1" />
</feMerge>
</filter>
<filter id="filter3_n_77_162069" x="125.672" y="55.0371" width="26.21" height="25.1592" filterUnits="userSpaceOnUse" color-interpolation-filters="sRGB">
<feFlood flood-opacity="0" result="BackgroundImageFix"/>
<feBlend mode="normal" in="SourceGraphic" in2="BackgroundImageFix" result="shape"/>
<feTurbulence type="fractalNoise" baseFrequency="2 2" stitchTiles="stitch" numOctaves="3" result="noise" seed="9811" />
<feColorMatrix in="noise" type="luminanceToAlpha" result="alphaNoise" />
<feComponentTransfer in="alphaNoise" result="coloredNoise1">
<feFuncA type="discrete" tableValues="1 1 1 1 1 1 1 1 1 1 1 1 1 1 1 1 1 1 1 1 1 1 1 1 1 1 1 1 1 1 1 1 1 1 1 1 1 1 1 1 1 1 1 1 1 1 1 1 1 1 1 0 0 0 0 0 0 0 0 0 0 0 0 0 0 0 0 0 0 0 0 0 0 0 0 0 0 0 0 0 0 0 0 0 0 0 0 0 0 0 0 0 0 0 0 0 0 0 0 0 "/>
</feComponentTransfer>
<feComposite operator="in" in2="shape" in="coloredNoise1" result="noise1Clipped" />
<feFlood flood-color="rgba(252, 236, 201, 0.25)" result="color1Flood" />
<feComposite operator="in" in2="noise1Clipped" in="color1Flood" result="color1" />
<feMerge result="effect1_noise_77_162069">
<feMergeNode in="shape" />
<feMergeNode in="color1" />
</feMerge>
</filter>
<filter id="filter4_n_77_162069" x="35.001" y="50" width="129" height="118" filterUnits="userSpaceOnUse" color-interpolation-filters="sRGB">
<feFlood flood-opacity="0" result="BackgroundImageFix"/>
<feBlend mode="normal" in="SourceGraphic" in2="BackgroundImageFix" result="shape"/>
<feTurbulence type="fractalNoise" baseFrequency="2 2" stitchTiles="stitch" numOctaves="3" result="noise" seed="6166" />
<feColorMatrix in="noise" type="luminanceToAlpha" result="alphaNoise" />
<feComponentTransfer in="alphaNoise" result="coloredNoise1">
<feFuncA type="discrete" tableValues="1 1 1 1 1 1 1 1 1 1 1 1 1 1 1 1 1 1 1 1 1 1 1 1 1 1 1 1 1 1 1 1 1 1 1 1 1 1 1 1 1 1 1 1 1 1 1 1 1 1 1 0 0 0 0 0 0 0 0 0 0 0 0 0 0 0 0 0 0 0 0 0 0 0 0 0 0 0 0 0 0 0 0 0 0 0 0 0 0 0 0 0 0 0 0 0 0 0 0 0 "/>
</feComponentTransfer>
<feComposite operator="in" in2="shape" in="coloredNoise1" result="noise1Clipped" />
<feFlood flood-color="rgba(102, 62, 55, 0.25)" result="color1Flood" />
<feComposite operator="in" in2="noise1Clipped" in="color1Flood" result="color1" />
<feMerge result="effect1_noise_77_162069">
<feMergeNode in="shape" />
<feMergeNode in="color1" />
</feMerge>
</filter>
<filter id="filter5_n_77_162069" x="76.001" y="118" width="49" height="39" filterUnits="userSpaceOnUse" color-interpolation-filters="sRGB">
<feFlood flood-opacity="0" result="BackgroundImageFix"/>
<feBlend mode="normal" in="SourceGraphic" in2="BackgroundImageFix" result="shape"/>
<feTurbulence type="fractalNoise" baseFrequency="2 2" stitchTiles="stitch" numOctaves="3" result="noise" seed="6214" />
<feColorMatrix in="noise" type="luminanceToAlpha" result="alphaNoise" />
<feComponentTransfer in="alphaNoise" result="coloredNoise1">
<feFuncA type="discrete" tableValues="1 1 1 1 1 1 1 1 1 1 1 1 1 1 1 1 1 1 1 1 1 1 1 1 1 1 1 1 1 1 1 1 1 1 1 1 1 1 1 1 1 1 1 1 1 1 1 1 1 1 1 0 0 0 0 0 0 0 0 0 0 0 0 0 0 0 0 0 0 0 0 0 0 0 0 0 0 0 0 0 0 0 0 0 0 0 0 0 0 0 0 0 0 0 0 0 0 0 0 0 "/>
</feComponentTransfer>
<feComposite operator="in" in2="shape" in="coloredNoise1" result="noise1Clipped" />
<feFlood flood-color="rgba(216, 149, 100, 0.25)" result="color1Flood" />
<feComposite operator="in" in2="noise1Clipped" in="color1Flood" result="color1" />
<feMerge result="effect1_noise_77_162069">
<feMergeNode in="shape" />
<feMergeNode in="color1" />
</feMerge>
</filter>
<filter id="filter6_n_77_162069" x="76.001" y="127" width="49" height="30" filterUnits="userSpaceOnUse" color-interpolation-filters="sRGB">
<feFlood flood-opacity="0" result="BackgroundImageFix"/>
<feBlend mode="normal" in="SourceGraphic" in2="BackgroundImageFix" result="shape"/>
<feTurbulence type="fractalNoise" baseFrequency="2 2" stitchTiles="stitch" numOctaves="3" result="noise" seed="1762" />
<feColorMatrix in="noise" type="luminanceToAlpha" result="alphaNoise" />
<feComponentTransfer in="alphaNoise" result="coloredNoise1">
<feFuncA type="discrete" tableValues="1 1 1 1 1 1 1 1 1 1 1 1 1 1 1 1 1 1 1 1 1 1 1 1 1 1 1 1 1 1 1 1 1 1 1 1 1 1 1 1 1 1 1 1 1 1 1 1 1 1 1 0 0 0 0 0 0 0 0 0 0 0 0 0 0 0 0 0 0 0 0 0 0 0 0 0 0 0 0 0 0 0 0 0 0 0 0 0 0 0 0 0 0 0 0 0 0 0 0 0 "/>
</feComponentTransfer>
<feComposite operator="in" in2="shape" in="coloredNoise1" result="noise1Clipped" />
<feFlood flood-color="rgba(116, 68, 69, 0.2)" result="color1Flood" />
<feComposite operator="in" in2="noise1Clipped" in="color1Flood" result="color1" />
<feMerge result="effect1_noise_77_162069">
<feMergeNode in="shape" />
<feMergeNode in="color1" />
</feMerge>
</filter>
<linearGradient id="paint0_linear_77_162069" x1="56.519" y1="56.6499" x2="68.5997" y2="77.5743" gradientUnits="userSpaceOnUse">
<stop offset="0.524038" stop-color="#E8A96F"/>
<stop offset="1" stop-color="#AB6427"/>
</linearGradient>
<linearGradient id="paint1_linear_77_162069" x1="145.6" y1="56.6499" x2="133.519" y2="77.5743" gradientUnits="userSpaceOnUse">
<stop offset="0.524038" stop-color="#E8A96F"/>
<stop offset="1" stop-color="#AB6427"/>
</linearGradient>
</defs>
</svg>
