<svg width="25" height="22" viewBox="0 0 25 22" fill="none" xmlns="http://www.w3.org/2000/svg">
<path d="M12.5 4.75C12.5 4.75 12.5 4.75 11.5289 3.5C10.4044 2.05 8.74333 1 6.75 1C3.56833 1 1 3.5125 1 6.625C1 7.7875 1.35778 8.8625 1.97111 9.75C3.00611 11.2625 12.5 21 12.5 21M12.5 4.75C12.5 4.75 12.5 4.75 13.4711 3.5C14.5956 2.05 16.2567 1 18.25 1C21.4317 1 24 3.5125 24 6.625C24 7.7875 23.6422 8.8625 23.0289 9.75C21.9939 11.2625 12.5 21 12.5 21" stroke="black" stroke-width="2" stroke-linecap="round" stroke-linejoin="round"/>
</svg>
