<svg width="507" height="329" viewBox="0 0 507 329" fill="none" xmlns="http://www.w3.org/2000/svg">
<path d="M96.1607 74.6279C109.72 62.1295 129.112 58.222 146.454 64.4934L519.961 199.566C579.598 221.133 604.356 292.052 571.098 346.049L551.804 377.375C519.915 429.149 449.583 440.715 402.792 401.88L98.0918 148.983C75.0843 129.887 74.1754 94.8923 96.1607 74.6279Z" fill="white" fill-opacity="0.8"/>
<path d="M103.366 214.929C117.27 205.062 136.158 206.167 148.816 217.587L305.765 359.178C345.015 394.587 333.128 458.945 283.819 477.998C250.956 490.696 213.753 477.346 196.461 446.65L92.717 262.481C83.5691 246.241 88.1659 225.715 103.366 214.929Z" fill="white" fill-opacity="0.8"/>
<g filter="url(#filter0_in_3876_159570)">
<g filter="url(#filter1_i_3876_159570)">
<path d="M187.49 262.961C166.948 223.764 202.989 180.447 219.469 166.06L295.427 170.584C312.988 161.454 335.916 149.758 337.815 147.715C340.188 145.161 362.499 126.481 384.95 119.737C405.568 113.544 413.886 144.532 403.878 159.605C398.246 168.086 373.092 196.556 359.398 208.9C368.719 266.686 351.849 280.33 350.97 288.652L341.809 375.34C345.305 361.485 341.515 378.114 341.515 378.114L341.809 375.34C339.396 384.901 278.041 374.91 278.7 368.671L282.658 331.222C277.439 329.735 266.942 327.317 266.707 329.536C266.414 332.31 251.58 366.506 246.613 373.694C238.334 385.676 182.67 355.014 184.536 343.993C186.876 330.171 200.08 298.652 207.303 281.183C198.426 280.245 190.395 268.644 187.49 262.961Z" fill="url(#paint0_linear_3876_159570)"/>
</g>
<g filter="url(#filter2_i_3876_159570)">
<circle cx="211.513" cy="75.4584" r="26.4998" transform="rotate(6.03276 211.513 75.4584)" fill="url(#paint1_linear_3876_159570)"/>
<circle cx="331.674" cy="79.7435" r="26.4998" transform="rotate(6.03276 331.674 79.7435)" fill="url(#paint2_linear_3876_159570)"/>
<circle cx="331.674" cy="79.7435" r="26.4998" transform="rotate(6.03276 331.674 79.7435)" fill="url(#paint3_linear_3876_159570)"/>
<ellipse cx="273.145" cy="122.647" rx="76.0125" ry="66.9468" transform="rotate(6.03276 273.145 122.647)" fill="url(#paint4_linear_3876_159570)"/>
<ellipse cx="273.145" cy="122.647" rx="76.0125" ry="66.9468" transform="rotate(6.03276 273.145 122.647)" fill="url(#paint5_linear_3876_159570)"/>
</g>
<g filter="url(#filter3_ii_3876_159570)">
<path d="M440.38 168.597C433.606 167.702 427.16 165.141 421.62 161.143C416.079 157.145 411.616 151.836 408.631 145.69C405.646 139.544 404.232 132.754 404.515 125.927C404.798 119.101 406.77 112.451 410.253 106.573C410.032 106.671 409.804 106.752 409.571 106.816C407.93 107.294 406.204 107.042 402.753 106.538L399.621 106.083C387.489 104.319 381.423 103.434 378.453 107.192C375.488 110.947 377.579 116.86 381.766 128.682L382.85 131.739C384.038 135.096 384.636 136.779 384.521 138.526C384.405 140.278 383.592 141.903 381.97 145.148L380.489 148.104C374.776 159.536 371.918 165.248 374.38 169.22C376.841 173.192 382.99 172.802 395.285 172.004L398.471 171.803C401.965 171.574 403.71 171.463 405.285 172.069C406.859 172.674 408.081 173.925 410.525 176.438L412.747 178.719C421.346 187.545 425.647 191.959 430.13 190.662C434.625 189.36 436.33 183.205 439.748 170.891L440.38 168.597Z" fill="url(#paint6_linear_3876_159570)"/>
<path opacity="0.5" d="M417.867 100.794L415.354 102.889C412.594 105.192 411.213 106.343 409.572 106.821C409.805 106.755 410.033 106.674 410.253 106.578C406.769 112.456 404.797 119.106 404.514 125.933C404.231 132.761 405.646 139.551 408.632 145.697C411.617 151.844 416.081 157.153 421.622 161.151C427.164 165.149 433.61 167.709 440.384 168.604L440.625 167.707C441.599 164.212 442.085 162.462 443.172 161.083C444.257 159.71 445.824 158.859 448.96 157.164L451.813 155.621C462.84 149.655 468.353 146.666 468.666 141.886C468.982 137.107 463.889 133.696 453.698 126.882L451.064 125.119C448.169 123.183 446.719 122.214 445.815 120.758C444.917 119.303 444.664 117.523 444.157 113.965L443.7 110.727C441.915 98.2091 441.025 91.9511 436.729 90.2991C432.432 88.6471 427.579 92.6966 417.867 100.794Z" fill="url(#paint7_linear_3876_159570)"/>
</g>
<g filter="url(#filter4_ii_3876_159570)">
<path d="M283.596 208.265C293.346 203.095 298.22 200.509 301.592 202.692C304.964 204.875 304.6 210.38 303.874 221.392L303.686 224.242C303.479 227.373 303.375 228.938 303.881 230.342C304.387 231.746 305.451 232.834 307.58 235.011L309.513 236.99C316.989 244.645 320.725 248.468 319.599 252.495C318.472 256.515 313.226 258.077 302.733 261.194L300.018 261.999C297.039 262.885 295.545 263.328 294.371 264.306C293.194 265.288 292.465 266.696 291.008 269.508L289.682 272.071C284.55 281.974 281.987 286.924 277.919 287.227C273.852 287.53 270.972 282.987 265.218 273.905L263.723 271.553C262.091 268.97 261.272 267.682 260.036 266.882C258.8 266.082 257.29 265.862 254.265 265.43L251.511 265.031C240.866 263.497 235.541 262.728 234.154 258.899C232.764 255.058 236.232 250.693 243.167 241.957L244.96 239.702C246.932 237.218 247.918 235.976 248.326 234.502C248.744 233.029 248.536 231.485 248.123 228.407L247.748 225.598C246.295 214.752 245.572 209.326 248.782 206.648C251.991 203.97 257.018 205.815 267.06 209.506L269.657 210.46C272.511 211.509 273.936 212.032 275.427 211.921C276.919 211.811 278.301 211.073 281.073 209.602L283.596 208.265Z" fill="url(#paint8_linear_3876_159570)"/>
</g>
<g filter="url(#filter5_i_3876_159570)">
<path d="M281.075 237.59C276.939 213.03 238.959 220.283 220.487 226.98C211.513 243.328 196.266 277.012 207.068 280.959C220.572 285.892 286.246 268.29 281.075 237.59Z" fill="url(#paint9_linear_3876_159570)"/>
</g>
<g filter="url(#filter6_g_3876_159570)">
<ellipse cx="274.346" cy="131.185" rx="20.9209" ry="18.1314" transform="rotate(6.03276 274.346 131.185)" fill="url(#paint10_linear_3876_159570)"/>
</g>
<circle cx="244.237" cy="117.487" r="6.27626" transform="rotate(6.03276 244.237 117.487)" fill="#343434"/>
<ellipse cx="275.298" cy="122.172" rx="9.76307" ry="6.27626" transform="rotate(6.03276 275.298 122.172)" fill="#343434"/>
<circle cx="303.077" cy="118.093" r="6.27626" transform="rotate(6.03276 303.077 118.093)" fill="#343434"/>
<path d="M224.801 69.149C216.623 72.2117 207.663 85.3365 204.205 91.516C199.206 87.9489 188.581 78.7843 197.755 66.29C206.93 53.7956 220.582 62.6256 224.801 69.149Z" fill="url(#paint11_linear_3876_159570)"/>
<path d="M320.117 71.0235C328.279 74.1267 337.175 87.2956 340.602 93.4922C345.619 89.9499 356.289 80.838 347.177 68.2984C338.064 55.7588 324.368 64.5211 320.117 71.0235Z" fill="url(#paint12_linear_3876_159570)"/>
<path d="M265.591 72.8421C265.58 72.8515 265.368 73.6962 265.035 75.4623C264.679 77.3498 265.016 78.9504 265.395 79.9341C265.684 80.6849 266.524 81.4059 267.74 82.2575C269.013 83.1493 270.756 83.2638 272.486 83.3142C274.345 83.3684 275.88 82.5959 276.991 81.8942C278.113 81.1864 278.827 80.1476 279.335 79.1491C279.875 78.0883 279.919 76.7945 279.954 75.5331C280.022 73.0775 279.08 71.6726 278.36 70.7927C278.089 70.4619 277.619 70.4834 277.226 70.4795C276.4 70.4712 275.651 71.685 275.274 72.5784C275.018 73.1861 275.164 74.1096 275.408 75.1136C275.689 76.2673 277.234 77.3333 279.057 78.4869C279.955 79.0555 280.906 79.4059 281.876 79.7037C282.845 80.0015 283.831 80.189 284.842 80.3124C286.852 80.5578 288.783 80.1364 290.454 79.2063C292.056 78.3152 292.791 76.897 293.196 75.8296C293.489 74.7331 293.649 73.354 293.656 72.0265C293.624 71.5096 293.518 71.3114 293.182 70.9217" stroke="#946345" stroke-width="2" stroke-linecap="round"/>
</g>
<defs>
<filter id="filter0_in_3876_159570" x="181.329" y="48.957" width="297.35" height="335.338" filterUnits="userSpaceOnUse" color-interpolation-filters="sRGB">
<feFlood flood-opacity="0" result="BackgroundImageFix"/>
<feBlend mode="normal" in="SourceGraphic" in2="BackgroundImageFix" result="shape"/>
<feColorMatrix in="SourceAlpha" type="matrix" values="0 0 0 0 0 0 0 0 0 0 0 0 0 0 0 0 0 0 127 0" result="hardAlpha"/>
<feOffset dx="10" dy="5"/>
<feGaussianBlur stdDeviation="7.85"/>
<feComposite in2="hardAlpha" operator="arithmetic" k2="-1" k3="1"/>
<feColorMatrix type="matrix" values="0 0 0 0 1 0 0 0 0 0.9218 0 0 0 0 0.938743 0 0 0 0.76 0"/>
<feBlend mode="soft-light" in2="shape" result="effect1_innerShadow_3876_159570"/>
<feTurbulence type="fractalNoise" baseFrequency="2 2" stitchTiles="stitch" numOctaves="3" result="noise" seed="6891" />
<feColorMatrix in="noise" type="luminanceToAlpha" result="alphaNoise" />
<feComponentTransfer in="alphaNoise" result="coloredNoise1">
<feFuncA type="discrete" tableValues="1 1 1 1 1 1 1 1 1 1 1 1 1 1 1 1 1 1 1 1 1 1 1 1 1 1 1 1 1 1 1 1 1 1 1 1 1 1 1 1 1 1 1 1 1 1 1 1 1 1 1 0 0 0 0 0 0 0 0 0 0 0 0 0 0 0 0 0 0 0 0 0 0 0 0 0 0 0 0 0 0 0 0 0 0 0 0 0 0 0 0 0 0 0 0 0 0 0 0 0 "/>
</feComponentTransfer>
<feComposite operator="in" in2="effect1_innerShadow_3876_159570" in="coloredNoise1" result="noise1Clipped" />
<feFlood flood-color="rgba(255, 255, 255, 0.1)" result="color1Flood" />
<feComposite operator="in" in2="noise1Clipped" in="color1Flood" result="color1" />
<feMerge result="effect2_noise_3876_159570">
<feMergeNode in="effect1_innerShadow_3876_159570" />
<feMergeNode in="color1" />
</feMerge>
</filter>
<filter id="filter1_i_3876_159570" x="179.329" y="114.93" width="228.779" height="264.365" filterUnits="userSpaceOnUse" color-interpolation-filters="sRGB">
<feFlood flood-opacity="0" result="BackgroundImageFix"/>
<feBlend mode="normal" in="SourceGraphic" in2="BackgroundImageFix" result="shape"/>
<feColorMatrix in="SourceAlpha" type="matrix" values="0 0 0 0 0 0 0 0 0 0 0 0 0 0 0 0 0 0 127 0" result="hardAlpha"/>
<feOffset dx="-2" dy="-4"/>
<feGaussianBlur stdDeviation="6.2"/>
<feComposite in2="hardAlpha" operator="arithmetic" k2="-1" k3="1"/>
<feColorMatrix type="matrix" values="0 0 0 0 0.296725 0 0 0 0 0.181987 0 0 0 0 0.100032 0 0 0 0.25 0"/>
<feBlend mode="multiply" in2="shape" result="effect1_innerShadow_3876_159570"/>
</filter>
<filter id="filter2_i_3876_159570" x="183.011" y="44.957" width="175.165" height="144.75" filterUnits="userSpaceOnUse" color-interpolation-filters="sRGB">
<feFlood flood-opacity="0" result="BackgroundImageFix"/>
<feBlend mode="normal" in="SourceGraphic" in2="BackgroundImageFix" result="shape"/>
<feColorMatrix in="SourceAlpha" type="matrix" values="0 0 0 0 0 0 0 0 0 0 0 0 0 0 0 0 0 0 127 0" result="hardAlpha"/>
<feOffset dx="-2" dy="-4"/>
<feGaussianBlur stdDeviation="6.2"/>
<feComposite in2="hardAlpha" operator="arithmetic" k2="-1" k3="1"/>
<feColorMatrix type="matrix" values="0 0 0 0 0.296725 0 0 0 0 0.181987 0 0 0 0 0.100032 0 0 0 0.25 0"/>
<feBlend mode="multiply" in2="shape" result="effect1_innerShadow_3876_159570"/>
</filter>
<filter id="filter3_ii_3876_159570" x="371.492" y="87.9355" width="97.187" height="102.949" filterUnits="userSpaceOnUse" color-interpolation-filters="sRGB">
<feFlood flood-opacity="0" result="BackgroundImageFix"/>
<feBlend mode="normal" in="SourceGraphic" in2="BackgroundImageFix" result="shape"/>
<feColorMatrix in="SourceAlpha" type="matrix" values="0 0 0 0 0 0 0 0 0 0 0 0 0 0 0 0 0 0 127 0" result="hardAlpha"/>
<feOffset dx="-2" dy="-2"/>
<feGaussianBlur stdDeviation="2"/>
<feComposite in2="hardAlpha" operator="arithmetic" k2="-1" k3="1"/>
<feColorMatrix type="matrix" values="0 0 0 0 0.717623 0 0 0 0 0.112183 0 0 0 0 0.344268 0 0 0 0.25 0"/>
<feBlend mode="multiply" in2="shape" result="effect1_innerShadow_3876_159570"/>
<feColorMatrix in="SourceAlpha" type="matrix" values="0 0 0 0 0 0 0 0 0 0 0 0 0 0 0 0 0 0 127 0" result="hardAlpha"/>
<feOffset/>
<feGaussianBlur stdDeviation="2"/>
<feComposite in2="hardAlpha" operator="arithmetic" k2="-1" k3="1"/>
<feColorMatrix type="matrix" values="0 0 0 0 0 0 0 0 0 0 0 0 0 0 0 0 0 0 0.25 0"/>
<feBlend mode="multiply" in2="effect1_innerShadow_3876_159570" result="effect2_innerShadow_3876_159570"/>
</filter>
<filter id="filter4_ii_3876_159570" x="231.852" y="199.914" width="87.9448" height="87.3281" filterUnits="userSpaceOnUse" color-interpolation-filters="sRGB">
<feFlood flood-opacity="0" result="BackgroundImageFix"/>
<feBlend mode="normal" in="SourceGraphic" in2="BackgroundImageFix" result="shape"/>
<feColorMatrix in="SourceAlpha" type="matrix" values="0 0 0 0 0 0 0 0 0 0 0 0 0 0 0 0 0 0 127 0" result="hardAlpha"/>
<feOffset dx="-2" dy="-2"/>
<feGaussianBlur stdDeviation="2"/>
<feComposite in2="hardAlpha" operator="arithmetic" k2="-1" k3="1"/>
<feColorMatrix type="matrix" values="0 0 0 0 0.717623 0 0 0 0 0.112183 0 0 0 0 0.344268 0 0 0 0.25 0"/>
<feBlend mode="multiply" in2="shape" result="effect1_innerShadow_3876_159570"/>
<feColorMatrix in="SourceAlpha" type="matrix" values="0 0 0 0 0 0 0 0 0 0 0 0 0 0 0 0 0 0 127 0" result="hardAlpha"/>
<feOffset/>
<feGaussianBlur stdDeviation="2"/>
<feComposite in2="hardAlpha" operator="arithmetic" k2="-1" k3="1"/>
<feColorMatrix type="matrix" values="0 0 0 0 0 0 0 0 0 0 0 0 0 0 0 0 0 0 0.25 0"/>
<feBlend mode="multiply" in2="effect1_innerShadow_3876_159570" result="effect2_innerShadow_3876_159570"/>
</filter>
<filter id="filter5_i_3876_159570" x="201.344" y="216.529" width="80.0205" height="65.252" filterUnits="userSpaceOnUse" color-interpolation-filters="sRGB">
<feFlood flood-opacity="0" result="BackgroundImageFix"/>
<feBlend mode="normal" in="SourceGraphic" in2="BackgroundImageFix" result="shape"/>
<feColorMatrix in="SourceAlpha" type="matrix" values="0 0 0 0 0 0 0 0 0 0 0 0 0 0 0 0 0 0 127 0" result="hardAlpha"/>
<feOffset dx="-2" dy="-4"/>
<feGaussianBlur stdDeviation="6.2"/>
<feComposite in2="hardAlpha" operator="arithmetic" k2="-1" k3="1"/>
<feColorMatrix type="matrix" values="0 0 0 0 0.296725 0 0 0 0 0.181987 0 0 0 0 0.100032 0 0 0 0.25 0"/>
<feBlend mode="multiply" in2="shape" result="effect1_innerShadow_3876_159570"/>
</filter>
<filter id="filter6_g_3876_159570" x="249.452" y="109.018" width="49.7871" height="44.334" filterUnits="userSpaceOnUse" color-interpolation-filters="sRGB">
<feFlood flood-opacity="0" result="BackgroundImageFix"/>
<feBlend mode="normal" in="SourceGraphic" in2="BackgroundImageFix" result="shape"/>
<feTurbulence type="fractalNoise" baseFrequency="0.99900001287460327 0.99900001287460327" numOctaves="3" seed="3106" />
<feDisplacementMap in="shape" scale="8" xChannelSelector="R" yChannelSelector="G" result="displacedImage" width="100%" height="100%" />
<feMerge result="effect1_texture_3876_159570">
<feMergeNode in="displacedImage"/>
</feMerge>
</filter>
<linearGradient id="paint0_linear_3876_159570" x1="296.964" y1="54.9707" x2="273.872" y2="380.183" gradientUnits="userSpaceOnUse">
<stop stop-color="#CC9467"/>
<stop offset="0.930068" stop-color="#6F4C3D"/>
</linearGradient>
<linearGradient id="paint1_linear_3876_159570" x1="211.513" y1="48.9586" x2="220.579" y2="85.2215" gradientUnits="userSpaceOnUse">
<stop stop-color="#AC8270"/>
<stop offset="1" stop-color="#815027"/>
</linearGradient>
<linearGradient id="paint2_linear_3876_159570" x1="331.674" y1="53.2438" x2="331.674" y2="106.243" gradientUnits="userSpaceOnUse">
<stop stop-color="#7B5B4D"/>
<stop offset="1" stop-color="#815027"/>
</linearGradient>
<linearGradient id="paint3_linear_3876_159570" x1="331.674" y1="53.2438" x2="331.674" y2="106.243" gradientUnits="userSpaceOnUse">
<stop stop-color="#AC8270"/>
<stop offset="0.722281" stop-color="#815027"/>
</linearGradient>
<linearGradient id="paint4_linear_3876_159570" x1="273.145" y1="55.7" x2="273.145" y2="189.594" gradientUnits="userSpaceOnUse">
<stop stop-color="#7B5B4D"/>
<stop offset="1" stop-color="#815027"/>
</linearGradient>
<linearGradient id="paint5_linear_3876_159570" x1="270.777" y1="5.71718" x2="272.603" y2="189.594" gradientUnits="userSpaceOnUse">
<stop stop-color="#CC9467"/>
<stop offset="1" stop-color="#6F4C3D"/>
</linearGradient>
<linearGradient id="paint6_linear_3876_159570" x1="420.439" y1="110.49" x2="394.413" y2="178.173" gradientUnits="userSpaceOnUse">
<stop stop-color="#FEF38C"/>
<stop offset="1" stop-color="#FFA1CD"/>
</linearGradient>
<linearGradient id="paint7_linear_3876_159570" x1="450.334" y1="95.5307" x2="424.163" y2="163.591" gradientUnits="userSpaceOnUse">
<stop stop-color="#FEF38C"/>
<stop offset="1" stop-color="#FFA1CD"/>
</linearGradient>
<linearGradient id="paint8_linear_3876_159570" x1="301.592" y1="202.692" x2="255.483" y2="273.915" gradientUnits="userSpaceOnUse">
<stop stop-color="#FEF38C"/>
<stop offset="1" stop-color="#FFA1CD"/>
</linearGradient>
<linearGradient id="paint9_linear_3876_159570" x1="239.366" y1="179.42" x2="239.174" y2="284.686" gradientUnits="userSpaceOnUse">
<stop stop-color="#CC9467"/>
<stop offset="1" stop-color="#6F4C3D"/>
</linearGradient>
<linearGradient id="paint10_linear_3876_159570" x1="272.254" y1="115.843" x2="270.652" y2="144.107" gradientUnits="userSpaceOnUse">
<stop stop-color="#E2B691"/>
<stop offset="1" stop-color="#B58160"/>
</linearGradient>
<linearGradient id="paint11_linear_3876_159570" x1="204.651" y1="55.5424" x2="218.128" y2="78.0157" gradientUnits="userSpaceOnUse">
<stop stop-color="#D0A98A"/>
<stop offset="1" stop-color="#8F5B3B"/>
</linearGradient>
<linearGradient id="paint12_linear_3876_159570" x1="340.334" y1="57.5168" x2="326.746" y2="79.9232" gradientUnits="userSpaceOnUse">
<stop stop-color="#D0A98A"/>
<stop offset="1" stop-color="#8F5B3B"/>
</linearGradient>
</defs>
</svg>
