<svg width="32" height="32" viewBox="0 0 32 32" fill="none" xmlns="http://www.w3.org/2000/svg">
<g filter="url(#filter0_g_2012_130449)">
<path d="M18.7572 4.60712C20.0555 3.27992 22.3043 4.28411 22.1826 6.13674L21.7555 12.6398C21.7173 13.2222 21.9354 13.7923 22.3527 14.2005L27.0114 18.7578C28.3385 20.0561 27.3344 22.3048 25.4817 22.1831L18.9787 21.7561C18.3962 21.7178 17.8261 21.936 17.418 22.3532L12.8607 27.0119C11.5624 28.3391 9.31366 27.3349 9.43532 25.4823L9.86237 18.9793C9.90062 18.3968 9.6825 17.8267 9.26524 17.4185L4.60657 12.8613C3.27937 11.563 4.28356 9.31421 6.13619 9.43587L12.6392 9.86292C13.2217 9.90117 13.7918 9.68305 14.2 9.26579L18.7572 4.60712Z" fill="#9DC663"/>
</g>
<defs>
<filter id="filter0_g_2012_130449" x="0" y="0" width="31.6172" height="31.6191" filterUnits="userSpaceOnUse" color-interpolation-filters="sRGB">
<feFlood flood-opacity="0" result="BackgroundImageFix"/>
<feBlend mode="normal" in="SourceGraphic" in2="BackgroundImageFix" result="shape"/>
<feTurbulence type="fractalNoise" baseFrequency="2 2" numOctaves="3" seed="8645" />
<feDisplacementMap in="shape" scale="8" xChannelSelector="R" yChannelSelector="G" result="displacedImage" width="100%" height="100%" />
<feMerge result="effect1_texture_2012_130449">
<feMergeNode in="displacedImage"/>
</feMerge>
</filter>
</defs>
</svg>
