<svg width="54" height="54" viewBox="0 0 54 54" fill="none" xmlns="http://www.w3.org/2000/svg">
<circle cx="27" cy="27" r="26.5" fill="#FFB464" stroke="#FA8507"/>
<path d="M22.4541 35.7305C23.9814 35.7305 25.3123 36.6239 25.9395 37.9428C26.064 38.2041 26.0795 38.5041 25.9827 38.7768C25.886 39.0495 25.6848 39.2726 25.4235 39.397C25.1623 39.5214 24.8623 39.537 24.5896 39.4402C24.3169 39.3434 24.0938 39.1423 23.9694 38.881C23.8346 38.5925 23.6205 38.3483 23.3523 38.1768C23.084 38.0053 22.7725 37.9136 22.4541 37.9123H17.1817C16.8924 37.9123 16.6149 37.7974 16.4103 37.5928C16.2058 37.3882 16.0908 37.1107 16.0908 36.8214C16.0908 36.5321 16.2058 36.2546 16.4103 36.05C16.6149 35.8454 16.8924 35.7305 17.1817 35.7305H22.4541ZM36.8181 35.7305C37.1074 35.7305 37.3849 35.8454 37.5895 36.05C37.7941 36.2546 37.909 36.5321 37.909 36.8214C37.909 37.1107 37.7941 37.3882 37.5895 37.5928C37.3849 37.7974 37.1074 37.9123 36.8181 37.9123H31.5457C30.9272 37.9123 30.3075 38.3017 30.0305 38.8821C29.906 39.1434 29.6829 39.3445 29.4102 39.4413C29.1375 39.538 28.8375 39.5225 28.5763 39.3981C28.315 39.2737 28.1139 39.0506 28.0171 38.7779C27.9203 38.5052 27.9359 38.2052 28.0603 37.9439C28.3764 37.2862 28.8705 36.7302 29.4866 36.3389C30.1026 35.9477 30.816 35.7369 31.5457 35.7305H36.8181Z" fill="#FA8507"/>
<path fill-rule="evenodd" clip-rule="evenodd" d="M23.6062 19.0065C24.259 19.0407 24.8976 19.21 25.4816 19.5037C26.0655 19.7974 26.5822 20.2091 26.9989 20.7127C27.4418 20.1773 27.9975 19.7462 28.6262 19.4501C29.2548 19.1541 29.9411 19.0004 30.636 19H37.9091C38.1984 19 38.4759 19.1149 38.6805 19.3195C38.8851 19.5241 39 19.8016 39 20.0909V33.1829C39 33.4722 38.8851 33.7497 38.6805 33.9543C38.4759 34.1589 38.1984 34.2738 37.9091 34.2738L30.636 34.2727C29.9182 34.2727 29.4524 34.4495 29.1393 34.6589C28.8342 34.8682 28.5896 35.1541 28.4302 35.488C28.2278 35.9024 28.1124 36.3539 28.0909 36.8145V36.8244L28.0855 36.9302C28.0584 37.1993 27.9324 37.4488 27.7319 37.6302C27.5313 37.8117 27.2705 37.9121 27 37.9121C26.7295 37.9121 26.4687 37.8117 26.2681 37.6302C26.0676 37.4488 25.9416 37.1993 25.9145 36.9302L25.9091 36.8189V36.8135L25.9047 36.7393C25.876 36.3032 25.763 35.8768 25.572 35.4836C25.4169 35.1502 25.176 34.8641 24.8738 34.6545C24.5684 34.4473 24.1124 34.2727 23.4087 34.2727H16.0909C15.8016 34.2727 15.5241 34.1578 15.3195 33.9532C15.1149 33.7486 15 33.4711 15 33.1818V20.0909C15 19.8016 15.1149 19.5241 15.3195 19.3195C15.5241 19.1149 15.8016 19 16.0909 19H23.364L23.6062 19.0065ZM25.9091 21.1818V34.6371H28.0909V21.1818H25.9091Z" fill="#FA8507"/>
</svg>
