<svg width="54" height="54" viewBox="0 0 54 54" fill="none" xmlns="http://www.w3.org/2000/svg">
<circle cx="27" cy="27" r="26.5" fill="#FFB464" stroke="#FA8507"/>
<path d="M25.2031 28H28.8018C30.1514 28.0001 31.2997 29.177 31.2998 30.6943V33.8887C31.2998 35.1215 30.8401 36.2985 30.0303 37.1611C29.2215 38.0226 28.1311 38.5 27.002 38.5C25.873 38.4999 24.7833 38.0225 23.9746 37.1611C23.1648 36.2985 22.7051 35.1215 22.7051 33.8887V30.6943C22.7051 29.177 23.8535 28.0001 25.2031 28ZM19.4473 29.3311C19.3548 29.7704 19.3057 30.2266 19.3057 30.6943V33.8887C19.3057 35.5276 19.7717 37.1241 20.6348 38.4736C20.3062 38.5094 19.9743 38.505 19.6455 38.459C19.0901 38.3812 18.5524 38.1877 18.0645 37.8877C17.5766 37.5877 17.1467 37.1871 16.8008 36.707C16.4547 36.2267 16.1998 35.6762 16.0518 35.0879L15.5869 33.2354C15.4119 32.5373 15.5046 31.7945 15.8418 31.1729C16.1786 30.552 16.7273 30.1083 17.3594 29.9277L19.4473 29.3311ZM36.6406 29.9277C37.2727 30.1083 37.8214 30.552 38.1582 31.1729C38.4954 31.7945 38.5881 32.5373 38.4131 33.2354L37.9482 35.0879C37.6491 36.2765 36.9209 37.2807 35.9355 37.8867C35.1525 38.3683 34.2554 38.5686 33.3711 38.4736C34.2092 37.1635 34.6992 35.5851 34.6992 33.8887V30.6943C34.6992 30.227 34.6488 29.7709 34.5566 29.3311L36.6406 29.9277ZM18.0068 20.333C18.6589 20.3331 19.2914 20.6092 19.7627 21.1113C20.2348 21.6144 20.5048 22.3032 20.5049 23.0273C20.5049 23.7517 20.235 24.4411 19.7627 24.9443C19.2914 25.4464 18.6589 25.7226 18.0068 25.7227C17.3548 25.7227 16.7223 25.4465 16.251 24.9443C15.7786 24.4411 15.5078 23.7518 15.5078 23.0273C15.5079 22.3031 15.7787 21.6145 16.251 21.1113C16.7223 20.6092 17.3547 20.333 18.0068 20.333ZM35.998 20.333C36.6501 20.333 37.2825 20.6092 37.7539 21.1113C38.2261 21.6145 38.497 22.3031 38.4971 23.0273C38.4971 23.7518 38.2263 24.4411 37.7539 24.9443C37.2825 25.4465 36.6501 25.7227 35.998 25.7227C35.346 25.7226 34.7135 25.4465 34.2422 24.9443C33.7699 24.4411 33.5 23.7517 33.5 23.0273C33.5001 22.3031 33.77 21.6144 34.2422 21.1113C34.7135 20.6092 35.346 20.333 35.998 20.333ZM27.002 16.5C27.483 16.5 27.9608 16.6009 28.4072 16.7979C28.8536 16.9949 29.2615 17.2849 29.6064 17.6523C29.9514 18.0199 30.2268 18.4582 30.415 18.9424C30.6032 19.4266 30.7002 19.9469 30.7002 20.4727C30.7001 21.5357 30.3035 22.5493 29.6064 23.292C28.9101 24.0338 27.9722 24.4443 27.002 24.4443C26.0319 24.4442 25.0946 24.0337 24.3984 23.292C23.7013 22.5493 23.3048 21.5357 23.3047 20.4727C23.3047 19.9469 23.4016 19.4266 23.5898 18.9424C23.7781 18.4582 24.0535 18.0199 24.3984 17.6523C24.7434 17.2849 25.1512 16.9949 25.5977 16.7979C26.0439 16.6009 26.521 16.5001 27.002 16.5Z" fill="#FA8507" stroke="#FA8507"/>
</svg>
