<svg width="54" height="54" viewBox="0 0 54 54" fill="none" xmlns="http://www.w3.org/2000/svg">
<circle cx="27" cy="27" r="26.5" fill="#FEF38C" stroke="#E7D52C"/>
<path fill-rule="evenodd" clip-rule="evenodd" d="M21.6667 20.3333C21.6667 18.9188 22.2286 17.5623 23.2288 16.5621C24.229 15.5619 25.5855 15 27 15C28.4145 15 29.771 15.5619 30.7712 16.5621C31.7714 17.5623 32.3333 18.9188 32.3333 20.3333C32.3333 21.7478 31.7714 23.1044 30.7712 24.1046C29.771 25.1048 28.4145 25.6667 27 25.6667C25.5855 25.6667 24.229 25.1048 23.2288 24.1046C22.2286 23.1044 21.6667 21.7478 21.6667 20.3333ZM21.6667 28.3333C19.8986 28.3333 18.2029 29.0357 16.9526 30.286C15.7024 31.5362 15 33.2319 15 35C15 36.0609 15.4214 37.0783 16.1716 37.8284C16.9217 38.5786 17.9391 39 19 39H35C36.0609 39 37.0783 38.5786 37.8284 37.8284C38.5786 37.0783 39 36.0609 39 35C39 33.2319 38.2976 31.5362 37.0474 30.286C35.7971 29.0357 34.1014 28.3333 32.3333 28.3333H21.6667Z" fill="#E7D52C"/>
</svg>
