<svg width="54" height="54" viewBox="0 0 54 54" fill="none" xmlns="http://www.w3.org/2000/svg">
<circle cx="27" cy="27" r="26.5" fill="#C4E1FC" stroke="#8ABEEF"/>
<path d="M27.002 15.0312C27.401 15.0312 27.7912 15.1468 28.127 15.3633L28.2676 15.4629C29.7922 16.6681 31.0256 18.2154 31.873 19.9854L31.8887 20.0176L31.9189 19.998C32.9312 19.3142 34.0432 18.8005 35.2119 18.4766L35.7158 18.3496C36.2311 18.2361 36.7693 18.3227 37.2256 18.5928C37.6821 18.8631 38.0242 19.2983 38.1846 19.8125C38.5913 21.078 38.9912 23.2134 38.459 25.9141L38.4512 25.9531L38.4912 25.9512C39.3589 25.9047 40.2282 25.9767 41.0762 26.165L41.4375 26.2529C41.6992 26.3238 41.9446 26.4473 42.1592 26.6162C42.3739 26.7852 42.5544 26.9964 42.6885 27.2373C42.8277 27.4845 42.9171 27.7579 42.9521 28.041C42.9871 28.3243 42.9664 28.6127 42.8916 28.8877C42.4411 30.5958 41.0565 33.8482 36.8604 36.4121C32.6901 38.9682 28.9971 38.9688 27.0088 38.9688C25.0204 38.9688 21.3336 38.9765 17.1367 36.4121C12.9409 33.8482 11.557 30.5957 11.1064 28.8877C11.0327 28.6123 11.0127 28.3242 11.0488 28.041C11.0759 27.8286 11.1342 27.6219 11.2207 27.4277L11.3164 27.2373C11.4505 26.9965 11.6301 26.7852 11.8447 26.6162C12.0058 26.4894 12.1843 26.388 12.374 26.3154L12.5664 26.2529C13.528 25.9998 14.5221 25.898 15.5137 25.9512L15.5537 25.9531L15.5459 25.9141C15.0217 23.2123 15.4205 21.0782 15.8193 19.8125C15.9797 19.2983 16.3218 18.8631 16.7783 18.5928C17.2348 18.3225 17.7736 18.236 18.2891 18.3496C19.6421 18.6577 20.9284 19.2167 22.085 19.998L22.1152 20.0176L22.1309 19.9854C22.9779 18.215 24.2113 16.6668 25.7363 15.4619L25.7373 15.4629C26.1023 15.183 26.5459 15.0313 27.002 15.0312ZM26.9834 17.1572C25.6953 18.1485 22.7041 21.083 22.7041 26.8867C22.7041 32.7629 25.7339 35.6746 26.9834 36.625L27.002 36.6396L27.0215 36.625C28.271 35.6745 31.3007 32.7628 31.3008 26.8896C31.3008 21.086 28.3096 18.1513 27.0215 17.1572L27.002 17.1426L26.9834 17.1572ZM15.7607 28.0879C14.8784 28.0064 13.9879 28.075 13.126 28.292L13.0947 28.2998L13.1035 28.3311C13.478 29.7364 14.6193 32.3702 18.1104 34.5352H18.1035L18.1982 34.5938C19.3496 35.3029 20.5871 35.8544 21.8789 36.2344L21.9082 36.1807C20.0877 34.686 18.5523 32.8601 17.3809 30.7949C16.9038 29.9503 16.4966 29.0661 16.1631 28.1523L16.1572 28.1348L16.1387 28.1318L15.7607 28.0879ZM40.8789 28.2939C39.8944 28.0448 38.8719 27.9893 37.8672 28.1309L37.8486 28.1338L37.8428 28.1514C37.5093 29.0649 37.1019 29.9486 36.625 30.793C35.4535 32.8581 33.9181 34.684 32.0977 36.1787L32.127 36.2334C33.4187 35.8539 34.6561 35.3024 35.8076 34.5938C39.3748 32.4125 40.5293 29.7372 40.9004 28.333L40.9023 28.334V28.2998L40.8789 28.2939ZM36.1475 20.4238C34.9026 20.7109 33.7278 21.2541 32.6943 22.0195L32.6758 22.0322L32.6826 22.0537C33.151 23.6209 33.3835 25.2519 33.3721 26.8906C33.3721 29.4418 32.8696 31.5215 32.1592 33.1895L32.2109 33.2236C33.2258 32.1846 34.1032 31.0139 34.8213 29.7422C37.2285 25.4555 36.7289 22.0899 36.2148 20.4668C36.2132 20.4602 36.2108 20.4538 36.207 20.4482L36.1914 20.4326L36.1709 20.4238H36.1475ZM17.8135 20.4316C17.802 20.4394 17.7938 20.4507 17.79 20.4639C17.2758 22.0879 16.7757 25.4544 19.1836 29.7422C19.9023 31.0122 20.7797 32.1817 21.7939 33.2197L21.8447 33.1855C21.1343 31.5148 20.6328 29.4379 20.6328 26.8867L20.6396 26.2734C20.6831 24.843 20.9127 23.424 21.3223 22.0537L21.3281 22.0322L21.3105 22.0195C20.2772 21.2536 19.1024 20.7104 17.8574 20.4229H17.834L17.8135 20.4316Z" fill="#8ABEEF" stroke="#8ABEEF" stroke-width="0.0625"/>
</svg>
