<svg width="360" height="316" viewBox="0 0 360 316" fill="none" xmlns="http://www.w3.org/2000/svg">
<g filter="url(#filter0_n_3655_175424)">
<circle cx="181.4" cy="155" r="155" fill="url(#paint0_linear_3655_175424)"/>
</g>
<g filter="url(#filter1_iin_3655_175424)">
<path d="M111.902 253C114.027 225.193 129.402 208.667 138.402 205.5C156.235 190.165 200.402 172.299 224.402 205.499C254.402 246.999 264.903 301.503 188.903 304.003C112.903 306.503 106.401 325.004 111.902 253Z" fill="url(#paint1_linear_3655_175424)"/>
<circle cx="115.043" cy="111.305" r="25.7651" transform="rotate(3.24808 115.043 111.305)" fill="url(#paint2_linear_3655_175424)"/>
<circle cx="231.938" cy="109.789" r="25.7651" transform="rotate(3.24808 231.938 109.789)" fill="url(#paint3_linear_3655_175424)"/>
<circle cx="231.938" cy="109.789" r="25.7651" transform="rotate(3.24808 231.938 109.789)" fill="url(#paint4_linear_3655_175424)"/>
<ellipse cx="176.499" cy="154.178" rx="73.9053" ry="65.0909" transform="rotate(3.24808 176.499 154.178)" fill="url(#paint5_linear_3655_175424)"/>
<ellipse cx="176.499" cy="154.178" rx="73.9053" ry="65.0909" transform="rotate(3.24808 176.499 154.178)" fill="url(#paint6_linear_3655_175424)"/>
</g>
<g filter="url(#filter2_g_3655_175424)">
<ellipse cx="178.691" cy="162.452" rx="20.3409" ry="17.6288" transform="rotate(3.24808 178.691 162.452)" fill="url(#paint7_linear_3655_175424)"/>
</g>
<circle cx="148.806" cy="150.567" r="6.10227" transform="rotate(3.24808 148.806 150.567)" fill="#343434"/>
<ellipse cx="179.191" cy="153.654" rx="9.49242" ry="6.10227" transform="rotate(3.24808 179.191 153.654)" fill="#343434"/>
<circle cx="205.976" cy="148.38" r="6.10227" transform="rotate(3.24808 205.976 148.38)" fill="#343434"/>
<path d="M127.648 104.545C119.851 107.905 111.769 121.074 108.703 127.239C103.68 124.011 92.9286 115.613 101.248 103.046C109.567 90.4788 123.242 98.409 127.648 104.545Z" fill="url(#paint8_linear_3655_175424)"/>
<path d="M220.3 101.867C228.373 104.495 237.634 116.863 241.255 122.719C245.96 119.042 255.892 109.689 246.45 97.9419C237.008 86.1948 224.122 95.3511 220.3 101.867Z" fill="url(#paint9_linear_3655_175424)"/>
<path d="M162.992 110.842C162.981 110.852 162.769 111.696 162.436 113.462C162.08 115.35 162.417 116.95 162.796 117.934C163.085 118.685 163.925 119.406 165.141 120.257C166.414 121.149 168.157 121.264 169.886 121.314C171.746 121.368 173.281 120.596 174.392 119.894C175.514 119.186 176.228 118.148 176.736 117.149C177.276 116.088 177.32 114.795 177.355 113.533C177.422 111.078 176.481 109.673 175.761 108.793C175.49 108.462 175.02 108.483 174.627 108.479C173.801 108.471 173.052 109.685 172.675 110.578C172.419 111.186 172.565 112.11 172.809 113.114C173.09 114.267 174.635 115.333 176.457 116.487C177.356 117.055 178.307 117.406 179.277 117.704C180.246 118.001 181.232 118.189 182.243 118.312C184.253 118.558 186.184 118.136 187.855 117.206C189.457 116.315 190.192 114.897 190.597 113.83C190.89 112.733 191.05 111.354 191.057 110.026C191.025 109.51 190.919 109.311 190.583 108.922" stroke="#946345" stroke-width="2" stroke-linecap="round"/>
<g filter="url(#filter3_i_3655_175424)">
<rect x="133.4" y="296.996" width="62" height="7" rx="3" fill="#B2B2B2"/>
<rect x="133.4" y="296.996" width="62" height="7" rx="3" fill="url(#paint10_linear_3655_175424)" fill-opacity="0.2"/>
</g>
<g filter="url(#filter4_n_3655_175424)">
<path d="M147.395 299.407C109.262 291.642 107.596 229.581 125.089 221.092C134.566 216.494 154.736 228.634 151.526 242.059C148.315 255.483 158.13 269.155 174.369 271.116C201.644 274.41 195.172 296.372 179.581 299.406C171.459 300.986 147.395 299.407 147.395 299.407Z" fill="#D9D9D9"/>
<path d="M147.395 299.407C109.262 291.642 107.596 229.581 125.089 221.092C134.566 216.494 154.736 228.634 151.526 242.059C148.315 255.483 158.13 269.155 174.369 271.116C201.644 274.41 195.172 296.372 179.581 299.406C171.459 300.986 147.395 299.407 147.395 299.407Z" fill="url(#paint11_linear_3655_175424)"/>
</g>
<g filter="url(#filter5_i_3655_175424)">
<path d="M302.372 243.996L218.084 243.996C216.945 243.996 215.904 244.641 215.398 245.661L188.555 299.661C187.564 301.655 189.015 303.996 191.242 303.996L273.23 303.996C274.333 303.996 275.347 303.391 275.87 302.421L305.012 248.421C306.091 246.422 304.644 243.996 302.372 243.996Z" fill="#B2B2B2"/>
<path d="M302.372 243.996L218.084 243.996C216.945 243.996 215.904 244.641 215.398 245.661L188.555 299.661C187.564 301.655 189.015 303.996 191.242 303.996L273.23 303.996C274.333 303.996 275.347 303.391 275.87 302.421L305.012 248.421C306.091 246.422 304.644 243.996 302.372 243.996Z" fill="url(#paint12_linear_3655_175424)" fill-opacity="0.2"/>
</g>
<g filter="url(#filter6_f_3655_175424)">
<path d="M250.307 279.997L247.751 281.727C247.638 281.807 247.518 281.846 247.39 281.842C247.262 281.838 247.149 281.801 247.049 281.732C246.95 281.663 246.871 281.574 246.812 281.466C246.753 281.358 246.736 281.233 246.76 281.094L247.301 278.051L244.857 276.155C244.746 276.065 244.674 275.96 244.641 275.839C244.608 275.718 244.61 275.599 244.646 275.48C244.682 275.362 244.74 275.263 244.822 275.184C244.903 275.105 245.017 275.051 245.164 275.022L248.235 274.589L249.278 271.695C249.324 271.565 249.401 271.466 249.509 271.396C249.618 271.327 249.73 271.289 249.846 271.283C249.962 271.276 250.078 271.302 250.193 271.36C250.308 271.418 250.395 271.509 250.455 271.633L251.797 274.401L254.896 274.508C255.046 274.521 255.165 274.563 255.254 274.633C255.342 274.702 255.411 274.794 255.46 274.909C255.508 275.023 255.523 275.142 255.503 275.266C255.483 275.389 255.422 275.501 255.321 275.602L253.09 277.745L253.948 280.714C253.988 280.85 253.984 280.975 253.936 281.089C253.889 281.204 253.82 281.3 253.728 281.379C253.637 281.458 253.528 281.506 253.401 281.524C253.275 281.542 253.151 281.516 253.03 281.448L250.307 279.997Z" fill="white"/>
</g>
<rect x="51.4004" y="303" width="260" height="9" rx="4.5" fill="#E5EBF1"/>
<g filter="url(#filter7_d_3655_175424)">
<mask id="path-18-inside-1_3655_175424" fill="white">
<path fill-rule="evenodd" clip-rule="evenodd" d="M329.836 44C344.524 44 356.432 55.6406 356.432 70C356.432 84.3593 344.524 96 329.836 96C329.818 96 329.799 95.9991 329.781 95.999C329.766 95.9995 329.752 96.001 329.738 96.001H299.402C298.461 96.0006 298.042 94.8197 298.771 94.2256L308.87 85.9971C305.344 81.5856 303.241 76.033 303.241 70C303.241 55.6407 315.148 44 329.836 44Z"/>
</mask>
<path fill-rule="evenodd" clip-rule="evenodd" d="M329.836 44C344.524 44 356.432 55.6406 356.432 70C356.432 84.3593 344.524 96 329.836 96C329.818 96 329.799 95.9991 329.781 95.999C329.766 95.9995 329.752 96.001 329.738 96.001H299.402C298.461 96.0006 298.042 94.8197 298.771 94.2256L308.87 85.9971C305.344 81.5856 303.241 76.033 303.241 70C303.241 55.6407 315.148 44 329.836 44Z" fill="#F0F2F9"/>
<path d="M329.836 44V43.5H329.836L329.836 44ZM356.432 70L356.932 70V70H356.432ZM329.836 96L329.836 96.5H329.836V96ZM329.781 95.999L329.782 95.499L329.772 95.499L329.762 95.4994L329.781 95.999ZM299.402 96.001L299.402 96.501H299.402V96.001ZM298.771 94.2256L299.087 94.6132L299.087 94.6132L298.771 94.2256ZM308.87 85.9971L309.186 86.3847L309.57 86.0718L309.261 85.6848L308.87 85.9971ZM303.241 70H302.741V70L303.241 70ZM329.836 44V44.5C344.259 44.5 355.932 55.9274 355.932 70H356.432H356.932C356.932 55.3539 344.79 43.5 329.836 43.5V44ZM356.432 70L355.932 70C355.932 84.0726 344.259 95.5 329.836 95.5V96V96.5C344.79 96.5 356.932 84.6461 356.932 70L356.432 70ZM329.836 96V95.5C329.834 95.5 329.831 95.5 329.821 95.4997C329.813 95.4995 329.798 95.4991 329.782 95.499L329.781 95.999L329.78 96.499C329.782 96.499 329.785 96.4991 329.796 96.4994C329.804 96.4996 329.82 96.5 329.836 96.5L329.836 96ZM329.781 95.999L329.762 95.4994C329.754 95.4997 329.746 95.5001 329.741 95.5004C329.738 95.5005 329.736 95.5007 329.734 95.5008C329.732 95.5009 329.731 95.501 329.73 95.5011C329.728 95.5012 329.728 95.5012 329.729 95.5011C329.73 95.5011 329.733 95.501 329.738 95.501V96.001V96.501C329.76 96.501 329.78 96.4999 329.789 96.4993C329.791 96.4992 329.794 96.499 329.795 96.4989C329.797 96.4988 329.798 96.4988 329.799 96.4987C329.801 96.4986 329.801 96.4986 329.799 96.4987L329.781 95.999ZM329.738 96.001V95.501H299.402V96.001V96.501H329.738V96.001ZM299.402 96.001L299.402 95.501C298.932 95.5008 298.722 94.9106 299.087 94.6132L298.771 94.2256L298.455 93.8379C297.361 94.7289 297.99 96.5004 299.402 96.501L299.402 96.001ZM298.771 94.2256L299.087 94.6132L309.186 86.3847L308.87 85.9971L308.555 85.6094L298.455 93.838L298.771 94.2256ZM308.87 85.9971L309.261 85.6848C305.802 81.3579 303.741 75.9144 303.741 70L303.241 70L302.741 70C302.741 76.1516 304.885 81.8133 308.48 86.3093L308.87 85.9971ZM303.241 70H303.741C303.741 55.9274 315.414 44.5 329.836 44.5V44L329.836 43.5C314.883 43.5 302.741 55.3539 302.741 70H303.241Z" fill="#E5EBF1" mask="url(#path-18-inside-1_3655_175424)"/>
<circle cx="329.432" cy="70" r="14.5" fill="#FFA1CD" stroke="#F362A6"/>
<path d="M335.362 72.5694L335.36 72.5678C335.042 72.2736 334.63 72.2044 334.329 72.1537L334.307 72.1499C334.017 72.1021 333.971 72.0697 333.84 71.9521C333.762 71.8826 333.668 71.771 333.668 71.6335C333.668 71.496 333.762 71.3845 333.84 71.3149L334.81 70.4537C335.641 69.7194 336.099 68.7338 336.099 67.6783C336.099 66.6228 335.642 65.6372 334.81 64.9026C333.66 63.8901 332.086 63.332 330.375 63.332C328.398 63.332 326.42 64.0811 324.945 65.3869C323.539 66.6295 322.766 68.2943 322.766 70.0742C322.766 71.854 323.54 73.5188 324.945 74.7612C325.642 75.3778 326.467 75.8567 327.398 76.1849C328.293 76.4988 329.234 76.6613 330.182 76.6657H330.24C332.195 76.6657 334.057 76.0064 335.349 74.858C335.66 74.5836 335.835 74.1903 335.841 73.7502C335.847 73.2961 335.668 72.8544 335.362 72.5694ZM324.817 68.4604C324.817 68.2575 324.877 68.0592 324.99 67.8905C325.103 67.7219 325.263 67.5904 325.45 67.5128C325.638 67.4351 325.844 67.4148 326.043 67.4544C326.242 67.494 326.424 67.5917 326.568 67.7351C326.711 67.8785 326.809 68.0613 326.849 68.2603C326.888 68.4592 326.868 68.6654 326.79 68.8529C326.713 69.0403 326.581 69.2005 326.412 69.3132C326.244 69.4259 326.045 69.486 325.843 69.486C325.571 69.486 325.31 69.378 325.117 69.1856C324.925 68.9933 324.817 68.7324 324.817 68.4604ZM326.099 72.7874C325.896 72.7874 325.698 72.7272 325.529 72.6145C325.361 72.5018 325.229 72.3416 325.151 72.1542C325.074 71.9668 325.054 71.7606 325.093 71.5616C325.133 71.3627 325.23 71.1799 325.374 71.0365C325.517 70.893 325.7 70.7953 325.899 70.7558C326.098 70.7162 326.304 70.7365 326.492 70.8141C326.679 70.8918 326.839 71.0232 326.952 71.1919C327.065 71.3606 327.125 71.5589 327.125 71.7617C327.125 72.0337 327.017 72.2946 326.824 72.487C326.632 72.6793 326.371 72.7874 326.099 72.7874ZM327.381 66.409C327.381 66.2062 327.441 66.0079 327.554 65.8392C327.667 65.6705 327.827 65.5391 328.014 65.4614C328.202 65.3838 328.408 65.3635 328.607 65.4031C328.806 65.4426 328.989 65.5403 329.132 65.6838C329.275 65.8272 329.373 66.01 329.413 66.2089C329.452 66.4079 329.432 66.6141 329.354 66.8015C329.277 66.9889 329.145 67.1491 328.977 67.2618C328.808 67.3745 328.61 67.4347 328.407 67.4347C328.135 67.4347 327.874 67.3266 327.682 67.1343C327.489 66.9419 327.381 66.6811 327.381 66.409ZM329.432 75.0951C329.128 75.0951 328.831 75.0049 328.578 74.8359C328.325 74.6668 328.128 74.4265 328.011 74.1454C327.895 73.8643 327.864 73.5549 327.924 73.2565C327.983 72.9581 328.129 72.6839 328.345 72.4688C328.56 72.2536 328.834 72.1071 329.132 72.0477C329.431 71.9883 329.74 72.0188 330.021 72.1352C330.302 72.2517 330.543 72.4489 330.712 72.7019C330.881 72.9549 330.971 73.2524 330.971 73.5566C330.971 73.9647 330.809 74.356 330.52 74.6445C330.232 74.933 329.84 75.0951 329.432 75.0951ZM331.74 67.4347C331.537 67.4347 331.339 67.3745 331.17 67.2618C331.002 67.1491 330.87 66.9889 330.793 66.8015C330.715 66.6141 330.695 66.4079 330.734 66.2089C330.774 66.01 330.872 65.8272 331.015 65.6838C331.158 65.5403 331.341 65.4426 331.54 65.4031C331.739 65.3635 331.945 65.3838 332.133 65.4614C332.32 65.5391 332.48 65.6705 332.593 65.8392C332.706 66.0079 332.766 66.2062 332.766 66.409C332.766 66.6811 332.658 66.9419 332.465 67.1343C332.273 67.3266 332.012 67.4347 331.74 67.4347Z" fill="#F362A6"/>
</g>
<g filter="url(#filter8_d_3655_175424)">
<mask id="path-22-inside-2_3655_175424" fill="white">
<path fill-rule="evenodd" clip-rule="evenodd" d="M29.9959 148C15.3077 148 3.4002 159.641 3.4002 174C3.40024 188.359 15.3077 200 29.9959 200C30.0145 200 30.033 199.999 30.0516 199.999C30.0656 200 30.0802 200.001 30.0945 200.001H60.4295C61.3703 200.001 61.7907 198.82 61.0613 198.226L50.9617 189.997C54.4886 185.586 56.5906 180.033 56.5906 174C56.5906 159.641 44.6839 148 29.9959 148Z"/>
</mask>
<path fill-rule="evenodd" clip-rule="evenodd" d="M29.9959 148C15.3077 148 3.4002 159.641 3.4002 174C3.40024 188.359 15.3077 200 29.9959 200C30.0145 200 30.033 199.999 30.0516 199.999C30.0656 200 30.0802 200.001 30.0945 200.001H60.4295C61.3703 200.001 61.7907 198.82 61.0613 198.226L50.9617 189.997C54.4886 185.586 56.5906 180.033 56.5906 174C56.5906 159.641 44.6839 148 29.9959 148Z" fill="#F0F2F9"/>
<path d="M29.9959 148V147.5H29.9959L29.9959 148ZM3.4002 174L2.9002 174V174H3.4002ZM29.9959 200L29.9959 200.5H29.9959V200ZM30.0516 199.999L30.0506 199.499L30.0602 199.499L30.0698 199.499L30.0516 199.999ZM61.0613 198.226L60.7455 198.613L60.7455 198.613L61.0613 198.226ZM50.9617 189.997L50.6459 190.385L50.2618 190.072L50.5712 189.685L50.9617 189.997ZM56.5906 174H57.0906V174L56.5906 174ZM29.9959 148V148.5C15.5731 148.5 3.9002 159.927 3.9002 174H3.4002H2.9002C2.9002 159.354 15.0423 147.5 29.9959 147.5V148ZM3.4002 174L3.9002 174C3.90024 188.073 15.5731 199.5 29.9959 199.5V200V200.5C15.0423 200.5 2.90024 188.646 2.9002 174L3.4002 174ZM29.9959 200L29.9959 199.5C29.9977 199.5 30.0007 199.5 30.0108 199.5C30.0189 199.499 30.0343 199.499 30.0506 199.499L30.0516 199.999L30.0526 200.499C30.0503 200.499 30.0472 200.499 30.0366 200.499C30.0282 200.5 30.0126 200.5 29.9959 200.5L29.9959 200ZM30.0516 199.999L30.0698 199.499C30.0785 199.5 30.086 199.5 30.0912 199.5C30.0938 199.501 30.0963 199.501 30.098 199.501C30.1 199.501 30.1012 199.501 30.1024 199.501C30.1047 199.501 30.1046 199.501 30.1036 199.501C30.1024 199.501 30.0992 199.501 30.0945 199.501V200.001V200.501C30.0719 200.501 30.0525 200.5 30.0435 200.499C30.0411 200.499 30.0387 200.499 30.0371 200.499C30.0353 200.499 30.0342 200.499 30.0332 200.499C30.0312 200.499 30.0317 200.499 30.0333 200.499L30.0516 199.999ZM30.0945 200.001V199.501H60.4295V200.001V200.501H30.0945V200.001ZM60.4295 200.001V199.501C60.9001 199.501 61.1101 198.91 60.7455 198.613L61.0613 198.226L61.3771 197.838C62.4714 198.729 61.8405 200.501 60.4295 200.501V200.001ZM61.0613 198.226L60.7455 198.613L50.6459 190.385L50.9617 189.997L51.2775 189.609L61.3771 197.838L61.0613 198.226ZM50.9617 189.997L50.5712 189.685C54.0304 185.358 56.0906 179.914 56.0906 174L56.5906 174L57.0906 174C57.0906 180.151 54.9467 185.813 51.3523 190.309L50.9617 189.997ZM56.5906 174H56.0906C56.0906 159.928 44.4185 148.5 29.9959 148.5L29.9959 148L29.9959 147.5C44.9493 147.5 57.0906 159.354 57.0906 174H56.5906Z" fill="#E5EBF1" mask="url(#path-22-inside-2_3655_175424)"/>
<circle cx="30.4004" cy="174" r="14.5" fill="#E6F8AD" stroke="#B9D660"/>
<path fill-rule="evenodd" clip-rule="evenodd" d="M27.4371 170.295C27.4371 169.509 27.7493 168.756 28.3049 168.2C28.8606 167.644 29.6142 167.332 30.4001 167.332C31.1859 167.332 31.9395 167.644 32.4952 168.2C33.0509 168.756 33.363 169.509 33.363 170.295C33.363 171.081 33.0509 171.834 32.4952 172.39C31.9395 172.946 31.1859 173.258 30.4001 173.258C29.6142 173.258 28.8606 172.946 28.3049 172.39C27.7493 171.834 27.4371 171.081 27.4371 170.295ZM27.4371 174.739C26.4548 174.739 25.5128 175.13 24.8182 175.824C24.1236 176.519 23.7334 177.461 23.7334 178.443C23.7334 179.033 23.9675 179.598 24.3843 180.014C24.801 180.431 25.3663 180.665 25.9556 180.665H34.8445C35.4339 180.665 35.9991 180.431 36.4159 180.014C36.8326 179.598 37.0667 179.033 37.0667 178.443C37.0667 177.461 36.6765 176.519 35.9819 175.824C35.2874 175.13 34.3453 174.739 33.363 174.739H27.4371Z" fill="#B9D660"/>
</g>
<defs>
<filter id="filter0_n_3655_175424" x="26.4004" y="0" width="310" height="310" filterUnits="userSpaceOnUse" color-interpolation-filters="sRGB">
<feFlood flood-opacity="0" result="BackgroundImageFix"/>
<feBlend mode="normal" in="SourceGraphic" in2="BackgroundImageFix" result="shape"/>
<feTurbulence type="fractalNoise" baseFrequency="2 2" stitchTiles="stitch" numOctaves="3" result="noise" seed="2421" />
<feColorMatrix in="noise" type="luminanceToAlpha" result="alphaNoise" />
<feComponentTransfer in="alphaNoise" result="coloredNoise1">
<feFuncA type="discrete" tableValues="1 1 1 1 1 1 1 1 1 1 1 1 1 1 1 1 1 1 1 1 1 1 1 1 1 1 1 1 1 1 1 1 1 1 1 1 1 1 1 1 1 1 1 1 1 1 1 1 1 1 1 0 0 0 0 0 0 0 0 0 0 0 0 0 0 0 0 0 0 0 0 0 0 0 0 0 0 0 0 0 0 0 0 0 0 0 0 0 0 0 0 0 0 0 0 0 0 0 0 0 "/>
</feComponentTransfer>
<feComposite operator="in" in2="shape" in="coloredNoise1" result="noise1Clipped" />
<feFlood flood-color="rgba(255, 255, 255, 0.1)" result="color1Flood" />
<feComposite operator="in" in2="noise1Clipped" in="color1Flood" result="color1" />
<feMerge result="effect1_noise_3655_175424">
<feMergeNode in="shape" />
<feMergeNode in="color1" />
</feMerge>
</filter>
<filter id="filter1_iin_3655_175424" x="87.2773" y="80.0234" width="172.427" height="231.934" filterUnits="userSpaceOnUse" color-interpolation-filters="sRGB">
<feFlood flood-opacity="0" result="BackgroundImageFix"/>
<feBlend mode="normal" in="SourceGraphic" in2="BackgroundImageFix" result="shape"/>
<feColorMatrix in="SourceAlpha" type="matrix" values="0 0 0 0 0 0 0 0 0 0 0 0 0 0 0 0 0 0 127 0" result="hardAlpha"/>
<feOffset dx="-2" dy="-4"/>
<feGaussianBlur stdDeviation="6.2"/>
<feComposite in2="hardAlpha" operator="arithmetic" k2="-1" k3="1"/>
<feColorMatrix type="matrix" values="0 0 0 0 0.296725 0 0 0 0 0.181987 0 0 0 0 0.100032 0 0 0 0.25 0"/>
<feBlend mode="multiply" in2="shape" result="effect1_innerShadow_3655_175424"/>
<feColorMatrix in="SourceAlpha" type="matrix" values="0 0 0 0 0 0 0 0 0 0 0 0 0 0 0 0 0 0 127 0" result="hardAlpha"/>
<feOffset dx="2" dy="4"/>
<feGaussianBlur stdDeviation="7.35"/>
<feComposite in2="hardAlpha" operator="arithmetic" k2="-1" k3="1"/>
<feColorMatrix type="matrix" values="0 0 0 0 1 0 0 0 0 0.91598 0 0 0 0 0.711182 0 0 0 0.47 0"/>
<feBlend mode="plus-lighter" in2="effect1_innerShadow_3655_175424" result="effect2_innerShadow_3655_175424"/>
<feTurbulence type="fractalNoise" baseFrequency="2 2" stitchTiles="stitch" numOctaves="3" result="noise" seed="6891" />
<feColorMatrix in="noise" type="luminanceToAlpha" result="alphaNoise" />
<feComponentTransfer in="alphaNoise" result="coloredNoise1">
<feFuncA type="discrete" tableValues="1 1 1 1 1 1 1 1 1 1 1 1 1 1 1 1 1 1 1 1 1 1 1 1 1 1 1 1 1 1 1 1 1 1 1 1 1 1 1 1 1 1 1 1 1 1 1 1 1 1 1 0 0 0 0 0 0 0 0 0 0 0 0 0 0 0 0 0 0 0 0 0 0 0 0 0 0 0 0 0 0 0 0 0 0 0 0 0 0 0 0 0 0 0 0 0 0 0 0 0 "/>
</feComponentTransfer>
<feComposite operator="in" in2="effect2_innerShadow_3655_175424" in="coloredNoise1" result="noise1Clipped" />
<feFlood flood-color="rgba(255, 255, 255, 0.1)" result="color1Flood" />
<feComposite operator="in" in2="noise1Clipped" in="color1Flood" result="color1" />
<feMerge result="effect3_noise_3655_175424">
<feMergeNode in="effect2_innerShadow_3655_175424" />
<feMergeNode in="color1" />
</feMerge>
</filter>
<filter id="filter2_g_3655_175424" x="154.358" y="140.812" width="48.666" height="43.2773" filterUnits="userSpaceOnUse" color-interpolation-filters="sRGB">
<feFlood flood-opacity="0" result="BackgroundImageFix"/>
<feBlend mode="normal" in="SourceGraphic" in2="BackgroundImageFix" result="shape"/>
<feTurbulence type="fractalNoise" baseFrequency="0.99900001287460327 0.99900001287460327" numOctaves="3" seed="3106" />
<feDisplacementMap in="shape" scale="8" xChannelSelector="R" yChannelSelector="G" result="displacedImage" width="100%" height="100%" />
<feMerge result="effect1_texture_3655_175424">
<feMergeNode in="displacedImage"/>
</feMerge>
</filter>
<filter id="filter3_i_3655_175424" x="133.4" y="296.996" width="63" height="7" filterUnits="userSpaceOnUse" color-interpolation-filters="sRGB">
<feFlood flood-opacity="0" result="BackgroundImageFix"/>
<feBlend mode="normal" in="SourceGraphic" in2="BackgroundImageFix" result="shape"/>
<feColorMatrix in="SourceAlpha" type="matrix" values="0 0 0 0 0 0 0 0 0 0 0 0 0 0 0 0 0 0 127 0" result="hardAlpha"/>
<feOffset dx="1"/>
<feGaussianBlur stdDeviation="2.9"/>
<feComposite in2="hardAlpha" operator="arithmetic" k2="-1" k3="1"/>
<feColorMatrix type="matrix" values="0 0 0 0 0 0 0 0 0 0 0 0 0 0 0 0 0 0 0.25 0"/>
<feBlend mode="normal" in2="shape" result="effect1_innerShadow_3655_175424"/>
</filter>
<filter id="filter4_n_3655_175424" x="114.391" y="220.102" width="78.6631" height="80.0078" filterUnits="userSpaceOnUse" color-interpolation-filters="sRGB">
<feFlood flood-opacity="0" result="BackgroundImageFix"/>
<feBlend mode="normal" in="SourceGraphic" in2="BackgroundImageFix" result="shape"/>
<feTurbulence type="fractalNoise" baseFrequency="2 2" stitchTiles="stitch" numOctaves="3" result="noise" seed="6891" />
<feColorMatrix in="noise" type="luminanceToAlpha" result="alphaNoise" />
<feComponentTransfer in="alphaNoise" result="coloredNoise1">
<feFuncA type="discrete" tableValues="1 1 1 1 1 1 1 1 1 1 1 1 1 1 1 1 1 1 1 1 1 1 1 1 1 1 1 1 1 1 1 1 1 1 1 1 1 1 1 1 1 1 1 1 1 1 1 1 1 1 1 0 0 0 0 0 0 0 0 0 0 0 0 0 0 0 0 0 0 0 0 0 0 0 0 0 0 0 0 0 0 0 0 0 0 0 0 0 0 0 0 0 0 0 0 0 0 0 0 0 "/>
</feComponentTransfer>
<feComposite operator="in" in2="shape" in="coloredNoise1" result="noise1Clipped" />
<feFlood flood-color="rgba(255, 255, 255, 0.1)" result="color1Flood" />
<feComposite operator="in" in2="noise1Clipped" in="color1Flood" result="color1" />
<feMerge result="effect1_noise_3655_175424">
<feMergeNode in="shape" />
<feMergeNode in="color1" />
</feMerge>
</filter>
<filter id="filter5_i_3655_175424" x="188.238" y="243.996" width="118.139" height="60" filterUnits="userSpaceOnUse" color-interpolation-filters="sRGB">
<feFlood flood-opacity="0" result="BackgroundImageFix"/>
<feBlend mode="normal" in="SourceGraphic" in2="BackgroundImageFix" result="shape"/>
<feColorMatrix in="SourceAlpha" type="matrix" values="0 0 0 0 0 0 0 0 0 0 0 0 0 0 0 0 0 0 127 0" result="hardAlpha"/>
<feOffset dx="1"/>
<feGaussianBlur stdDeviation="2.9"/>
<feComposite in2="hardAlpha" operator="arithmetic" k2="-1" k3="1"/>
<feColorMatrix type="matrix" values="0 0 0 0 0 0 0 0 0 0 0 0 0 0 0 0 0 0 0.25 0"/>
<feBlend mode="normal" in2="shape" result="effect1_innerShadow_3655_175424"/>
</filter>
<filter id="filter6_f_3655_175424" x="242.518" y="269.181" width="15.0936" height="14.7625" filterUnits="userSpaceOnUse" color-interpolation-filters="sRGB">
<feFlood flood-opacity="0" result="BackgroundImageFix"/>
<feBlend mode="normal" in="SourceGraphic" in2="BackgroundImageFix" result="shape"/>
<feGaussianBlur stdDeviation="1.05" result="effect1_foregroundBlur_3655_175424"/>
</filter>
<filter id="filter7_d_3655_175424" x="295" y="42.6" width="64.8313" height="58.8" filterUnits="userSpaceOnUse" color-interpolation-filters="sRGB">
<feFlood flood-opacity="0" result="BackgroundImageFix"/>
<feColorMatrix in="SourceAlpha" type="matrix" values="0 0 0 0 0 0 0 0 0 0 0 0 0 0 0 0 0 0 127 0" result="hardAlpha"/>
<feOffset dy="2"/>
<feGaussianBlur stdDeviation="1.7"/>
<feComposite in2="hardAlpha" operator="out"/>
<feColorMatrix type="matrix" values="0 0 0 0 0 0 0 0 0 0 0 0 0 0 0 0 0 0 0.11 0"/>
<feBlend mode="normal" in2="BackgroundImageFix" result="effect1_dropShadow_3655_175424"/>
<feBlend mode="normal" in="SourceGraphic" in2="effect1_dropShadow_3655_175424" result="shape"/>
</filter>
<filter id="filter8_d_3655_175424" x="0.00039053" y="146.6" width="64.8313" height="58.8" filterUnits="userSpaceOnUse" color-interpolation-filters="sRGB">
<feFlood flood-opacity="0" result="BackgroundImageFix"/>
<feColorMatrix in="SourceAlpha" type="matrix" values="0 0 0 0 0 0 0 0 0 0 0 0 0 0 0 0 0 0 127 0" result="hardAlpha"/>
<feOffset dy="2"/>
<feGaussianBlur stdDeviation="1.7"/>
<feComposite in2="hardAlpha" operator="out"/>
<feColorMatrix type="matrix" values="0 0 0 0 0 0 0 0 0 0 0 0 0 0 0 0 0 0 0.11 0"/>
<feBlend mode="normal" in2="BackgroundImageFix" result="effect1_dropShadow_3655_175424"/>
<feBlend mode="normal" in="SourceGraphic" in2="effect1_dropShadow_3655_175424" result="shape"/>
</filter>
<linearGradient id="paint0_linear_3655_175424" x1="181.886" y1="-60.2508" x2="181.4" y2="310" gradientUnits="userSpaceOnUse">
<stop stop-color="#A5D0F8"/>
<stop offset="0.982003" stop-color="#E6F4FF"/>
</linearGradient>
<linearGradient id="paint1_linear_3655_175424" x1="177.371" y1="188.289" x2="177.371" y2="304.233" gradientUnits="userSpaceOnUse">
<stop stop-color="#7B5B4D"/>
<stop offset="1" stop-color="#815027"/>
</linearGradient>
<linearGradient id="paint2_linear_3655_175424" x1="115.043" y1="85.5395" x2="123.858" y2="120.797" gradientUnits="userSpaceOnUse">
<stop stop-color="#AC8270"/>
<stop offset="1" stop-color="#815027"/>
</linearGradient>
<linearGradient id="paint3_linear_3655_175424" x1="231.938" y1="84.0239" x2="231.938" y2="135.554" gradientUnits="userSpaceOnUse">
<stop stop-color="#7B5B4D"/>
<stop offset="1" stop-color="#815027"/>
</linearGradient>
<linearGradient id="paint4_linear_3655_175424" x1="231.938" y1="84.0239" x2="231.938" y2="135.554" gradientUnits="userSpaceOnUse">
<stop stop-color="#AC8270"/>
<stop offset="0.722281" stop-color="#815027"/>
</linearGradient>
<linearGradient id="paint5_linear_3655_175424" x1="176.499" y1="89.0868" x2="176.499" y2="219.269" gradientUnits="userSpaceOnUse">
<stop stop-color="#7B5B4D"/>
<stop offset="1" stop-color="#815027"/>
</linearGradient>
<linearGradient id="paint6_linear_3655_175424" x1="174.197" y1="40.4896" x2="175.972" y2="219.269" gradientUnits="userSpaceOnUse">
<stop stop-color="#CC9467"/>
<stop offset="1" stop-color="#6F4C3D"/>
</linearGradient>
<linearGradient id="paint7_linear_3655_175424" x1="176.657" y1="147.536" x2="175.1" y2="175.016" gradientUnits="userSpaceOnUse">
<stop stop-color="#E2B691"/>
<stop offset="1" stop-color="#B58160"/>
</linearGradient>
<linearGradient id="paint8_linear_3655_175424" x1="107.437" y1="92.2827" x2="121.587" y2="113.471" gradientUnits="userSpaceOnUse">
<stop stop-color="#D0A98A"/>
<stop offset="1" stop-color="#8F5B3B"/>
</linearGradient>
<linearGradient id="paint9_linear_3655_175424" x1="239.295" y1="87.7948" x2="227.158" y2="110.196" gradientUnits="userSpaceOnUse">
<stop stop-color="#D0A98A"/>
<stop offset="1" stop-color="#8F5B3B"/>
</linearGradient>
<linearGradient id="paint10_linear_3655_175424" x1="164.4" y1="296.996" x2="164.4" y2="303.996" gradientUnits="userSpaceOnUse">
<stop/>
<stop offset="1" stop-color="#EBEBEB"/>
</linearGradient>
<linearGradient id="paint11_linear_3655_175424" x1="129.395" y1="216.5" x2="176.508" y2="318.921" gradientUnits="userSpaceOnUse">
<stop stop-color="#6F4C3D"/>
<stop offset="1" stop-color="#CC9467"/>
</linearGradient>
<linearGradient id="paint12_linear_3655_175424" x1="246.9" y1="243.996" x2="246.9" y2="303.996" gradientUnits="userSpaceOnUse">
<stop/>
<stop offset="1" stop-color="#EBEBEB"/>
</linearGradient>
</defs>
</svg>
